<?xml version="1.0" encoding="UTF-8" standalone="no"?>
<svg
   xmlns:dc="http://purl.org/dc/elements/1.1/"
   xmlns:cc="http://creativecommons.org/ns#"
   xmlns:rdf="http://www.w3.org/1999/02/22-rdf-syntax-ns#"
   xmlns:svg="http://www.w3.org/2000/svg"
   xmlns="http://www.w3.org/2000/svg"
   xmlns:sodipodi="http://sodipodi.sourceforge.net/DTD/sodipodi-0.dtd"
   xmlns:inkscape="http://www.inkscape.org/namespaces/inkscape"
   width="179.05618"
   height="249.05431"
   id="svg4075"
   version="1.1"
   inkscape:version="0.48.4 r9939"
   sodipodi:docname="motorMount_lh.dxf">
  <metadata
     id="metadata4147">
    <rdf:RDF>
      <cc:Work
         rdf:about="">
        <dc:format>image/svg+xml</dc:format>
        <dc:type
           rdf:resource="http://purl.org/dc/dcmitype/StillImage" />
        <dc:title></dc:title>
      </cc:Work>
    </rdf:RDF>
  </metadata>
  <sodipodi:namedview
     pagecolor="#ffffff"
     bordercolor="#666666"
     borderopacity="1"
     objecttolerance="10"
     gridtolerance="10"
     guidetolerance="10"
     inkscape:pageopacity="0"
     inkscape:pageshadow="2"
     inkscape:window-width="1366"
     inkscape:window-height="715"
     id="namedview4145"
     showgrid="false"
     fit-margin-top="0"
     fit-margin-left="0"
     fit-margin-right="0"
     fit-margin-bottom="0"
     inkscape:zoom="0.8280273"
     inkscape:cx="102.56072"
     inkscape:cy="82.494493"
     inkscape:window-x="-8"
     inkscape:window-y="-8"
     inkscape:window-maximized="1"
     inkscape:current-layer="g4095" />
  <desc
     id="desc4077">C:\Users\Chris\Documents\GitHub\2dSketchy\motorMount_lh.dxf - scale = 1.000000</desc>
  <defs
     id="defs4079">
    <marker
       refY="0"
       refX="0"
       style="overflow:visible"
       id="DistanceX"
       orient="auto">
      <path
         style="stroke:#000000;stroke-width:0.5"
         d="M 3,-3 -3,3 M 0,-5 0,5"
         id="path4082"
         inkscape:connector-curvature="0" />
    </marker>
    <pattern
       height="8"
       width="8"
       patternUnits="userSpaceOnUse"
       y="0"
       x="0"
       id="Hatch">
      <path
         linecap="square"
         stroke="#000000"
         stroke-width="0.25"
         d="M8 4 l-4,4"
         id="path4085" />
      <path
         linecap="square"
         stroke="#000000"
         stroke-width="0.25"
         d="M6 2 l-4,4"
         id="path4087" />
      <path
         linecap="square"
         stroke="#000000"
         stroke-width="0.25"
         d="M4 0 l-4,4"
         id="path4089" />
    </pattern>
    <symbol
       id="*Model_Space" />
    <symbol
       id="*Paper_Space" />
  </defs>
  <g
     inkscape:label="0"
     inkscape:groupmode="layer"
     id="g4093"
     transform="translate(-485.85718,-50.671572)" />
  <g
     inkscape:label="Default"
     inkscape:groupmode="layer"
     id="g4095"
     transform="translate(-485.85718,-50.671572)">
    <path
       style="fill:none;stroke:#000000;stroke-linecap:round"
       d="m 486.41414,299.22506 0,-248.031492"
       id="path4097"
       inkscape:connector-curvature="0" />
    <path
       style="fill:none;stroke:#000000;stroke-linecap:round"
       d="m 486.41414,51.193568 177.98733,0"
       id="path4099"
       inkscape:connector-curvature="0" />
    <path
       style="fill:none;stroke:#000000;stroke-linecap:round"
       d="m 664.40147,51.193568 0,248.031492"
       id="path4101"
       inkscape:connector-curvature="0" />
    <path
       style="fill:none;stroke:#000000;stroke-linecap:round"
       d="m 664.40147,299.22506 -177.98733,0"
       id="path4103"
       inkscape:connector-curvature="0" />
    <path
       style="fill:none;stroke:#000000;stroke-linecap:round"
       d="m 632.54935,96.367931 a 103.64173,103.64173 0 0 0 1.57456,-17.997198"
       id="path4105"
       inkscape:connector-curvature="0" />
    <path
       style="fill:none;stroke:#000000;stroke-linecap:round"
       d="m 644.76252,98.521442 a 116.04331,116.04331 0 0 0 1.76296,-20.150709"
       id="path4107"
       inkscape:connector-curvature="0" />
    <path
       style="fill:none;stroke:#000000;stroke-linecap:round"
       d="m 646.52548,78.370733 a 6.2007875,6.2007875 0 0 0 -12.40157,0"
       id="path4109"
       inkscape:connector-curvature="0" />
    <path
       style="fill:none;stroke:#000000;stroke-linecap:round"
       d="m 632.54935,96.367931 a 6.2007889,6.2007889 0 0 0 12.21317,2.153511"
       id="path4111"
       inkscape:connector-curvature="0" />
    <path
       style="fill:none;stroke:#000000;stroke-linecap:round"
       d="m 536.68296,78.370733 a 6.2007875,6.2007875 0 1 0 -12.40157,0 6.2007875,6.2007875 0 1 0 12.40157,0 z"
       id="path4113"
       inkscape:connector-curvature="0" />
    <path
       style="fill:none;stroke:#000000;stroke-linecap:round"
       d="m 614.24323,200.1871 a 147.83485,147.83485 0 0 0 19.88068,-16.39562"
       id="path4115"
       inkscape:connector-curvature="0" />
    <path
       style="fill:none;stroke:#000000;stroke-linecap:round"
       d="m 621.26978,210.40604 a 160.23643,160.23643 0 0 0 21.54843,-17.77102"
       id="path4117"
       inkscape:connector-curvature="0" />
    <path
       style="fill:none;stroke:#000000;stroke-linecap:round"
       d="m 642.81821,192.63502 a 6.2007873,6.2007873 0 1 0 -8.6943,-8.84354"
       id="path4119"
       inkscape:connector-curvature="0" />
    <path
       style="fill:none;stroke:#000000;stroke-linecap:round"
       d="m 614.24323,200.1871 a 6.2007891,6.2007891 0 0 0 7.02655,10.21894"
       id="path4121"
       inkscape:connector-curvature="0" />
    <path
       style="fill:none;stroke:#000000;stroke-linecap:round"
       d="m 511.40822,186.5445 a 109.84252,109.84252 0 0 0 19.07395,1.66875"
       id="path4123"
       inkscape:connector-curvature="0" />
    <path
       style="fill:none;stroke:#000000;stroke-linecap:round"
       d="m 509.25471,198.75767 a 122.24409,122.24409 0 0 0 21.22746,1.85716"
       id="path4125"
       inkscape:connector-curvature="0" />
    <path
       style="fill:none;stroke:#000000;stroke-linecap:round"
       d="m 530.48217,200.61483 a 6.20079,6.20079 0 0 0 0,-12.40158"
       id="path4127"
       inkscape:connector-curvature="0" />
    <path
       style="fill:none;stroke:#000000;stroke-linecap:round"
       d="m 511.40822,186.5445 a 6.2007888,6.2007888 0 0 0 -2.15351,12.21317"
       id="path4129"
       inkscape:connector-curvature="0" />
    <path
       style="fill:none;stroke:#000000;stroke-linecap:round"
       d="m 549.27547,105.70242 a 33.169394,33.169394 0 0 0 4.46058,-3.67866"
       id="path4131"
       inkscape:connector-curvature="0" />
    <path
       style="fill:none;stroke:#000000;stroke-linecap:round"
       d="m 595.44994,172.85542 a 114.66546,114.66546 0 0 0 15.42009,-12.71697"
       id="path4133"
       inkscape:connector-curvature="0" />
    <path
       style="fill:none;stroke:#000000;stroke-linecap:round"
       d="M 610.87003,160.13845 A 40.748033,40.748033 0 0 0 553.73605,102.02376"
       id="path4135"
       inkscape:connector-curvature="0" />
    <path
       style="fill:none;stroke:#000000;stroke-linecap:round"
       d="m 549.27547,105.70242 a 40.748031,40.748031 0 1 0 46.17447,67.153"
       id="path4137"
       inkscape:connector-curvature="0" />
    <path
       style="fill:none;stroke:#000000;stroke-linecap:round"
       d="m 522.2582,253.4439 a 7.086615,7.086615 0 1 0 -14.17323,0 7.086615,7.086615 0 1 0 14.17323,0 z"
       id="path4139"
       inkscape:connector-curvature="0" />
    <path
       style="fill:none;stroke:#000000;stroke-linecap:round"
       d="m 642.73064,253.4439 a 7.086615,7.086615 0 1 0 -14.17323,0 7.086615,7.086615 0 1 0 14.17323,0 z"
       id="path4141"
       inkscape:connector-curvature="0" />
    <path
       style="fill:none;stroke:#000000;stroke-linecap:round"
       d="m 582.49442,281.50853 a 7.086615,7.086615 0 1 0 -14.17323,0 7.086615,7.086615 0 1 0 14.17323,0 z"
       id="path4143"
       inkscape:connector-curvature="0" />
  </g>
</svg>
