999
Inkscape export via "Better DXF Output" (bob@bobcookdev.com)
  0
SECTION
  2
HEADER
  9
$ACADVER
  1
AC1014
  9
$HANDSEED
  5
FFFF
  0
ENDSEC
  0
SECTION
  2
TABLES
  0
TABLE
  2
VPORT
  5
8
330
0
100
AcDbSymbolTable
 70
     4
  0
VPORT
  5
2E
330
8
100
AcDbSymbolTableRecord
100
AcDbViewportTableRecord
  2
*ACTIVE
 70
     0
 10
0.0
 20
0.0
 11
1.0
 21
1.0
 12
4.25
 22
5.5
 13
0.0
 23
0.0
 14
10.0
 24
10.0
 15
10.0
 25
10.0
 16
0.0
 26
0.0
 36
1.0
 17
0.0
 27
0.0
 37
0.0
 40
11
 41
1.24
 42
50.0
 43
0.0
 44
0.0
 50
0.0
 51
0.0
 71
     0
 72
   100
 73
     1
 74
     3
 75
     0
 76
     0
 77
     0
 78
     0
  0
ENDTAB
  0
TABLE
  2
LTYPE
  5
5
330
0
100
AcDbSymbolTable
 70
     1
  0
LTYPE
  5
14
330
5
100
AcDbSymbolTableRecord
100
AcDbLinetypeTableRecord
  2
BYBLOCK
 70
     0
  3

 72
    65
 73
     0
 40
0.0
  0
LTYPE
  5
15
330
5
100
AcDbSymbolTableRecord
100
AcDbLinetypeTableRecord
  2
BYLAYER
 70
     0
  3

 72
    65
 73
     0
 40
0.0
  0
LTYPE
  5
16
330
5
100
AcDbSymbolTableRecord
100
AcDbLinetypeTableRecord
  2
CONTINUOUS
 70
     0
  3
Solid line
 72
    65
 73
     0
 40
0.0
  0
ENDTAB
  0
TABLE
  2
LAYER
  5
2
330
0
100
AcDbSymbolTable
 70
1
  0
LAYER
  5
10
330
2
100
AcDbSymbolTableRecord
100
AcDbLayerTableRecord
  2
0
 70
     0
 62
     7
  6
CONTINUOUS
  0
ENDTAB
  0
TABLE
  2
STYLE
  5
3
330
0
100
AcDbSymbolTable
 70
     1
  0
STYLE
  5
11
330
3
100
AcDbSymbolTableRecord
100
AcDbTextStyleTableRecord
  2
STANDARD
 70
     0
 40
0.0
 41
1.0
 50
0.0
 71
     0
 42
2.5
  3
txt
  4

  0
ENDTAB
  0
TABLE
  2
VIEW
  5
6
330
0
100
AcDbSymbolTable
 70
     0
  0
ENDTAB
  0
TABLE
  2
UCS
  5
7
330
0
100
AcDbSymbolTable
 70
     0
  0
ENDTAB
  0
TABLE
  2
APPID
  5
9
330
0
100
AcDbSymbolTable
 70
     2
  0
APPID
  5
12
330
9
100
AcDbSymbolTableRecord
100
AcDbRegAppTableRecord
  2
ACAD
 70
     0
  0
ENDTAB
  0
TABLE
  2
DIMSTYLE
  5
A
330
0
100
AcDbSymbolTable
 70
     1
  0
DIMSTYLE
105
27
330
A
100
AcDbSymbolTableRecord
100
AcDbDimStyleTableRecord
  2
ISO-25
 70
     0
  3

  4

  5

  6

  7

 40
1.0
 41
2.5
 42
0.625
 43
3.75
 44
1.25
 45
0.0
 46
0.0
 47
0.0
 48
0.0
140
2.5
141
2.5
142
0.0
143
0.03937007874016
144
1.0
145
0.0
146
1.0
147
0.625
 71
     0
 72
     0
 73
     0
 74
     0
 75
     0
 76
     0
 77
     1
 78
     8
170
     0
171
     3
172
     1
173
     0
174
     0
175
     0
176
     0
177
     0
178
     0
270
     2
271
     2
272
     2
273
     2
274
     3
340
11
275
     0
280
     0
281
     0
282
     0
283
     0
284
     8
285
     0
286
     0
287
     3
288
     0
  0
ENDTAB
  0
TABLE
  2
BLOCK_RECORD
  5
1
330
0
100
AcDbSymbolTable
 70
     1
  0
BLOCK_RECORD
  5
1F
330
1
100
AcDbSymbolTableRecord
100
AcDbBlockTableRecord
  2
*MODEL_SPACE
  0
BLOCK_RECORD
  5
1B
330
1
100
AcDbSymbolTableRecord
100
AcDbBlockTableRecord
  2
*PAPER_SPACE
  0
ENDTAB
  0
ENDSEC
  0
SECTION
  2
BLOCKS
  0
BLOCK
  5
20
330
1F
100
AcDbEntity
  8
0
100
AcDbBlockBegin
  2
*MODEL_SPACE
 70
     0
 10
0.0
 20
0.0
 30
0.0
  3
*MODEL_SPACE
  1

  0
ENDBLK
  5
21
330
1F
100
AcDbEntity
  8
0
100
AcDbBlockEnd
  0
BLOCK
  5
1C
330
1B
100
AcDbEntity
 67
     1
  8
0
100
AcDbBlockBegin
  2
*PAPER_SPACE
  1

  0
ENDBLK
  5
1D
330
1B
100
AcDbEntity
 67
     1
  8
0
100
AcDbBlockEnd
  0
ENDSEC
  0
SECTION
  2
ENTITIES
0
LINE
8
Layer 1
62
4
5
100
100
AcDbEntity
100
AcDbLine
10
0.846667
20
71.135327
30
0.0
11
-0.846667
21
69.441994
31
0.0
0
LINE
8
Layer 1
62
4
5
101
100
AcDbEntity
100
AcDbLine
10
0.000000
20
71.699772
30
0.0
11
0.000000
21
68.877550
31
0.0
0
LINE
8
Layer 1
62
4
5
102
100
AcDbEntity
100
AcDbLine
10
2.257778
20
69.159772
30
0.0
11
1.128889
21
68.030883
31
0.0
0
LINE
8
Layer 1
62
4
5
103
100
AcDbEntity
100
AcDbLine
10
1.693333
20
69.724216
30
0.0
11
0.564444
21
68.595327
31
0.0
0
LINE
8
Layer 1
62
4
5
104
100
AcDbEntity
100
AcDbLine
10
1.128889
20
70.288661
30
0.0
11
0.000000
21
69.159772
31
0.0
0
LINE
8
Default
62
4
5
105
100
AcDbEntity
100
AcDbLine
10
137.276880
20
-14.159301
30
0.0
11
137.276880
21
55.840698
31
0.0
0
LINE
8
Default
62
4
5
106
100
AcDbEntity
100
AcDbLine
10
137.276880
20
55.840698
30
0.0
11
187.508859
21
55.840698
31
0.0
0
LINE
8
Default
62
4
5
107
100
AcDbEntity
100
AcDbLine
10
187.508859
20
55.840698
30
0.0
11
187.508859
21
-14.159301
31
0.0
0
LINE
8
Default
62
4
5
108
100
AcDbEntity
100
AcDbLine
10
187.508859
20
-14.159301
30
0.0
11
137.276880
21
-14.159301
31
0.0
0
LINE
8
Default
62
4
5
109
100
AcDbEntity
100
AcDbLine
10
178.519483
20
43.091489
30
0.0
11
178.852553
21
45.621393
31
0.0
0
LINE
8
Default
62
4
5
10a
100
AcDbEntity
100
AcDbLine
10
178.852553
20
45.621393
30
0.0
11
178.963859
21
48.170698
31
0.0
0
LINE
8
Default
62
4
5
10b
100
AcDbEntity
100
AcDbLine
10
181.966311
20
42.483721
30
0.0
11
182.339234
21
45.316348
31
0.0
0
LINE
8
Default
62
4
5
10c
100
AcDbEntity
100
AcDbLine
10
182.339234
20
45.316348
30
0.0
11
182.463858
21
48.170698
31
0.0
0
LINE
8
Default
62
4
5
10d
100
AcDbEntity
100
AcDbLine
10
182.463858
20
48.170698
30
0.0
11
182.325882
21
48.851373
31
0.0
0
LINE
8
Default
62
4
5
10e
100
AcDbEntity
100
AcDbLine
10
182.325882
20
48.851373
30
0.0
11
181.950740
21
49.407119
31
0.0
0
LINE
8
Default
62
4
5
10f
100
AcDbEntity
100
AcDbLine
10
181.950740
20
49.407119
30
0.0
11
181.394656
21
49.781762
31
0.0
0
LINE
8
Default
62
4
5
110
100
AcDbEntity
100
AcDbLine
10
181.394656
20
49.781762
30
0.0
11
180.713858
21
49.919127
31
0.0
0
LINE
8
Default
62
4
5
111
100
AcDbEntity
100
AcDbLine
10
180.713858
20
49.919127
30
0.0
11
180.033060
21
49.781762
31
0.0
0
LINE
8
Default
62
4
5
112
100
AcDbEntity
100
AcDbLine
10
180.033060
20
49.781762
30
0.0
11
179.476977
21
49.407119
31
0.0
0
LINE
8
Default
62
4
5
113
100
AcDbEntity
100
AcDbLine
10
179.476977
20
49.407119
30
0.0
11
179.101835
21
48.851373
31
0.0
0
LINE
8
Default
62
4
5
114
100
AcDbEntity
100
AcDbLine
10
179.101835
20
48.851373
30
0.0
11
178.963859
21
48.170698
31
0.0
0
LINE
8
Default
62
4
5
115
100
AcDbEntity
100
AcDbLine
10
178.519483
20
43.091489
30
0.0
11
178.536676
21
42.396813
31
0.0
0
LINE
8
Default
62
4
5
116
100
AcDbEntity
100
AcDbLine
10
178.536676
20
42.396813
30
0.0
11
178.809441
21
41.783921
31
0.0
0
LINE
8
Default
62
4
5
117
100
AcDbEntity
100
AcDbLine
10
178.809441
20
41.783921
30
0.0
11
179.292115
21
41.318021
31
0.0
0
LINE
8
Default
62
4
5
118
100
AcDbEntity
100
AcDbLine
10
179.292115
20
41.318021
30
0.0
11
179.939036
21
41.064319
31
0.0
0
LINE
8
Default
62
4
5
119
100
AcDbEntity
100
AcDbLine
10
179.939036
20
41.064319
30
0.0
11
180.633713
21
41.081461
31
0.0
0
LINE
8
Default
62
4
5
11a
100
AcDbEntity
100
AcDbLine
10
180.633713
20
41.081461
30
0.0
11
181.246626
21
41.354179
31
0.0
0
LINE
8
Default
62
4
5
11b
100
AcDbEntity
100
AcDbLine
10
181.246626
20
41.354179
30
0.0
11
181.712562
21
41.836818
31
0.0
0
LINE
8
Default
62
4
5
11c
100
AcDbEntity
100
AcDbLine
10
181.712562
20
41.836818
30
0.0
11
181.966311
21
42.483721
31
0.0
0
LINE
8
Default
62
4
5
11d
100
AcDbEntity
100
AcDbLine
10
151.463858
20
48.170698
30
0.0
11
151.229926
21
49.046362
31
0.0
0
LINE
8
Default
62
4
5
11e
100
AcDbEntity
100
AcDbLine
10
151.229926
20
49.046362
30
0.0
11
150.589312
21
49.687552
31
0.0
0
LINE
8
Default
62
4
5
11f
100
AcDbEntity
100
AcDbLine
10
150.589312
20
49.687552
30
0.0
11
149.713858
21
49.922270
31
0.0
0
LINE
8
Default
62
4
5
120
100
AcDbEntity
100
AcDbLine
10
149.713858
20
49.922270
30
0.0
11
148.838405
21
49.687552
31
0.0
0
LINE
8
Default
62
4
5
121
100
AcDbEntity
100
AcDbLine
10
148.838405
20
49.687552
30
0.0
11
148.197790
21
49.046362
31
0.0
0
LINE
8
Default
62
4
5
122
100
AcDbEntity
100
AcDbLine
10
148.197790
20
49.046362
30
0.0
11
147.963859
21
48.170698
31
0.0
0
LINE
8
Default
62
4
5
123
100
AcDbEntity
100
AcDbLine
10
147.963859
20
48.170698
30
0.0
11
148.197790
21
47.295034
31
0.0
0
LINE
8
Default
62
4
5
124
100
AcDbEntity
100
AcDbLine
10
148.197790
20
47.295034
30
0.0
11
148.838405
21
46.653844
31
0.0
0
LINE
8
Default
62
4
5
125
100
AcDbEntity
100
AcDbLine
10
148.838405
20
46.653844
30
0.0
11
149.713858
21
46.419127
31
0.0
0
LINE
8
Default
62
4
5
126
100
AcDbEntity
100
AcDbLine
10
149.713858
20
46.419127
30
0.0
11
150.589312
21
46.653844
31
0.0
0
LINE
8
Default
62
4
5
127
100
AcDbEntity
100
AcDbLine
10
150.589312
20
46.653844
30
0.0
11
151.229926
21
47.295034
31
0.0
0
LINE
8
Default
62
4
5
128
100
AcDbEntity
100
AcDbLine
10
151.229926
20
47.295034
30
0.0
11
151.463858
21
48.170698
31
0.0
0
LINE
8
Default
62
4
5
129
100
AcDbEntity
100
AcDbLine
10
151.463858
20
48.170698
30
0.0
11
151.463858
21
48.170698
31
0.0
0
LINE
8
Default
62
4
5
12a
100
AcDbEntity
100
AcDbLine
10
173.353089
20
13.791413
30
0.0
11
176.259488
21
15.982531
31
0.0
0
LINE
8
Default
62
4
5
12b
100
AcDbEntity
100
AcDbLine
10
176.259488
20
15.982531
30
0.0
11
178.963859
21
18.418621
31
0.0
0
LINE
8
Default
62
4
5
12c
100
AcDbEntity
100
AcDbLine
10
175.336138
20
10.907401
30
0.0
11
178.486349
21
13.282328
31
0.0
0
LINE
8
Default
62
4
5
12d
100
AcDbEntity
100
AcDbLine
10
178.486349
20
13.282328
30
0.0
11
181.417584
21
15.922777
31
0.0
0
LINE
8
Default
62
4
5
12e
100
AcDbEntity
100
AcDbLine
10
181.417584
20
15.922777
30
0.0
11
181.877220
21
16.703403
31
0.0
0
LINE
8
Default
62
4
5
12f
100
AcDbEntity
100
AcDbLine
10
181.877220
20
16.703403
30
0.0
11
181.884950
21
17.609263
31
0.0
0
LINE
8
Default
62
4
5
130
100
AcDbEntity
100
AcDbLine
10
181.884950
20
17.609263
30
0.0
11
181.438702
21
18.397619
31
0.0
0
LINE
8
Default
62
4
5
131
100
AcDbEntity
100
AcDbLine
10
181.438702
20
18.397619
30
0.0
11
180.658054
21
18.857219
31
0.0
0
LINE
8
Default
62
4
5
132
100
AcDbEntity
100
AcDbLine
10
180.658054
20
18.857219
30
0.0
11
179.752194
21
18.864906
31
0.0
0
LINE
8
Default
62
4
5
133
100
AcDbEntity
100
AcDbLine
10
179.752194
20
18.864906
30
0.0
11
178.963859
21
18.418621
31
0.0
0
LINE
8
Default
62
4
5
134
100
AcDbEntity
100
AcDbLine
10
173.353089
20
13.791413
30
0.0
11
172.869804
21
13.292135
31
0.0
0
LINE
8
Default
62
4
5
135
100
AcDbEntity
100
AcDbLine
10
172.869804
20
13.292135
30
0.0
11
172.624002
21
12.667961
31
0.0
0
LINE
8
Default
62
4
5
136
100
AcDbEntity
100
AcDbLine
10
172.624002
20
12.667961
30
0.0
11
172.630166
21
11.997160
31
0.0
0
LINE
8
Default
62
4
5
137
100
AcDbEntity
100
AcDbLine
10
172.630166
20
11.997160
30
0.0
11
172.902781
21
11.358002
31
0.0
0
LINE
8
Default
62
4
5
138
100
AcDbEntity
100
AcDbLine
10
172.902781
20
11.358002
30
0.0
11
173.402001
21
10.874657
31
0.0
0
LINE
8
Default
62
4
5
139
100
AcDbEntity
100
AcDbLine
10
173.402001
20
10.874657
30
0.0
11
174.026145
21
10.628779
31
0.0
0
LINE
8
Default
62
4
5
13a
100
AcDbEntity
100
AcDbLine
10
174.026145
20
10.628779
30
0.0
11
174.696947
21
10.634863
31
0.0
0
LINE
8
Default
62
4
5
13b
100
AcDbEntity
100
AcDbLine
10
174.696947
20
10.634863
30
0.0
11
175.336138
21
10.907401
31
0.0
0
LINE
8
Default
62
4
5
13c
100
AcDbEntity
100
AcDbLine
10
144.330764
20
17.641657
30
0.0
11
147.012029
21
17.288663
31
0.0
0
LINE
8
Default
62
4
5
13d
100
AcDbEntity
100
AcDbLine
10
147.012029
20
17.288663
30
0.0
11
149.713857
21
17.170699
31
0.0
0
LINE
8
Default
62
4
5
13e
100
AcDbEntity
100
AcDbLine
10
143.722996
20
14.194830
30
0.0
11
146.706984
21
13.801980
31
0.0
0
LINE
8
Default
62
4
5
13f
100
AcDbEntity
100
AcDbLine
10
146.706984
20
13.801980
30
0.0
11
149.713857
21
13.670698
31
0.0
0
LINE
8
Default
62
4
5
140
100
AcDbEntity
100
AcDbLine
10
149.713857
20
13.670698
30
0.0
11
150.588857
21
13.905153
31
0.0
0
LINE
8
Default
62
4
5
141
100
AcDbEntity
100
AcDbLine
10
150.588857
20
13.905153
30
0.0
11
151.229402
21
14.545698
31
0.0
0
LINE
8
Default
62
4
5
142
100
AcDbEntity
100
AcDbLine
10
151.229402
20
14.545698
30
0.0
11
151.463858
21
15.420698
31
0.0
0
LINE
8
Default
62
4
5
143
100
AcDbEntity
100
AcDbLine
10
151.463858
20
15.420698
30
0.0
11
151.229402
21
16.295699
31
0.0
0
LINE
8
Default
62
4
5
144
100
AcDbEntity
100
AcDbLine
10
151.229402
20
16.295699
30
0.0
11
150.588857
21
16.936244
31
0.0
0
LINE
8
Default
62
4
5
145
100
AcDbEntity
100
AcDbLine
10
150.588857
20
16.936244
30
0.0
11
149.713857
21
17.170699
31
0.0
0
LINE
8
Default
62
4
5
146
100
AcDbEntity
100
AcDbLine
10
144.330764
20
17.641657
30
0.0
11
143.636070
21
17.624487
31
0.0
0
LINE
8
Default
62
4
5
147
100
AcDbEntity
100
AcDbLine
10
143.636070
20
17.624487
30
0.0
11
143.023157
21
17.351731
31
0.0
0
LINE
8
Default
62
4
5
148
100
AcDbEntity
100
AcDbLine
10
143.023157
20
17.351731
30
0.0
11
142.557239
21
16.869053
31
0.0
0
LINE
8
Default
62
4
5
149
100
AcDbEntity
100
AcDbLine
10
142.557239
20
16.869053
30
0.0
11
142.303528
21
16.222117
31
0.0
0
LINE
8
Default
62
4
5
14a
100
AcDbEntity
100
AcDbLine
10
142.303528
20
16.222117
30
0.0
11
142.320674
21
15.527422
31
0.0
0
LINE
8
Default
62
4
5
14b
100
AcDbEntity
100
AcDbLine
10
142.320674
20
15.527422
30
0.0
11
142.593408
21
14.914499
31
0.0
0
LINE
8
Default
62
4
5
14c
100
AcDbEntity
100
AcDbLine
10
142.593408
20
14.914499
30
0.0
11
143.076069
21
14.448564
31
0.0
0
LINE
8
Default
62
4
5
14d
100
AcDbEntity
100
AcDbLine
10
143.076069
20
14.448564
30
0.0
11
143.722996
21
14.194830
31
0.0
0
LINE
8
Default
62
4
5
14e
100
AcDbEntity
100
AcDbLine
10
155.017744
20
40.457089
30
0.0
11
156.276619
21
41.495289
31
0.0
0
LINE
8
Default
62
4
5
14f
100
AcDbEntity
100
AcDbLine
10
168.049205
20
21.505020
30
0.0
11
170.303501
21
23.204522
31
0.0
0
LINE
8
Default
62
4
5
150
100
AcDbEntity
100
AcDbLine
10
170.303501
20
23.204522
30
0.0
11
172.401097
21
25.094032
31
0.0
0
LINE
8
Default
62
4
5
151
100
AcDbEntity
100
AcDbLine
10
172.401097
20
25.094032
30
0.0
11
173.416449
21
26.234070
31
0.0
0
LINE
8
Default
62
4
5
152
100
AcDbEntity
100
AcDbLine
10
173.416449
20
26.234070
30
0.0
11
174.261708
21
27.481481
31
0.0
0
LINE
8
Default
62
4
5
153
100
AcDbEntity
100
AcDbLine
10
174.261708
20
27.481481
30
0.0
11
174.931706
21
28.817616
31
0.0
0
LINE
8
Default
62
4
5
154
100
AcDbEntity
100
AcDbLine
10
174.931706
20
28.817616
30
0.0
11
175.421276
21
30.223827
31
0.0
0
LINE
8
Default
62
4
5
155
100
AcDbEntity
100
AcDbLine
10
175.421276
20
30.223827
30
0.0
11
175.725251
21
31.681465
31
0.0
0
LINE
8
Default
62
4
5
156
100
AcDbEntity
100
AcDbLine
10
175.725251
20
31.681465
30
0.0
11
175.838463
21
33.171880
31
0.0
0
LINE
8
Default
62
4
5
157
100
AcDbEntity
100
AcDbLine
10
175.838463
20
33.171880
30
0.0
11
175.755746
21
34.676425
31
0.0
0
LINE
8
Default
62
4
5
158
100
AcDbEntity
100
AcDbLine
10
175.755746
20
34.676425
30
0.0
11
175.471930
21
36.176450
31
0.0
0
LINE
8
Default
62
4
5
159
100
AcDbEntity
100
AcDbLine
10
175.471930
20
36.176450
30
0.0
11
174.992304
21
37.625789
31
0.0
0
LINE
8
Default
62
4
5
15a
100
AcDbEntity
100
AcDbLine
10
174.992304
20
37.625789
30
0.0
11
174.334644
21
38.981511
31
0.0
0
LINE
8
Default
62
4
5
15b
100
AcDbEntity
100
AcDbLine
10
174.334644
20
38.981511
30
0.0
11
173.512516
21
40.229814
31
0.0
0
LINE
8
Default
62
4
5
15c
100
AcDbEntity
100
AcDbLine
10
173.512516
20
40.229814
30
0.0
11
172.539486
21
41.356899
31
0.0
0
LINE
8
Default
62
4
5
15d
100
AcDbEntity
100
AcDbLine
10
172.539486
20
41.356899
30
0.0
11
171.429123
21
42.348968
31
0.0
0
LINE
8
Default
62
4
5
15e
100
AcDbEntity
100
AcDbLine
10
171.429123
20
42.348968
30
0.0
11
170.194991
21
43.192221
31
0.0
0
LINE
8
Default
62
4
5
15f
100
AcDbEntity
100
AcDbLine
10
170.194991
20
43.192221
30
0.0
11
168.850658
21
43.872857
31
0.0
0
LINE
8
Default
62
4
5
160
100
AcDbEntity
100
AcDbLine
10
168.850658
20
43.872857
30
0.0
11
167.409691
21
44.377078
31
0.0
0
LINE
8
Default
62
4
5
161
100
AcDbEntity
100
AcDbLine
10
167.409691
20
44.377078
30
0.0
11
165.914713
21
44.686380
31
0.0
0
LINE
8
Default
62
4
5
162
100
AcDbEntity
100
AcDbLine
10
165.914713
20
44.686380
30
0.0
11
164.411794
21
44.794690
31
0.0
0
LINE
8
Default
62
4
5
163
100
AcDbEntity
100
AcDbLine
10
164.411794
20
44.794690
30
0.0
11
162.919668
21
44.706857
31
0.0
0
LINE
8
Default
62
4
5
164
100
AcDbEntity
100
AcDbLine
10
162.919668
20
44.706857
30
0.0
11
161.457068
21
44.427732
31
0.0
0
LINE
8
Default
62
4
5
165
100
AcDbEntity
100
AcDbLine
10
161.457068
20
44.427732
30
0.0
11
160.042729
21
43.962164
31
0.0
0
LINE
8
Default
62
4
5
166
100
AcDbEntity
100
AcDbLine
10
160.042729
20
43.962164
30
0.0
11
158.695386
21
43.315000
31
0.0
0
LINE
8
Default
62
4
5
167
100
AcDbEntity
100
AcDbLine
10
158.695386
20
43.315000
30
0.0
11
157.433771
21
42.491092
31
0.0
0
LINE
8
Default
62
4
5
168
100
AcDbEntity
100
AcDbLine
10
157.433771
20
42.491092
30
0.0
11
156.276619
21
41.495288
31
0.0
0
LINE
8
Default
62
4
5
169
100
AcDbEntity
100
AcDbLine
10
155.017744
20
40.457089
30
0.0
11
153.819186
21
39.510893
31
0.0
0
LINE
8
Default
62
4
5
16a
100
AcDbEntity
100
AcDbLine
10
153.819186
20
39.510893
30
0.0
11
152.769523
21
38.429299
31
0.0
0
LINE
8
Default
62
4
5
16b
100
AcDbEntity
100
AcDbLine
10
152.769523
20
38.429299
30
0.0
11
151.877092
21
37.229787
31
0.0
0
LINE
8
Default
62
4
5
16c
100
AcDbEntity
100
AcDbLine
10
151.877092
20
37.229787
30
0.0
11
151.150233
21
35.929836
31
0.0
0
LINE
8
Default
62
4
5
16d
100
AcDbEntity
100
AcDbLine
10
151.150233
20
35.929836
30
0.0
11
150.597282
21
34.546924
31
0.0
0
LINE
8
Default
62
4
5
16e
100
AcDbEntity
100
AcDbLine
10
150.597282
20
34.546924
30
0.0
11
150.226579
21
33.098532
31
0.0
0
LINE
8
Default
62
4
5
16f
100
AcDbEntity
100
AcDbLine
10
150.226579
20
33.098532
30
0.0
11
150.046461
21
31.602138
31
0.0
0
LINE
8
Default
62
4
5
170
100
AcDbEntity
100
AcDbLine
10
150.046461
20
31.602138
30
0.0
11
150.065266
21
30.075221
31
0.0
0
LINE
8
Default
62
4
5
171
100
AcDbEntity
100
AcDbLine
10
150.065266
20
30.075221
30
0.0
11
150.285814
21
28.564199
31
0.0
0
LINE
8
Default
62
4
5
172
100
AcDbEntity
100
AcDbLine
10
150.285814
20
28.564199
30
0.0
11
150.698052
21
27.114475
31
0.0
0
LINE
8
Default
62
4
5
173
100
AcDbEntity
100
AcDbLine
10
150.698052
20
27.114475
30
0.0
11
151.291005
21
25.742008
31
0.0
0
LINE
8
Default
62
4
5
174
100
AcDbEntity
100
AcDbLine
10
151.291005
20
25.742008
30
0.0
11
152.053703
21
24.462754
31
0.0
0
LINE
8
Default
62
4
5
175
100
AcDbEntity
100
AcDbLine
10
152.053703
20
24.462754
30
0.0
11
152.975172
21
23.292671
31
0.0
0
LINE
8
Default
62
4
5
176
100
AcDbEntity
100
AcDbLine
10
152.975172
20
23.292671
30
0.0
11
154.044439
21
22.247718
31
0.0
0
LINE
8
Default
62
4
5
177
100
AcDbEntity
100
AcDbLine
10
154.044439
20
22.247718
30
0.0
11
155.250533
21
21.343851
31
0.0
0
LINE
8
Default
62
4
5
178
100
AcDbEntity
100
AcDbLine
10
155.250533
20
21.343851
30
0.0
11
156.582481
21
20.597028
31
0.0
0
LINE
8
Default
62
4
5
179
100
AcDbEntity
100
AcDbLine
10
156.582481
20
20.597028
30
0.0
11
158.001487
21
20.032891
31
0.0
0
LINE
8
Default
62
4
5
17a
100
AcDbEntity
100
AcDbLine
10
158.001487
20
20.032891
30
0.0
11
159.463199
21
19.665421
31
0.0
0
LINE
8
Default
62
4
5
17b
100
AcDbEntity
100
AcDbLine
10
159.463199
20
19.665421
30
0.0
11
160.948313
21
19.493091
31
0.0
0
LINE
8
Default
62
4
5
17c
100
AcDbEntity
100
AcDbLine
10
160.948313
20
19.493091
30
0.0
11
162.437523
21
19.514371
31
0.0
0
LINE
8
Default
62
4
5
17d
100
AcDbEntity
100
AcDbLine
10
162.437523
20
19.514371
30
0.0
11
163.911522
21
19.727732
31
0.0
0
LINE
8
Default
62
4
5
17e
100
AcDbEntity
100
AcDbLine
10
163.911522
20
19.727732
30
0.0
11
165.351007
21
20.131647
31
0.0
0
LINE
8
Default
62
4
5
17f
100
AcDbEntity
100
AcDbLine
10
165.351007
20
20.131647
30
0.0
11
166.736669
21
20.724586
31
0.0
0
LINE
8
Default
62
4
5
180
100
AcDbEntity
100
AcDbLine
10
166.736669
20
20.724586
30
0.0
11
168.049205
21
21.505020
31
0.0
0
LINE
8
Default
62
4
5
181
100
AcDbEntity
100
AcDbLine
10
147.392870
20
-1.238840
30
0.0
11
147.124921
21
-0.238840
31
0.0
0
LINE
8
Default
62
4
5
182
100
AcDbEntity
100
AcDbLine
10
147.124921
20
-0.238840
30
0.0
11
146.392870
21
0.493211
31
0.0
0
LINE
8
Default
62
4
5
183
100
AcDbEntity
100
AcDbLine
10
146.392870
20
0.493211
30
0.0
11
145.392870
21
0.761160
31
0.0
0
LINE
8
Default
62
4
5
184
100
AcDbEntity
100
AcDbLine
10
145.392870
20
0.761160
30
0.0
11
144.392869
21
0.493211
31
0.0
0
LINE
8
Default
62
4
5
185
100
AcDbEntity
100
AcDbLine
10
144.392869
20
0.493211
30
0.0
11
143.660819
21
-0.238840
31
0.0
0
LINE
8
Default
62
4
5
186
100
AcDbEntity
100
AcDbLine
10
143.660819
20
-0.238840
30
0.0
11
143.392869
21
-1.238840
31
0.0
0
LINE
8
Default
62
4
5
187
100
AcDbEntity
100
AcDbLine
10
143.392869
20
-1.238840
30
0.0
11
143.660819
21
-2.238840
31
0.0
0
LINE
8
Default
62
4
5
188
100
AcDbEntity
100
AcDbLine
10
143.660819
20
-2.238840
30
0.0
11
144.392869
21
-2.970891
31
0.0
0
LINE
8
Default
62
4
5
189
100
AcDbEntity
100
AcDbLine
10
144.392869
20
-2.970891
30
0.0
11
145.392870
21
-3.238840
31
0.0
0
LINE
8
Default
62
4
5
18a
100
AcDbEntity
100
AcDbLine
10
145.392870
20
-3.238840
30
0.0
11
146.392870
21
-2.970891
31
0.0
0
LINE
8
Default
62
4
5
18b
100
AcDbEntity
100
AcDbLine
10
146.392870
20
-2.970891
30
0.0
11
147.124921
21
-2.238840
31
0.0
0
LINE
8
Default
62
4
5
18c
100
AcDbEntity
100
AcDbLine
10
147.124921
20
-2.238840
30
0.0
11
147.392870
21
-1.238840
31
0.0
0
LINE
8
Default
62
4
5
18d
100
AcDbEntity
100
AcDbLine
10
147.392870
20
-1.238840
30
0.0
11
147.392870
21
-1.238840
31
0.0
0
LINE
8
Default
62
4
5
18e
100
AcDbEntity
100
AcDbLine
10
181.392870
20
-1.238840
30
0.0
11
181.124920
21
-0.238840
31
0.0
0
LINE
8
Default
62
4
5
18f
100
AcDbEntity
100
AcDbLine
10
181.124920
20
-0.238840
30
0.0
11
180.392869
21
0.493211
31
0.0
0
LINE
8
Default
62
4
5
190
100
AcDbEntity
100
AcDbLine
10
180.392869
20
0.493211
30
0.0
11
179.392869
21
0.761160
31
0.0
0
LINE
8
Default
62
4
5
191
100
AcDbEntity
100
AcDbLine
10
179.392869
20
0.761160
30
0.0
11
178.392869
21
0.493211
31
0.0
0
LINE
8
Default
62
4
5
192
100
AcDbEntity
100
AcDbLine
10
178.392869
20
0.493211
30
0.0
11
177.660818
21
-0.238840
31
0.0
0
LINE
8
Default
62
4
5
193
100
AcDbEntity
100
AcDbLine
10
177.660818
20
-0.238840
30
0.0
11
177.392869
21
-1.238840
31
0.0
0
LINE
8
Default
62
4
5
194
100
AcDbEntity
100
AcDbLine
10
177.392869
20
-1.238840
30
0.0
11
177.660818
21
-2.238840
31
0.0
0
LINE
8
Default
62
4
5
195
100
AcDbEntity
100
AcDbLine
10
177.660818
20
-2.238840
30
0.0
11
178.392869
21
-2.970891
31
0.0
0
LINE
8
Default
62
4
5
196
100
AcDbEntity
100
AcDbLine
10
178.392869
20
-2.970891
30
0.0
11
179.392869
21
-3.238840
31
0.0
0
LINE
8
Default
62
4
5
197
100
AcDbEntity
100
AcDbLine
10
179.392869
20
-3.238840
30
0.0
11
180.392869
21
-2.970891
31
0.0
0
LINE
8
Default
62
4
5
198
100
AcDbEntity
100
AcDbLine
10
180.392869
20
-2.970891
30
0.0
11
181.124920
21
-2.238840
31
0.0
0
LINE
8
Default
62
4
5
199
100
AcDbEntity
100
AcDbLine
10
181.124920
20
-2.238840
30
0.0
11
181.392870
21
-1.238840
31
0.0
0
LINE
8
Default
62
4
5
19a
100
AcDbEntity
100
AcDbLine
10
181.392870
20
-1.238840
30
0.0
11
181.392870
21
-1.238840
31
0.0
0
LINE
8
Default
62
4
5
19b
100
AcDbEntity
100
AcDbLine
10
164.392870
20
-9.159302
30
0.0
11
164.124920
21
-8.159302
31
0.0
0
LINE
8
Default
62
4
5
19c
100
AcDbEntity
100
AcDbLine
10
164.124920
20
-8.159302
30
0.0
11
163.392870
21
-7.427251
31
0.0
0
LINE
8
Default
62
4
5
19d
100
AcDbEntity
100
AcDbLine
10
163.392870
20
-7.427251
30
0.0
11
162.392869
21
-7.159302
31
0.0
0
LINE
8
Default
62
4
5
19e
100
AcDbEntity
100
AcDbLine
10
162.392869
20
-7.159302
30
0.0
11
161.392869
21
-7.427251
31
0.0
0
LINE
8
Default
62
4
5
19f
100
AcDbEntity
100
AcDbLine
10
161.392869
20
-7.427251
30
0.0
11
160.660818
21
-8.159302
31
0.0
0
LINE
8
Default
62
4
5
1a0
100
AcDbEntity
100
AcDbLine
10
160.660818
20
-8.159302
30
0.0
11
160.392869
21
-9.159302
31
0.0
0
LINE
8
Default
62
4
5
1a1
100
AcDbEntity
100
AcDbLine
10
160.392869
20
-9.159302
30
0.0
11
160.660818
21
-10.159302
31
0.0
0
LINE
8
Default
62
4
5
1a2
100
AcDbEntity
100
AcDbLine
10
160.660818
20
-10.159302
30
0.0
11
161.392869
21
-10.891353
31
0.0
0
LINE
8
Default
62
4
5
1a3
100
AcDbEntity
100
AcDbLine
10
161.392869
20
-10.891353
30
0.0
11
162.392869
21
-11.159302
31
0.0
0
LINE
8
Default
62
4
5
1a4
100
AcDbEntity
100
AcDbLine
10
162.392869
20
-11.159302
30
0.0
11
163.392870
21
-10.891353
31
0.0
0
LINE
8
Default
62
4
5
1a5
100
AcDbEntity
100
AcDbLine
10
163.392870
20
-10.891353
30
0.0
11
164.124920
21
-10.159302
31
0.0
0
LINE
8
Default
62
4
5
1a6
100
AcDbEntity
100
AcDbLine
10
164.124920
20
-10.159302
30
0.0
11
164.392870
21
-9.159302
31
0.0
0
LINE
8
Default
62
4
5
1a7
100
AcDbEntity
100
AcDbLine
10
164.392870
20
-9.159302
30
0.0
11
164.392870
21
-9.159302
31
0.0
  0
ENDSEC
  0
SECTION
  2
OBJECTS
  0
DICTIONARY
  5
C
330
0
100
AcDbDictionary
  3
ACAD_GROUP
350
D
  3
ACAD_MLINESTYLE
350
17
  0
DICTIONARY
  5
D
330
C
100
AcDbDictionary
  0
DICTIONARY
  5
1A
330
C
100
AcDbDictionary
  0
DICTIONARY
  5
17
330
C
100
AcDbDictionary
  3
STANDARD
350
18
  0
DICTIONARY
  5
19
330
C
100
AcDbDictionary
  0
ENDSEC
  0
EOF
