999
Inkscape export via "Better DXF Output" (bob@bobcookdev.com)
  0
SECTION
  2
HEADER
  9
$ACADVER
  1
AC1014
  9
$HANDSEED
  5
FFFF
  0
ENDSEC
  0
SECTION
  2
TABLES
  0
TABLE
  2
VPORT
  5
8
330
0
100
AcDbSymbolTable
 70
     4
  0
VPORT
  5
2E
330
8
100
AcDbSymbolTableRecord
100
AcDbViewportTableRecord
  2
*ACTIVE
 70
     0
 10
0.0
 20
0.0
 11
1.0
 21
1.0
 12
4.25
 22
5.5
 13
0.0
 23
0.0
 14
10.0
 24
10.0
 15
10.0
 25
10.0
 16
0.0
 26
0.0
 36
1.0
 17
0.0
 27
0.0
 37
0.0
 40
11
 41
1.24
 42
50.0
 43
0.0
 44
0.0
 50
0.0
 51
0.0
 71
     0
 72
   100
 73
     1
 74
     3
 75
     0
 76
     0
 77
     0
 78
     0
  0
ENDTAB
  0
TABLE
  2
LTYPE
  5
5
330
0
100
AcDbSymbolTable
 70
     1
  0
LTYPE
  5
14
330
5
100
AcDbSymbolTableRecord
100
AcDbLinetypeTableRecord
  2
BYBLOCK
 70
     0
  3

 72
    65
 73
     0
 40
0.0
  0
LTYPE
  5
15
330
5
100
AcDbSymbolTableRecord
100
AcDbLinetypeTableRecord
  2
BYLAYER
 70
     0
  3

 72
    65
 73
     0
 40
0.0
  0
LTYPE
  5
16
330
5
100
AcDbSymbolTableRecord
100
AcDbLinetypeTableRecord
  2
CONTINUOUS
 70
     0
  3
Solid line
 72
    65
 73
     0
 40
0.0
  0
ENDTAB
  0
TABLE
  2
LAYER
  5
2
330
0
100
AcDbSymbolTable
 70
1
  0
LAYER
  5
10
330
2
100
AcDbSymbolTableRecord
100
AcDbLayerTableRecord
  2
0
 70
     0
 62
     7
  6
CONTINUOUS
  0
ENDTAB
  0
TABLE
  2
STYLE
  5
3
330
0
100
AcDbSymbolTable
 70
     1
  0
STYLE
  5
11
330
3
100
AcDbSymbolTableRecord
100
AcDbTextStyleTableRecord
  2
STANDARD
 70
     0
 40
0.0
 41
1.0
 50
0.0
 71
     0
 42
2.5
  3
txt
  4

  0
ENDTAB
  0
TABLE
  2
VIEW
  5
6
330
0
100
AcDbSymbolTable
 70
     0
  0
ENDTAB
  0
TABLE
  2
UCS
  5
7
330
0
100
AcDbSymbolTable
 70
     0
  0
ENDTAB
  0
TABLE
  2
APPID
  5
9
330
0
100
AcDbSymbolTable
 70
     2
  0
APPID
  5
12
330
9
100
AcDbSymbolTableRecord
100
AcDbRegAppTableRecord
  2
ACAD
 70
     0
  0
ENDTAB
  0
TABLE
  2
DIMSTYLE
  5
A
330
0
100
AcDbSymbolTable
 70
     1
  0
DIMSTYLE
105
27
330
A
100
AcDbSymbolTableRecord
100
AcDbDimStyleTableRecord
  2
ISO-25
 70
     0
  3

  4

  5

  6

  7

 40
1.0
 41
2.5
 42
0.625
 43
3.75
 44
1.25
 45
0.0
 46
0.0
 47
0.0
 48
0.0
140
2.5
141
2.5
142
0.0
143
0.03937007874016
144
1.0
145
0.0
146
1.0
147
0.625
 71
     0
 72
     0
 73
     0
 74
     0
 75
     0
 76
     0
 77
     1
 78
     8
170
     0
171
     3
172
     1
173
     0
174
     0
175
     0
176
     0
177
     0
178
     0
270
     2
271
     2
272
     2
273
     2
274
     3
340
11
275
     0
280
     0
281
     0
282
     0
283
     0
284
     8
285
     0
286
     0
287
     3
288
     0
  0
ENDTAB
  0
TABLE
  2
BLOCK_RECORD
  5
1
330
0
100
AcDbSymbolTable
 70
     1
  0
BLOCK_RECORD
  5
1F
330
1
100
AcDbSymbolTableRecord
100
AcDbBlockTableRecord
  2
*MODEL_SPACE
  0
BLOCK_RECORD
  5
1B
330
1
100
AcDbSymbolTableRecord
100
AcDbBlockTableRecord
  2
*PAPER_SPACE
  0
ENDTAB
  0
ENDSEC
  0
SECTION
  2
BLOCKS
  0
BLOCK
  5
20
330
1F
100
AcDbEntity
  8
0
100
AcDbBlockBegin
  2
*MODEL_SPACE
 70
     0
 10
0.0
 20
0.0
 30
0.0
  3
*MODEL_SPACE
  1

  0
ENDBLK
  5
21
330
1F
100
AcDbEntity
  8
0
100
AcDbBlockEnd
  0
BLOCK
  5
1C
330
1B
100
AcDbEntity
 67
     1
  8
0
100
AcDbBlockBegin
  2
*PAPER_SPACE
  1

  0
ENDBLK
  5
1D
330
1B
100
AcDbEntity
 67
     1
  8
0
100
AcDbBlockEnd
  0
ENDSEC
  0
SECTION
  2
ENTITIES
0
LINE
8
outline
62
4
5
100
100
AcDbEntity
100
AcDbLine
10
123.127841
20
-71.303442
30
0.0
11
123.053524
21
-74.082369
31
0.0
0
LINE
8
outline
62
4
5
101
100
AcDbEntity
100
AcDbLine
10
123.053524
20
-74.082369
30
0.0
11
122.758610
21
-76.836922
31
0.0
0
LINE
8
outline
62
4
5
102
100
AcDbEntity
100
AcDbLine
10
122.758610
20
-76.836922
30
0.0
11
122.251264
21
-79.555123
31
0.0
0
LINE
8
outline
62
4
5
103
100
AcDbEntity
100
AcDbLine
10
122.251264
20
-79.555123
30
0.0
11
121.539654
21
-82.224997
31
0.0
0
LINE
8
outline
62
4
5
104
100
AcDbEntity
100
AcDbLine
10
121.539654
20
-82.224997
30
0.0
11
120.631945
21
-84.834567
31
0.0
0
LINE
8
outline
62
4
5
105
100
AcDbEntity
100
AcDbLine
10
120.631945
20
-84.834567
30
0.0
11
119.536304
21
-87.371856
31
0.0
0
LINE
8
outline
62
4
5
106
100
AcDbEntity
100
AcDbLine
10
119.536304
20
-87.371856
30
0.0
11
118.260898
21
-89.824888
31
0.0
0
LINE
8
outline
62
4
5
107
100
AcDbEntity
100
AcDbLine
10
118.260898
20
-89.824888
30
0.0
11
116.813893
21
-92.181686
31
0.0
0
LINE
8
outline
62
4
5
108
100
AcDbEntity
100
AcDbLine
10
116.813893
20
-92.181686
30
0.0
11
115.203457
21
-94.430274
31
0.0
0
LINE
8
outline
62
4
5
109
100
AcDbEntity
100
AcDbLine
10
115.203457
20
-94.430274
30
0.0
11
113.437754
21
-96.558675
31
0.0
0
LINE
8
outline
62
4
5
10a
100
AcDbEntity
100
AcDbLine
10
113.437754
20
-96.558675
30
0.0
11
111.524953
21
-98.554914
31
0.0
0
LINE
8
outline
62
4
5
10b
100
AcDbEntity
100
AcDbLine
10
111.524953
20
-98.554914
30
0.0
11
109.473218
21
-100.407012
31
0.0
0
LINE
8
outline
62
4
5
10c
100
AcDbEntity
100
AcDbLine
10
109.473218
20
-100.407012
30
0.0
11
107.290718
21
-102.102994
31
0.0
0
LINE
8
outline
62
4
5
10d
100
AcDbEntity
100
AcDbLine
10
107.290718
20
-102.102994
30
0.0
11
104.985619
21
-103.630884
31
0.0
0
LINE
8
outline
62
4
5
10e
100
AcDbEntity
100
AcDbLine
10
104.985619
20
-103.630884
30
0.0
11
102.566086
21
-104.978704
31
0.0
0
LINE
8
outline
62
4
5
10f
100
AcDbEntity
100
AcDbLine
10
102.566086
20
-104.978704
30
0.0
11
100.040288
21
-106.134479
31
0.0
0
LINE
8
outline
62
4
5
110
100
AcDbEntity
100
AcDbLine
10
100.040288
20
-106.134479
30
0.0
11
97.473456
21
-107.132609
31
0.0
0
LINE
8
outline
62
4
5
111
100
AcDbEntity
100
AcDbLine
10
97.473456
20
-107.132609
30
0.0
11
94.843921
21
-107.924093
31
0.0
0
LINE
8
outline
62
4
5
112
100
AcDbEntity
100
AcDbLine
10
94.843921
20
-107.924093
30
0.0
11
92.165608
21
-108.511359
31
0.0
0
LINE
8
outline
62
4
5
113
100
AcDbEntity
100
AcDbLine
10
92.165608
20
-108.511359
30
0.0
11
89.452444
21
-108.896835
31
0.0
0
LINE
8
outline
62
4
5
114
100
AcDbEntity
100
AcDbLine
10
89.452444
20
-108.896835
30
0.0
11
86.718355
21
-109.082951
31
0.0
0
LINE
8
outline
62
4
5
115
100
AcDbEntity
100
AcDbLine
10
86.718355
20
-109.082951
30
0.0
11
83.977267
21
-109.072133
31
0.0
0
LINE
8
outline
62
4
5
116
100
AcDbEntity
100
AcDbLine
10
83.977267
20
-109.072133
30
0.0
11
81.243108
21
-108.866810
31
0.0
0
LINE
8
outline
62
4
5
117
100
AcDbEntity
100
AcDbLine
10
81.243108
20
-108.866810
30
0.0
11
78.529803
21
-108.469412
31
0.0
0
LINE
8
outline
62
4
5
118
100
AcDbEntity
100
AcDbLine
10
78.529803
20
-108.469412
30
0.0
11
75.851278
21
-107.882366
31
0.0
0
LINE
8
outline
62
4
5
119
100
AcDbEntity
100
AcDbLine
10
75.851278
20
-107.882366
30
0.0
11
73.221460
21
-107.108100
31
0.0
0
LINE
8
outline
62
4
5
11a
100
AcDbEntity
100
AcDbLine
10
73.221460
20
-107.108100
30
0.0
11
70.654276
21
-106.149044
31
0.0
0
LINE
8
outline
62
4
5
11b
100
AcDbEntity
100
AcDbLine
10
70.654276
20
-106.149044
30
0.0
11
68.163651
21
-105.007625
31
0.0
0
LINE
8
outline
62
4
5
11c
100
AcDbEntity
100
AcDbLine
10
68.163651
20
-105.007625
30
0.0
11
65.763512
21
-103.686271
31
0.0
0
LINE
8
outline
62
4
5
11d
100
AcDbEntity
100
AcDbLine
10
65.763512
20
-103.686271
30
0.0
11
63.467785
21
-102.187412
31
0.0
0
LINE
8
outline
62
4
5
11e
100
AcDbEntity
100
AcDbLine
10
63.467785
20
-102.187412
30
0.0
11
61.290397
21
-100.513476
31
0.0
0
LINE
8
outline
62
4
5
11f
100
AcDbEntity
100
AcDbLine
10
61.290397
20
-100.513476
30
0.0
11
59.245274
21
-98.666890
31
0.0
0
LINE
8
outline
62
4
5
120
100
AcDbEntity
100
AcDbLine
10
59.245274
20
-98.666890
30
0.0
11
57.324527
21
-96.734912
31
0.0
0
LINE
8
outline
62
4
5
121
100
AcDbEntity
100
AcDbLine
10
57.324527
20
-96.734912
30
0.0
11
55.565688
21
-94.665770
31
0.0
0
LINE
8
outline
62
4
5
122
100
AcDbEntity
100
AcDbLine
10
55.565688
20
-94.665770
30
0.0
11
53.971827
21
-92.472761
31
0.0
0
LINE
8
outline
62
4
5
123
100
AcDbEntity
100
AcDbLine
10
53.971827
20
-92.472761
30
0.0
11
52.546016
21
-90.169181
31
0.0
0
LINE
8
outline
62
4
5
124
100
AcDbEntity
100
AcDbLine
10
52.546016
20
-90.169181
30
0.0
11
51.291324
21
-87.768326
31
0.0
0
LINE
8
outline
62
4
5
125
100
AcDbEntity
100
AcDbLine
10
51.291324
20
-87.768326
30
0.0
11
50.210823
21
-85.283492
31
0.0
0
LINE
8
outline
62
4
5
126
100
AcDbEntity
100
AcDbLine
10
50.210823
20
-85.283492
30
0.0
11
49.307584
21
-82.727975
31
0.0
0
LINE
8
outline
62
4
5
127
100
AcDbEntity
100
AcDbLine
10
49.307584
20
-82.727975
30
0.0
11
48.584677
21
-80.115070
31
0.0
0
LINE
8
outline
62
4
5
128
100
AcDbEntity
100
AcDbLine
10
48.584677
20
-80.115070
30
0.0
11
48.045173
21
-77.458075
31
0.0
0
LINE
8
outline
62
4
5
129
100
AcDbEntity
100
AcDbLine
10
48.045173
20
-77.458075
30
0.0
11
47.692144
21
-74.770285
31
0.0
0
LINE
8
outline
62
4
5
12a
100
AcDbEntity
100
AcDbLine
10
47.692144
20
-74.770285
30
0.0
11
47.528659
21
-72.064996
31
0.0
0
LINE
8
outline
62
4
5
12b
100
AcDbEntity
100
AcDbLine
10
47.528659
20
-72.064996
30
0.0
11
47.557790
21
-69.355505
31
0.0
0
LINE
8
outline
62
4
5
12c
100
AcDbEntity
100
AcDbLine
10
47.557790
20
-69.355505
30
0.0
11
47.782607
21
-66.655106
31
0.0
0
LINE
8
outline
62
4
5
12d
100
AcDbEntity
100
AcDbLine
10
47.782607
20
-66.655106
30
0.0
11
48.206181
21
-63.977097
31
0.0
0
LINE
8
outline
62
4
5
12e
100
AcDbEntity
100
AcDbLine
10
48.206181
20
-63.977097
30
0.0
11
48.831584
21
-61.334774
31
0.0
0
LINE
8
outline
62
4
5
12f
100
AcDbEntity
100
AcDbLine
10
48.831584
20
-61.334774
30
0.0
11
49.661885
21
-58.741431
31
0.0
0
LINE
8
outline
62
4
5
130
100
AcDbEntity
100
AcDbLine
10
49.661885
20
-58.741431
30
0.0
11
50.669645
21
-56.128495
31
0.0
0
LINE
8
outline
62
4
5
131
100
AcDbEntity
100
AcDbLine
10
50.669645
20
-56.128495
30
0.0
11
51.879122
21
-53.611875
31
0.0
0
LINE
8
outline
62
4
5
132
100
AcDbEntity
100
AcDbLine
10
51.879122
20
-53.611875
30
0.0
11
53.278511
21
-51.200604
31
0.0
0
LINE
8
outline
62
4
5
133
100
AcDbEntity
100
AcDbLine
10
53.278511
20
-51.200604
30
0.0
11
54.856005
21
-48.903716
31
0.0
0
LINE
8
outline
62
4
5
134
100
AcDbEntity
100
AcDbLine
10
54.856005
20
-48.903716
30
0.0
11
56.599799
21
-46.730243
31
0.0
0
LINE
8
outline
62
4
5
135
100
AcDbEntity
100
AcDbLine
10
56.599799
20
-46.730243
30
0.0
11
58.498088
21
-44.689219
31
0.0
0
LINE
8
outline
62
4
5
136
100
AcDbEntity
100
AcDbLine
10
58.498088
20
-44.689219
30
0.0
11
60.539065
21
-42.789678
31
0.0
0
LINE
8
outline
62
4
5
137
100
AcDbEntity
100
AcDbLine
10
60.539065
20
-42.789678
30
0.0
11
62.710924
21
-41.040651
31
0.0
0
LINE
8
outline
62
4
5
138
100
AcDbEntity
100
AcDbLine
10
62.710924
20
-41.040651
30
0.0
11
65.001861
21
-39.451172
31
0.0
0
LINE
8
outline
62
4
5
139
100
AcDbEntity
100
AcDbLine
10
65.001861
20
-39.451172
30
0.0
11
67.400069
21
-38.030275
31
0.0
0
LINE
8
outline
62
4
5
13a
100
AcDbEntity
100
AcDbLine
10
67.400069
20
-38.030275
30
0.0
11
69.893743
21
-36.786992
31
0.0
0
LINE
8
outline
62
4
5
13b
100
AcDbEntity
100
AcDbLine
10
69.893743
20
-36.786992
30
0.0
11
72.471077
21
-35.730357
31
0.0
0
LINE
8
outline
62
4
5
13c
100
AcDbEntity
100
AcDbLine
10
72.471077
20
-35.730357
30
0.0
11
75.120266
21
-34.869403
31
0.0
0
LINE
8
outline
62
4
5
13d
100
AcDbEntity
100
AcDbLine
10
75.120266
20
-34.869403
30
0.0
11
77.829502
21
-34.213163
31
0.0
0
LINE
8
outline
62
4
5
13e
100
AcDbEntity
100
AcDbLine
10
77.829502
20
-34.213163
30
0.0
11
80.586982
21
-33.770669
31
0.0
0
LINE
8
outline
62
4
5
13f
100
AcDbEntity
100
AcDbLine
10
80.586982
20
-33.770669
30
0.0
11
83.380899
21
-33.550956
31
0.0
0
LINE
8
outline
62
4
5
140
100
AcDbEntity
100
AcDbLine
10
83.380899
20
-33.550956
30
0.0
11
86.108756
21
-33.483266
31
0.0
0
LINE
8
outline
62
4
5
141
100
AcDbEntity
100
AcDbLine
10
86.108756
20
-33.483266
30
0.0
11
88.824670
21
-33.628428
31
0.0
0
LINE
8
outline
62
4
5
142
100
AcDbEntity
100
AcDbLine
10
88.824670
20
-33.628428
30
0.0
11
91.516853
21
-33.979451
31
0.0
0
LINE
8
outline
62
4
5
143
100
AcDbEntity
100
AcDbLine
10
91.516853
20
-33.979451
30
0.0
11
94.173517
21
-34.529341
31
0.0
0
LINE
8
outline
62
4
5
144
100
AcDbEntity
100
AcDbLine
10
94.173517
20
-34.529341
30
0.0
11
96.782875
21
-35.271104
31
0.0
0
LINE
8
outline
62
4
5
145
100
AcDbEntity
100
AcDbLine
10
96.782875
20
-35.271104
30
0.0
11
99.333139
21
-36.197749
31
0.0
0
LINE
8
outline
62
4
5
146
100
AcDbEntity
100
AcDbLine
10
99.333139
20
-36.197749
30
0.0
11
101.812522
21
-37.302281
31
0.0
0
LINE
8
outline
62
4
5
147
100
AcDbEntity
100
AcDbLine
10
101.812522
20
-37.302281
30
0.0
11
104.209235
21
-38.577709
31
0.0
0
LINE
8
outline
62
4
5
148
100
AcDbEntity
100
AcDbLine
10
104.209235
20
-38.577709
30
0.0
11
106.511493
21
-40.017038
31
0.0
0
LINE
8
outline
62
4
5
149
100
AcDbEntity
100
AcDbLine
10
106.511493
20
-40.017038
30
0.0
11
108.707506
21
-41.613276
31
0.0
0
LINE
8
outline
62
4
5
14a
100
AcDbEntity
100
AcDbLine
10
108.707506
20
-41.613276
30
0.0
11
110.785488
21
-43.359429
31
0.0
0
LINE
8
outline
62
4
5
14b
100
AcDbEntity
100
AcDbLine
10
110.785488
20
-43.359429
30
0.0
11
112.733651
21
-45.248506
31
0.0
0
LINE
8
outline
62
4
5
14c
100
AcDbEntity
100
AcDbLine
10
112.733651
20
-45.248506
30
0.0
11
114.540207
21
-47.273512
31
0.0
0
LINE
8
outline
62
4
5
14d
100
AcDbEntity
100
AcDbLine
10
114.540207
20
-47.273512
30
0.0
11
116.193369
21
-49.427454
31
0.0
0
LINE
8
outline
62
4
5
14e
100
AcDbEntity
100
AcDbLine
10
116.193369
20
-49.427454
30
0.0
11
117.681349
21
-51.703340
31
0.0
0
LINE
8
outline
62
4
5
14f
100
AcDbEntity
100
AcDbLine
10
117.681349
20
-51.703340
30
0.0
11
118.992359
21
-54.094177
31
0.0
0
LINE
8
outline
62
4
5
150
100
AcDbEntity
100
AcDbLine
10
118.992359
20
-54.094177
30
0.0
11
120.788759
21
-58.181190
31
0.0
0
LINE
8
outline
62
4
5
151
100
AcDbEntity
100
AcDbLine
10
120.788759
20
-58.181190
30
0.0
11
122.084797
21
-62.452248
31
0.0
0
LINE
8
outline
62
4
5
152
100
AcDbEntity
100
AcDbLine
10
122.084797
20
-62.452248
30
0.0
11
122.868487
21
-66.846587
31
0.0
0
LINE
8
outline
62
4
5
153
100
AcDbEntity
100
AcDbLine
10
122.868487
20
-66.846587
30
0.0
11
123.127841
21
-71.303442
31
0.0
0
LINE
8
outline
62
4
5
154
100
AcDbEntity
100
AcDbLine
10
123.127841
20
-71.303442
30
0.0
11
123.127841
21
-71.303442
31
0.0
0
LINE
8
cutout
62
4
5
155
100
AcDbEntity
100
AcDbLine
10
45.583111
20
124.703815
30
0.0
11
45.583111
21
102.596058
31
0.0
0
LINE
8
cutout
62
4
5
156
100
AcDbEntity
100
AcDbLine
10
45.583111
20
102.596058
30
0.0
11
46.661452
21
101.683659
31
0.0
0
LINE
8
cutout
62
4
5
157
100
AcDbEntity
100
AcDbLine
10
46.661452
20
101.683659
30
0.0
11
47.631721
21
100.659519
31
0.0
0
LINE
8
cutout
62
4
5
158
100
AcDbEntity
100
AcDbLine
10
47.631721
20
100.659519
30
0.0
11
48.479243
21
99.529619
31
0.0
0
LINE
8
cutout
62
4
5
159
100
AcDbEntity
100
AcDbLine
10
48.479243
20
99.529619
30
0.0
11
49.189341
21
98.299940
31
0.0
0
LINE
8
cutout
62
4
5
15a
100
AcDbEntity
100
AcDbLine
10
49.189341
20
98.299940
30
0.0
11
49.794781
21
96.930488
31
0.0
0
LINE
8
cutout
62
4
5
15b
100
AcDbEntity
100
AcDbLine
10
49.794781
20
96.930488
30
0.0
11
50.237846
21
95.497472
31
0.0
0
LINE
8
cutout
62
4
5
15c
100
AcDbEntity
100
AcDbLine
10
50.237846
20
95.497472
30
0.0
11
50.509442
21
94.023198
31
0.0
0
LINE
8
cutout
62
4
5
15d
100
AcDbEntity
100
AcDbLine
10
50.509442
20
94.023198
30
0.0
11
50.600475
21
92.529972
31
0.0
0
LINE
8
cutout
62
4
5
15e
100
AcDbEntity
100
AcDbLine
10
50.600475
20
92.529972
30
0.0
11
50.476094
21
90.677709
31
0.0
0
LINE
8
cutout
62
4
5
15f
100
AcDbEntity
100
AcDbLine
10
50.476094
20
90.677709
30
0.0
11
50.066014
21
88.873519
31
0.0
0
LINE
8
cutout
62
4
5
160
100
AcDbEntity
100
AcDbLine
10
50.066014
20
88.873519
30
0.0
11
49.392538
21
87.149664
31
0.0
0
LINE
8
cutout
62
4
5
161
100
AcDbEntity
100
AcDbLine
10
49.392538
20
87.149664
30
0.0
11
48.477973
21
85.538407
31
0.0
0
LINE
8
cutout
62
4
5
162
100
AcDbEntity
100
AcDbLine
10
48.477973
20
85.538407
30
0.0
11
47.344623
21
84.072010
31
0.0
0
LINE
8
cutout
62
4
5
163
100
AcDbEntity
100
AcDbLine
10
47.344623
20
84.072010
30
0.0
11
46.014794
21
82.782735
31
0.0
0
LINE
8
cutout
62
4
5
164
100
AcDbEntity
100
AcDbLine
10
46.014794
20
82.782735
30
0.0
11
44.510791
21
81.702844
31
0.0
0
LINE
8
cutout
62
4
5
165
100
AcDbEntity
100
AcDbLine
10
44.510791
20
81.702844
30
0.0
11
42.854920
21
80.864600
31
0.0
0
LINE
8
cutout
62
4
5
166
100
AcDbEntity
100
AcDbLine
10
42.854920
20
80.864600
30
0.0
11
41.116355
21
80.266073
31
0.0
0
LINE
8
cutout
62
4
5
167
100
AcDbEntity
100
AcDbLine
10
41.116355
20
80.266073
30
0.0
11
39.313337
21
79.941598
31
0.0
0
LINE
8
cutout
62
4
5
168
100
AcDbEntity
100
AcDbLine
10
39.313337
20
79.941598
30
0.0
11
37.482869
21
79.884450
31
0.0
0
LINE
8
cutout
62
4
5
169
100
AcDbEntity
100
AcDbLine
10
37.482869
20
79.884450
30
0.0
11
35.661957
21
80.087905
31
0.0
0
LINE
8
cutout
62
4
5
16a
100
AcDbEntity
100
AcDbLine
10
35.661957
20
80.087905
30
0.0
11
33.887605
21
80.545240
31
0.0
0
LINE
8
cutout
62
4
5
16b
100
AcDbEntity
100
AcDbLine
10
33.887605
20
80.545240
30
0.0
11
32.196818
21
81.249731
31
0.0
0
LINE
8
cutout
62
4
5
16c
100
AcDbEntity
100
AcDbLine
10
32.196818
20
81.249731
30
0.0
11
30.626602
21
82.194653
31
0.0
0
LINE
8
cutout
62
4
5
16d
100
AcDbEntity
100
AcDbLine
10
30.626602
20
82.194653
30
0.0
11
29.213960
21
83.373282
31
0.0
0
LINE
8
cutout
62
4
5
16e
100
AcDbEntity
100
AcDbLine
10
29.213960
20
83.373282
30
0.0
11
27.982880
21
84.712207
31
0.0
0
LINE
8
cutout
62
4
5
16f
100
AcDbEntity
100
AcDbLine
10
27.982880
20
84.712207
30
0.0
11
26.973268
21
86.216726
31
0.0
0
LINE
8
cutout
62
4
5
170
100
AcDbEntity
100
AcDbLine
10
26.973268
20
86.216726
30
0.0
11
26.193141
21
87.851316
31
0.0
0
LINE
8
cutout
62
4
5
171
100
AcDbEntity
100
AcDbLine
10
26.193141
20
87.851316
30
0.0
11
25.650517
21
89.580454
31
0.0
0
LINE
8
cutout
62
4
5
172
100
AcDbEntity
100
AcDbLine
10
25.650517
20
89.580454
30
0.0
11
25.353413
21
91.368616
31
0.0
0
LINE
8
cutout
62
4
5
173
100
AcDbEntity
100
AcDbLine
10
25.353413
20
91.368616
30
0.0
11
25.309846
21
93.180278
31
0.0
0
LINE
8
cutout
62
4
5
174
100
AcDbEntity
100
AcDbLine
10
25.309846
20
93.180278
30
0.0
11
25.527833
21
94.979919
31
0.0
0
LINE
8
cutout
62
4
5
175
100
AcDbEntity
100
AcDbLine
10
25.527833
20
94.979919
30
0.0
11
26.015391
21
96.732014
31
0.0
0
LINE
8
cutout
62
4
5
176
100
AcDbEntity
100
AcDbLine
10
26.015391
20
96.732014
30
0.0
11
26.724958
21
98.383157
31
0.0
0
LINE
8
cutout
62
4
5
177
100
AcDbEntity
100
AcDbLine
10
26.724958
20
98.383157
30
0.0
11
27.671462
21
99.902824
31
0.0
0
LINE
8
cutout
62
4
5
178
100
AcDbEntity
100
AcDbLine
10
27.671462
20
99.902824
30
0.0
11
28.824762
21
101.271738
31
0.0
0
LINE
8
cutout
62
4
5
179
100
AcDbEntity
100
AcDbLine
10
28.824762
20
101.271738
30
0.0
11
30.154716
21
102.470624
31
0.0
0
LINE
8
cutout
62
4
5
17a
100
AcDbEntity
100
AcDbLine
10
30.154716
20
102.470624
30
0.0
11
30.154716
21
124.672460
31
0.0
0
LINE
8
cutout
62
4
5
17b
100
AcDbEntity
100
AcDbLine
10
30.154716
20
124.672460
30
0.0
11
26.239962
21
123.444778
31
0.0
0
LINE
8
cutout
62
4
5
17c
100
AcDbEntity
100
AcDbLine
10
26.239962
20
123.444778
30
0.0
11
22.509329
21
121.736931
31
0.0
0
LINE
8
cutout
62
4
5
17d
100
AcDbEntity
100
AcDbLine
10
22.509329
20
121.736931
30
0.0
11
19.012265
21
119.586401
31
0.0
0
LINE
8
cutout
62
4
5
17e
100
AcDbEntity
100
AcDbLine
10
19.012265
20
119.586401
30
0.0
11
15.798222
21
117.030673
31
0.0
0
LINE
8
cutout
62
4
5
17f
100
AcDbEntity
100
AcDbLine
10
15.798222
20
117.030673
30
0.0
11
12.916650
21
114.107230
31
0.0
0
LINE
8
cutout
62
4
5
180
100
AcDbEntity
100
AcDbLine
10
12.916650
20
114.107230
30
0.0
11
10.416998
21
110.853557
31
0.0
0
LINE
8
cutout
62
4
5
181
100
AcDbEntity
100
AcDbLine
10
10.416998
20
110.853557
30
0.0
11
8.348717
21
107.307138
31
0.0
0
LINE
8
cutout
62
4
5
182
100
AcDbEntity
100
AcDbLine
10
8.348717
20
107.307138
30
0.0
11
6.761257
21
103.505455
31
0.0
0
LINE
8
cutout
62
4
5
183
100
AcDbEntity
100
AcDbLine
10
6.761257
20
103.505455
30
0.0
11
6.035037
21
101.237645
31
0.0
0
LINE
8
cutout
62
4
5
184
100
AcDbEntity
100
AcDbLine
10
6.035037
20
101.237645
30
0.0
11
5.487837
21
98.927290
31
0.0
0
LINE
8
cutout
62
4
5
185
100
AcDbEntity
100
AcDbLine
10
5.487837
20
98.927290
30
0.0
11
5.116998
21
96.585977
31
0.0
0
LINE
8
cutout
62
4
5
186
100
AcDbEntity
100
AcDbLine
10
5.116998
20
96.585977
30
0.0
11
4.919858
21
94.225290
31
0.0
0
LINE
8
cutout
62
4
5
187
100
AcDbEntity
100
AcDbLine
10
4.919858
20
94.225290
30
0.0
11
4.893755
21
91.856817
31
0.0
0
LINE
8
cutout
62
4
5
188
100
AcDbEntity
100
AcDbLine
10
4.893755
20
91.856817
30
0.0
11
5.036029
21
89.492144
31
0.0
0
LINE
8
cutout
62
4
5
189
100
AcDbEntity
100
AcDbLine
10
5.036029
20
89.492144
30
0.0
11
5.344017
21
87.142858
31
0.0
0
LINE
8
cutout
62
4
5
18a
100
AcDbEntity
100
AcDbLine
10
5.344017
20
87.142858
30
0.0
11
5.815060
21
84.820544
31
0.0
0
LINE
8
cutout
62
4
5
18b
100
AcDbEntity
100
AcDbLine
10
5.815060
20
84.820544
30
0.0
11
6.446494
21
82.536790
31
0.0
0
LINE
8
cutout
62
4
5
18c
100
AcDbEntity
100
AcDbLine
10
6.446494
20
82.536790
30
0.0
11
7.235660
21
80.303180
31
0.0
0
LINE
8
cutout
62
4
5
18d
100
AcDbEntity
100
AcDbLine
10
7.235660
20
80.303180
30
0.0
11
8.179897
21
78.131303
31
0.0
0
LINE
8
cutout
62
4
5
18e
100
AcDbEntity
100
AcDbLine
10
8.179897
20
78.131303
30
0.0
11
9.276541
21
76.032744
31
0.0
0
LINE
8
cutout
62
4
5
18f
100
AcDbEntity
100
AcDbLine
10
9.276541
20
76.032744
30
0.0
11
10.522934
21
74.019090
31
0.0
0
LINE
8
cutout
62
4
5
190
100
AcDbEntity
100
AcDbLine
10
10.522934
20
74.019090
30
0.0
11
11.916412
21
72.101926
31
0.0
0
LINE
8
cutout
62
4
5
191
100
AcDbEntity
100
AcDbLine
10
11.916412
20
72.101926
30
0.0
11
13.454316
21
70.292840
31
0.0
0
LINE
8
cutout
62
4
5
192
100
AcDbEntity
100
AcDbLine
10
13.454316
20
70.292840
30
0.0
11
15.133983
21
68.603417
31
0.0
0
LINE
8
cutout
62
4
5
193
100
AcDbEntity
100
AcDbLine
10
15.133983
20
68.603417
30
0.0
11
16.922620
21
66.988603
31
0.0
0
LINE
8
cutout
62
4
5
194
100
AcDbEntity
100
AcDbLine
10
16.922620
20
66.988603
30
0.0
11
18.827118
21
65.524944
31
0.0
0
LINE
8
cutout
62
4
5
195
100
AcDbEntity
100
AcDbLine
10
18.827118
20
65.524944
30
0.0
11
20.835272
21
64.214538
31
0.0
0
LINE
8
cutout
62
4
5
196
100
AcDbEntity
100
AcDbLine
10
20.835272
20
64.214538
30
0.0
11
22.934874
21
63.059486
31
0.0
0
LINE
8
cutout
62
4
5
197
100
AcDbEntity
100
AcDbLine
10
22.934874
20
63.059486
30
0.0
11
25.113720
21
62.061887
31
0.0
0
LINE
8
cutout
62
4
5
198
100
AcDbEntity
100
AcDbLine
10
25.113720
20
62.061887
30
0.0
11
27.359601
21
61.223842
31
0.0
0
LINE
8
cutout
62
4
5
199
100
AcDbEntity
100
AcDbLine
10
27.359601
20
61.223842
30
0.0
11
29.660311
21
60.547451
31
0.0
0
LINE
8
cutout
62
4
5
19a
100
AcDbEntity
100
AcDbLine
10
29.660311
20
60.547451
30
0.0
11
32.003645
21
60.034814
31
0.0
0
LINE
8
cutout
62
4
5
19b
100
AcDbEntity
100
AcDbLine
10
32.003645
20
60.034814
30
0.0
11
34.377396
21
59.688030
31
0.0
0
LINE
8
cutout
62
4
5
19c
100
AcDbEntity
100
AcDbLine
10
34.377396
20
59.688030
30
0.0
11
36.769357
21
59.509200
31
0.0
0
LINE
8
cutout
62
4
5
19d
100
AcDbEntity
100
AcDbLine
10
36.769357
20
59.509200
30
0.0
11
39.167322
21
59.500423
31
0.0
0
LINE
8
cutout
62
4
5
19e
100
AcDbEntity
100
AcDbLine
10
39.167322
20
59.500423
30
0.0
11
41.559085
21
59.663800
31
0.0
0
LINE
8
cutout
62
4
5
19f
100
AcDbEntity
100
AcDbLine
10
41.559085
20
59.663800
30
0.0
11
43.932439
21
60.001431
31
0.0
0
LINE
8
cutout
62
4
5
1a0
100
AcDbEntity
100
AcDbLine
10
43.932439
20
60.001431
30
0.0
11
46.275178
21
60.515415
31
0.0
0
LINE
8
cutout
62
4
5
1a1
100
AcDbEntity
100
AcDbLine
10
46.275178
20
60.515415
30
0.0
11
48.575095
21
61.207852
31
0.0
0
LINE
8
cutout
62
4
5
1a2
100
AcDbEntity
100
AcDbLine
10
48.575095
20
61.207852
30
0.0
11
50.819984
21
62.080844
31
0.0
0
LINE
8
cutout
62
4
5
1a3
100
AcDbEntity
100
AcDbLine
10
50.819984
20
62.080844
30
0.0
11
53.028577
21
63.091476
31
0.0
0
LINE
8
cutout
62
4
5
1a4
100
AcDbEntity
100
AcDbLine
10
53.028577
20
63.091476
30
0.0
11
55.143675
21
64.269816
31
0.0
0
LINE
8
cutout
62
4
5
1a5
100
AcDbEntity
100
AcDbLine
10
55.143675
20
64.269816
30
0.0
11
57.158217
21
65.605425
31
0.0
0
LINE
8
cutout
62
4
5
1a6
100
AcDbEntity
100
AcDbLine
10
57.158217
20
65.605425
30
0.0
11
59.065141
21
67.087864
31
0.0
0
LINE
8
cutout
62
4
5
1a7
100
AcDbEntity
100
AcDbLine
10
59.065141
20
67.087864
30
0.0
11
60.857385
21
68.706693
31
0.0
0
LINE
8
cutout
62
4
5
1a8
100
AcDbEntity
100
AcDbLine
10
60.857385
20
68.706693
30
0.0
11
62.527887
21
70.451474
31
0.0
0
LINE
8
cutout
62
4
5
1a9
100
AcDbEntity
100
AcDbLine
10
62.527887
20
70.451474
30
0.0
11
64.069586
21
72.311767
31
0.0
0
LINE
8
cutout
62
4
5
1aa
100
AcDbEntity
100
AcDbLine
10
64.069586
20
72.311767
30
0.0
11
65.475419
21
74.277132
31
0.0
0
LINE
8
cutout
62
4
5
1ab
100
AcDbEntity
100
AcDbLine
10
65.475419
20
74.277132
30
0.0
11
66.738326
21
76.337131
31
0.0
0
LINE
8
cutout
62
4
5
1ac
100
AcDbEntity
100
AcDbLine
10
66.738326
20
76.337131
30
0.0
11
67.851243
21
78.481325
31
0.0
0
LINE
8
cutout
62
4
5
1ad
100
AcDbEntity
100
AcDbLine
10
67.851243
20
78.481325
30
0.0
11
68.807109
21
80.699273
31
0.0
0
LINE
8
cutout
62
4
5
1ae
100
AcDbEntity
100
AcDbLine
10
68.807109
20
80.699273
30
0.0
11
69.598863
21
82.980538
31
0.0
0
LINE
8
cutout
62
4
5
1af
100
AcDbEntity
100
AcDbLine
10
69.598863
20
82.980538
30
0.0
11
70.219442
21
85.314679
31
0.0
0
LINE
8
cutout
62
4
5
1b0
100
AcDbEntity
100
AcDbLine
10
70.219442
20
85.314679
30
0.0
11
70.661785
21
87.691258
31
0.0
0
LINE
8
cutout
62
4
5
1b1
100
AcDbEntity
100
AcDbLine
10
70.661785
20
87.691258
30
0.0
11
70.918830
21
90.099835
31
0.0
0
LINE
8
cutout
62
4
5
1b2
100
AcDbEntity
100
AcDbLine
10
70.918830
20
90.099835
30
0.0
11
70.983515
21
92.529972
31
0.0
0
LINE
8
cutout
62
4
5
1b3
100
AcDbEntity
100
AcDbLine
10
70.983515
20
92.529972
30
0.0
11
70.758320
21
96.427957
31
0.0
0
LINE
8
cutout
62
4
5
1b4
100
AcDbEntity
100
AcDbLine
10
70.758320
20
96.427957
30
0.0
11
70.076530
21
100.271642
31
0.0
0
LINE
8
cutout
62
4
5
1b5
100
AcDbEntity
100
AcDbLine
10
70.076530
20
100.271642
30
0.0
11
68.946674
21
104.007516
31
0.0
0
LINE
8
cutout
62
4
5
1b6
100
AcDbEntity
100
AcDbLine
10
68.946674
20
104.007516
30
0.0
11
67.377285
21
107.582064
31
0.0
0
LINE
8
cutout
62
4
5
1b7
100
AcDbEntity
100
AcDbLine
10
67.377285
20
107.582064
30
0.0
11
65.592564
21
110.689936
31
0.0
0
LINE
8
cutout
62
4
5
1b8
100
AcDbEntity
100
AcDbLine
10
65.592564
20
110.689936
30
0.0
11
63.469005
21
113.562448
31
0.0
0
LINE
8
cutout
62
4
5
1b9
100
AcDbEntity
100
AcDbLine
10
63.469005
20
113.562448
30
0.0
11
61.041805
21
116.179043
31
0.0
0
LINE
8
cutout
62
4
5
1ba
100
AcDbEntity
100
AcDbLine
10
61.041805
20
116.179043
30
0.0
11
58.346161
21
118.519166
31
0.0
0
LINE
8
cutout
62
4
5
1bb
100
AcDbEntity
100
AcDbLine
10
58.346161
20
118.519166
30
0.0
11
55.417272
21
120.562261
31
0.0
0
LINE
8
cutout
62
4
5
1bc
100
AcDbEntity
100
AcDbLine
10
55.417272
20
120.562261
30
0.0
11
52.290336
21
122.287772
31
0.0
0
LINE
8
cutout
62
4
5
1bd
100
AcDbEntity
100
AcDbLine
10
52.290336
20
122.287772
30
0.0
11
49.000549
21
123.675142
31
0.0
0
LINE
8
cutout
62
4
5
1be
100
AcDbEntity
100
AcDbLine
10
49.000549
20
123.675142
30
0.0
11
45.583111
21
124.703815
31
0.0
0
LINE
8
cutout
62
4
5
1bf
100
AcDbEntity
100
AcDbLine
10
45.583111
20
124.703815
30
0.0
11
45.583111
21
124.703815
31
0.0
  0
ENDSEC
  0
SECTION
  2
OBJECTS
  0
DICTIONARY
  5
C
330
0
100
AcDbDictionary
  3
ACAD_GROUP
350
D
  3
ACAD_MLINESTYLE
350
17
  0
DICTIONARY
  5
D
330
C
100
AcDbDictionary
  0
DICTIONARY
  5
1A
330
C
100
AcDbDictionary
  0
DICTIONARY
  5
17
330
C
100
AcDbDictionary
  3
STANDARD
350
18
  0
DICTIONARY
  5
19
330
C
100
AcDbDictionary
  0
ENDSEC
  0
EOF
