999
Inkscape export via "Better DXF Output" (bob@bobcookdev.com)
  0
SECTION
  2
HEADER
  9
$ACADVER
  1
AC1014
  9
$HANDSEED
  5
FFFF
  0
ENDSEC
  0
SECTION
  2
TABLES
  0
TABLE
  2
VPORT
  5
8
330
0
100
AcDbSymbolTable
 70
     4
  0
VPORT
  5
2E
330
8
100
AcDbSymbolTableRecord
100
AcDbViewportTableRecord
  2
*ACTIVE
 70
     0
 10
0.0
 20
0.0
 11
1.0
 21
1.0
 12
4.25
 22
5.5
 13
0.0
 23
0.0
 14
10.0
 24
10.0
 15
10.0
 25
10.0
 16
0.0
 26
0.0
 36
1.0
 17
0.0
 27
0.0
 37
0.0
 40
11
 41
1.24
 42
50.0
 43
0.0
 44
0.0
 50
0.0
 51
0.0
 71
     0
 72
   100
 73
     1
 74
     3
 75
     0
 76
     0
 77
     0
 78
     0
  0
ENDTAB
  0
TABLE
  2
LTYPE
  5
5
330
0
100
AcDbSymbolTable
 70
     1
  0
LTYPE
  5
14
330
5
100
AcDbSymbolTableRecord
100
AcDbLinetypeTableRecord
  2
BYBLOCK
 70
     0
  3

 72
    65
 73
     0
 40
0.0
  0
LTYPE
  5
15
330
5
100
AcDbSymbolTableRecord
100
AcDbLinetypeTableRecord
  2
BYLAYER
 70
     0
  3

 72
    65
 73
     0
 40
0.0
  0
LTYPE
  5
16
330
5
100
AcDbSymbolTableRecord
100
AcDbLinetypeTableRecord
  2
CONTINUOUS
 70
     0
  3
Solid line
 72
    65
 73
     0
 40
0.0
  0
ENDTAB
  0
TABLE
  2
LAYER
  5
2
330
0
100
AcDbSymbolTable
 70
1
  0
LAYER
  5
10
330
2
100
AcDbSymbolTableRecord
100
AcDbLayerTableRecord
  2
0
 70
     0
 62
     7
  6
CONTINUOUS
  0
ENDTAB
  0
TABLE
  2
STYLE
  5
3
330
0
100
AcDbSymbolTable
 70
     1
  0
STYLE
  5
11
330
3
100
AcDbSymbolTableRecord
100
AcDbTextStyleTableRecord
  2
STANDARD
 70
     0
 40
0.0
 41
1.0
 50
0.0
 71
     0
 42
2.5
  3
txt
  4

  0
ENDTAB
  0
TABLE
  2
VIEW
  5
6
330
0
100
AcDbSymbolTable
 70
     0
  0
ENDTAB
  0
TABLE
  2
UCS
  5
7
330
0
100
AcDbSymbolTable
 70
     0
  0
ENDTAB
  0
TABLE
  2
APPID
  5
9
330
0
100
AcDbSymbolTable
 70
     2
  0
APPID
  5
12
330
9
100
AcDbSymbolTableRecord
100
AcDbRegAppTableRecord
  2
ACAD
 70
     0
  0
ENDTAB
  0
TABLE
  2
DIMSTYLE
  5
A
330
0
100
AcDbSymbolTable
 70
     1
  0
DIMSTYLE
105
27
330
A
100
AcDbSymbolTableRecord
100
AcDbDimStyleTableRecord
  2
ISO-25
 70
     0
  3

  4

  5

  6

  7

 40
1.0
 41
2.5
 42
0.625
 43
3.75
 44
1.25
 45
0.0
 46
0.0
 47
0.0
 48
0.0
140
2.5
141
2.5
142
0.0
143
0.03937007874016
144
1.0
145
0.0
146
1.0
147
0.625
 71
     0
 72
     0
 73
     0
 74
     0
 75
     0
 76
     0
 77
     1
 78
     8
170
     0
171
     3
172
     1
173
     0
174
     0
175
     0
176
     0
177
     0
178
     0
270
     2
271
     2
272
     2
273
     2
274
     3
340
11
275
     0
280
     0
281
     0
282
     0
283
     0
284
     8
285
     0
286
     0
287
     3
288
     0
  0
ENDTAB
  0
TABLE
  2
BLOCK_RECORD
  5
1
330
0
100
AcDbSymbolTable
 70
     1
  0
BLOCK_RECORD
  5
1F
330
1
100
AcDbSymbolTableRecord
100
AcDbBlockTableRecord
  2
*MODEL_SPACE
  0
BLOCK_RECORD
  5
1B
330
1
100
AcDbSymbolTableRecord
100
AcDbBlockTableRecord
  2
*PAPER_SPACE
  0
ENDTAB
  0
ENDSEC
  0
SECTION
  2
BLOCKS
  0
BLOCK
  5
20
330
1F
100
AcDbEntity
  8
0
100
AcDbBlockBegin
  2
*MODEL_SPACE
 70
     0
 10
0.0
 20
0.0
 30
0.0
  3
*MODEL_SPACE
  1

  0
ENDBLK
  5
21
330
1F
100
AcDbEntity
  8
0
100
AcDbBlockEnd
  0
BLOCK
  5
1C
330
1B
100
AcDbEntity
 67
     1
  8
0
100
AcDbBlockBegin
  2
*PAPER_SPACE
  1

  0
ENDBLK
  5
1D
330
1B
100
AcDbEntity
 67
     1
  8
0
100
AcDbBlockEnd
  0
ENDSEC
  0
SECTION
  2
ENTITIES
0
LINE
8
Layer 1
62
4
5
100
100
AcDbEntity
100
AcDbLine
10
0.846667
20
71.128887
30
0.0
11
-0.846667
21
69.435554
31
0.0
0
LINE
8
Layer 1
62
4
5
101
100
AcDbEntity
100
AcDbLine
10
0.000000
20
71.693332
30
0.0
11
0.000000
21
68.871109
31
0.0
0
LINE
8
Layer 1
62
4
5
102
100
AcDbEntity
100
AcDbLine
10
2.257778
20
69.153332
30
0.0
11
1.128889
21
68.024443
31
0.0
0
LINE
8
Layer 1
62
4
5
103
100
AcDbEntity
100
AcDbLine
10
1.693333
20
69.717776
30
0.0
11
0.564444
21
68.588887
31
0.0
0
LINE
8
Layer 1
62
4
5
104
100
AcDbEntity
100
AcDbLine
10
1.128889
20
70.282221
30
0.0
11
0.000000
21
69.153332
31
0.0
0
LINE
8
Layer 1
62
4
5
105
100
AcDbEntity
100
AcDbLine
10
-0.500000
20
-227.217791
30
0.0
11
0.500000
21
-226.217793
31
0.0
0
LINE
8
Layer 1
62
4
5
106
100
AcDbEntity
100
AcDbLine
10
-0.500000
20
-226.717778
30
0.0
11
-1.000000
21
-226.717778
31
0.0
0
LINE
8
Layer 1
62
4
5
107
100
AcDbEntity
100
AcDbLine
10
0.000000
20
-226.717778
30
0.0
11
-1.000000
21
-226.717778
31
0.0
0
LINE
8
Layer 1
62
4
5
108
100
AcDbEntity
100
AcDbLine
10
381.040809
20
-79.885427
30
0.0
11
379.874131
21
-79.885427
31
0.0
0
LINE
8
Layer 1
62
4
5
109
100
AcDbEntity
100
AcDbLine
10
379.874131
20
-79.885427
30
0.0
11
380.457456
21
-83.385426
31
0.0
0
LINE
8
Layer 1
62
4
5
10a
100
AcDbEntity
100
AcDbLine
10
380.457456
20
-83.385426
30
0.0
11
381.040809
21
-79.885427
31
0.0
0
LINE
8
Layer 1
62
4
5
10b
100
AcDbEntity
100
AcDbLine
10
381.040809
20
-79.885427
30
0.0
11
381.040809
21
-79.885427
31
0.0
0
LINE
8
Layer 1
62
4
5
10c
100
AcDbEntity
100
AcDbLine
10
381.040809
20
-90.885428
30
0.0
11
380.457456
21
-87.385426
31
0.0
0
LINE
8
Layer 1
62
4
5
10d
100
AcDbEntity
100
AcDbLine
10
380.457456
20
-87.385426
30
0.0
11
379.874131
21
-90.885428
31
0.0
0
LINE
8
Layer 1
62
4
5
10e
100
AcDbEntity
100
AcDbLine
10
379.874131
20
-90.885428
30
0.0
11
381.040809
21
-90.885428
31
0.0
0
LINE
8
Layer 1
62
4
5
10f
100
AcDbEntity
100
AcDbLine
10
381.040809
20
-90.885428
30
0.0
11
381.040809
21
-90.885428
31
0.0
0
LINE
8
Layer 1
62
4
5
110
100
AcDbEntity
100
AcDbLine
10
320.501574
20
-83.385426
30
0.0
11
382.207460
21
-83.385426
31
0.0
0
LINE
8
Layer 1
62
4
5
111
100
AcDbEntity
100
AcDbLine
10
346.763255
20
-87.385426
30
0.0
11
382.207460
21
-87.385426
31
0.0
0
LINE
8
Layer 1
62
4
5
112
100
AcDbEntity
100
AcDbLine
10
380.457456
20
-76.385428
30
0.0
11
380.457456
21
-94.385426
31
0.0
0
LINE
8
Layer 1
62
4
5
113
100
AcDbEntity
100
AcDbLine
10
310.725114
20
-71.016975
30
0.0
11
301.896328
21
-77.578416
31
0.0
0
LINE
8
Layer 1
62
4
5
114
100
AcDbEntity
100
AcDbLine
10
301.896328
20
-77.578416
30
0.0
11
263.173204
21
-106.356949
31
0.0
0
LINE
8
Layer 1
62
4
5
115
100
AcDbEntity
100
AcDbLine
10
308.263911
20
-73.572901
30
0.0
11
307.568007
21
-72.636513
31
0.0
0
LINE
8
Layer 1
62
4
5
116
100
AcDbEntity
100
AcDbLine
10
307.568007
20
-72.636513
30
0.0
11
305.106804
21
-75.192438
31
0.0
0
LINE
8
Layer 1
62
4
5
117
100
AcDbEntity
100
AcDbLine
10
305.106804
20
-75.192438
30
0.0
11
308.263911
21
-73.572901
31
0.0
0
LINE
8
Layer 1
62
4
5
118
100
AcDbEntity
100
AcDbLine
10
308.263911
20
-73.572901
30
0.0
11
308.263911
21
-73.572901
31
0.0
0
LINE
8
Layer 1
62
4
5
119
100
AcDbEntity
100
AcDbLine
10
299.435125
20
-80.134341
30
0.0
11
301.896328
21
-77.578416
31
0.0
0
LINE
8
Layer 1
62
4
5
11a
100
AcDbEntity
100
AcDbLine
10
301.896328
20
-77.578416
30
0.0
11
298.739221
21
-79.197956
31
0.0
0
LINE
8
Layer 1
62
4
5
11b
100
AcDbEntity
100
AcDbLine
10
298.739221
20
-79.197956
30
0.0
11
299.435125
21
-80.134341
31
0.0
0
LINE
8
Layer 1
62
4
5
11c
100
AcDbEntity
100
AcDbLine
10
299.435125
20
-80.134341
30
0.0
11
299.435125
21
-80.134341
31
0.0
0
LINE
8
Layer 1
62
4
5
11d
100
AcDbEntity
100
AcDbLine
10
414.003490
20
-20.885427
30
0.0
11
413.420165
21
-17.385428
31
0.0
0
LINE
8
Layer 1
62
4
5
11e
100
AcDbEntity
100
AcDbLine
10
413.420165
20
-17.385428
30
0.0
11
412.836840
21
-20.885427
31
0.0
0
LINE
8
Layer 1
62
4
5
11f
100
AcDbEntity
100
AcDbLine
10
412.836840
20
-20.885427
30
0.0
11
414.003490
21
-20.885427
31
0.0
0
LINE
8
Layer 1
62
4
5
120
100
AcDbEntity
100
AcDbLine
10
414.003490
20
-20.885427
30
0.0
11
414.003490
21
-20.885427
31
0.0
0
LINE
8
Layer 1
62
4
5
121
100
AcDbEntity
100
AcDbLine
10
414.003490
20
-83.885428
30
0.0
11
412.836840
21
-83.885428
31
0.0
0
LINE
8
Layer 1
62
4
5
122
100
AcDbEntity
100
AcDbLine
10
412.836840
20
-83.885428
30
0.0
11
413.420165
21
-87.385426
31
0.0
0
LINE
8
Layer 1
62
4
5
123
100
AcDbEntity
100
AcDbLine
10
413.420165
20
-87.385426
30
0.0
11
414.003490
21
-83.885428
31
0.0
0
LINE
8
Layer 1
62
4
5
124
100
AcDbEntity
100
AcDbLine
10
414.003490
20
-83.885428
30
0.0
11
414.003490
21
-83.885428
31
0.0
0
LINE
8
Layer 1
62
4
5
125
100
AcDbEntity
100
AcDbLine
10
346.763255
20
-17.385428
30
0.0
11
415.170168
21
-17.385428
31
0.0
0
LINE
8
Layer 1
62
4
5
126
100
AcDbEntity
100
AcDbLine
10
346.763255
20
-87.385426
30
0.0
11
415.170168
21
-87.385426
31
0.0
0
LINE
8
Layer 1
62
4
5
127
100
AcDbEntity
100
AcDbLine
10
413.420165
20
-17.385428
30
0.0
11
413.420165
21
-87.385426
31
0.0
0
LINE
8
Layer 1
62
4
5
128
100
AcDbEntity
100
AcDbLine
10
381.037282
20
-79.885427
30
0.0
11
379.870631
21
-79.885427
31
0.0
0
LINE
8
Layer 1
62
4
5
129
100
AcDbEntity
100
AcDbLine
10
379.870631
20
-79.885427
30
0.0
11
380.453956
21
-83.385426
31
0.0
0
LINE
8
Layer 1
62
4
5
12a
100
AcDbEntity
100
AcDbLine
10
380.453956
20
-83.385426
30
0.0
11
381.037282
21
-79.885427
31
0.0
0
LINE
8
Layer 1
62
4
5
12b
100
AcDbEntity
100
AcDbLine
10
381.037282
20
-79.885427
30
0.0
11
381.037282
21
-79.885427
31
0.0
0
LINE
8
Layer 1
62
4
5
12c
100
AcDbEntity
100
AcDbLine
10
381.037282
20
-79.885427
30
0.0
11
380.453956
21
-76.385428
31
0.0
0
LINE
8
Layer 1
62
4
5
12d
100
AcDbEntity
100
AcDbLine
10
380.453956
20
-76.385428
30
0.0
11
379.870631
21
-79.885427
31
0.0
0
LINE
8
Layer 1
62
4
5
12e
100
AcDbEntity
100
AcDbLine
10
379.870631
20
-79.885427
30
0.0
11
381.037282
21
-79.885427
31
0.0
0
LINE
8
Layer 1
62
4
5
12f
100
AcDbEntity
100
AcDbLine
10
381.037282
20
-79.885427
30
0.0
11
381.037282
21
-79.885427
31
0.0
0
LINE
8
Layer 1
62
4
5
130
100
AcDbEntity
100
AcDbLine
10
320.501574
20
-83.385426
30
0.0
11
382.203960
21
-83.385426
31
0.0
0
LINE
8
Layer 1
62
4
5
131
100
AcDbEntity
100
AcDbLine
10
346.763255
20
-76.385428
30
0.0
11
382.203960
21
-76.385428
31
0.0
0
LINE
8
Layer 1
62
4
5
132
100
AcDbEntity
100
AcDbLine
10
380.453956
20
-83.385426
30
0.0
11
380.453956
21
-76.385428
31
0.0
0
LINE
8
Layer 1
62
4
5
133
100
AcDbEntity
100
AcDbLine
10
295.799002
20
-18.885428
30
0.0
11
296.382355
21
-22.385426
31
0.0
0
LINE
8
Layer 1
62
4
5
134
100
AcDbEntity
100
AcDbLine
10
296.382355
20
-22.385426
30
0.0
11
296.965680
21
-18.885428
31
0.0
0
LINE
8
Layer 1
62
4
5
135
100
AcDbEntity
100
AcDbLine
10
296.965680
20
-18.885428
30
0.0
11
295.799002
21
-18.885428
31
0.0
0
LINE
8
Layer 1
62
4
5
136
100
AcDbEntity
100
AcDbLine
10
295.799002
20
-18.885428
30
0.0
11
295.799002
21
-18.885428
31
0.0
0
LINE
8
Layer 1
62
4
5
137
100
AcDbEntity
100
AcDbLine
10
295.799002
20
-20.885427
30
0.0
11
296.965680
21
-20.885427
31
0.0
0
LINE
8
Layer 1
62
4
5
138
100
AcDbEntity
100
AcDbLine
10
296.965680
20
-20.885427
30
0.0
11
296.382355
21
-17.385428
31
0.0
0
LINE
8
Layer 1
62
4
5
139
100
AcDbEntity
100
AcDbLine
10
296.382355
20
-17.385428
30
0.0
11
295.799002
21
-20.885427
31
0.0
0
LINE
8
Layer 1
62
4
5
13a
100
AcDbEntity
100
AcDbLine
10
295.799002
20
-20.885427
30
0.0
11
295.799002
21
-20.885427
31
0.0
0
LINE
8
Layer 1
62
4
5
13b
100
AcDbEntity
100
AcDbLine
10
309.013267
20
-22.385426
30
0.0
11
294.632352
21
-22.385426
31
0.0
0
LINE
8
Layer 1
62
4
5
13c
100
AcDbEntity
100
AcDbLine
10
294.239865
20
-17.385428
30
0.0
11
298.132359
21
-17.385428
31
0.0
0
LINE
8
Layer 1
62
4
5
13d
100
AcDbEntity
100
AcDbLine
10
296.382355
20
-22.385426
30
0.0
11
296.382355
21
-17.385428
31
0.0
0
LINE
8
Layer 1
62
4
5
13e
100
AcDbEntity
100
AcDbLine
10
344.106246
20
-28.198561
30
0.0
11
343.935106
21
-31.742710
31
0.0
0
LINE
8
Layer 1
62
4
5
13f
100
AcDbEntity
100
AcDbLine
10
343.935106
20
-31.742710
30
0.0
11
345.246452
21
-28.445638
31
0.0
0
LINE
8
Layer 1
62
4
5
140
100
AcDbEntity
100
AcDbLine
10
345.246452
20
-28.445638
30
0.0
11
344.106246
21
-28.198561
31
0.0
0
LINE
8
Layer 1
62
4
5
141
100
AcDbEntity
100
AcDbLine
10
344.106246
20
-28.198561
30
0.0
11
344.106246
21
-28.198561
31
0.0
0
LINE
8
Layer 1
62
4
5
142
100
AcDbEntity
100
AcDbLine
10
345.580321
20
-25.909552
30
0.0
11
345.167035
21
-22.385426
31
0.0
0
LINE
8
Layer 1
62
4
5
143
100
AcDbEntity
100
AcDbLine
10
345.167035
20
-22.385426
30
0.0
11
344.415025
21
-25.853102
31
0.0
0
LINE
8
Layer 1
62
4
5
144
100
AcDbEntity
100
AcDbLine
10
344.415025
20
-25.853102
30
0.0
11
345.580321
21
-25.909552
31
0.0
0
LINE
8
Layer 1
62
4
5
145
100
AcDbEntity
100
AcDbLine
10
345.580321
20
-25.909552
30
0.0
11
345.580321
21
-25.909552
31
0.0
0
LINE
8
Layer 1
62
4
5
146
100
AcDbEntity
100
AcDbLine
10
337.266590
20
-29.955885
30
0.0
11
345.625476
21
-32.195643
31
0.0
0
LINE
8
Layer 1
62
4
5
147
100
AcDbEntity
100
AcDbLine
10
343.935106
20
-31.742710
30
0.0
11
344.472583
21
-29.437437
31
0.0
0
LINE
8
Layer 1
62
4
5
148
100
AcDbEntity
100
AcDbLine
10
344.472583
20
-29.437437
30
0.0
11
344.857725
21
-27.104441
31
0.0
0
LINE
8
Layer 1
62
4
5
149
100
AcDbEntity
100
AcDbLine
10
344.857725
20
-27.104441
30
0.0
11
345.089540
21
-24.751258
31
0.0
0
LINE
8
Layer 1
62
4
5
14a
100
AcDbEntity
100
AcDbLine
10
345.089540
20
-24.751258
30
0.0
11
345.167035
21
-22.385426
31
0.0
0
LINE
8
Layer 1
62
4
5
14b
100
AcDbEntity
100
AcDbLine
10
317.385220
20
-19.841278
30
0.0
11
307.338871
21
-22.894256
31
0.0
0
LINE
8
Layer 1
62
4
5
14c
100
AcDbEntity
100
AcDbLine
10
307.338871
20
-22.894256
30
0.0
11
272.920144
21
-33.353731
31
0.0
0
LINE
8
Layer 1
62
4
5
14d
100
AcDbEntity
100
AcDbLine
10
314.206043
20
-21.417068
30
0.0
11
313.866812
21
-20.300806
31
0.0
0
LINE
8
Layer 1
62
4
5
14e
100
AcDbEntity
100
AcDbLine
10
313.866812
20
-20.300806
30
0.0
11
310.687664
21
-21.876597
31
0.0
0
LINE
8
Layer 1
62
4
5
14f
100
AcDbEntity
100
AcDbLine
10
310.687664
20
-21.876597
30
0.0
11
314.206043
21
-21.417068
31
0.0
0
LINE
8
Layer 1
62
4
5
150
100
AcDbEntity
100
AcDbLine
10
314.206043
20
-21.417068
30
0.0
11
314.206043
21
-21.417068
31
0.0
0
LINE
8
Layer 1
62
4
5
151
100
AcDbEntity
100
AcDbLine
10
304.159694
20
-24.470047
30
0.0
11
307.338871
21
-22.894256
31
0.0
0
LINE
8
Layer 1
62
4
5
152
100
AcDbEntity
100
AcDbLine
10
307.338871
20
-22.894256
30
0.0
11
303.820463
21
-23.353784
31
0.0
0
LINE
8
Layer 1
62
4
5
153
100
AcDbEntity
100
AcDbLine
10
303.820463
20
-23.353784
30
0.0
11
304.159694
21
-24.470047
31
0.0
0
LINE
8
Layer 1
62
4
5
154
100
AcDbEntity
100
AcDbLine
10
304.159694
20
-24.470047
30
0.0
11
304.159694
21
-24.470047
31
0.0
0
LINE
8
Layer 1
62
4
5
155
100
AcDbEntity
100
AcDbLine
10
312.513246
20
-13.223105
30
0.0
11
309.013267
21
-13.806438
31
0.0
0
LINE
8
Layer 1
62
4
5
156
100
AcDbEntity
100
AcDbLine
10
309.013267
20
-13.806438
30
0.0
11
312.513246
21
-14.389772
31
0.0
0
LINE
8
Layer 1
62
4
5
157
100
AcDbEntity
100
AcDbLine
10
312.513246
20
-14.389772
30
0.0
11
312.513246
21
-13.223105
31
0.0
0
LINE
8
Layer 1
62
4
5
158
100
AcDbEntity
100
AcDbLine
10
312.513246
20
-13.223105
30
0.0
11
312.513246
21
-13.223105
31
0.0
0
LINE
8
Layer 1
62
4
5
159
100
AcDbEntity
100
AcDbLine
10
336.513255
20
-13.223105
30
0.0
11
336.513255
21
-14.389772
31
0.0
0
LINE
8
Layer 1
62
4
5
15a
100
AcDbEntity
100
AcDbLine
10
336.513255
20
-14.389772
30
0.0
11
340.013262
21
-13.806438
31
0.0
0
LINE
8
Layer 1
62
4
5
15b
100
AcDbEntity
100
AcDbLine
10
340.013262
20
-13.806438
30
0.0
11
336.513255
21
-13.223105
31
0.0
0
LINE
8
Layer 1
62
4
5
15c
100
AcDbEntity
100
AcDbLine
10
336.513255
20
-13.223105
30
0.0
11
336.513255
21
-13.223105
31
0.0
0
LINE
8
Layer 1
62
4
5
15d
100
AcDbEntity
100
AcDbLine
10
309.013267
20
-22.385426
30
0.0
11
309.013267
21
-12.056437
31
0.0
0
LINE
8
Layer 1
62
4
5
15e
100
AcDbEntity
100
AcDbLine
10
340.013262
20
-22.385426
30
0.0
11
340.013262
21
-12.056437
31
0.0
0
LINE
8
Layer 1
62
4
5
15f
100
AcDbEntity
100
AcDbLine
10
309.013267
20
-13.806438
30
0.0
11
340.013262
21
-13.806438
31
0.0
0
LINE
8
Layer 1
62
4
5
160
100
AcDbEntity
100
AcDbLine
10
294.027550
20
-91.776714
30
0.0
11
290.488511
21
-91.520749
31
0.0
0
LINE
8
Layer 1
62
4
5
161
100
AcDbEntity
100
AcDbLine
10
290.488511
20
-91.520749
30
0.0
11
293.753230
21
-92.910671
31
0.0
0
LINE
8
Layer 1
62
4
5
162
100
AcDbEntity
100
AcDbLine
10
293.753230
20
-92.910671
30
0.0
11
294.027550
21
-91.776714
31
0.0
0
LINE
8
Layer 1
62
4
5
163
100
AcDbEntity
100
AcDbLine
10
294.027550
20
-91.776714
30
0.0
11
294.027550
21
-91.776714
31
0.0
0
LINE
8
Layer 1
62
4
5
164
100
AcDbEntity
100
AcDbLine
10
305.500052
20
-94.457170
30
0.0
11
309.013267
21
-93.959578
31
0.0
0
LINE
8
Layer 1
62
4
5
165
100
AcDbEntity
100
AcDbLine
10
309.013267
20
-93.959578
30
0.0
11
305.528557
21
-93.290853
31
0.0
0
LINE
8
Layer 1
62
4
5
166
100
AcDbEntity
100
AcDbLine
10
305.528557
20
-93.290853
30
0.0
11
305.500052
21
-94.457170
31
0.0
0
LINE
8
Layer 1
62
4
5
167
100
AcDbEntity
100
AcDbLine
10
305.500052
20
-94.457170
30
0.0
11
305.500052
21
-94.457170
31
0.0
0
LINE
8
Layer 1
62
4
5
168
100
AcDbEntity
100
AcDbLine
10
301.442797
20
-50.638758
30
0.0
11
290.035573
21
-93.211119
31
0.0
0
LINE
8
Layer 1
62
4
5
169
100
AcDbEntity
100
AcDbLine
10
309.013267
20
-51.635426
30
0.0
11
309.013267
21
-95.709579
31
0.0
0
LINE
8
Layer 1
62
4
5
16a
100
AcDbEntity
100
AcDbLine
10
290.488511
20
-91.520749
30
0.0
11
295.052296
21
-92.584791
31
0.0
0
LINE
8
Layer 1
62
4
5
16b
100
AcDbEntity
100
AcDbLine
10
295.052296
20
-92.584791
30
0.0
11
299.670965
21
-93.347252
31
0.0
0
LINE
8
Layer 1
62
4
5
16c
100
AcDbEntity
100
AcDbLine
10
299.670965
20
-93.347252
30
0.0
11
304.329596
21
-93.806170
31
0.0
0
LINE
8
Layer 1
62
4
5
16d
100
AcDbEntity
100
AcDbLine
10
304.329596
20
-93.806170
30
0.0
11
309.013267
21
-93.959578
31
0.0
0
LINE
8
Layer 1
62
4
5
16e
100
AcDbEntity
100
AcDbLine
10
302.739862
20
-49.638723
30
0.0
11
299.239855
21
-50.222057
31
0.0
0
LINE
8
Layer 1
62
4
5
16f
100
AcDbEntity
100
AcDbLine
10
299.239855
20
-50.222057
30
0.0
11
302.739862
21
-50.805390
31
0.0
0
LINE
8
Layer 1
62
4
5
170
100
AcDbEntity
100
AcDbLine
10
302.739862
20
-50.805390
30
0.0
11
302.739862
21
-49.638723
31
0.0
0
LINE
8
Layer 1
62
4
5
171
100
AcDbEntity
100
AcDbLine
10
302.739862
20
-49.638723
30
0.0
11
302.739862
21
-49.638723
31
0.0
0
LINE
8
Layer 1
62
4
5
172
100
AcDbEntity
100
AcDbLine
10
290.739858
20
-49.638723
30
0.0
11
290.739858
21
-50.805390
31
0.0
0
LINE
8
Layer 1
62
4
5
173
100
AcDbEntity
100
AcDbLine
10
290.739858
20
-50.805390
30
0.0
11
294.239865
21
-50.222057
31
0.0
0
LINE
8
Layer 1
62
4
5
174
100
AcDbEntity
100
AcDbLine
10
294.239865
20
-50.222057
30
0.0
11
290.739858
21
-49.638723
31
0.0
0
LINE
8
Layer 1
62
4
5
175
100
AcDbEntity
100
AcDbLine
10
290.739858
20
-49.638723
30
0.0
11
290.739858
21
-49.638723
31
0.0
0
LINE
8
Layer 1
62
4
5
176
100
AcDbEntity
100
AcDbLine
10
299.239855
20
-52.329128
30
0.0
11
299.239855
21
-48.472056
31
0.0
0
LINE
8
Layer 1
62
4
5
177
100
AcDbEntity
100
AcDbLine
10
294.239865
20
-87.385426
30
0.0
11
294.239865
21
-48.472056
31
0.0
0
LINE
8
Layer 1
62
4
5
178
100
AcDbEntity
100
AcDbLine
10
306.239870
20
-50.222057
30
0.0
11
287.915660
21
-50.222057
31
0.0
0
LINE
8
Layer 1
62
4
5
179
100
AcDbEntity
100
AcDbLine
10
338.263258
20
-24.593787
30
0.0
11
341.763265
21
-24.010453
31
0.0
0
LINE
8
Layer 1
62
4
5
17a
100
AcDbEntity
100
AcDbLine
10
341.763265
20
-24.010453
30
0.0
11
338.263258
21
-23.427120
31
0.0
0
LINE
8
Layer 1
62
4
5
17b
100
AcDbEntity
100
AcDbLine
10
338.263258
20
-23.427120
30
0.0
11
338.263258
21
-24.593787
31
0.0
0
LINE
8
Layer 1
62
4
5
17c
100
AcDbEntity
100
AcDbLine
10
338.263258
20
-24.593787
30
0.0
11
338.263258
21
-24.593787
31
0.0
0
LINE
8
Layer 1
62
4
5
17d
100
AcDbEntity
100
AcDbLine
10
350.263262
20
-24.593787
30
0.0
11
350.263262
21
-23.427120
31
0.0
0
LINE
8
Layer 1
62
4
5
17e
100
AcDbEntity
100
AcDbLine
10
350.263262
20
-23.427120
30
0.0
11
346.763255
21
-24.010453
31
0.0
0
LINE
8
Layer 1
62
4
5
17f
100
AcDbEntity
100
AcDbLine
10
346.763255
20
-24.010453
30
0.0
11
350.263262
21
-24.593787
31
0.0
0
LINE
8
Layer 1
62
4
5
180
100
AcDbEntity
100
AcDbLine
10
350.263262
20
-24.593787
30
0.0
11
350.263262
21
-24.593787
31
0.0
0
LINE
8
Layer 1
62
4
5
181
100
AcDbEntity
100
AcDbLine
10
341.763265
20
-22.385426
30
0.0
11
341.763265
21
-25.760451
31
0.0
0
LINE
8
Layer 1
62
4
5
182
100
AcDbEntity
100
AcDbLine
10
334.763251
20
-24.010453
30
0.0
11
358.611960
21
-24.010453
31
0.0
0
LINE
8
Layer 1
62
4
5
183
100
AcDbEntity
100
AcDbLine
10
307.001559
20
-65.474867
30
0.0
11
303.501552
21
-66.058201
31
0.0
0
LINE
8
Layer 1
62
4
5
184
100
AcDbEntity
100
AcDbLine
10
303.501552
20
-66.058201
30
0.0
11
307.001559
21
-66.641534
31
0.0
0
LINE
8
Layer 1
62
4
5
185
100
AcDbEntity
100
AcDbLine
10
307.001559
20
-66.641534
30
0.0
11
307.001559
21
-65.474867
31
0.0
0
LINE
8
Layer 1
62
4
5
186
100
AcDbEntity
100
AcDbLine
10
307.001559
20
-65.474867
30
0.0
11
307.001559
21
-65.474867
31
0.0
0
LINE
8
Layer 1
62
4
5
187
100
AcDbEntity
100
AcDbLine
10
334.001562
20
-65.474867
30
0.0
11
334.001562
21
-66.641534
31
0.0
0
LINE
8
Layer 1
62
4
5
188
100
AcDbEntity
100
AcDbLine
10
334.001562
20
-66.641534
30
0.0
11
337.501569
21
-66.058201
31
0.0
0
LINE
8
Layer 1
62
4
5
189
100
AcDbEntity
100
AcDbLine
10
337.501569
20
-66.058201
30
0.0
11
334.001562
21
-65.474867
31
0.0
0
LINE
8
Layer 1
62
4
5
18a
100
AcDbEntity
100
AcDbLine
10
334.001562
20
-65.474867
30
0.0
11
334.001562
21
-65.474867
31
0.0
0
LINE
8
Layer 1
62
4
5
18b
100
AcDbEntity
100
AcDbLine
10
303.501552
20
-76.385428
30
0.0
11
303.501552
21
-64.308200
31
0.0
0
LINE
8
Layer 1
62
4
5
18c
100
AcDbEntity
100
AcDbLine
10
337.501569
20
-76.385428
30
0.0
11
337.501569
21
-64.308200
31
0.0
0
LINE
8
Layer 1
62
4
5
18d
100
AcDbEntity
100
AcDbLine
10
303.501552
20
-66.058201
30
0.0
11
337.501569
21
-66.058201
31
0.0
0
LINE
8
Layer 1
62
4
5
18e
100
AcDbEntity
100
AcDbLine
10
285.299009
20
-49.885428
30
0.0
11
285.882334
21
-53.385426
31
0.0
0
LINE
8
Layer 1
62
4
5
18f
100
AcDbEntity
100
AcDbLine
10
285.882334
20
-53.385426
30
0.0
11
286.465687
21
-49.885428
31
0.0
0
LINE
8
Layer 1
62
4
5
190
100
AcDbEntity
100
AcDbLine
10
286.465687
20
-49.885428
30
0.0
11
285.299009
21
-49.885428
31
0.0
0
LINE
8
Layer 1
62
4
5
191
100
AcDbEntity
100
AcDbLine
10
285.299009
20
-49.885428
30
0.0
11
285.299009
21
-49.885428
31
0.0
0
LINE
8
Layer 1
62
4
5
192
100
AcDbEntity
100
AcDbLine
10
285.299009
20
-25.885428
30
0.0
11
286.465687
21
-25.885428
31
0.0
0
LINE
8
Layer 1
62
4
5
193
100
AcDbEntity
100
AcDbLine
10
286.465687
20
-25.885428
30
0.0
11
285.882334
21
-22.385429
31
0.0
0
LINE
8
Layer 1
62
4
5
194
100
AcDbEntity
100
AcDbLine
10
285.882334
20
-22.385429
30
0.0
11
285.299009
21
-25.885428
31
0.0
0
LINE
8
Layer 1
62
4
5
195
100
AcDbEntity
100
AcDbLine
10
285.299009
20
-25.885428
30
0.0
11
285.299009
21
-25.885428
31
0.0
0
LINE
8
Layer 1
62
4
5
196
100
AcDbEntity
100
AcDbLine
10
309.013267
20
-53.385426
30
0.0
11
284.132359
21
-53.385426
31
0.0
0
LINE
8
Layer 1
62
4
5
197
100
AcDbEntity
100
AcDbLine
10
309.013267
20
-22.385426
30
0.0
11
284.132359
21
-22.385426
31
0.0
0
LINE
8
Layer 1
62
4
5
198
100
AcDbEntity
100
AcDbLine
10
285.882334
20
-53.385426
30
0.0
11
285.882334
21
-22.385429
31
0.0
0
LINE
8
Layer 1
62
4
5
199
100
AcDbEntity
100
AcDbLine
10
353.252363
20
-92.035935
30
0.0
11
350.561035
21
-94.348303
31
0.0
0
LINE
8
Layer 1
62
4
5
19a
100
AcDbEntity
100
AcDbLine
10
350.561035
20
-94.348303
30
0.0
11
353.856854
21
-93.033791
31
0.0
0
LINE
8
Layer 1
62
4
5
19b
100
AcDbEntity
100
AcDbLine
10
353.856854
20
-93.033791
30
0.0
11
353.252363
21
-92.035935
31
0.0
0
LINE
8
Layer 1
62
4
5
19c
100
AcDbEntity
100
AcDbLine
10
353.252363
20
-92.035935
30
0.0
11
353.252363
21
-92.035935
31
0.0
0
LINE
8
Layer 1
62
4
5
19d
100
AcDbEntity
100
AcDbLine
10
365.647958
20
-83.986153
30
0.0
11
367.770692
21
-81.142871
31
0.0
0
LINE
8
Layer 1
62
4
5
19e
100
AcDbEntity
100
AcDbLine
10
367.770692
20
-81.142871
30
0.0
11
364.840548
21
-83.144004
31
0.0
0
LINE
8
Layer 1
62
4
5
19f
100
AcDbEntity
100
AcDbLine
10
364.840548
20
-83.144004
30
0.0
11
365.647958
21
-83.986153
31
0.0
0
LINE
8
Layer 1
62
4
5
1a0
100
AcDbEntity
100
AcDbLine
10
365.647958
20
-83.986153
30
0.0
11
365.647958
21
-83.986153
31
0.0
0
LINE
8
Layer 1
62
4
5
1a1
100
AcDbEntity
100
AcDbLine
10
330.058578
20
-58.836975
30
0.0
11
351.436037
21
-95.863847
31
0.0
0
LINE
8
Layer 1
62
4
5
1a2
100
AcDbEntity
100
AcDbLine
10
338.775830
20
-52.147989
30
0.0
11
369.008124
21
-82.380308
31
0.0
0
LINE
8
Layer 1
62
4
5
1a3
100
AcDbEntity
100
AcDbLine
10
350.561035
20
-94.348303
30
0.0
11
355.181092
21
-91.475256
31
0.0
0
LINE
8
Layer 1
62
4
5
1a4
100
AcDbEntity
100
AcDbLine
10
355.181092
20
-91.475256
30
0.0
11
359.598629
21
-88.309577
31
0.0
0
LINE
8
Layer 1
62
4
5
1a5
100
AcDbEntity
100
AcDbLine
10
359.598629
20
-88.309577
30
0.0
11
363.799783
21
-84.861903
31
0.0
0
LINE
8
Layer 1
62
4
5
1a6
100
AcDbEntity
100
AcDbLine
10
363.799783
20
-84.861903
30
0.0
11
367.770692
21
-81.142871
31
0.0
0
LINE
8
Layer 1
62
4
5
1a7
100
AcDbEntity
100
AcDbLine
10
324.513250
20
-37.885426
30
0.0
11
364.913305
21
-31.831723
31
0.0
0
LINE
8
Layer 1
62
4
5
1a8
100
AcDbEntity
100
AcDbLine
10
339.755678
20
-35.011597
30
0.0
11
336.380751
21
-36.107153
31
0.0
0
LINE
8
Layer 1
62
4
5
1a9
100
AcDbEntity
100
AcDbLine
10
336.380751
20
-36.107153
30
0.0
11
339.928567
21
-36.165381
31
0.0
0
LINE
8
Layer 1
62
4
5
1aa
100
AcDbEntity
100
AcDbLine
10
339.928567
20
-36.165381
30
0.0
11
339.755678
21
-35.011597
31
0.0
0
LINE
8
Layer 1
62
4
5
1ab
100
AcDbEntity
100
AcDbLine
10
339.755678
20
-35.011597
30
0.0
11
339.755678
21
-35.011597
31
0.0
0
LINE
8
Layer 1
62
4
5
1ac
100
AcDbEntity
100
AcDbLine
10
297.739872
20
-3.050602
30
0.0
11
294.239865
21
-3.633936
31
0.0
0
LINE
8
Layer 1
62
4
5
1ad
100
AcDbEntity
100
AcDbLine
10
294.239865
20
-3.633936
30
0.0
11
297.739872
21
-4.217269
31
0.0
0
LINE
8
Layer 1
62
4
5
1ae
100
AcDbEntity
100
AcDbLine
10
297.739872
20
-4.217269
30
0.0
11
297.739872
21
-3.050602
31
0.0
0
LINE
8
Layer 1
62
4
5
1af
100
AcDbEntity
100
AcDbLine
10
297.739872
20
-3.050602
30
0.0
11
297.739872
21
-3.050602
31
0.0
0
LINE
8
Layer 1
62
4
5
1b0
100
AcDbEntity
100
AcDbLine
10
343.263248
20
-3.050602
30
0.0
11
343.263248
21
-4.217269
31
0.0
0
LINE
8
Layer 1
62
4
5
1b1
100
AcDbEntity
100
AcDbLine
10
343.263248
20
-4.217269
30
0.0
11
346.763255
21
-3.633936
31
0.0
0
LINE
8
Layer 1
62
4
5
1b2
100
AcDbEntity
100
AcDbLine
10
346.763255
20
-3.633936
30
0.0
11
343.263248
21
-3.050602
31
0.0
0
LINE
8
Layer 1
62
4
5
1b3
100
AcDbEntity
100
AcDbLine
10
343.263248
20
-3.050602
30
0.0
11
343.263248
21
-3.050602
31
0.0
0
LINE
8
Layer 1
62
4
5
1b4
100
AcDbEntity
100
AcDbLine
10
294.239865
20
-17.385428
30
0.0
11
294.239865
21
-1.883935
31
0.0
0
LINE
8
Layer 1
62
4
5
1b5
100
AcDbEntity
100
AcDbLine
10
346.763255
20
-17.385428
30
0.0
11
346.763255
21
-1.883935
31
0.0
0
LINE
8
Layer 1
62
4
5
1b6
100
AcDbEntity
100
AcDbLine
10
294.239865
20
-3.633936
30
0.0
11
346.763255
21
-3.633936
31
0.0
0
LINE
8
bracket
62
4
5
1b7
100
AcDbEntity
100
AcDbLine
10
294.239865
20
-17.385428
30
0.0
11
346.763255
21
-17.385428
31
0.0
0
LINE
8
bracket
62
4
5
1b8
100
AcDbEntity
100
AcDbLine
10
346.763255
20
-17.385428
30
0.0
11
346.763255
21
-87.385426
31
0.0
0
LINE
8
bracket
62
4
5
1b9
100
AcDbEntity
100
AcDbLine
10
346.763255
20
-87.385426
30
0.0
11
294.239865
21
-87.385426
31
0.0
0
LINE
8
bracket
62
4
5
1ba
100
AcDbEntity
100
AcDbLine
10
294.239865
20
-87.385426
30
0.0
11
294.239865
21
-17.385428
31
0.0
0
LINE
8
bracket
62
4
5
1bb
100
AcDbEntity
100
AcDbLine
10
305.501548
20
-76.385428
30
0.0
11
305.234950
21
-75.383719
31
0.0
0
LINE
8
bracket
62
4
5
1bc
100
AcDbEntity
100
AcDbLine
10
305.234950
20
-75.383719
30
0.0
11
304.502720
21
-74.650006
31
0.0
0
LINE
8
bracket
62
4
5
1bd
100
AcDbEntity
100
AcDbLine
10
304.502720
20
-74.650006
30
0.0
11
303.501552
21
-74.381383
31
0.0
0
LINE
8
bracket
62
4
5
1be
100
AcDbEntity
100
AcDbLine
10
303.501552
20
-74.381383
30
0.0
11
302.500384
21
-74.650006
31
0.0
0
LINE
8
bracket
62
4
5
1bf
100
AcDbEntity
100
AcDbLine
10
302.500384
20
-74.650006
30
0.0
11
301.768154
21
-75.383719
31
0.0
0
LINE
8
bracket
62
4
5
1c0
100
AcDbEntity
100
AcDbLine
10
301.768154
20
-75.383719
30
0.0
11
301.501556
21
-76.385428
31
0.0
0
LINE
8
bracket
62
4
5
1c1
100
AcDbEntity
100
AcDbLine
10
301.501556
20
-76.385428
30
0.0
11
301.768154
21
-77.387138
31
0.0
0
LINE
8
bracket
62
4
5
1c2
100
AcDbEntity
100
AcDbLine
10
301.768154
20
-77.387138
30
0.0
11
302.500384
21
-78.120850
31
0.0
0
LINE
8
bracket
62
4
5
1c3
100
AcDbEntity
100
AcDbLine
10
302.500384
20
-78.120850
30
0.0
11
303.501552
21
-78.389474
31
0.0
0
LINE
8
bracket
62
4
5
1c4
100
AcDbEntity
100
AcDbLine
10
303.501552
20
-78.389474
30
0.0
11
304.502720
21
-78.120850
31
0.0
0
LINE
8
bracket
62
4
5
1c5
100
AcDbEntity
100
AcDbLine
10
304.502720
20
-78.120850
30
0.0
11
305.234950
21
-77.387138
31
0.0
0
LINE
8
bracket
62
4
5
1c6
100
AcDbEntity
100
AcDbLine
10
305.234950
20
-77.387138
30
0.0
11
305.501548
21
-76.385428
31
0.0
0
LINE
8
bracket
62
4
5
1c7
100
AcDbEntity
100
AcDbLine
10
305.501548
20
-76.385428
30
0.0
11
305.501548
21
-76.385428
31
0.0
0
LINE
8
bracket
62
4
5
1c8
100
AcDbEntity
100
AcDbLine
10
339.501565
20
-76.385428
30
0.0
11
339.234967
21
-75.383719
31
0.0
0
LINE
8
bracket
62
4
5
1c9
100
AcDbEntity
100
AcDbLine
10
339.234967
20
-75.383719
30
0.0
11
338.502736
21
-74.650006
31
0.0
0
LINE
8
bracket
62
4
5
1ca
100
AcDbEntity
100
AcDbLine
10
338.502736
20
-74.650006
30
0.0
11
337.501569
21
-74.381383
31
0.0
0
LINE
8
bracket
62
4
5
1cb
100
AcDbEntity
100
AcDbLine
10
337.501569
20
-74.381383
30
0.0
11
336.500401
21
-74.650006
31
0.0
0
LINE
8
bracket
62
4
5
1cc
100
AcDbEntity
100
AcDbLine
10
336.500401
20
-74.650006
30
0.0
11
335.768171
21
-75.383719
31
0.0
0
LINE
8
bracket
62
4
5
1cd
100
AcDbEntity
100
AcDbLine
10
335.768171
20
-75.383719
30
0.0
11
335.501573
21
-76.385428
31
0.0
0
LINE
8
bracket
62
4
5
1ce
100
AcDbEntity
100
AcDbLine
10
335.501573
20
-76.385428
30
0.0
11
335.768171
21
-77.387138
31
0.0
0
LINE
8
bracket
62
4
5
1cf
100
AcDbEntity
100
AcDbLine
10
335.768171
20
-77.387138
30
0.0
11
336.500401
21
-78.120850
31
0.0
0
LINE
8
bracket
62
4
5
1d0
100
AcDbEntity
100
AcDbLine
10
336.500401
20
-78.120850
30
0.0
11
337.501569
21
-78.389474
31
0.0
0
LINE
8
bracket
62
4
5
1d1
100
AcDbEntity
100
AcDbLine
10
337.501569
20
-78.389474
30
0.0
11
338.502736
21
-78.120850
31
0.0
0
LINE
8
bracket
62
4
5
1d2
100
AcDbEntity
100
AcDbLine
10
338.502736
20
-78.120850
30
0.0
11
339.234967
21
-77.387138
31
0.0
0
LINE
8
bracket
62
4
5
1d3
100
AcDbEntity
100
AcDbLine
10
339.234967
20
-77.387138
30
0.0
11
339.501565
21
-76.385428
31
0.0
0
LINE
8
bracket
62
4
5
1d4
100
AcDbEntity
100
AcDbLine
10
339.501565
20
-76.385428
30
0.0
11
339.501565
21
-76.385428
31
0.0
0
LINE
8
bracket
62
4
5
1d5
100
AcDbEntity
100
AcDbLine
10
322.501570
20
-83.385426
30
0.0
11
322.233620
21
-82.385421
31
0.0
0
LINE
8
bracket
62
4
5
1d6
100
AcDbEntity
100
AcDbLine
10
322.233620
20
-82.385421
30
0.0
11
321.501565
21
-81.653366
31
0.0
0
LINE
8
bracket
62
4
5
1d7
100
AcDbEntity
100
AcDbLine
10
321.501565
20
-81.653366
30
0.0
11
320.501560
21
-81.385416
31
0.0
0
LINE
8
bracket
62
4
5
1d8
100
AcDbEntity
100
AcDbLine
10
320.501560
20
-81.385416
30
0.0
11
319.501555
21
-81.653366
31
0.0
0
LINE
8
bracket
62
4
5
1d9
100
AcDbEntity
100
AcDbLine
10
319.501555
20
-81.653366
30
0.0
11
318.769501
21
-82.385421
31
0.0
0
LINE
8
bracket
62
4
5
1da
100
AcDbEntity
100
AcDbLine
10
318.769501
20
-82.385421
30
0.0
11
318.501550
21
-83.385426
31
0.0
0
LINE
8
bracket
62
4
5
1db
100
AcDbEntity
100
AcDbLine
10
318.501550
20
-83.385426
30
0.0
11
318.769501
21
-84.385431
31
0.0
0
LINE
8
bracket
62
4
5
1dc
100
AcDbEntity
100
AcDbLine
10
318.769501
20
-84.385431
30
0.0
11
319.501555
21
-85.117485
31
0.0
0
LINE
8
bracket
62
4
5
1dd
100
AcDbEntity
100
AcDbLine
10
319.501555
20
-85.117485
30
0.0
11
320.501560
21
-85.385436
31
0.0
0
LINE
8
bracket
62
4
5
1de
100
AcDbEntity
100
AcDbLine
10
320.501560
20
-85.385436
30
0.0
11
321.501565
21
-85.117485
31
0.0
0
LINE
8
bracket
62
4
5
1df
100
AcDbEntity
100
AcDbLine
10
321.501565
20
-85.117485
30
0.0
11
322.233620
21
-84.385431
31
0.0
0
LINE
8
bracket
62
4
5
1e0
100
AcDbEntity
100
AcDbLine
10
322.233620
20
-84.385431
30
0.0
11
322.501570
21
-83.385426
31
0.0
0
LINE
8
bracket
62
4
5
1e1
100
AcDbEntity
100
AcDbLine
10
322.501570
20
-83.385426
30
0.0
11
322.501570
21
-83.385426
31
0.0
0
LINE
8
bracket
62
4
5
1e2
100
AcDbEntity
100
AcDbLine
10
310.763271
20
-22.385426
30
0.0
11
310.528815
21
-21.510424
31
0.0
0
LINE
8
bracket
62
4
5
1e3
100
AcDbEntity
100
AcDbLine
10
310.528815
20
-21.510424
30
0.0
11
309.888269
21
-20.869879
31
0.0
0
LINE
8
bracket
62
4
5
1e4
100
AcDbEntity
100
AcDbLine
10
309.888269
20
-20.869879
30
0.0
11
309.013267
21
-20.635423
31
0.0
0
LINE
8
bracket
62
4
5
1e5
100
AcDbEntity
100
AcDbLine
10
309.013267
20
-20.635423
30
0.0
11
308.138265
21
-20.869879
31
0.0
0
LINE
8
bracket
62
4
5
1e6
100
AcDbEntity
100
AcDbLine
10
308.138265
20
-20.869879
30
0.0
11
307.497720
21
-21.510424
31
0.0
0
LINE
8
bracket
62
4
5
1e7
100
AcDbEntity
100
AcDbLine
10
307.497720
20
-21.510424
30
0.0
11
307.263264
21
-22.385426
31
0.0
0
LINE
8
bracket
62
4
5
1e8
100
AcDbEntity
100
AcDbLine
10
307.263264
20
-22.385426
30
0.0
11
307.497720
21
-23.260428
31
0.0
0
LINE
8
bracket
62
4
5
1e9
100
AcDbEntity
100
AcDbLine
10
307.497720
20
-23.260428
30
0.0
11
308.138265
21
-23.900974
31
0.0
0
LINE
8
bracket
62
4
5
1ea
100
AcDbEntity
100
AcDbLine
10
308.138265
20
-23.900974
30
0.0
11
309.013267
21
-24.135430
31
0.0
0
LINE
8
bracket
62
4
5
1eb
100
AcDbEntity
100
AcDbLine
10
309.013267
20
-24.135430
30
0.0
11
309.888269
21
-23.900974
31
0.0
0
LINE
8
bracket
62
4
5
1ec
100
AcDbEntity
100
AcDbLine
10
309.888269
20
-23.900974
30
0.0
11
310.528815
21
-23.260428
31
0.0
0
LINE
8
bracket
62
4
5
1ed
100
AcDbEntity
100
AcDbLine
10
310.528815
20
-23.260428
30
0.0
11
310.763271
21
-22.385426
31
0.0
0
LINE
8
bracket
62
4
5
1ee
100
AcDbEntity
100
AcDbLine
10
310.763271
20
-22.385426
30
0.0
11
310.763271
21
-22.385426
31
0.0
0
LINE
8
bracket
62
4
5
1ef
100
AcDbEntity
100
AcDbLine
10
337.266590
20
-29.955885
30
0.0
11
338.013021
21
-26.203318
31
0.0
0
LINE
8
bracket
62
4
5
1f0
100
AcDbEntity
100
AcDbLine
10
338.013021
20
-26.203318
30
0.0
11
338.263258
21
-22.385426
31
0.0
0
LINE
8
bracket
62
4
5
1f1
100
AcDbEntity
100
AcDbLine
10
340.647330
20
-30.861751
30
0.0
11
341.483082
21
-26.660160
31
0.0
0
LINE
8
bracket
62
4
5
1f2
100
AcDbEntity
100
AcDbLine
10
341.483082
20
-26.660160
30
0.0
11
341.763265
21
-22.385426
31
0.0
0
LINE
8
bracket
62
4
5
1f3
100
AcDbEntity
100
AcDbLine
10
341.763265
20
-22.385426
30
0.0
11
341.528809
21
-21.510425
31
0.0
0
LINE
8
bracket
62
4
5
1f4
100
AcDbEntity
100
AcDbLine
10
341.528809
20
-21.510425
30
0.0
11
340.888264
21
-20.869879
31
0.0
0
LINE
8
bracket
62
4
5
1f5
100
AcDbEntity
100
AcDbLine
10
340.888264
20
-20.869879
30
0.0
11
340.013262
21
-20.635423
31
0.0
0
LINE
8
bracket
62
4
5
1f6
100
AcDbEntity
100
AcDbLine
10
340.013262
20
-20.635423
30
0.0
11
339.138260
21
-20.869879
31
0.0
0
LINE
8
bracket
62
4
5
1f7
100
AcDbEntity
100
AcDbLine
10
339.138260
20
-20.869879
30
0.0
11
338.497714
21
-21.510425
31
0.0
0
LINE
8
bracket
62
4
5
1f8
100
AcDbEntity
100
AcDbLine
10
338.497714
20
-21.510425
30
0.0
11
338.263258
21
-22.385426
31
0.0
0
LINE
8
bracket
62
4
5
1f9
100
AcDbEntity
100
AcDbLine
10
337.266590
20
-29.955885
30
0.0
11
337.223559
21
-30.649165
31
0.0
0
LINE
8
bracket
62
4
5
1fa
100
AcDbEntity
100
AcDbLine
10
337.223559
20
-30.649165
30
0.0
11
337.442026
21
-31.283180
31
0.0
0
LINE
8
bracket
62
4
5
1fb
100
AcDbEntity
100
AcDbLine
10
337.442026
20
-31.283180
30
0.0
11
337.882212
21
-31.789083
31
0.0
0
LINE
8
bracket
62
4
5
1fc
100
AcDbEntity
100
AcDbLine
10
337.882212
20
-31.789083
30
0.0
11
338.504338
21
-32.098031
31
0.0
0
LINE
8
bracket
62
4
5
1fd
100
AcDbEntity
100
AcDbLine
10
338.504338
20
-32.098031
30
0.0
11
339.197588
21
-32.141537
31
0.0
0
LINE
8
bracket
62
4
5
1fe
100
AcDbEntity
100
AcDbLine
10
339.197588
20
-32.141537
30
0.0
11
339.831752
21
-31.923504
31
0.0
0
LINE
8
bracket
62
4
5
1ff
100
AcDbEntity
100
AcDbLine
10
339.831752
20
-31.923504
30
0.0
11
340.337957
21
-31.483664
31
0.0
0
LINE
8
bracket
62
4
5
200
100
AcDbEntity
100
AcDbLine
10
340.337957
20
-31.483664
30
0.0
11
340.647330
21
-30.861751
31
0.0
0
LINE
8
bracket
62
4
5
201
100
AcDbEntity
100
AcDbLine
10
309.013267
20
-55.135427
30
0.0
11
309.888268
21
-54.900972
31
0.0
0
LINE
8
bracket
62
4
5
202
100
AcDbEntity
100
AcDbLine
10
309.888268
20
-54.900972
30
0.0
11
310.528812
21
-54.260427
31
0.0
0
LINE
8
bracket
62
4
5
203
100
AcDbEntity
100
AcDbLine
10
310.528812
20
-54.260427
30
0.0
11
310.763268
21
-53.385426
31
0.0
0
LINE
8
bracket
62
4
5
204
100
AcDbEntity
100
AcDbLine
10
310.763268
20
-53.385426
30
0.0
11
310.528812
21
-52.510426
31
0.0
0
LINE
8
bracket
62
4
5
205
100
AcDbEntity
100
AcDbLine
10
310.528812
20
-52.510426
30
0.0
11
309.888268
21
-51.869881
31
0.0
0
LINE
8
bracket
62
4
5
206
100
AcDbEntity
100
AcDbLine
10
309.888268
20
-51.869881
30
0.0
11
309.013267
21
-51.635426
31
0.0
0
LINE
8
bracket
62
4
5
207
100
AcDbEntity
100
AcDbLine
10
301.442797
20
-50.638758
30
0.0
11
300.536930
21
-50.638755
31
0.0
0
LINE
8
bracket
62
4
5
208
100
AcDbEntity
100
AcDbLine
10
300.536930
20
-50.638755
30
0.0
11
299.752425
21
-51.091687
31
0.0
0
LINE
8
bracket
62
4
5
209
100
AcDbEntity
100
AcDbLine
10
299.752425
20
-51.091687
30
0.0
11
299.299489
21
-51.876190
31
0.0
0
LINE
8
bracket
62
4
5
20a
100
AcDbEntity
100
AcDbLine
10
299.299489
20
-51.876190
30
0.0
11
299.299486
21
-52.782057
31
0.0
0
LINE
8
bracket
62
4
5
20b
100
AcDbEntity
100
AcDbLine
10
299.299486
20
-52.782057
30
0.0
11
299.752418
21
-53.566562
31
0.0
0
LINE
8
bracket
62
4
5
20c
100
AcDbEntity
100
AcDbLine
10
299.752418
20
-53.566562
30
0.0
11
300.536920
21
-54.019498
31
0.0
0
LINE
8
bracket
62
4
5
20d
100
AcDbEntity
100
AcDbLine
10
301.442797
20
-50.638758
30
0.0
11
305.195370
21
-51.385190
31
0.0
0
LINE
8
bracket
62
4
5
20e
100
AcDbEntity
100
AcDbLine
10
305.195370
20
-51.385190
30
0.0
11
309.013267
21
-51.635426
31
0.0
0
LINE
8
bracket
62
4
5
20f
100
AcDbEntity
100
AcDbLine
10
300.536920
20
-54.019498
30
0.0
11
304.738523
21
-54.855248
31
0.0
0
LINE
8
bracket
62
4
5
210
100
AcDbEntity
100
AcDbLine
10
304.738523
20
-54.855248
30
0.0
11
309.013267
21
-55.135427
31
0.0
0
LINE
8
bracket
62
4
5
211
100
AcDbEntity
100
AcDbLine
10
341.250693
20
-54.622864
30
0.0
11
341.633588
21
-54.044039
31
0.0
0
LINE
8
bracket
62
4
5
212
100
AcDbEntity
100
AcDbLine
10
341.633588
20
-54.044039
30
0.0
11
341.760749
21
-53.386166
31
0.0
0
LINE
8
bracket
62
4
5
213
100
AcDbEntity
100
AcDbLine
10
341.760749
20
-53.386166
30
0.0
11
341.632256
21
-52.728552
31
0.0
0
LINE
8
bracket
62
4
5
214
100
AcDbEntity
100
AcDbLine
10
341.632256
20
-52.728552
30
0.0
11
341.248190
21
-52.150504
31
0.0
0
LINE
8
bracket
62
4
5
215
100
AcDbEntity
100
AcDbLine
10
341.248190
20
-52.150504
30
0.0
11
340.670144
21
-51.766435
31
0.0
0
LINE
8
bracket
62
4
5
216
100
AcDbEntity
100
AcDbLine
10
340.670144
20
-51.766435
30
0.0
11
340.012530
21
-51.637939
31
0.0
0
LINE
8
bracket
62
4
5
217
100
AcDbEntity
100
AcDbLine
10
340.012530
20
-51.637939
30
0.0
11
339.354656
21
-51.765097
31
0.0
0
LINE
8
bracket
62
4
5
218
100
AcDbEntity
100
AcDbLine
10
339.354656
20
-51.765097
30
0.0
11
338.775830
21
-52.147989
31
0.0
0
LINE
8
bracket
62
4
5
219
100
AcDbEntity
100
AcDbLine
10
330.058578
20
-58.836975
30
0.0
11
329.539544
21
-59.297104
31
0.0
0
LINE
8
bracket
62
4
5
21a
100
AcDbEntity
100
AcDbLine
10
329.539544
20
-59.297104
30
0.0
11
329.246910
21
-59.899490
31
0.0
0
LINE
8
bracket
62
4
5
21b
100
AcDbEntity
100
AcDbLine
10
329.246910
20
-59.899490
30
0.0
11
329.201060
21
-60.567622
31
0.0
0
LINE
8
bracket
62
4
5
21c
100
AcDbEntity
100
AcDbLine
10
329.201060
20
-60.567622
30
0.0
11
329.422378
21
-61.224992
31
0.0
0
LINE
8
bracket
62
4
5
21d
100
AcDbEntity
100
AcDbLine
10
329.422378
20
-61.224992
30
0.0
11
329.881011
21
-61.745348
31
0.0
0
LINE
8
bracket
62
4
5
21e
100
AcDbEntity
100
AcDbLine
10
329.881011
20
-61.745348
30
0.0
11
330.482552
21
-62.039715
31
0.0
0
LINE
8
bracket
62
4
5
21f
100
AcDbEntity
100
AcDbLine
10
330.482552
20
-62.039715
30
0.0
11
331.150550
21
-62.087487
31
0.0
0
LINE
8
bracket
62
4
5
220
100
AcDbEntity
100
AcDbLine
10
331.150550
20
-62.087487
30
0.0
11
331.808554
21
-61.868061
31
0.0
0
LINE
8
bracket
62
4
5
221
100
AcDbEntity
100
AcDbLine
10
330.058578
20
-58.836975
30
0.0
11
332.398788
21
-57.381682
31
0.0
0
LINE
8
bracket
62
4
5
222
100
AcDbEntity
100
AcDbLine
10
332.398788
20
-57.381682
30
0.0
11
334.636414
21
-55.778162
31
0.0
0
LINE
8
bracket
62
4
5
223
100
AcDbEntity
100
AcDbLine
10
334.636414
20
-55.778162
30
0.0
11
336.764435
21
-54.031801
31
0.0
0
LINE
8
bracket
62
4
5
224
100
AcDbEntity
100
AcDbLine
10
336.764435
20
-54.031801
30
0.0
11
338.775830
21
-52.147989
31
0.0
0
LINE
8
bracket
62
4
5
225
100
AcDbEntity
100
AcDbLine
10
331.808554
20
-61.868061
30
0.0
11
334.343364
21
-60.291756
31
0.0
0
LINE
8
bracket
62
4
5
226
100
AcDbEntity
100
AcDbLine
10
334.343364
20
-60.291756
30
0.0
11
336.767061
21
-58.554898
31
0.0
0
LINE
8
bracket
62
4
5
227
100
AcDbEntity
100
AcDbLine
10
336.767061
20
-58.554898
30
0.0
11
339.072040
21
-56.663322
31
0.0
0
LINE
8
bracket
62
4
5
228
100
AcDbEntity
100
AcDbLine
10
339.072040
20
-56.663322
30
0.0
11
341.250693
21
-54.622864
31
0.0
0
LINE
8
bracket
62
4
5
229
100
AcDbEntity
100
AcDbLine
10
332.998544
20
-46.370708
30
0.0
11
334.534495
21
-44.488136
31
0.0
0
LINE
8
bracket
62
4
5
22a
100
AcDbEntity
100
AcDbLine
10
334.534495
20
-44.488136
30
0.0
11
335.631373
21
-42.401214
31
0.0
0
LINE
8
bracket
62
4
5
22b
100
AcDbEntity
100
AcDbLine
10
335.631373
20
-42.401214
30
0.0
11
336.289198
21
-40.178106
31
0.0
0
LINE
8
bracket
62
4
5
22c
100
AcDbEntity
100
AcDbLine
10
336.289198
20
-40.178106
30
0.0
11
336.507992
21
-37.886973
31
0.0
0
LINE
8
bracket
62
4
5
22d
100
AcDbEntity
100
AcDbLine
10
336.507992
20
-37.886973
30
0.0
11
336.287775
21
-35.595976
31
0.0
0
LINE
8
bracket
62
4
5
22e
100
AcDbEntity
100
AcDbLine
10
336.287775
20
-35.595976
30
0.0
11
335.628569
21
-33.373277
31
0.0
0
LINE
8
bracket
62
4
5
22f
100
AcDbEntity
100
AcDbLine
10
335.628569
20
-33.373277
30
0.0
11
334.530395
21
-31.287038
31
0.0
0
LINE
8
bracket
62
4
5
230
100
AcDbEntity
100
AcDbLine
10
334.530395
20
-31.287038
30
0.0
11
332.993274
21
-29.405420
31
0.0
0
LINE
8
bracket
62
4
5
231
100
AcDbEntity
100
AcDbLine
10
332.993274
20
-29.405420
30
0.0
11
331.111656
21
-27.868299
31
0.0
0
LINE
8
bracket
62
4
5
232
100
AcDbEntity
100
AcDbLine
10
331.111656
20
-27.868299
30
0.0
11
329.025417
21
-26.770124
31
0.0
0
LINE
8
bracket
62
4
5
233
100
AcDbEntity
100
AcDbLine
10
329.025417
20
-26.770124
30
0.0
11
326.802718
21
-26.110918
31
0.0
0
LINE
8
bracket
62
4
5
234
100
AcDbEntity
100
AcDbLine
10
326.802718
20
-26.110918
30
0.0
11
324.511721
21
-25.890701
31
0.0
0
LINE
8
bracket
62
4
5
235
100
AcDbEntity
100
AcDbLine
10
324.511721
20
-25.890701
30
0.0
11
322.220588
21
-26.109494
31
0.0
0
LINE
8
bracket
62
4
5
236
100
AcDbEntity
100
AcDbLine
10
322.220588
20
-26.109494
30
0.0
11
319.997480
21
-26.767319
31
0.0
0
LINE
8
bracket
62
4
5
237
100
AcDbEntity
100
AcDbLine
10
319.997480
20
-26.767319
30
0.0
11
317.910559
21
-27.864196
31
0.0
0
LINE
8
bracket
62
4
5
238
100
AcDbEntity
100
AcDbLine
10
317.910559
20
-27.864196
30
0.0
11
316.027985
21
-29.400147
31
0.0
0
LINE
8
bracket
62
4
5
239
100
AcDbEntity
100
AcDbLine
10
313.973408
20
-30.976669
30
0.0
11
312.001212
21
-32.397119
31
0.0
0
LINE
8
bracket
62
4
5
23a
100
AcDbEntity
100
AcDbLine
10
312.001212
20
-32.397119
30
0.0
11
310.400368
21
-34.128946
31
0.0
0
LINE
8
bracket
62
4
5
23b
100
AcDbEntity
100
AcDbLine
10
310.400368
20
-34.128946
30
0.0
11
309.188531
21
-36.106249
31
0.0
0
LINE
8
bracket
62
4
5
23c
100
AcDbEntity
100
AcDbLine
10
309.188531
20
-36.106249
30
0.0
11
308.383354
21
-38.263122
31
0.0
0
LINE
8
bracket
62
4
5
23d
100
AcDbEntity
100
AcDbLine
10
308.383354
20
-38.263122
30
0.0
11
308.002493
21
-40.533663
31
0.0
0
LINE
8
bracket
62
4
5
23e
100
AcDbEntity
100
AcDbLine
10
308.002493
20
-40.533663
30
0.0
11
308.063602
21
-42.851968
31
0.0
0
LINE
8
bracket
62
4
5
23f
100
AcDbEntity
100
AcDbLine
10
308.063602
20
-42.851968
30
0.0
11
308.584335
21
-45.152135
31
0.0
0
LINE
8
bracket
62
4
5
240
100
AcDbEntity
100
AcDbLine
10
308.584335
20
-45.152135
30
0.0
11
309.582347
21
-47.368258
31
0.0
0
LINE
8
bracket
62
4
5
241
100
AcDbEntity
100
AcDbLine
10
309.582347
20
-47.368258
30
0.0
11
311.002561
21
-49.340624
31
0.0
0
LINE
8
bracket
62
4
5
242
100
AcDbEntity
100
AcDbLine
10
311.002561
20
-49.340624
30
0.0
11
312.734198
21
-50.941674
31
0.0
0
LINE
8
bracket
62
4
5
243
100
AcDbEntity
100
AcDbLine
10
312.734198
20
-50.941674
30
0.0
11
314.711355
21
-52.153748
31
0.0
0
LINE
8
bracket
62
4
5
244
100
AcDbEntity
100
AcDbLine
10
314.711355
20
-52.153748
30
0.0
11
316.868132
21
-52.959182
31
0.0
0
LINE
8
bracket
62
4
5
245
100
AcDbEntity
100
AcDbLine
10
316.868132
20
-52.959182
30
0.0
11
319.138628
21
-53.340314
31
0.0
0
LINE
8
bracket
62
4
5
246
100
AcDbEntity
100
AcDbLine
10
319.138628
20
-53.340314
30
0.0
11
321.456940
21
-53.279483
31
0.0
0
LINE
8
bracket
62
4
5
247
100
AcDbEntity
100
AcDbLine
10
321.456940
20
-53.279483
30
0.0
11
323.757169
21
-52.759024
31
0.0
0
LINE
8
bracket
62
4
5
248
100
AcDbEntity
100
AcDbLine
10
323.757169
20
-52.759024
30
0.0
11
325.973412
21
-51.761277
31
0.0
0
LINE
8
bracket
62
4
5
249
100
AcDbEntity
100
AcDbLine
10
313.973408
20
-30.976669
30
0.0
11
315.052362
21
-30.255740
31
0.0
0
LINE
8
bracket
62
4
5
24a
100
AcDbEntity
100
AcDbLine
10
315.052362
20
-30.255740
30
0.0
11
316.027985
21
-29.400147
31
0.0
0
LINE
8
bracket
62
4
5
24b
100
AcDbEntity
100
AcDbLine
10
325.973412
20
-51.761277
30
0.0
11
329.662636
21
-49.296219
31
0.0
0
LINE
8
bracket
62
4
5
24c
100
AcDbEntity
100
AcDbLine
10
329.662636
20
-49.296219
30
0.0
11
332.998544
21
-46.370708
31
0.0
0
LINE
8
construction
62
4
5
24d
100
AcDbEntity
100
AcDbLine
10
303.501552
20
-76.385428
30
0.0
11
337.501569
21
-76.385428
31
0.0
0
LINE
8
construction
62
4
5
24e
100
AcDbEntity
100
AcDbLine
10
303.501552
20
-76.385428
30
0.0
11
294.239865
21
-76.385428
31
0.0
0
LINE
8
construction
62
4
5
24f
100
AcDbEntity
100
AcDbLine
10
337.501569
20
-76.385428
30
0.0
11
346.763255
21
-76.385428
31
0.0
0
LINE
8
construction
62
4
5
250
100
AcDbEntity
100
AcDbLine
10
309.013267
20
-22.385426
30
0.0
11
346.763255
21
-22.385426
31
0.0
0
LINE
8
construction
62
4
5
251
100
AcDbEntity
100
AcDbLine
10
309.013267
20
-22.385426
30
0.0
11
337.266590
21
-29.955885
31
0.0
0
LINE
8
construction
62
4
5
252
100
AcDbEntity
100
AcDbLine
10
337.266590
20
-29.955885
30
0.0
11
340.647330
21
-30.861751
31
0.0
0
LINE
8
construction
62
4
5
253
100
AcDbEntity
100
AcDbLine
10
309.013267
20
-22.385426
30
0.0
11
309.013267
21
-51.635426
31
0.0
0
LINE
8
construction
62
4
5
254
100
AcDbEntity
100
AcDbLine
10
309.013267
20
-51.635426
30
0.0
11
309.013267
21
-55.135427
31
0.0
0
LINE
8
construction
62
4
5
255
100
AcDbEntity
100
AcDbLine
10
309.013267
20
-22.385426
30
0.0
11
301.442797
21
-50.638758
31
0.0
0
LINE
8
construction
62
4
5
256
100
AcDbEntity
100
AcDbLine
10
301.442797
20
-50.638758
30
0.0
11
300.536920
21
-54.019498
31
0.0
0
LINE
8
construction
62
4
5
257
100
AcDbEntity
100
AcDbLine
10
340.013262
20
-22.385426
30
0.0
11
340.013262
21
-53.385426
31
0.0
0
LINE
8
construction
62
4
5
258
100
AcDbEntity
100
AcDbLine
10
340.013262
20
-53.385426
30
0.0
11
309.013267
21
-53.385426
31
0.0
0
LINE
8
construction
62
4
5
259
100
AcDbEntity
100
AcDbLine
10
309.013267
20
-22.385426
30
0.0
11
338.775830
21
-52.147989
31
0.0
0
LINE
8
construction
62
4
5
25a
100
AcDbEntity
100
AcDbLine
10
338.775830
20
-52.147989
30
0.0
11
341.250693
21
-54.622864
31
0.0
0
LINE
8
construction
62
4
5
25b
100
AcDbEntity
100
AcDbLine
10
309.013267
20
-22.385426
30
0.0
11
330.058578
21
-58.836975
31
0.0
0
LINE
8
construction
62
4
5
25c
100
AcDbEntity
100
AcDbLine
10
330.058578
20
-58.836975
30
0.0
11
331.808554
21
-61.868061
31
0.0
0
LINE
8
construction
62
4
5
25d
100
AcDbEntity
100
AcDbLine
10
380.453956
20
-76.385428
30
0.0
11
380.453956
21
-83.385426
31
0.0
  0
ENDSEC
  0
SECTION
  2
OBJECTS
  0
DICTIONARY
  5
C
330
0
100
AcDbDictionary
  3
ACAD_GROUP
350
D
  3
ACAD_MLINESTYLE
350
17
  0
DICTIONARY
  5
D
330
C
100
AcDbDictionary
  0
DICTIONARY
  5
1A
330
C
100
AcDbDictionary
  0
DICTIONARY
  5
17
330
C
100
AcDbDictionary
  3
STANDARD
350
18
  0
DICTIONARY
  5
19
330
C
100
AcDbDictionary
  0
ENDSEC
  0
EOF
