solid OpenSCAD_Model
  facet normal -0 0 1
    outer loop
      vertex -5.25 -33.7264 8
      vertex -1.3125 -34.9579 8
      vertex -1.3125 -23.75 8
    endloop
  endfacet
  facet normal 0 0 1
    outer loop
      vertex -1.3125 -34.9579 8
      vertex -5.25 -33.7264 8
      vertex -1.62234 -35.007 8
    endloop
  endfacet
  facet normal 0 0 1
    outer loop
      vertex -1.62234 -35.007 8
      vertex -5.25 -33.7264 8
      vertex -3.08587 -35.7527 8
    endloop
  endfacet
  facet normal 0 0 1
    outer loop
      vertex -3.08587 -35.7527 8
      vertex -5.25 -33.7264 8
      vertex -4.24734 -36.9141 8
    endloop
  endfacet
  facet normal 0 0 1
    outer loop
      vertex -5.25 -33.7264 8
      vertex -1.3125 -23.75 8
      vertex -5.25 -23.75 8
    endloop
  endfacet
  facet normal -0 0 1
    outer loop
      vertex -6.67439 -35.1508 8
      vertex -4.24734 -36.9141 8
      vertex -5.25 -33.7264 8
    endloop
  endfacet
  facet normal 0 0 1
    outer loop
      vertex -4.24734 -36.9141 8
      vertex -6.67439 -35.1508 8
      vertex -4.99305 -38.3777 8
    endloop
  endfacet
  facet normal -0 0 1
    outer loop
      vertex -7.84622 -37.4506 8
      vertex -4.99305 -38.3777 8
      vertex -6.67439 -35.1508 8
    endloop
  endfacet
  facet normal 0 0 1
    outer loop
      vertex 4.99305 -38.3777 8
      vertex 25 -31.75 8
      vertex 5.25 -31.75 8
    endloop
  endfacet
  facet normal 0 -0 1
    outer loop
      vertex 5.25 -40 8
      vertex 25 -31.75 8
      vertex 4.99305 -38.3777 8
    endloop
  endfacet
  facet normal -0 0 1
    outer loop
      vertex 4.99305 -41.6223 8
      vertex 25 -48.25 8
      vertex 5.25 -40 8
    endloop
  endfacet
  facet normal -0 0 1
    outer loop
      vertex 4.24734 -43.0859 8
      vertex 25 -48.25 8
      vertex 4.99305 -41.6223 8
    endloop
  endfacet
  facet normal -0 0 1
    outer loop
      vertex 3.08587 -44.2473 8
      vertex 25 -48.25 8
      vertex 4.24734 -43.0859 8
    endloop
  endfacet
  facet normal 0 0 1
    outer loop
      vertex 0 -48.25 8
      vertex 3.08587 -44.2473 8
      vertex 1.62234 -44.993 8
    endloop
  endfacet
  facet normal 0 0 1
    outer loop
      vertex 0 -48.25 8
      vertex 1.62234 -44.993 8
      vertex 0 -45.25 8
    endloop
  endfacet
  facet normal 0 0 1
    outer loop
      vertex 3.08587 -44.2473 8
      vertex 0 -48.25 8
      vertex 25 -48.25 8
    endloop
  endfacet
  facet normal 0 0 1
    outer loop
      vertex -1.62234 -44.993 8
      vertex 0 -48.25 8
      vertex 0 -45.25 8
    endloop
  endfacet
  facet normal 0 0 1
    outer loop
      vertex -1.62234 -44.993 8
      vertex -2.54939 -47.8462 8
      vertex 0 -48.25 8
    endloop
  endfacet
  facet normal 0 0 1
    outer loop
      vertex -3.08587 -44.2473 8
      vertex -2.54939 -47.8462 8
      vertex -1.62234 -44.993 8
    endloop
  endfacet
  facet normal 0 0 1
    outer loop
      vertex -4.84923 -46.6744 8
      vertex -3.08587 -44.2473 8
      vertex -4.24734 -43.0859 8
    endloop
  endfacet
  facet normal 0 0 1
    outer loop
      vertex -3.08587 -44.2473 8
      vertex -4.84923 -46.6744 8
      vertex -2.54939 -47.8462 8
    endloop
  endfacet
  facet normal 0 0 1
    outer loop
      vertex -6.67439 -44.8492 8
      vertex -4.24734 -43.0859 8
      vertex -4.99305 -41.6223 8
    endloop
  endfacet
  facet normal 0 0 1
    outer loop
      vertex -7.84622 -42.5494 8
      vertex -4.99305 -41.6223 8
      vertex -5.25 -40 8
    endloop
  endfacet
  facet normal 0 0 1
    outer loop
      vertex -4.99305 -38.3777 8
      vertex -7.84622 -37.4506 8
      vertex -5.25 -40 8
    endloop
  endfacet
  facet normal 0 0 1
    outer loop
      vertex -4.24734 -43.0859 8
      vertex -6.67439 -44.8492 8
      vertex -4.84923 -46.6744 8
    endloop
  endfacet
  facet normal 0 0 1
    outer loop
      vertex -8.25 -40 8
      vertex -5.25 -40 8
      vertex -7.84622 -37.4506 8
    endloop
  endfacet
  facet normal 0 0 1
    outer loop
      vertex -4.99305 -41.6223 8
      vertex -7.84622 -42.5494 8
      vertex -6.67439 -44.8492 8
    endloop
  endfacet
  facet normal 0 0 1
    outer loop
      vertex -5.25 -40 8
      vertex -8.25 -40 8
      vertex -7.84622 -42.5494 8
    endloop
  endfacet
  facet normal -0 0 1
    outer loop
      vertex 1.3125 -23.75 8
      vertex 5.25 -31.75 8
      vertex 5.25 -23.75 8
    endloop
  endfacet
  facet normal 0 0 1
    outer loop
      vertex 25 -31.75 8
      vertex 5.25 -40 8
      vertex 25 -48.25 8
    endloop
  endfacet
  facet normal 0 0 1
    outer loop
      vertex 5.25 -31.75 8
      vertex 4.24734 -36.9141 8
      vertex 4.99305 -38.3777 8
    endloop
  endfacet
  facet normal 0 0 1
    outer loop
      vertex 5.25 -31.75 8
      vertex 3.08587 -35.7527 8
      vertex 4.24734 -36.9141 8
    endloop
  endfacet
  facet normal 0 0 1
    outer loop
      vertex 5.25 -31.75 8
      vertex 1.62234 -35.007 8
      vertex 3.08587 -35.7527 8
    endloop
  endfacet
  facet normal 0 0 1
    outer loop
      vertex 1.3125 -34.9579 8
      vertex 5.25 -31.75 8
      vertex 1.3125 -23.75 8
    endloop
  endfacet
  facet normal 0 0 1
    outer loop
      vertex 5.25 -31.75 8
      vertex 1.3125 -34.9579 8
      vertex 1.62234 -35.007 8
    endloop
  endfacet
  facet normal 1 0 0
    outer loop
      vertex 55 -31.75 16
      vertex 55 -36.875 8
      vertex 55 -31.75 0
    endloop
  endfacet
  facet normal 1 0 0
    outer loop
      vertex 55 -31.75 16
      vertex 55 -37.028 8.96568
      vertex 55 -36.875 8
    endloop
  endfacet
  facet normal 1 0 0
    outer loop
      vertex 55 -31.75 16
      vertex 55 -37.4718 9.83683
      vertex 55 -37.028 8.96568
    endloop
  endfacet
  facet normal 1 0 0
    outer loop
      vertex 55 -31.75 16
      vertex 55 -38.1632 10.5282
      vertex 55 -37.4718 9.83683
    endloop
  endfacet
  facet normal 1 0 0
    outer loop
      vertex 55 -31.75 16
      vertex 55 -39.0343 10.9721
      vertex 55 -38.1632 10.5282
    endloop
  endfacet
  facet normal 1 0 0
    outer loop
      vertex 55 -31.75 16
      vertex 55 -40 11.125
      vertex 55 -39.0343 10.9721
    endloop
  endfacet
  facet normal 1 -0 0
    outer loop
      vertex 55 -48.25 16
      vertex 55 -40 11.125
      vertex 55 -31.75 16
    endloop
  endfacet
  facet normal 1 0 0
    outer loop
      vertex 55 -40 11.125
      vertex 55 -48.25 16
      vertex 55 -40.9657 10.9721
    endloop
  endfacet
  facet normal 1 0 0
    outer loop
      vertex 55 -42.972 8.96568
      vertex 55 -48.25 16
      vertex 55 -43.125 8
    endloop
  endfacet
  facet normal 1 0 0
    outer loop
      vertex 55 -42.5282 9.83683
      vertex 55 -48.25 16
      vertex 55 -42.972 8.96568
    endloop
  endfacet
  facet normal 1 0 0
    outer loop
      vertex 55 -41.8368 10.5282
      vertex 55 -48.25 16
      vertex 55 -42.5282 9.83683
    endloop
  endfacet
  facet normal 1 0 0
    outer loop
      vertex 55 -40.9657 10.9721
      vertex 55 -48.25 16
      vertex 55 -41.8368 10.5282
    endloop
  endfacet
  facet normal 1 -0 0
    outer loop
      vertex 55 -37.028 7.03432
      vertex 55 -31.75 0
      vertex 55 -36.875 8
    endloop
  endfacet
  facet normal 1 -0 0
    outer loop
      vertex 55 -37.4718 6.16317
      vertex 55 -31.75 0
      vertex 55 -37.028 7.03432
    endloop
  endfacet
  facet normal 1 -0 0
    outer loop
      vertex 55 -38.1632 5.47182
      vertex 55 -31.75 0
      vertex 55 -37.4718 6.16317
    endloop
  endfacet
  facet normal 1 -0 0
    outer loop
      vertex 55 -39.0343 5.02795
      vertex 55 -31.75 0
      vertex 55 -38.1632 5.47182
    endloop
  endfacet
  facet normal 1 -0 0
    outer loop
      vertex 55 -40 4.875
      vertex 55 -31.75 0
      vertex 55 -39.0343 5.02795
    endloop
  endfacet
  facet normal 1 0 0
    outer loop
      vertex 55 -48.25 0
      vertex 55 -40 4.875
      vertex 55 -40.9657 5.02795
    endloop
  endfacet
  facet normal 1 0 0
    outer loop
      vertex 55 -48.25 0
      vertex 55 -40.9657 5.02795
      vertex 55 -41.8368 5.47182
    endloop
  endfacet
  facet normal 1 0 0
    outer loop
      vertex 55 -48.25 0
      vertex 55 -43.125 8
      vertex 55 -48.25 16
    endloop
  endfacet
  facet normal 1 0 0
    outer loop
      vertex 55 -43.125 8
      vertex 55 -48.25 0
      vertex 55 -42.972 7.03432
    endloop
  endfacet
  facet normal 1 0 0
    outer loop
      vertex 55 -40 4.875
      vertex 55 -48.25 0
      vertex 55 -31.75 0
    endloop
  endfacet
  facet normal 1 0 0
    outer loop
      vertex 55 -42.5282 6.16317
      vertex 55 -48.25 0
      vertex 55 -41.8368 5.47182
    endloop
  endfacet
  facet normal 1 0 0
    outer loop
      vertex 55 -42.972 7.03432
      vertex 55 -48.25 0
      vertex 55 -42.5282 6.16317
    endloop
  endfacet
  facet normal 0 0 -1
    outer loop
      vertex 55 -48.25 0
      vertex 5.25 -31.75 0
      vertex 55 -31.75 0
    endloop
  endfacet
  facet normal 0 0 -1
    outer loop
      vertex 3.09093 -38.9957 0
      vertex 5.25 -31.75 0
      vertex 3.25 -40 0
    endloop
  endfacet
  facet normal 0 0 -1
    outer loop
      vertex 55 -48.25 0
      vertex 3.25 -40 0
      vertex 5.25 -31.75 0
    endloop
  endfacet
  facet normal 0 0 -1
    outer loop
      vertex 55 -48.25 0
      vertex 3.09093 -41.0043 0
      vertex 3.25 -40 0
    endloop
  endfacet
  facet normal 0 0 -1
    outer loop
      vertex 55 -48.25 0
      vertex 2.6293 -41.9103 0
      vertex 3.09093 -41.0043 0
    endloop
  endfacet
  facet normal 0 0 -1
    outer loop
      vertex 0 -48.25 0
      vertex 2.6293 -41.9103 0
      vertex 55 -48.25 0
    endloop
  endfacet
  facet normal 0 0 -1
    outer loop
      vertex 2.6293 -41.9103 0
      vertex 0 -48.25 0
      vertex 1.9103 -42.6293 0
    endloop
  endfacet
  facet normal 0 0 -1
    outer loop
      vertex 1.9103 -42.6293 0
      vertex 0 -48.25 0
      vertex 1.0043 -43.0909 0
    endloop
  endfacet
  facet normal 0 0 -1
    outer loop
      vertex 0 -48.25 0
      vertex 0 -43.25 0
      vertex 1.0043 -43.0909 0
    endloop
  endfacet
  facet normal 0 0 -1
    outer loop
      vertex 0 -48.25 0
      vertex -1.0043 -43.0909 0
      vertex 0 -43.25 0
    endloop
  endfacet
  facet normal 0 0 -1
    outer loop
      vertex -2.54939 -47.8462 0
      vertex -1.0043 -43.0909 0
      vertex 0 -48.25 0
    endloop
  endfacet
  facet normal -0 0 -1
    outer loop
      vertex -1.0043 -43.0909 0
      vertex -2.54939 -47.8462 0
      vertex -1.9103 -42.6293 0
    endloop
  endfacet
  facet normal 0 0 -1
    outer loop
      vertex -4.84923 -46.6744 0
      vertex -1.9103 -42.6293 0
      vertex -2.54939 -47.8462 0
    endloop
  endfacet
  facet normal -0 0 -1
    outer loop
      vertex -1.9103 -42.6293 0
      vertex -4.84923 -46.6744 0
      vertex -2.6293 -41.9103 0
    endloop
  endfacet
  facet normal 0 0 -1
    outer loop
      vertex -6.67439 -44.8492 0
      vertex -2.6293 -41.9103 0
      vertex -4.84923 -46.6744 0
    endloop
  endfacet
  facet normal -0 0 -1
    outer loop
      vertex -2.6293 -41.9103 0
      vertex -6.67439 -44.8492 0
      vertex -3.09093 -41.0043 0
    endloop
  endfacet
  facet normal 0 0 -1
    outer loop
      vertex 2.6293 -38.0897 0
      vertex 5.25 -31.75 0
      vertex 3.09093 -38.9957 0
    endloop
  endfacet
  facet normal 0 0 -1
    outer loop
      vertex 1.9103 -37.3707 0
      vertex 5.25 -31.75 0
      vertex 2.6293 -38.0897 0
    endloop
  endfacet
  facet normal 0 0 -1
    outer loop
      vertex 1.3125 -37.0661 0
      vertex 5.25 -31.75 0
      vertex 1.9103 -37.3707 0
    endloop
  endfacet
  facet normal 0 0 -1
    outer loop
      vertex 1.3125 -23.75 0
      vertex 5.25 -31.75 0
      vertex 1.3125 -37.0661 0
    endloop
  endfacet
  facet normal 0 0 -1
    outer loop
      vertex 5.25 -31.75 0
      vertex 1.3125 -23.75 0
      vertex 5.25 -23.75 0
    endloop
  endfacet
  facet normal 0 0 -1
    outer loop
      vertex -5.25 -33.7264 0
      vertex -1.3125 -37.0661 0
      vertex -1.9103 -37.3707 0
    endloop
  endfacet
  facet normal 0 0 -1
    outer loop
      vertex -5.25 -33.7264 0
      vertex -1.9103 -37.3707 0
      vertex -2.6293 -38.0897 0
    endloop
  endfacet
  facet normal 0 0 -1
    outer loop
      vertex -6.67439 -35.1508 0
      vertex -2.6293 -38.0897 0
      vertex -3.09093 -38.9957 0
    endloop
  endfacet
  facet normal 0 0 -1
    outer loop
      vertex -7.84622 -37.4506 0
      vertex -3.09093 -38.9957 0
      vertex -3.25 -40 0
    endloop
  endfacet
  facet normal 0 0 -1
    outer loop
      vertex -7.84622 -42.5494 0
      vertex -3.09093 -41.0043 0
      vertex -6.67439 -44.8492 0
    endloop
  endfacet
  facet normal 0 0 -1
    outer loop
      vertex -1.3125 -37.0661 0
      vertex -5.25 -33.7264 0
      vertex -1.3125 -23.75 0
    endloop
  endfacet
  facet normal -0 0 -1
    outer loop
      vertex -1.3125 -23.75 0
      vertex -5.25 -33.7264 0
      vertex -5.25 -23.75 0
    endloop
  endfacet
  facet normal -0 0 -1
    outer loop
      vertex -3.09093 -41.0043 0
      vertex -7.84622 -42.5494 0
      vertex -3.25 -40 0
    endloop
  endfacet
  facet normal 0 0 -1
    outer loop
      vertex -8.25 -40 0
      vertex -3.25 -40 0
      vertex -7.84622 -42.5494 0
    endloop
  endfacet
  facet normal 0 0 -1
    outer loop
      vertex -3.09093 -38.9957 0
      vertex -7.84622 -37.4506 0
      vertex -6.67439 -35.1508 0
    endloop
  endfacet
  facet normal 0 0 -1
    outer loop
      vertex -2.6293 -38.0897 0
      vertex -6.67439 -35.1508 0
      vertex -5.25 -33.7264 0
    endloop
  endfacet
  facet normal 0 0 -1
    outer loop
      vertex -3.25 -40 0
      vertex -8.25 -40 0
      vertex -7.84622 -37.4506 0
    endloop
  endfacet
  facet normal 0 -1 0
    outer loop
      vertex 0 -48.25 8
      vertex 0 -48.25 0
      vertex 25 -48.25 8
    endloop
  endfacet
  facet normal 0 -1 0
    outer loop
      vertex 25 -48.25 8
      vertex 55 -48.25 16
      vertex 25 -48.25 16
    endloop
  endfacet
  facet normal 0 -1 0
    outer loop
      vertex 55 -48.25 0
      vertex 25 -48.25 8
      vertex 0 -48.25 0
    endloop
  endfacet
  facet normal 0 -1 0
    outer loop
      vertex 25 -48.25 8
      vertex 55 -48.25 0
      vertex 55 -48.25 16
    endloop
  endfacet
  facet normal 0 1 -0
    outer loop
      vertex 32.875 -31.75 9.51554
      vertex 25 -31.75 16
      vertex 47.125 -31.75 9.51554
    endloop
  endfacet
  facet normal 0 1 0
    outer loop
      vertex 25 -31.75 16
      vertex 32.875 -31.75 9.51554
      vertex 32 -31.75 9.75
    endloop
  endfacet
  facet normal 0 1 -0
    outer loop
      vertex 46.4845 -31.75 8.875
      vertex 32.875 -31.75 9.51554
      vertex 47.125 -31.75 9.51554
    endloop
  endfacet
  facet normal 0 1 0
    outer loop
      vertex 46.4845 -31.75 8.875
      vertex 33.5155 -31.75 8.875
      vertex 32.875 -31.75 9.51554
    endloop
  endfacet
  facet normal 0 1 -0
    outer loop
      vertex 46.25 -31.75 8
      vertex 33.5155 -31.75 8.875
      vertex 46.4845 -31.75 8.875
    endloop
  endfacet
  facet normal 0 1 0
    outer loop
      vertex 46.25 -31.75 8
      vertex 33.75 -31.75 8
      vertex 33.5155 -31.75 8.875
    endloop
  endfacet
  facet normal 0 1 0
    outer loop
      vertex 46.4845 -31.75 7.125
      vertex 33.75 -31.75 8
      vertex 46.25 -31.75 8
    endloop
  endfacet
  facet normal 0 1 0
    outer loop
      vertex 46.4845 -31.75 7.125
      vertex 33.5155 -31.75 7.125
      vertex 33.75 -31.75 8
    endloop
  endfacet
  facet normal 0 1 0
    outer loop
      vertex 47.125 -31.75 6.48446
      vertex 33.5155 -31.75 7.125
      vertex 46.4845 -31.75 7.125
    endloop
  endfacet
  facet normal 0 1 0
    outer loop
      vertex 47.125 -31.75 6.48446
      vertex 32.875 -31.75 6.48446
      vertex 33.5155 -31.75 7.125
    endloop
  endfacet
  facet normal 0 1 0
    outer loop
      vertex 55 -31.75 0
      vertex 47.125 -31.75 6.48446
      vertex 48 -31.75 6.25
    endloop
  endfacet
  facet normal 0 1 0
    outer loop
      vertex 47.125 -31.75 6.48446
      vertex 55 -31.75 0
      vertex 32.875 -31.75 6.48446
    endloop
  endfacet
  facet normal 0 1 0
    outer loop
      vertex 47.125 -31.75 9.51554
      vertex 55 -31.75 16
      vertex 48 -31.75 9.75
    endloop
  endfacet
  facet normal 0 1 0
    outer loop
      vertex 55 -31.75 16
      vertex 48.875 -31.75 9.51554
      vertex 48 -31.75 9.75
    endloop
  endfacet
  facet normal 0 1 0
    outer loop
      vertex 55 -31.75 16
      vertex 49.5155 -31.75 8.875
      vertex 48.875 -31.75 9.51554
    endloop
  endfacet
  facet normal 0 1 0
    outer loop
      vertex 55 -31.75 16
      vertex 49.75 -31.75 8
      vertex 49.5155 -31.75 8.875
    endloop
  endfacet
  facet normal 0 1 -0
    outer loop
      vertex 55 -31.75 0
      vertex 49.75 -31.75 8
      vertex 55 -31.75 16
    endloop
  endfacet
  facet normal 0 1 0
    outer loop
      vertex 32.875 -31.75 6.48446
      vertex 55 -31.75 0
      vertex 32 -31.75 6.25
    endloop
  endfacet
  facet normal 0 1 0
    outer loop
      vertex 48.875 -31.75 6.48446
      vertex 55 -31.75 0
      vertex 48 -31.75 6.25
    endloop
  endfacet
  facet normal 0 1 0
    outer loop
      vertex 49.5155 -31.75 7.125
      vertex 55 -31.75 0
      vertex 48.875 -31.75 6.48446
    endloop
  endfacet
  facet normal 0 1 0
    outer loop
      vertex 49.75 -31.75 8
      vertex 55 -31.75 0
      vertex 49.5155 -31.75 7.125
    endloop
  endfacet
  facet normal 0 1 0
    outer loop
      vertex 55 -31.75 16
      vertex 47.125 -31.75 9.51554
      vertex 25 -31.75 16
    endloop
  endfacet
  facet normal 0 1 -0
    outer loop
      vertex 31.125 -31.75 9.51554
      vertex 25 -31.75 16
      vertex 32 -31.75 9.75
    endloop
  endfacet
  facet normal 0 1 -0
    outer loop
      vertex 30.4845 -31.75 8.875
      vertex 25 -31.75 16
      vertex 31.125 -31.75 9.51554
    endloop
  endfacet
  facet normal 0 1 0
    outer loop
      vertex 25 -31.75 8
      vertex 30.4845 -31.75 8.875
      vertex 30.25 -31.75 8
    endloop
  endfacet
  facet normal 0 1 0
    outer loop
      vertex 30.4845 -31.75 8.875
      vertex 25 -31.75 8
      vertex 25 -31.75 16
    endloop
  endfacet
  facet normal 0 1 0
    outer loop
      vertex 30.4845 -31.75 7.125
      vertex 25 -31.75 8
      vertex 30.25 -31.75 8
    endloop
  endfacet
  facet normal 0 1 0
    outer loop
      vertex 31.125 -31.75 6.48446
      vertex 25 -31.75 8
      vertex 30.4845 -31.75 7.125
    endloop
  endfacet
  facet normal 0 1 0
    outer loop
      vertex 25 -31.75 8
      vertex 31.125 -31.75 6.48446
      vertex 5.25 -31.75 0
    endloop
  endfacet
  facet normal 0 1 0
    outer loop
      vertex 5.25 -31.75 0
      vertex 31.125 -31.75 6.48446
      vertex 32 -31.75 6.25
    endloop
  endfacet
  facet normal 0 1 0
    outer loop
      vertex 5.25 -31.75 0
      vertex 32 -31.75 6.25
      vertex 55 -31.75 0
    endloop
  endfacet
  facet normal 0 1 0
    outer loop
      vertex 25 -31.75 8
      vertex 5.25 -31.75 0
      vertex 5.25 -31.75 8
    endloop
  endfacet
  facet normal -1 0 0
    outer loop
      vertex 25 -48.25 8
      vertex 25 -31.75 16
      vertex 25 -31.75 8
    endloop
  endfacet
  facet normal -1 -0 0
    outer loop
      vertex 25 -31.75 16
      vertex 25 -48.25 8
      vertex 25 -48.25 16
    endloop
  endfacet
  facet normal 0 0 1
    outer loop
      vertex 51.05 -36.3 16
      vertex 55 -31.75 16
      vertex 51.05 -33.3 16
    endloop
  endfacet
  facet normal 0 0 1
    outer loop
      vertex 55 -31.75 16
      vertex 44.95 -33.3 16
      vertex 51.05 -33.3 16
    endloop
  endfacet
  facet normal 0 0 1
    outer loop
      vertex 44.95 -33.3 16
      vertex 35.05 -33.3 16
      vertex 44.95 -36.3 16
    endloop
  endfacet
  facet normal 0 0 1
    outer loop
      vertex 55 -31.75 16
      vertex 35.05 -33.3 16
      vertex 44.95 -33.3 16
    endloop
  endfacet
  facet normal -0 0 1
    outer loop
      vertex 25 -31.75 16
      vertex 35.05 -33.3 16
      vertex 55 -31.75 16
    endloop
  endfacet
  facet normal 0 0 1
    outer loop
      vertex 28.95 -33.3 16
      vertex 25 -31.75 16
      vertex 28.95 -36.3 16
    endloop
  endfacet
  facet normal 0 0 1
    outer loop
      vertex 35.05 -33.3 16
      vertex 25 -31.75 16
      vertex 28.95 -33.3 16
    endloop
  endfacet
  facet normal 0 0 1
    outer loop
      vertex 55 -31.75 16
      vertex 51.05 -36.3 16
      vertex 55 -48.25 16
    endloop
  endfacet
  facet normal -0 0 1
    outer loop
      vertex 44.95 -36.3 16
      vertex 55 -48.25 16
      vertex 51.05 -36.3 16
    endloop
  endfacet
  facet normal 0 0 1
    outer loop
      vertex 35.05 -36.3 16
      vertex 44.95 -36.3 16
      vertex 35.05 -33.3 16
    endloop
  endfacet
  facet normal 0 0 1
    outer loop
      vertex 44.95 -36.3 16
      vertex 35.05 -36.3 16
      vertex 55 -48.25 16
    endloop
  endfacet
  facet normal 0 0 1
    outer loop
      vertex 25 -48.25 16
      vertex 35.05 -36.3 16
      vertex 28.95 -36.3 16
    endloop
  endfacet
  facet normal 0 0 1
    outer loop
      vertex 35.05 -36.3 16
      vertex 25 -48.25 16
      vertex 55 -48.25 16
    endloop
  endfacet
  facet normal 0 0 1
    outer loop
      vertex 25 -48.25 16
      vertex 28.95 -36.3 16
      vertex 25 -31.75 16
    endloop
  endfacet
  facet normal -0.987688 0.156435 0
    outer loop
      vertex -8.25 -40 0
      vertex -7.84622 -37.4506 8
      vertex -7.84622 -37.4506 0
    endloop
  endfacet
  facet normal -0.987688 0.156435 0
    outer loop
      vertex -7.84622 -37.4506 8
      vertex -8.25 -40 0
      vertex -8.25 -40 8
    endloop
  endfacet
  facet normal -0.156435 -0.987688 0
    outer loop
      vertex -2.54939 -47.8462 0
      vertex 0 -48.25 8
      vertex -2.54939 -47.8462 8
    endloop
  endfacet
  facet normal -0.156435 -0.987688 -0
    outer loop
      vertex 0 -48.25 8
      vertex -2.54939 -47.8462 0
      vertex 0 -48.25 0
    endloop
  endfacet
  facet normal -0.987688 -0.156435 0
    outer loop
      vertex -7.84622 -42.5494 0
      vertex -8.25 -40 8
      vertex -8.25 -40 0
    endloop
  endfacet
  facet normal -0.987688 -0.156435 0
    outer loop
      vertex -8.25 -40 8
      vertex -7.84622 -42.5494 0
      vertex -7.84622 -42.5494 8
    endloop
  endfacet
  facet normal -0.707107 0.707107 0
    outer loop
      vertex -5.25 -33.7264 0
      vertex -6.67439 -35.1508 8
      vertex -5.25 -33.7264 8
    endloop
  endfacet
  facet normal -0.707107 0.707107 0
    outer loop
      vertex -6.67439 -35.1508 8
      vertex -5.25 -33.7264 0
      vertex -6.67439 -35.1508 0
    endloop
  endfacet
  facet normal -0.891007 0.45399 0
    outer loop
      vertex -7.84622 -37.4506 0
      vertex -6.67439 -35.1508 8
      vertex -6.67439 -35.1508 0
    endloop
  endfacet
  facet normal -0.891007 0.45399 0
    outer loop
      vertex -6.67439 -35.1508 8
      vertex -7.84622 -37.4506 0
      vertex -7.84622 -37.4506 8
    endloop
  endfacet
  facet normal -0.707107 -0.707107 0
    outer loop
      vertex -6.67439 -44.8492 0
      vertex -4.84923 -46.6744 8
      vertex -6.67439 -44.8492 8
    endloop
  endfacet
  facet normal -0.707107 -0.707107 -0
    outer loop
      vertex -4.84923 -46.6744 8
      vertex -6.67439 -44.8492 0
      vertex -4.84923 -46.6744 0
    endloop
  endfacet
  facet normal -0.891007 -0.45399 0
    outer loop
      vertex -6.67439 -44.8492 0
      vertex -7.84622 -42.5494 8
      vertex -7.84622 -42.5494 0
    endloop
  endfacet
  facet normal -0.891007 -0.45399 0
    outer loop
      vertex -7.84622 -42.5494 8
      vertex -6.67439 -44.8492 0
      vertex -6.67439 -44.8492 8
    endloop
  endfacet
  facet normal -0.45399 -0.891007 0
    outer loop
      vertex -4.84923 -46.6744 0
      vertex -2.54939 -47.8462 8
      vertex -4.84923 -46.6744 8
    endloop
  endfacet
  facet normal -0.45399 -0.891007 -0
    outer loop
      vertex -2.54939 -47.8462 8
      vertex -4.84923 -46.6744 0
      vertex -2.54939 -47.8462 0
    endloop
  endfacet
  facet normal -1 0 0
    outer loop
      vertex -5.25 -33.7264 0
      vertex -5.25 -23.75 8
      vertex -5.25 -23.75 0
    endloop
  endfacet
  facet normal -1 -0 0
    outer loop
      vertex -5.25 -23.75 8
      vertex -5.25 -33.7264 0
      vertex -5.25 -33.7264 8
    endloop
  endfacet
  facet normal 1 -0 0
    outer loop
      vertex 5.25 -31.75 8
      vertex 5.25 -23.75 0
      vertex 5.25 -23.75 8
    endloop
  endfacet
  facet normal 1 0 0
    outer loop
      vertex 5.25 -23.75 0
      vertex 5.25 -31.75 8
      vertex 5.25 -31.75 0
    endloop
  endfacet
  facet normal 0 1 -0
    outer loop
      vertex 5.25 -23.75 0
      vertex 1.3125 -23.75 8
      vertex 5.25 -23.75 8
    endloop
  endfacet
  facet normal 0 1 0
    outer loop
      vertex 1.3125 -23.75 8
      vertex 5.25 -23.75 0
      vertex 1.3125 -23.75 0
    endloop
  endfacet
  facet normal 0 1 -0
    outer loop
      vertex -1.3125 -23.75 0
      vertex -5.25 -23.75 8
      vertex -1.3125 -23.75 8
    endloop
  endfacet
  facet normal 0 1 0
    outer loop
      vertex -5.25 -23.75 8
      vertex -1.3125 -23.75 0
      vertex -5.25 -23.75 0
    endloop
  endfacet
  facet normal 0.5 0 0.866025
    outer loop
      vertex 45.0382 -33.3 6.29
      vertex 48 -36.3 4.58
      vertex 48 -33.3 4.58
    endloop
  endfacet
  facet normal 0.5 0 0.866025
    outer loop
      vertex 48 -36.3 4.58
      vertex 45.0382 -33.3 6.29
      vertex 45.0382 -36.3 6.29
    endloop
  endfacet
  facet normal 1 -0 0
    outer loop
      vertex 45.0382 -36.3 8
      vertex 45.0382 -33.3 6.29
      vertex 45.0382 -33.3 8
    endloop
  endfacet
  facet normal 1 0 0
    outer loop
      vertex 45.0382 -33.3 6.29
      vertex 45.0382 -36.3 8
      vertex 45.0382 -36.3 6.29
    endloop
  endfacet
  facet normal 0 1 0
    outer loop
      vertex 46.4845 -36.3 7.125
      vertex 45.0382 -36.3 8
      vertex 46.25 -36.3 8
    endloop
  endfacet
  facet normal 0 1 0
    outer loop
      vertex 45.0382 -36.3 6.29
      vertex 46.4845 -36.3 7.125
      vertex 47.125 -36.3 6.48446
    endloop
  endfacet
  facet normal 0 1 0
    outer loop
      vertex 46.4845 -36.3 7.125
      vertex 45.0382 -36.3 6.29
      vertex 45.0382 -36.3 8
    endloop
  endfacet
  facet normal 0 1 -0
    outer loop
      vertex 48 -36.3 4.58
      vertex 47.125 -36.3 6.48446
      vertex 48 -36.3 6.25
    endloop
  endfacet
  facet normal 0 1 0
    outer loop
      vertex 47.125 -36.3 6.48446
      vertex 48 -36.3 4.58
      vertex 45.0382 -36.3 6.29
    endloop
  endfacet
  facet normal 0 1 0
    outer loop
      vertex 51.05 -36.3 16
      vertex 48 -36.3 9.75
      vertex 44.95 -36.3 16
    endloop
  endfacet
  facet normal 0 1 0
    outer loop
      vertex 51.05 -36.3 16
      vertex 48.875 -36.3 9.51554
      vertex 48 -36.3 9.75
    endloop
  endfacet
  facet normal 0 1 0
    outer loop
      vertex 51.05 -36.3 16
      vertex 49.5155 -36.3 8.875
      vertex 48.875 -36.3 9.51554
    endloop
  endfacet
  facet normal 0 1 -0
    outer loop
      vertex 51.05 -36.3 8
      vertex 49.5155 -36.3 8.875
      vertex 51.05 -36.3 16
    endloop
  endfacet
  facet normal 0 1 -0
    outer loop
      vertex 50.9618 -36.3 8
      vertex 49.5155 -36.3 8.875
      vertex 51.05 -36.3 8
    endloop
  endfacet
  facet normal 0 1 0
    outer loop
      vertex 50.9618 -36.3 8
      vertex 49.75 -36.3 8
      vertex 49.5155 -36.3 8.875
    endloop
  endfacet
  facet normal 0 1 0
    outer loop
      vertex 50.9618 -36.3 8
      vertex 49.5155 -36.3 7.125
      vertex 49.75 -36.3 8
    endloop
  endfacet
  facet normal 0 1 -0
    outer loop
      vertex 50.9618 -36.3 6.29
      vertex 49.5155 -36.3 7.125
      vertex 50.9618 -36.3 8
    endloop
  endfacet
  facet normal 0 1 0
    outer loop
      vertex 49.5155 -36.3 7.125
      vertex 50.9618 -36.3 6.29
      vertex 48.875 -36.3 6.48446
    endloop
  endfacet
  facet normal 0 1 0
    outer loop
      vertex 48 -36.3 4.58
      vertex 48.875 -36.3 6.48446
      vertex 50.9618 -36.3 6.29
    endloop
  endfacet
  facet normal 0 1 0
    outer loop
      vertex 48.875 -36.3 6.48446
      vertex 48 -36.3 4.58
      vertex 48 -36.3 6.25
    endloop
  endfacet
  facet normal 0 1 -0
    outer loop
      vertex 47.125 -36.3 9.51554
      vertex 44.95 -36.3 16
      vertex 48 -36.3 9.75
    endloop
  endfacet
  facet normal 0 1 -0
    outer loop
      vertex 46.4845 -36.3 8.875
      vertex 44.95 -36.3 16
      vertex 47.125 -36.3 9.51554
    endloop
  endfacet
  facet normal 0 1 0
    outer loop
      vertex 45.0382 -36.3 8
      vertex 46.4845 -36.3 8.875
      vertex 46.25 -36.3 8
    endloop
  endfacet
  facet normal 0 1 0
    outer loop
      vertex 44.95 -36.3 8
      vertex 46.4845 -36.3 8.875
      vertex 45.0382 -36.3 8
    endloop
  endfacet
  facet normal 0 1 0
    outer loop
      vertex 46.4845 -36.3 8.875
      vertex 44.95 -36.3 8
      vertex 44.95 -36.3 16
    endloop
  endfacet
  facet normal 0 -1 0
    outer loop
      vertex 49.5155 -33.3 7.125
      vertex 50.9618 -33.3 8
      vertex 49.75 -33.3 8
    endloop
  endfacet
  facet normal 0 -1 0
    outer loop
      vertex 50.9618 -33.3 6.29
      vertex 49.5155 -33.3 7.125
      vertex 48.875 -33.3 6.48446
    endloop
  endfacet
  facet normal 0 -1 0
    outer loop
      vertex 49.5155 -33.3 7.125
      vertex 50.9618 -33.3 6.29
      vertex 50.9618 -33.3 8
    endloop
  endfacet
  facet normal 0 -1 0
    outer loop
      vertex 48 -33.3 4.58
      vertex 48.875 -33.3 6.48446
      vertex 48 -33.3 6.25
    endloop
  endfacet
  facet normal 0 -1 -0
    outer loop
      vertex 48.875 -33.3 6.48446
      vertex 48 -33.3 4.58
      vertex 50.9618 -33.3 6.29
    endloop
  endfacet
  facet normal 0 -1 0
    outer loop
      vertex 44.95 -33.3 16
      vertex 48 -33.3 9.75
      vertex 51.05 -33.3 16
    endloop
  endfacet
  facet normal 0 -1 0
    outer loop
      vertex 44.95 -33.3 16
      vertex 47.125 -33.3 9.51554
      vertex 48 -33.3 9.75
    endloop
  endfacet
  facet normal 0 -1 0
    outer loop
      vertex 44.95 -33.3 16
      vertex 46.4845 -33.3 8.875
      vertex 47.125 -33.3 9.51554
    endloop
  endfacet
  facet normal 0 -1 0
    outer loop
      vertex 44.95 -33.3 8
      vertex 46.4845 -33.3 8.875
      vertex 44.95 -33.3 16
    endloop
  endfacet
  facet normal 0 -1 0
    outer loop
      vertex 45.0382 -33.3 8
      vertex 46.4845 -33.3 8.875
      vertex 44.95 -33.3 8
    endloop
  endfacet
  facet normal 0 -1 0
    outer loop
      vertex 45.0382 -33.3 8
      vertex 46.25 -33.3 8
      vertex 46.4845 -33.3 8.875
    endloop
  endfacet
  facet normal 0 -1 0
    outer loop
      vertex 45.0382 -33.3 8
      vertex 46.4845 -33.3 7.125
      vertex 46.25 -33.3 8
    endloop
  endfacet
  facet normal 0 -1 0
    outer loop
      vertex 45.0382 -33.3 6.29
      vertex 46.4845 -33.3 7.125
      vertex 45.0382 -33.3 8
    endloop
  endfacet
  facet normal 0 -1 -0
    outer loop
      vertex 46.4845 -33.3 7.125
      vertex 45.0382 -33.3 6.29
      vertex 47.125 -33.3 6.48446
    endloop
  endfacet
  facet normal 0 -1 0
    outer loop
      vertex 48 -33.3 4.58
      vertex 47.125 -33.3 6.48446
      vertex 45.0382 -33.3 6.29
    endloop
  endfacet
  facet normal 0 -1 0
    outer loop
      vertex 47.125 -33.3 6.48446
      vertex 48 -33.3 4.58
      vertex 48 -33.3 6.25
    endloop
  endfacet
  facet normal 0 -1 0
    outer loop
      vertex 48.875 -33.3 9.51554
      vertex 51.05 -33.3 16
      vertex 48 -33.3 9.75
    endloop
  endfacet
  facet normal 0 -1 0
    outer loop
      vertex 49.5155 -33.3 8.875
      vertex 51.05 -33.3 16
      vertex 48.875 -33.3 9.51554
    endloop
  endfacet
  facet normal 0 -1 0
    outer loop
      vertex 50.9618 -33.3 8
      vertex 49.5155 -33.3 8.875
      vertex 49.75 -33.3 8
    endloop
  endfacet
  facet normal 0 -1 0
    outer loop
      vertex 51.05 -33.3 8
      vertex 49.5155 -33.3 8.875
      vertex 50.9618 -33.3 8
    endloop
  endfacet
  facet normal 0 -1 0
    outer loop
      vertex 49.5155 -33.3 8.875
      vertex 51.05 -33.3 8
      vertex 51.05 -33.3 16
    endloop
  endfacet
  facet normal -1 0 0
    outer loop
      vertex 50.9618 -36.3 6.29
      vertex 50.9618 -33.3 8
      vertex 50.9618 -33.3 6.29
    endloop
  endfacet
  facet normal -1 -0 0
    outer loop
      vertex 50.9618 -33.3 8
      vertex 50.9618 -36.3 6.29
      vertex 50.9618 -36.3 8
    endloop
  endfacet
  facet normal -0.5 0 0.866025
    outer loop
      vertex 48 -33.3 4.58
      vertex 50.9618 -36.3 6.29
      vertex 50.9618 -33.3 6.29
    endloop
  endfacet
  facet normal -0.5 0 0.866025
    outer loop
      vertex 50.9618 -36.3 6.29
      vertex 48 -33.3 4.58
      vertex 48 -36.3 4.58
    endloop
  endfacet
  facet normal -0 0 1
    outer loop
      vertex 50.9618 -33.3 8
      vertex 51.05 -36.3 8
      vertex 51.05 -33.3 8
    endloop
  endfacet
  facet normal 0 0 1
    outer loop
      vertex 51.05 -36.3 8
      vertex 50.9618 -33.3 8
      vertex 50.9618 -36.3 8
    endloop
  endfacet
  facet normal -0 0 1
    outer loop
      vertex 44.95 -33.3 8
      vertex 45.0382 -36.3 8
      vertex 45.0382 -33.3 8
    endloop
  endfacet
  facet normal 0 0 1
    outer loop
      vertex 45.0382 -36.3 8
      vertex 44.95 -33.3 8
      vertex 44.95 -36.3 8
    endloop
  endfacet
  facet normal 1 -0 0
    outer loop
      vertex 44.95 -36.3 16
      vertex 44.95 -33.3 8
      vertex 44.95 -33.3 16
    endloop
  endfacet
  facet normal 1 0 0
    outer loop
      vertex 44.95 -33.3 8
      vertex 44.95 -36.3 16
      vertex 44.95 -36.3 8
    endloop
  endfacet
  facet normal -1 0 0
    outer loop
      vertex 51.05 -36.3 8
      vertex 51.05 -33.3 16
      vertex 51.05 -33.3 8
    endloop
  endfacet
  facet normal -1 -0 0
    outer loop
      vertex 51.05 -33.3 16
      vertex 51.05 -36.3 8
      vertex 51.05 -36.3 16
    endloop
  endfacet
  facet normal 0.25882 0 -0.965926
    outer loop
      vertex 47.125 -33.3 9.51554
      vertex 48 -31.75 9.75
      vertex 48 -33.3 9.75
    endloop
  endfacet
  facet normal 0.25882 0 -0.965926
    outer loop
      vertex 48 -31.75 9.75
      vertex 47.125 -33.3 9.51554
      vertex 47.125 -31.75 9.51554
    endloop
  endfacet
  facet normal 0.25882 0 -0.965926
    outer loop
      vertex 47.125 -37.3081 9.51554
      vertex 48 -36.3 9.75
      vertex 48 -37.4276 9.75
    endloop
  endfacet
  facet normal 0.25882 0 -0.965926
    outer loop
      vertex 48 -36.3 9.75
      vertex 47.125 -37.3081 9.51554
      vertex 47.125 -36.3 9.51554
    endloop
  endfacet
  facet normal 0.25882 0 0.965926
    outer loop
      vertex 47.125 -31.75 6.48446
      vertex 48 -33.3 6.25
      vertex 48 -31.75 6.25
    endloop
  endfacet
  facet normal 0.25882 0 0.965926
    outer loop
      vertex 48 -33.3 6.25
      vertex 47.125 -31.75 6.48446
      vertex 47.125 -33.3 6.48446
    endloop
  endfacet
  facet normal 0.25882 -0 0.965926
    outer loop
      vertex 47.125 -37.3081 6.48446
      vertex 48 -36.3 6.25
      vertex 47.125 -36.3 6.48446
    endloop
  endfacet
  facet normal 0.25882 0 0.965926
    outer loop
      vertex 48 -36.3 6.25
      vertex 47.125 -37.3081 6.48446
      vertex 48 -37.4276 6.25
    endloop
  endfacet
  facet normal 0.965926 0 -0.258819
    outer loop
      vertex 46.4845 -33.3 8.875
      vertex 46.25 -31.75 8
      vertex 46.4845 -31.75 8.875
    endloop
  endfacet
  facet normal 0.965926 0 -0.258819
    outer loop
      vertex 46.25 -31.75 8
      vertex 46.4845 -33.3 8.875
      vertex 46.25 -33.3 8
    endloop
  endfacet
  facet normal 0.965926 0 -0.258819
    outer loop
      vertex 46.4845 -36.3 8.875
      vertex 46.25 -36.875 8
      vertex 46.25 -36.3 8
    endloop
  endfacet
  facet normal 0.965926 0 -0.258819
    outer loop
      vertex 46.25 -36.875 8
      vertex 46.4845 -36.3 8.875
      vertex 46.4845 -37.0136 8.875
    endloop
  endfacet
  facet normal 0.707106 0 -0.707107
    outer loop
      vertex 46.4845 -33.3 8.875
      vertex 47.125 -31.75 9.51554
      vertex 47.125 -33.3 9.51554
    endloop
  endfacet
  facet normal 0.707106 0 -0.707107
    outer loop
      vertex 47.125 -31.75 9.51554
      vertex 46.4845 -33.3 8.875
      vertex 46.4845 -31.75 8.875
    endloop
  endfacet
  facet normal 0.707107 0 -0.707106
    outer loop
      vertex 46.5751 -37.028 8.96568
      vertex 47.125 -36.3 9.51554
      vertex 47.125 -37.3081 9.51554
    endloop
  endfacet
  facet normal 0.707099 0 -0.707114
    outer loop
      vertex 46.4845 -36.3 8.875
      vertex 46.5751 -37.028 8.96568
      vertex 46.4845 -37.0136 8.875
    endloop
  endfacet
  facet normal 0.707106 1.72159e-006 -0.707107
    outer loop
      vertex 46.5751 -37.028 8.96568
      vertex 46.4845 -36.3 8.875
      vertex 47.125 -36.3 9.51554
    endloop
  endfacet
  facet normal 0.965926 -0 0.258819
    outer loop
      vertex 46.25 -33.3 8
      vertex 46.4845 -31.75 7.125
      vertex 46.25 -31.75 8
    endloop
  endfacet
  facet normal 0.965926 0 0.258819
    outer loop
      vertex 46.4845 -31.75 7.125
      vertex 46.25 -33.3 8
      vertex 46.4845 -33.3 7.125
    endloop
  endfacet
  facet normal 0.965926 -0 0.258819
    outer loop
      vertex 46.25 -36.875 8
      vertex 46.4845 -36.3 7.125
      vertex 46.25 -36.3 8
    endloop
  endfacet
  facet normal 0.965926 0 0.258819
    outer loop
      vertex 46.4845 -36.3 7.125
      vertex 46.25 -36.875 8
      vertex 46.4845 -37.0136 7.125
    endloop
  endfacet
  facet normal -0.965926 0 -0.258819
    outer loop
      vertex 49.75 -36.875 8
      vertex 49.5155 -36.3 8.875
      vertex 49.75 -36.3 8
    endloop
  endfacet
  facet normal -0.965926 -0 -0.258819
    outer loop
      vertex 49.5155 -36.3 8.875
      vertex 49.75 -36.875 8
      vertex 49.5155 -37.0136 8.875
    endloop
  endfacet
  facet normal -0.965926 0 -0.258819
    outer loop
      vertex 49.75 -33.3 8
      vertex 49.5155 -31.75 8.875
      vertex 49.75 -31.75 8
    endloop
  endfacet
  facet normal -0.965926 -0 -0.258819
    outer loop
      vertex 49.5155 -31.75 8.875
      vertex 49.75 -33.3 8
      vertex 49.5155 -33.3 8.875
    endloop
  endfacet
  facet normal 0.707107 -0 0.707107
    outer loop
      vertex 46.4845 -33.3 7.125
      vertex 47.125 -31.75 6.48446
      vertex 46.4845 -31.75 7.125
    endloop
  endfacet
  facet normal 0.707107 0 0.707107
    outer loop
      vertex 47.125 -31.75 6.48446
      vertex 46.4845 -33.3 7.125
      vertex 47.125 -33.3 6.48446
    endloop
  endfacet
  facet normal 0.707107 0 0.707107
    outer loop
      vertex 46.5751 -37.028 7.03432
      vertex 46.4845 -36.3 7.125
      vertex 46.4845 -37.0136 7.125
    endloop
  endfacet
  facet normal 0.707107 0 0.707107
    outer loop
      vertex 46.4845 -36.3 7.125
      vertex 46.5751 -37.028 7.03432
      vertex 47.125 -36.3 6.48446
    endloop
  endfacet
  facet normal 0.707107 0 0.707107
    outer loop
      vertex 47.125 -36.3 6.48446
      vertex 46.5751 -37.028 7.03432
      vertex 47.125 -37.3081 6.48446
    endloop
  endfacet
  facet normal -0.965926 0 0.258819
    outer loop
      vertex 49.5155 -36.3 7.125
      vertex 49.75 -36.875 8
      vertex 49.75 -36.3 8
    endloop
  endfacet
  facet normal -0.965926 0 0.258819
    outer loop
      vertex 49.75 -36.875 8
      vertex 49.5155 -36.3 7.125
      vertex 49.5155 -37.0136 7.125
    endloop
  endfacet
  facet normal -0.965926 0 0.258819
    outer loop
      vertex 49.5155 -33.3 7.125
      vertex 49.75 -31.75 8
      vertex 49.5155 -31.75 7.125
    endloop
  endfacet
  facet normal -0.965926 0 0.258819
    outer loop
      vertex 49.75 -31.75 8
      vertex 49.5155 -33.3 7.125
      vertex 49.75 -33.3 8
    endloop
  endfacet
  facet normal -0.25882 0 0.965926
    outer loop
      vertex 48 -31.75 6.25
      vertex 48.875 -33.3 6.48446
      vertex 48.875 -31.75 6.48446
    endloop
  endfacet
  facet normal -0.25882 0 0.965926
    outer loop
      vertex 48.875 -33.3 6.48446
      vertex 48 -31.75 6.25
      vertex 48 -33.3 6.25
    endloop
  endfacet
  facet normal -0.25882 0 0.965926
    outer loop
      vertex 48 -36.3 6.25
      vertex 48.875 -37.3081 6.48446
      vertex 48.875 -36.3 6.48446
    endloop
  endfacet
  facet normal -0.25882 0 0.965926
    outer loop
      vertex 48.875 -37.3081 6.48446
      vertex 48 -36.3 6.25
      vertex 48 -37.4276 6.25
    endloop
  endfacet
  facet normal -0.707106 0 -0.707107
    outer loop
      vertex 48.875 -33.3 9.51554
      vertex 49.5155 -31.75 8.875
      vertex 49.5155 -33.3 8.875
    endloop
  endfacet
  facet normal -0.707106 0 -0.707107
    outer loop
      vertex 49.5155 -31.75 8.875
      vertex 48.875 -33.3 9.51554
      vertex 48.875 -31.75 9.51554
    endloop
  endfacet
  facet normal -0.707099 0 -0.707114
    outer loop
      vertex 49.4249 -37.028 8.96568
      vertex 49.5155 -36.3 8.875
      vertex 49.5155 -37.0136 8.875
    endloop
  endfacet
  facet normal -0.707107 -0 -0.707106
    outer loop
      vertex 48.875 -36.3 9.51554
      vertex 49.4249 -37.028 8.96568
      vertex 48.875 -37.3081 9.51554
    endloop
  endfacet
  facet normal -0.707106 1.72159e-006 -0.707107
    outer loop
      vertex 49.4249 -37.028 8.96568
      vertex 48.875 -36.3 9.51554
      vertex 49.5155 -36.3 8.875
    endloop
  endfacet
  facet normal -0.25882 -0 -0.965926
    outer loop
      vertex 48 -36.3 9.75
      vertex 48.875 -37.3081 9.51554
      vertex 48 -37.4276 9.75
    endloop
  endfacet
  facet normal -0.25882 0 -0.965926
    outer loop
      vertex 48.875 -37.3081 9.51554
      vertex 48 -36.3 9.75
      vertex 48.875 -36.3 9.51554
    endloop
  endfacet
  facet normal -0.25882 0 -0.965926
    outer loop
      vertex 48 -33.3 9.75
      vertex 48.875 -31.75 9.51554
      vertex 48.875 -33.3 9.51554
    endloop
  endfacet
  facet normal -0.25882 0 -0.965926
    outer loop
      vertex 48.875 -31.75 9.51554
      vertex 48 -33.3 9.75
      vertex 48 -31.75 9.75
    endloop
  endfacet
  facet normal -0.707106 0 0.707107
    outer loop
      vertex 48.875 -31.75 6.48446
      vertex 49.5155 -33.3 7.125
      vertex 49.5155 -31.75 7.125
    endloop
  endfacet
  facet normal -0.707106 0 0.707107
    outer loop
      vertex 49.5155 -33.3 7.125
      vertex 48.875 -31.75 6.48446
      vertex 48.875 -33.3 6.48446
    endloop
  endfacet
  facet normal -0.707103 0 0.70711
    outer loop
      vertex 49.5155 -36.3 7.125
      vertex 49.4249 -37.028 7.03432
      vertex 49.5155 -37.0136 7.125
    endloop
  endfacet
  facet normal -0.707106 7.95226e-007 0.707107
    outer loop
      vertex 48.875 -36.3 6.48446
      vertex 49.4249 -37.028 7.03432
      vertex 49.5155 -36.3 7.125
    endloop
  endfacet
  facet normal -0.707107 0 0.707107
    outer loop
      vertex 49.4249 -37.028 7.03432
      vertex 48.875 -36.3 6.48446
      vertex 48.875 -37.3081 6.48446
    endloop
  endfacet
  facet normal 0.5 0 0.866025
    outer loop
      vertex 29.0382 -33.3 6.29
      vertex 32 -36.3 4.58
      vertex 32 -33.3 4.58
    endloop
  endfacet
  facet normal 0.5 0 0.866025
    outer loop
      vertex 32 -36.3 4.58
      vertex 29.0382 -33.3 6.29
      vertex 29.0382 -36.3 6.29
    endloop
  endfacet
  facet normal 1 -0 0
    outer loop
      vertex 29.0382 -36.3 8
      vertex 29.0382 -33.3 6.29
      vertex 29.0382 -33.3 8
    endloop
  endfacet
  facet normal 1 0 0
    outer loop
      vertex 29.0382 -33.3 6.29
      vertex 29.0382 -36.3 8
      vertex 29.0382 -36.3 6.29
    endloop
  endfacet
  facet normal 0 1 0
    outer loop
      vertex 30.4845 -36.3 7.125
      vertex 29.0382 -36.3 8
      vertex 30.25 -36.3 8
    endloop
  endfacet
  facet normal 0 1 0
    outer loop
      vertex 29.0382 -36.3 6.29
      vertex 30.4845 -36.3 7.125
      vertex 31.125 -36.3 6.48446
    endloop
  endfacet
  facet normal 0 1 0
    outer loop
      vertex 30.4845 -36.3 7.125
      vertex 29.0382 -36.3 6.29
      vertex 29.0382 -36.3 8
    endloop
  endfacet
  facet normal 0 1 -0
    outer loop
      vertex 32 -36.3 4.58
      vertex 31.125 -36.3 6.48446
      vertex 32 -36.3 6.25
    endloop
  endfacet
  facet normal 0 1 0
    outer loop
      vertex 31.125 -36.3 6.48446
      vertex 32 -36.3 4.58
      vertex 29.0382 -36.3 6.29
    endloop
  endfacet
  facet normal 0 1 0
    outer loop
      vertex 35.05 -36.3 16
      vertex 32 -36.3 9.75
      vertex 28.95 -36.3 16
    endloop
  endfacet
  facet normal 0 1 0
    outer loop
      vertex 35.05 -36.3 16
      vertex 32.875 -36.3 9.51554
      vertex 32 -36.3 9.75
    endloop
  endfacet
  facet normal 0 1 0
    outer loop
      vertex 35.05 -36.3 16
      vertex 33.5155 -36.3 8.875
      vertex 32.875 -36.3 9.51554
    endloop
  endfacet
  facet normal 0 1 -0
    outer loop
      vertex 35.05 -36.3 8
      vertex 33.5155 -36.3 8.875
      vertex 35.05 -36.3 16
    endloop
  endfacet
  facet normal 0 1 -0
    outer loop
      vertex 34.9618 -36.3 8
      vertex 33.5155 -36.3 8.875
      vertex 35.05 -36.3 8
    endloop
  endfacet
  facet normal 0 1 0
    outer loop
      vertex 34.9618 -36.3 8
      vertex 33.75 -36.3 8
      vertex 33.5155 -36.3 8.875
    endloop
  endfacet
  facet normal 0 1 0
    outer loop
      vertex 34.9618 -36.3 8
      vertex 33.5155 -36.3 7.125
      vertex 33.75 -36.3 8
    endloop
  endfacet
  facet normal 0 1 -0
    outer loop
      vertex 34.9618 -36.3 6.29
      vertex 33.5155 -36.3 7.125
      vertex 34.9618 -36.3 8
    endloop
  endfacet
  facet normal 0 1 0
    outer loop
      vertex 33.5155 -36.3 7.125
      vertex 34.9618 -36.3 6.29
      vertex 32.875 -36.3 6.48446
    endloop
  endfacet
  facet normal 0 1 0
    outer loop
      vertex 32 -36.3 4.58
      vertex 32.875 -36.3 6.48446
      vertex 34.9618 -36.3 6.29
    endloop
  endfacet
  facet normal 0 1 0
    outer loop
      vertex 32.875 -36.3 6.48446
      vertex 32 -36.3 4.58
      vertex 32 -36.3 6.25
    endloop
  endfacet
  facet normal 0 1 -0
    outer loop
      vertex 31.125 -36.3 9.51554
      vertex 28.95 -36.3 16
      vertex 32 -36.3 9.75
    endloop
  endfacet
  facet normal 0 1 -0
    outer loop
      vertex 30.4845 -36.3 8.875
      vertex 28.95 -36.3 16
      vertex 31.125 -36.3 9.51554
    endloop
  endfacet
  facet normal 0 1 0
    outer loop
      vertex 29.0382 -36.3 8
      vertex 30.4845 -36.3 8.875
      vertex 30.25 -36.3 8
    endloop
  endfacet
  facet normal 0 1 0
    outer loop
      vertex 28.95 -36.3 8
      vertex 30.4845 -36.3 8.875
      vertex 29.0382 -36.3 8
    endloop
  endfacet
  facet normal 0 1 0
    outer loop
      vertex 30.4845 -36.3 8.875
      vertex 28.95 -36.3 8
      vertex 28.95 -36.3 16
    endloop
  endfacet
  facet normal 0 -1 0
    outer loop
      vertex 33.5155 -33.3 7.125
      vertex 34.9618 -33.3 8
      vertex 33.75 -33.3 8
    endloop
  endfacet
  facet normal 0 -1 0
    outer loop
      vertex 34.9618 -33.3 6.29
      vertex 33.5155 -33.3 7.125
      vertex 32.875 -33.3 6.48446
    endloop
  endfacet
  facet normal 0 -1 0
    outer loop
      vertex 33.5155 -33.3 7.125
      vertex 34.9618 -33.3 6.29
      vertex 34.9618 -33.3 8
    endloop
  endfacet
  facet normal 0 -1 0
    outer loop
      vertex 32 -33.3 4.58
      vertex 32.875 -33.3 6.48446
      vertex 32 -33.3 6.25
    endloop
  endfacet
  facet normal 0 -1 -0
    outer loop
      vertex 32.875 -33.3 6.48446
      vertex 32 -33.3 4.58
      vertex 34.9618 -33.3 6.29
    endloop
  endfacet
  facet normal 0 -1 0
    outer loop
      vertex 28.95 -33.3 16
      vertex 32 -33.3 9.75
      vertex 35.05 -33.3 16
    endloop
  endfacet
  facet normal 0 -1 0
    outer loop
      vertex 28.95 -33.3 16
      vertex 31.125 -33.3 9.51554
      vertex 32 -33.3 9.75
    endloop
  endfacet
  facet normal 0 -1 0
    outer loop
      vertex 28.95 -33.3 16
      vertex 30.4845 -33.3 8.875
      vertex 31.125 -33.3 9.51554
    endloop
  endfacet
  facet normal 0 -1 0
    outer loop
      vertex 28.95 -33.3 8
      vertex 30.4845 -33.3 8.875
      vertex 28.95 -33.3 16
    endloop
  endfacet
  facet normal 0 -1 0
    outer loop
      vertex 29.0382 -33.3 8
      vertex 30.4845 -33.3 8.875
      vertex 28.95 -33.3 8
    endloop
  endfacet
  facet normal 0 -1 0
    outer loop
      vertex 29.0382 -33.3 8
      vertex 30.25 -33.3 8
      vertex 30.4845 -33.3 8.875
    endloop
  endfacet
  facet normal 0 -1 0
    outer loop
      vertex 29.0382 -33.3 8
      vertex 30.4845 -33.3 7.125
      vertex 30.25 -33.3 8
    endloop
  endfacet
  facet normal 0 -1 0
    outer loop
      vertex 29.0382 -33.3 6.29
      vertex 30.4845 -33.3 7.125
      vertex 29.0382 -33.3 8
    endloop
  endfacet
  facet normal 0 -1 -0
    outer loop
      vertex 30.4845 -33.3 7.125
      vertex 29.0382 -33.3 6.29
      vertex 31.125 -33.3 6.48446
    endloop
  endfacet
  facet normal 0 -1 0
    outer loop
      vertex 32 -33.3 4.58
      vertex 31.125 -33.3 6.48446
      vertex 29.0382 -33.3 6.29
    endloop
  endfacet
  facet normal 0 -1 0
    outer loop
      vertex 31.125 -33.3 6.48446
      vertex 32 -33.3 4.58
      vertex 32 -33.3 6.25
    endloop
  endfacet
  facet normal 0 -1 0
    outer loop
      vertex 32.875 -33.3 9.51554
      vertex 35.05 -33.3 16
      vertex 32 -33.3 9.75
    endloop
  endfacet
  facet normal 0 -1 0
    outer loop
      vertex 33.5155 -33.3 8.875
      vertex 35.05 -33.3 16
      vertex 32.875 -33.3 9.51554
    endloop
  endfacet
  facet normal 0 -1 0
    outer loop
      vertex 34.9618 -33.3 8
      vertex 33.5155 -33.3 8.875
      vertex 33.75 -33.3 8
    endloop
  endfacet
  facet normal 0 -1 0
    outer loop
      vertex 35.05 -33.3 8
      vertex 33.5155 -33.3 8.875
      vertex 34.9618 -33.3 8
    endloop
  endfacet
  facet normal 0 -1 0
    outer loop
      vertex 33.5155 -33.3 8.875
      vertex 35.05 -33.3 8
      vertex 35.05 -33.3 16
    endloop
  endfacet
  facet normal -1 0 0
    outer loop
      vertex 34.9618 -36.3 6.29
      vertex 34.9618 -33.3 8
      vertex 34.9618 -33.3 6.29
    endloop
  endfacet
  facet normal -1 -0 0
    outer loop
      vertex 34.9618 -33.3 8
      vertex 34.9618 -36.3 6.29
      vertex 34.9618 -36.3 8
    endloop
  endfacet
  facet normal -0.5 0 0.866025
    outer loop
      vertex 32 -33.3 4.58
      vertex 34.9618 -36.3 6.29
      vertex 34.9618 -33.3 6.29
    endloop
  endfacet
  facet normal -0.5 0 0.866025
    outer loop
      vertex 34.9618 -36.3 6.29
      vertex 32 -33.3 4.58
      vertex 32 -36.3 4.58
    endloop
  endfacet
  facet normal -0 0 1
    outer loop
      vertex 34.9618 -33.3 8
      vertex 35.05 -36.3 8
      vertex 35.05 -33.3 8
    endloop
  endfacet
  facet normal 0 0 1
    outer loop
      vertex 35.05 -36.3 8
      vertex 34.9618 -33.3 8
      vertex 34.9618 -36.3 8
    endloop
  endfacet
  facet normal -0 0 1
    outer loop
      vertex 28.95 -33.3 8
      vertex 29.0382 -36.3 8
      vertex 29.0382 -33.3 8
    endloop
  endfacet
  facet normal 0 0 1
    outer loop
      vertex 29.0382 -36.3 8
      vertex 28.95 -33.3 8
      vertex 28.95 -36.3 8
    endloop
  endfacet
  facet normal 1 -0 0
    outer loop
      vertex 28.95 -36.3 16
      vertex 28.95 -33.3 8
      vertex 28.95 -33.3 16
    endloop
  endfacet
  facet normal 1 0 0
    outer loop
      vertex 28.95 -33.3 8
      vertex 28.95 -36.3 16
      vertex 28.95 -36.3 8
    endloop
  endfacet
  facet normal -1 0 0
    outer loop
      vertex 35.05 -36.3 8
      vertex 35.05 -33.3 16
      vertex 35.05 -33.3 8
    endloop
  endfacet
  facet normal -1 -0 0
    outer loop
      vertex 35.05 -33.3 16
      vertex 35.05 -36.3 8
      vertex 35.05 -36.3 16
    endloop
  endfacet
  facet normal 0.25882 0 -0.965926
    outer loop
      vertex 31.125 -33.3 9.51554
      vertex 32 -31.75 9.75
      vertex 32 -33.3 9.75
    endloop
  endfacet
  facet normal 0.25882 0 -0.965926
    outer loop
      vertex 32 -31.75 9.75
      vertex 31.125 -33.3 9.51554
      vertex 31.125 -31.75 9.51554
    endloop
  endfacet
  facet normal 0.25882 0 -0.965926
    outer loop
      vertex 31.125 -37.3081 9.51554
      vertex 32 -36.3 9.75
      vertex 32 -37.4276 9.75
    endloop
  endfacet
  facet normal 0.25882 0 -0.965926
    outer loop
      vertex 32 -36.3 9.75
      vertex 31.125 -37.3081 9.51554
      vertex 31.125 -36.3 9.51554
    endloop
  endfacet
  facet normal 0.25882 0 0.965926
    outer loop
      vertex 31.125 -31.75 6.48446
      vertex 32 -33.3 6.25
      vertex 32 -31.75 6.25
    endloop
  endfacet
  facet normal 0.25882 0 0.965926
    outer loop
      vertex 32 -33.3 6.25
      vertex 31.125 -31.75 6.48446
      vertex 31.125 -33.3 6.48446
    endloop
  endfacet
  facet normal 0.25882 -0 0.965926
    outer loop
      vertex 31.125 -37.3081 6.48446
      vertex 32 -36.3 6.25
      vertex 31.125 -36.3 6.48446
    endloop
  endfacet
  facet normal 0.25882 0 0.965926
    outer loop
      vertex 32 -36.3 6.25
      vertex 31.125 -37.3081 6.48446
      vertex 32 -37.4276 6.25
    endloop
  endfacet
  facet normal 0.965926 0 -0.258819
    outer loop
      vertex 30.4845 -33.3 8.875
      vertex 30.25 -31.75 8
      vertex 30.4845 -31.75 8.875
    endloop
  endfacet
  facet normal 0.965926 0 -0.258819
    outer loop
      vertex 30.25 -31.75 8
      vertex 30.4845 -33.3 8.875
      vertex 30.25 -33.3 8
    endloop
  endfacet
  facet normal 0.965926 0 -0.258819
    outer loop
      vertex 30.4845 -36.3 8.875
      vertex 30.25 -36.875 8
      vertex 30.25 -36.3 8
    endloop
  endfacet
  facet normal 0.965926 0 -0.258819
    outer loop
      vertex 30.25 -36.875 8
      vertex 30.4845 -36.3 8.875
      vertex 30.4845 -37.0136 8.875
    endloop
  endfacet
  facet normal 0.707106 0 -0.707107
    outer loop
      vertex 30.4845 -33.3 8.875
      vertex 31.125 -31.75 9.51554
      vertex 31.125 -33.3 9.51554
    endloop
  endfacet
  facet normal 0.707106 0 -0.707107
    outer loop
      vertex 31.125 -31.75 9.51554
      vertex 30.4845 -33.3 8.875
      vertex 30.4845 -31.75 8.875
    endloop
  endfacet
  facet normal 0.707107 0 -0.707106
    outer loop
      vertex 30.5751 -37.028 8.96568
      vertex 31.125 -36.3 9.51554
      vertex 31.125 -37.3081 9.51554
    endloop
  endfacet
  facet normal 0.707099 0 -0.707114
    outer loop
      vertex 30.4845 -36.3 8.875
      vertex 30.5751 -37.028 8.96568
      vertex 30.4845 -37.0136 8.875
    endloop
  endfacet
  facet normal 0.707106 1.72159e-006 -0.707107
    outer loop
      vertex 30.5751 -37.028 8.96568
      vertex 30.4845 -36.3 8.875
      vertex 31.125 -36.3 9.51554
    endloop
  endfacet
  facet normal 0.965926 -0 0.258819
    outer loop
      vertex 30.25 -33.3 8
      vertex 30.4845 -31.75 7.125
      vertex 30.25 -31.75 8
    endloop
  endfacet
  facet normal 0.965926 0 0.258819
    outer loop
      vertex 30.4845 -31.75 7.125
      vertex 30.25 -33.3 8
      vertex 30.4845 -33.3 7.125
    endloop
  endfacet
  facet normal 0.965926 -0 0.258819
    outer loop
      vertex 30.25 -36.875 8
      vertex 30.4845 -36.3 7.125
      vertex 30.25 -36.3 8
    endloop
  endfacet
  facet normal 0.965926 0 0.258819
    outer loop
      vertex 30.4845 -36.3 7.125
      vertex 30.25 -36.875 8
      vertex 30.4845 -37.0136 7.125
    endloop
  endfacet
  facet normal -0.965926 0 -0.258819
    outer loop
      vertex 33.75 -36.875 8
      vertex 33.5155 -36.3 8.875
      vertex 33.75 -36.3 8
    endloop
  endfacet
  facet normal -0.965926 -0 -0.258819
    outer loop
      vertex 33.5155 -36.3 8.875
      vertex 33.75 -36.875 8
      vertex 33.5155 -37.0136 8.875
    endloop
  endfacet
  facet normal -0.965926 0 -0.258819
    outer loop
      vertex 33.75 -33.3 8
      vertex 33.5155 -31.75 8.875
      vertex 33.75 -31.75 8
    endloop
  endfacet
  facet normal -0.965926 -0 -0.258819
    outer loop
      vertex 33.5155 -31.75 8.875
      vertex 33.75 -33.3 8
      vertex 33.5155 -33.3 8.875
    endloop
  endfacet
  facet normal 0.707107 -0 0.707107
    outer loop
      vertex 30.4845 -33.3 7.125
      vertex 31.125 -31.75 6.48446
      vertex 30.4845 -31.75 7.125
    endloop
  endfacet
  facet normal 0.707107 0 0.707107
    outer loop
      vertex 31.125 -31.75 6.48446
      vertex 30.4845 -33.3 7.125
      vertex 31.125 -33.3 6.48446
    endloop
  endfacet
  facet normal 0.707107 0 0.707107
    outer loop
      vertex 30.5751 -37.028 7.03432
      vertex 30.4845 -36.3 7.125
      vertex 30.4845 -37.0136 7.125
    endloop
  endfacet
  facet normal 0.707107 0 0.707107
    outer loop
      vertex 30.4845 -36.3 7.125
      vertex 30.5751 -37.028 7.03432
      vertex 31.125 -36.3 6.48446
    endloop
  endfacet
  facet normal 0.707107 0 0.707107
    outer loop
      vertex 31.125 -36.3 6.48446
      vertex 30.5751 -37.028 7.03432
      vertex 31.125 -37.3081 6.48446
    endloop
  endfacet
  facet normal -0.965926 0 0.258819
    outer loop
      vertex 33.5155 -36.3 7.125
      vertex 33.75 -36.875 8
      vertex 33.75 -36.3 8
    endloop
  endfacet
  facet normal -0.965926 0 0.258819
    outer loop
      vertex 33.75 -36.875 8
      vertex 33.5155 -36.3 7.125
      vertex 33.5155 -37.0136 7.125
    endloop
  endfacet
  facet normal -0.965926 0 0.258819
    outer loop
      vertex 33.5155 -33.3 7.125
      vertex 33.75 -31.75 8
      vertex 33.5155 -31.75 7.125
    endloop
  endfacet
  facet normal -0.965926 0 0.258819
    outer loop
      vertex 33.75 -31.75 8
      vertex 33.5155 -33.3 7.125
      vertex 33.75 -33.3 8
    endloop
  endfacet
  facet normal -0.25882 0 0.965926
    outer loop
      vertex 32 -31.75 6.25
      vertex 32.875 -33.3 6.48446
      vertex 32.875 -31.75 6.48446
    endloop
  endfacet
  facet normal -0.25882 0 0.965926
    outer loop
      vertex 32.875 -33.3 6.48446
      vertex 32 -31.75 6.25
      vertex 32 -33.3 6.25
    endloop
  endfacet
  facet normal -0.25882 0 0.965926
    outer loop
      vertex 32 -36.3 6.25
      vertex 32.875 -37.3081 6.48446
      vertex 32.875 -36.3 6.48446
    endloop
  endfacet
  facet normal -0.25882 0 0.965926
    outer loop
      vertex 32.875 -37.3081 6.48446
      vertex 32 -36.3 6.25
      vertex 32 -37.4276 6.25
    endloop
  endfacet
  facet normal -0.707106 0 -0.707107
    outer loop
      vertex 32.875 -33.3 9.51554
      vertex 33.5155 -31.75 8.875
      vertex 33.5155 -33.3 8.875
    endloop
  endfacet
  facet normal -0.707106 0 -0.707107
    outer loop
      vertex 33.5155 -31.75 8.875
      vertex 32.875 -33.3 9.51554
      vertex 32.875 -31.75 9.51554
    endloop
  endfacet
  facet normal -0.707099 0 -0.707114
    outer loop
      vertex 33.4249 -37.028 8.96568
      vertex 33.5155 -36.3 8.875
      vertex 33.5155 -37.0136 8.875
    endloop
  endfacet
  facet normal -0.707107 -0 -0.707106
    outer loop
      vertex 32.875 -36.3 9.51554
      vertex 33.4249 -37.028 8.96568
      vertex 32.875 -37.3081 9.51554
    endloop
  endfacet
  facet normal -0.707106 1.72159e-006 -0.707107
    outer loop
      vertex 33.4249 -37.028 8.96568
      vertex 32.875 -36.3 9.51554
      vertex 33.5155 -36.3 8.875
    endloop
  endfacet
  facet normal -0.25882 -0 -0.965926
    outer loop
      vertex 32 -36.3 9.75
      vertex 32.875 -37.3081 9.51554
      vertex 32 -37.4276 9.75
    endloop
  endfacet
  facet normal -0.25882 0 -0.965926
    outer loop
      vertex 32.875 -37.3081 9.51554
      vertex 32 -36.3 9.75
      vertex 32.875 -36.3 9.51554
    endloop
  endfacet
  facet normal -0.25882 0 -0.965926
    outer loop
      vertex 32 -33.3 9.75
      vertex 32.875 -31.75 9.51554
      vertex 32.875 -33.3 9.51554
    endloop
  endfacet
  facet normal -0.25882 0 -0.965926
    outer loop
      vertex 32.875 -31.75 9.51554
      vertex 32 -33.3 9.75
      vertex 32 -31.75 9.75
    endloop
  endfacet
  facet normal -0.707106 0 0.707107
    outer loop
      vertex 32.875 -31.75 6.48446
      vertex 33.5155 -33.3 7.125
      vertex 33.5155 -31.75 7.125
    endloop
  endfacet
  facet normal -0.707106 0 0.707107
    outer loop
      vertex 33.5155 -33.3 7.125
      vertex 32.875 -31.75 6.48446
      vertex 32.875 -33.3 6.48446
    endloop
  endfacet
  facet normal -0.707103 0 0.70711
    outer loop
      vertex 33.5155 -36.3 7.125
      vertex 33.4249 -37.028 7.03432
      vertex 33.5155 -37.0136 7.125
    endloop
  endfacet
  facet normal -0.707106 7.95226e-007 0.707107
    outer loop
      vertex 32.875 -36.3 6.48446
      vertex 33.4249 -37.028 7.03432
      vertex 33.5155 -36.3 7.125
    endloop
  endfacet
  facet normal -0.707107 0 0.707107
    outer loop
      vertex 33.4249 -37.028 7.03432
      vertex 32.875 -36.3 6.48446
      vertex 32.875 -37.3081 6.48446
    endloop
  endfacet
  facet normal -0.987688 -0.156435 0
    outer loop
      vertex 5.25 -40 4
      vertex 4.99305 -38.3777 8
      vertex 4.99305 -38.3777 4
    endloop
  endfacet
  facet normal -0.987688 -0.156435 0
    outer loop
      vertex 4.99305 -38.3777 8
      vertex 5.25 -40 4
      vertex 5.25 -40 8
    endloop
  endfacet
  facet normal 0.987688 -0.156435 0
    outer loop
      vertex -5.25 -40 8
      vertex -4.99305 -38.3777 4
      vertex -4.99305 -38.3777 8
    endloop
  endfacet
  facet normal 0.987688 -0.156435 0
    outer loop
      vertex -4.99305 -38.3777 4
      vertex -5.25 -40 8
      vertex -5.25 -40 4
    endloop
  endfacet
  facet normal -0.15643 -0.987689 0
    outer loop
      vertex 1.3125 -34.9579 4
      vertex 1.62234 -35.007 8
      vertex 1.3125 -34.9579 8
    endloop
  endfacet
  facet normal -0.15643 -0.987689 -0
    outer loop
      vertex 1.62234 -35.007 8
      vertex 1.3125 -34.9579 4
      vertex 1.62234 -35.007 4
    endloop
  endfacet
  facet normal 0.156435 0.987688 -0
    outer loop
      vertex 0 -45.25 4
      vertex -1.62234 -44.993 8
      vertex 0 -45.25 8
    endloop
  endfacet
  facet normal 0.156435 0.987688 0
    outer loop
      vertex -1.62234 -44.993 8
      vertex 0 -45.25 4
      vertex -1.62234 -44.993 4
    endloop
  endfacet
  facet normal -0 0 1
    outer loop
      vertex -1.62234 -35.007 4
      vertex -1.3125 -37.0661 4
      vertex -1.3125 -34.9579 4
    endloop
  endfacet
  facet normal -0 0 1
    outer loop
      vertex -3.08587 -35.7527 4
      vertex -1.3125 -37.0661 4
      vertex -1.62234 -35.007 4
    endloop
  endfacet
  facet normal 0 0 1
    outer loop
      vertex -1.3125 -37.0661 4
      vertex -3.08587 -35.7527 4
      vertex -1.9103 -37.3707 4
    endloop
  endfacet
  facet normal 0 0 1
    outer loop
      vertex -1.9103 -37.3707 4
      vertex -3.08587 -35.7527 4
      vertex -2.6293 -38.0897 4
    endloop
  endfacet
  facet normal -0 0 1
    outer loop
      vertex -4.24734 -36.9141 4
      vertex -2.6293 -38.0897 4
      vertex -3.08587 -35.7527 4
    endloop
  endfacet
  facet normal 0 0 1
    outer loop
      vertex -2.6293 -38.0897 4
      vertex -4.24734 -36.9141 4
      vertex -3.09093 -38.9957 4
    endloop
  endfacet
  facet normal -0 0 1
    outer loop
      vertex -4.99305 -38.3777 4
      vertex -3.09093 -38.9957 4
      vertex -4.24734 -36.9141 4
    endloop
  endfacet
  facet normal 0 0 1
    outer loop
      vertex 3.25 -40 4
      vertex 5.25 -40 4
      vertex 4.99305 -38.3777 4
    endloop
  endfacet
  facet normal 0 0 1
    outer loop
      vertex 3.09093 -38.9957 4
      vertex 4.99305 -38.3777 4
      vertex 4.24734 -36.9141 4
    endloop
  endfacet
  facet normal 0 0 1
    outer loop
      vertex 5.25 -40 4
      vertex 3.25 -40 4
      vertex 4.99305 -41.6223 4
    endloop
  endfacet
  facet normal -0 0 1
    outer loop
      vertex 3.09093 -41.0043 4
      vertex 4.99305 -41.6223 4
      vertex 3.25 -40 4
    endloop
  endfacet
  facet normal 0 0 1
    outer loop
      vertex 4.99305 -38.3777 4
      vertex 3.09093 -38.9957 4
      vertex 3.25 -40 4
    endloop
  endfacet
  facet normal 0 0 1
    outer loop
      vertex 2.6293 -38.0897 4
      vertex 4.24734 -36.9141 4
      vertex 3.08587 -35.7527 4
    endloop
  endfacet
  facet normal 0 0 1
    outer loop
      vertex 4.24734 -36.9141 4
      vertex 2.6293 -38.0897 4
      vertex 3.09093 -38.9957 4
    endloop
  endfacet
  facet normal 0 0 1
    outer loop
      vertex 3.08587 -35.7527 4
      vertex 1.9103 -37.3707 4
      vertex 2.6293 -38.0897 4
    endloop
  endfacet
  facet normal 0 0 1
    outer loop
      vertex 1.3125 -37.0661 4
      vertex 3.08587 -35.7527 4
      vertex 1.62234 -35.007 4
    endloop
  endfacet
  facet normal 0 0 1
    outer loop
      vertex 1.3125 -37.0661 4
      vertex 1.62234 -35.007 4
      vertex 1.3125 -34.9579 4
    endloop
  endfacet
  facet normal 0 0 1
    outer loop
      vertex 3.08587 -35.7527 4
      vertex 1.3125 -37.0661 4
      vertex 1.9103 -37.3707 4
    endloop
  endfacet
  facet normal 0 0 1
    outer loop
      vertex 4.99305 -41.6223 4
      vertex 3.09093 -41.0043 4
      vertex 4.24734 -43.0859 4
    endloop
  endfacet
  facet normal -0 0 1
    outer loop
      vertex 2.6293 -41.9103 4
      vertex 4.24734 -43.0859 4
      vertex 3.09093 -41.0043 4
    endloop
  endfacet
  facet normal 0 0 1
    outer loop
      vertex 4.24734 -43.0859 4
      vertex 2.6293 -41.9103 4
      vertex 3.08587 -44.2473 4
    endloop
  endfacet
  facet normal -0 0 1
    outer loop
      vertex 1.9103 -42.6293 4
      vertex 3.08587 -44.2473 4
      vertex 2.6293 -41.9103 4
    endloop
  endfacet
  facet normal 0 0 1
    outer loop
      vertex 1.9103 -42.6293 4
      vertex 1.62234 -44.993 4
      vertex 3.08587 -44.2473 4
    endloop
  endfacet
  facet normal -0 0 1
    outer loop
      vertex 1.0043 -43.0909 4
      vertex 1.62234 -44.993 4
      vertex 1.9103 -42.6293 4
    endloop
  endfacet
  facet normal -0 0 1
    outer loop
      vertex 0 -43.25 4
      vertex 1.62234 -44.993 4
      vertex 1.0043 -43.0909 4
    endloop
  endfacet
  facet normal 0 0 1
    outer loop
      vertex 0 -43.25 4
      vertex 0 -45.25 4
      vertex 1.62234 -44.993 4
    endloop
  endfacet
  facet normal 0 0 1
    outer loop
      vertex -1.0043 -43.0909 4
      vertex 0 -45.25 4
      vertex 0 -43.25 4
    endloop
  endfacet
  facet normal 0 0 1
    outer loop
      vertex -1.0043 -43.0909 4
      vertex -1.62234 -44.993 4
      vertex 0 -45.25 4
    endloop
  endfacet
  facet normal 0 0 1
    outer loop
      vertex -1.9103 -42.6293 4
      vertex -1.62234 -44.993 4
      vertex -1.0043 -43.0909 4
    endloop
  endfacet
  facet normal 0 0 1
    outer loop
      vertex -3.08587 -44.2473 4
      vertex -1.9103 -42.6293 4
      vertex -2.6293 -41.9103 4
    endloop
  endfacet
  facet normal 0 0 1
    outer loop
      vertex -1.9103 -42.6293 4
      vertex -3.08587 -44.2473 4
      vertex -1.62234 -44.993 4
    endloop
  endfacet
  facet normal 0 0 1
    outer loop
      vertex -4.24734 -43.0859 4
      vertex -2.6293 -41.9103 4
      vertex -3.09093 -41.0043 4
    endloop
  endfacet
  facet normal 0 0 1
    outer loop
      vertex -4.99305 -41.6223 4
      vertex -3.09093 -41.0043 4
      vertex -3.25 -40 4
    endloop
  endfacet
  facet normal 0 0 1
    outer loop
      vertex -3.09093 -38.9957 4
      vertex -4.99305 -38.3777 4
      vertex -3.25 -40 4
    endloop
  endfacet
  facet normal 0 0 1
    outer loop
      vertex -2.6293 -41.9103 4
      vertex -4.24734 -43.0859 4
      vertex -3.08587 -44.2473 4
    endloop
  endfacet
  facet normal 0 0 1
    outer loop
      vertex -5.25 -40 4
      vertex -3.25 -40 4
      vertex -4.99305 -38.3777 4
    endloop
  endfacet
  facet normal 0 0 1
    outer loop
      vertex -3.09093 -41.0043 4
      vertex -4.99305 -41.6223 4
      vertex -4.24734 -43.0859 4
    endloop
  endfacet
  facet normal 0 0 1
    outer loop
      vertex -3.25 -40 4
      vertex -5.25 -40 4
      vertex -4.99305 -41.6223 4
    endloop
  endfacet
  facet normal -0.707106 -0.707107 0
    outer loop
      vertex 3.08587 -35.7527 4
      vertex 4.24734 -36.9141 8
      vertex 3.08587 -35.7527 8
    endloop
  endfacet
  facet normal -0.707106 -0.707107 -0
    outer loop
      vertex 4.24734 -36.9141 8
      vertex 3.08587 -35.7527 4
      vertex 4.24734 -36.9141 4
    endloop
  endfacet
  facet normal -0.891007 -0.45399 0
    outer loop
      vertex 4.99305 -38.3777 4
      vertex 4.24734 -36.9141 8
      vertex 4.24734 -36.9141 4
    endloop
  endfacet
  facet normal -0.891007 -0.45399 0
    outer loop
      vertex 4.24734 -36.9141 8
      vertex 4.99305 -38.3777 4
      vertex 4.99305 -38.3777 8
    endloop
  endfacet
  facet normal -0.453991 -0.891006 0
    outer loop
      vertex 1.62234 -35.007 4
      vertex 3.08587 -35.7527 8
      vertex 1.62234 -35.007 8
    endloop
  endfacet
  facet normal -0.453991 -0.891006 -0
    outer loop
      vertex 3.08587 -35.7527 8
      vertex 1.62234 -35.007 4
      vertex 3.08587 -35.7527 4
    endloop
  endfacet
  facet normal 0.453991 -0.891006 0
    outer loop
      vertex -3.08587 -35.7527 4
      vertex -1.62234 -35.007 8
      vertex -3.08587 -35.7527 8
    endloop
  endfacet
  facet normal 0.453991 -0.891006 0
    outer loop
      vertex -1.62234 -35.007 8
      vertex -3.08587 -35.7527 4
      vertex -1.62234 -35.007 4
    endloop
  endfacet
  facet normal 0.707106 -0.707107 0
    outer loop
      vertex -4.24734 -36.9141 4
      vertex -3.08587 -35.7527 8
      vertex -4.24734 -36.9141 8
    endloop
  endfacet
  facet normal 0.707106 -0.707107 0
    outer loop
      vertex -3.08587 -35.7527 8
      vertex -4.24734 -36.9141 4
      vertex -3.08587 -35.7527 4
    endloop
  endfacet
  facet normal 0.15643 -0.987689 0
    outer loop
      vertex -1.62234 -35.007 4
      vertex -1.3125 -34.9579 8
      vertex -1.62234 -35.007 8
    endloop
  endfacet
  facet normal 0.15643 -0.987689 0
    outer loop
      vertex -1.3125 -34.9579 8
      vertex -1.62234 -35.007 4
      vertex -1.3125 -34.9579 4
    endloop
  endfacet
  facet normal -0.891007 0.45399 0
    outer loop
      vertex 4.24734 -43.0859 4
      vertex 4.99305 -41.6223 8
      vertex 4.99305 -41.6223 4
    endloop
  endfacet
  facet normal -0.891007 0.45399 0
    outer loop
      vertex 4.99305 -41.6223 8
      vertex 4.24734 -43.0859 4
      vertex 4.24734 -43.0859 8
    endloop
  endfacet
  facet normal 0.707106 0.707107 -0
    outer loop
      vertex -3.08587 -44.2473 4
      vertex -4.24734 -43.0859 8
      vertex -3.08587 -44.2473 8
    endloop
  endfacet
  facet normal 0.707106 0.707107 0
    outer loop
      vertex -4.24734 -43.0859 8
      vertex -3.08587 -44.2473 4
      vertex -4.24734 -43.0859 4
    endloop
  endfacet
  facet normal 0.987688 0.156435 0
    outer loop
      vertex -4.99305 -41.6223 8
      vertex -5.25 -40 4
      vertex -5.25 -40 8
    endloop
  endfacet
  facet normal 0.987688 0.156435 0
    outer loop
      vertex -5.25 -40 4
      vertex -4.99305 -41.6223 8
      vertex -4.99305 -41.6223 4
    endloop
  endfacet
  facet normal 0.891007 -0.45399 0
    outer loop
      vertex -4.99305 -38.3777 8
      vertex -4.24734 -36.9141 4
      vertex -4.24734 -36.9141 8
    endloop
  endfacet
  facet normal 0.891007 -0.45399 0
    outer loop
      vertex -4.24734 -36.9141 4
      vertex -4.99305 -38.3777 8
      vertex -4.99305 -38.3777 4
    endloop
  endfacet
  facet normal -0.987688 0.156435 0
    outer loop
      vertex 4.99305 -41.6223 4
      vertex 5.25 -40 8
      vertex 5.25 -40 4
    endloop
  endfacet
  facet normal -0.987688 0.156435 0
    outer loop
      vertex 5.25 -40 8
      vertex 4.99305 -41.6223 4
      vertex 4.99305 -41.6223 8
    endloop
  endfacet
  facet normal -0.156435 0.987688 0
    outer loop
      vertex 1.62234 -44.993 4
      vertex 0 -45.25 8
      vertex 1.62234 -44.993 8
    endloop
  endfacet
  facet normal -0.156435 0.987688 0
    outer loop
      vertex 0 -45.25 8
      vertex 1.62234 -44.993 4
      vertex 0 -45.25 4
    endloop
  endfacet
  facet normal -0.707106 0.707107 0
    outer loop
      vertex 4.24734 -43.0859 4
      vertex 3.08587 -44.2473 8
      vertex 4.24734 -43.0859 8
    endloop
  endfacet
  facet normal -0.707106 0.707107 0
    outer loop
      vertex 3.08587 -44.2473 8
      vertex 4.24734 -43.0859 4
      vertex 3.08587 -44.2473 4
    endloop
  endfacet
  facet normal 0.453991 0.891006 -0
    outer loop
      vertex -1.62234 -44.993 4
      vertex -3.08587 -44.2473 8
      vertex -1.62234 -44.993 8
    endloop
  endfacet
  facet normal 0.453991 0.891006 0
    outer loop
      vertex -3.08587 -44.2473 8
      vertex -1.62234 -44.993 4
      vertex -3.08587 -44.2473 4
    endloop
  endfacet
  facet normal 0.891007 0.45399 0
    outer loop
      vertex -4.24734 -43.0859 8
      vertex -4.99305 -41.6223 4
      vertex -4.99305 -41.6223 8
    endloop
  endfacet
  facet normal 0.891007 0.45399 0
    outer loop
      vertex -4.99305 -41.6223 4
      vertex -4.24734 -43.0859 8
      vertex -4.24734 -43.0859 4
    endloop
  endfacet
  facet normal -0.453991 0.891006 0
    outer loop
      vertex 3.08587 -44.2473 4
      vertex 1.62234 -44.993 8
      vertex 3.08587 -44.2473 8
    endloop
  endfacet
  facet normal -0.453991 0.891006 0
    outer loop
      vertex 1.62234 -44.993 8
      vertex 3.08587 -44.2473 4
      vertex 1.62234 -44.993 4
    endloop
  endfacet
  facet normal -0.987688 -0.156436 0
    outer loop
      vertex 3.25 -40 0
      vertex 3.09093 -38.9957 4
      vertex 3.09093 -38.9957 0
    endloop
  endfacet
  facet normal -0.987688 -0.156436 0
    outer loop
      vertex 3.09093 -38.9957 4
      vertex 3.25 -40 0
      vertex 3.25 -40 4
    endloop
  endfacet
  facet normal 0.987688 -0.156436 0
    outer loop
      vertex -3.25 -40 4
      vertex -3.09093 -38.9957 0
      vertex -3.09093 -38.9957 4
    endloop
  endfacet
  facet normal 0.987688 -0.156436 0
    outer loop
      vertex -3.09093 -38.9957 0
      vertex -3.25 -40 4
      vertex -3.25 -40 0
    endloop
  endfacet
  facet normal 0.156433 0.987688 -0
    outer loop
      vertex 0 -43.25 0
      vertex -1.0043 -43.0909 4
      vertex 0 -43.25 4
    endloop
  endfacet
  facet normal 0.156433 0.987688 0
    outer loop
      vertex -1.0043 -43.0909 4
      vertex 0 -43.25 0
      vertex -1.0043 -43.0909 0
    endloop
  endfacet
  facet normal -0.707106 -0.707108 0
    outer loop
      vertex 1.9103 -37.3707 0
      vertex 2.6293 -38.0897 4
      vertex 1.9103 -37.3707 4
    endloop
  endfacet
  facet normal -0.707106 -0.707108 -0
    outer loop
      vertex 2.6293 -38.0897 4
      vertex 1.9103 -37.3707 0
      vertex 2.6293 -38.0897 0
    endloop
  endfacet
  facet normal -0.891007 -0.45399 0
    outer loop
      vertex 3.09093 -38.9957 0
      vertex 2.6293 -38.0897 4
      vertex 2.6293 -38.0897 0
    endloop
  endfacet
  facet normal -0.891007 -0.45399 0
    outer loop
      vertex 2.6293 -38.0897 4
      vertex 3.09093 -38.9957 0
      vertex 3.09093 -38.9957 4
    endloop
  endfacet
  facet normal -0.453992 -0.891006 0
    outer loop
      vertex 1.3125 -37.0661 0
      vertex 1.9103 -37.3707 4
      vertex 1.3125 -37.0661 4
    endloop
  endfacet
  facet normal -0.453992 -0.891006 -0
    outer loop
      vertex 1.9103 -37.3707 4
      vertex 1.3125 -37.0661 0
      vertex 1.9103 -37.3707 0
    endloop
  endfacet
  facet normal 0.453992 -0.891006 0
    outer loop
      vertex -1.9103 -37.3707 0
      vertex -1.3125 -37.0661 4
      vertex -1.9103 -37.3707 4
    endloop
  endfacet
  facet normal 0.453992 -0.891006 0
    outer loop
      vertex -1.3125 -37.0661 4
      vertex -1.9103 -37.3707 0
      vertex -1.3125 -37.0661 0
    endloop
  endfacet
  facet normal 0.707106 -0.707108 0
    outer loop
      vertex -2.6293 -38.0897 0
      vertex -1.9103 -37.3707 4
      vertex -2.6293 -38.0897 4
    endloop
  endfacet
  facet normal 0.707106 -0.707108 0
    outer loop
      vertex -1.9103 -37.3707 4
      vertex -2.6293 -38.0897 0
      vertex -1.9103 -37.3707 0
    endloop
  endfacet
  facet normal -0.891007 0.45399 0
    outer loop
      vertex 2.6293 -41.9103 0
      vertex 3.09093 -41.0043 4
      vertex 3.09093 -41.0043 0
    endloop
  endfacet
  facet normal -0.891007 0.45399 0
    outer loop
      vertex 3.09093 -41.0043 4
      vertex 2.6293 -41.9103 0
      vertex 2.6293 -41.9103 4
    endloop
  endfacet
  facet normal 0.707106 0.707108 -0
    outer loop
      vertex -1.9103 -42.6293 0
      vertex -2.6293 -41.9103 4
      vertex -1.9103 -42.6293 4
    endloop
  endfacet
  facet normal 0.707106 0.707108 0
    outer loop
      vertex -2.6293 -41.9103 4
      vertex -1.9103 -42.6293 0
      vertex -2.6293 -41.9103 0
    endloop
  endfacet
  facet normal 0.987688 0.156436 0
    outer loop
      vertex -3.09093 -41.0043 4
      vertex -3.25 -40 0
      vertex -3.25 -40 4
    endloop
  endfacet
  facet normal 0.987688 0.156436 0
    outer loop
      vertex -3.25 -40 0
      vertex -3.09093 -41.0043 4
      vertex -3.09093 -41.0043 0
    endloop
  endfacet
  facet normal 0.891007 -0.45399 0
    outer loop
      vertex -3.09093 -38.9957 4
      vertex -2.6293 -38.0897 0
      vertex -2.6293 -38.0897 4
    endloop
  endfacet
  facet normal 0.891007 -0.45399 0
    outer loop
      vertex -2.6293 -38.0897 0
      vertex -3.09093 -38.9957 4
      vertex -3.09093 -38.9957 0
    endloop
  endfacet
  facet normal -0.987688 0.156436 0
    outer loop
      vertex 3.09093 -41.0043 0
      vertex 3.25 -40 4
      vertex 3.25 -40 0
    endloop
  endfacet
  facet normal -0.987688 0.156436 0
    outer loop
      vertex 3.25 -40 4
      vertex 3.09093 -41.0043 0
      vertex 3.09093 -41.0043 4
    endloop
  endfacet
  facet normal -0.156433 0.987688 0
    outer loop
      vertex 1.0043 -43.0909 0
      vertex 0 -43.25 4
      vertex 1.0043 -43.0909 4
    endloop
  endfacet
  facet normal -0.156433 0.987688 0
    outer loop
      vertex 0 -43.25 4
      vertex 1.0043 -43.0909 0
      vertex 0 -43.25 0
    endloop
  endfacet
  facet normal -0.707106 0.707108 0
    outer loop
      vertex 2.6293 -41.9103 0
      vertex 1.9103 -42.6293 4
      vertex 2.6293 -41.9103 4
    endloop
  endfacet
  facet normal -0.707106 0.707108 0
    outer loop
      vertex 1.9103 -42.6293 4
      vertex 2.6293 -41.9103 0
      vertex 1.9103 -42.6293 0
    endloop
  endfacet
  facet normal 0.453993 0.891005 -0
    outer loop
      vertex -1.0043 -43.0909 0
      vertex -1.9103 -42.6293 4
      vertex -1.0043 -43.0909 4
    endloop
  endfacet
  facet normal 0.453993 0.891005 0
    outer loop
      vertex -1.9103 -42.6293 4
      vertex -1.0043 -43.0909 0
      vertex -1.9103 -42.6293 0
    endloop
  endfacet
  facet normal 0.891007 0.45399 0
    outer loop
      vertex -2.6293 -41.9103 4
      vertex -3.09093 -41.0043 0
      vertex -3.09093 -41.0043 4
    endloop
  endfacet
  facet normal 0.891007 0.45399 0
    outer loop
      vertex -3.09093 -41.0043 0
      vertex -2.6293 -41.9103 4
      vertex -2.6293 -41.9103 0
    endloop
  endfacet
  facet normal -0.453993 0.891005 0
    outer loop
      vertex 1.9103 -42.6293 0
      vertex 1.0043 -43.0909 4
      vertex 1.9103 -42.6293 4
    endloop
  endfacet
  facet normal -0.453993 0.891005 0
    outer loop
      vertex 1.0043 -43.0909 4
      vertex 1.9103 -42.6293 0
      vertex 1.0043 -43.0909 0
    endloop
  endfacet
  facet normal 0 -0.156435 0.987688
    outer loop
      vertex 27 -39.0343 5.02795
      vertex 55 -40 4.875
      vertex 55 -39.0343 5.02795
    endloop
  endfacet
  facet normal 0 -0.156435 0.987688
    outer loop
      vertex 55 -40 4.875
      vertex 27 -39.0343 5.02795
      vertex 27 -40 4.875
    endloop
  endfacet
  facet normal 0 -0.156436 -0.987688
    outer loop
      vertex 27 -40 11.125
      vertex 55 -39.0343 10.9721
      vertex 55 -40 11.125
    endloop
  endfacet
  facet normal -0 -0.156436 -0.987688
    outer loop
      vertex 55 -39.0343 10.9721
      vertex 27 -40 11.125
      vertex 27 -39.0343 10.9721
    endloop
  endfacet
  facet normal 0 0.987688 -0.156436
    outer loop
      vertex 55 -43.125 8
      vertex 27 -42.972 8.96568
      vertex 55 -42.972 8.96568
    endloop
  endfacet
  facet normal 0 0.987688 -0.156436
    outer loop
      vertex 27 -42.972 8.96568
      vertex 55 -43.125 8
      vertex 27 -43.125 8
    endloop
  endfacet
  facet normal 0 0.453989 -0.891007
    outer loop
      vertex 27 -41.8368 10.5282
      vertex 55 -40.9657 10.9721
      vertex 55 -41.8368 10.5282
    endloop
  endfacet
  facet normal 0 0.453989 -0.891007
    outer loop
      vertex 55 -40.9657 10.9721
      vertex 27 -41.8368 10.5282
      vertex 27 -40.9657 10.9721
    endloop
  endfacet
  facet normal 0 -0.453989 0.891007
    outer loop
      vertex 27 -38.1632 5.47182
      vertex 55 -39.0343 5.02795
      vertex 55 -38.1632 5.47182
    endloop
  endfacet
  facet normal 0 -0.453989 0.891007
    outer loop
      vertex 55 -39.0343 5.02795
      vertex 27 -38.1632 5.47182
      vertex 27 -39.0343 5.02795
    endloop
  endfacet
  facet normal 0 -0.891006 0.453991
    outer loop
      vertex 27 -37.4718 6.16317
      vertex 30.5751 -37.028 7.03432
      vertex 27 -37.028 7.03432
    endloop
  endfacet
  facet normal 1.98243e-007 -0.891007 0.45399
    outer loop
      vertex 30.5751 -37.028 7.03432
      vertex 27 -37.4718 6.16317
      vertex 31.125 -37.3081 6.48446
    endloop
  endfacet
  facet normal 0 -0.891002 0.454
    outer loop
      vertex 32 -37.4276 6.25
      vertex 27 -37.4718 6.16317
      vertex 48 -37.4276 6.25
    endloop
  endfacet
  facet normal 2.14126e-007 -0.891007 0.45399
    outer loop
      vertex 31.125 -37.3081 6.48446
      vertex 27 -37.4718 6.16317
      vertex 32 -37.4276 6.25
    endloop
  endfacet
  facet normal 0 -0.891007 0.45399
    outer loop
      vertex 32.875 -37.3081 6.48446
      vertex 46.5751 -37.028 7.03432
      vertex 33.4249 -37.028 7.03432
    endloop
  endfacet
  facet normal 0 -0.891007 0.45399
    outer loop
      vertex 32.875 -37.3081 6.48446
      vertex 47.125 -37.3081 6.48446
      vertex 46.5751 -37.028 7.03432
    endloop
  endfacet
  facet normal 0 -0.891007 0.45399
    outer loop
      vertex 32 -37.4276 6.25
      vertex 47.125 -37.3081 6.48446
      vertex 32.875 -37.3081 6.48446
    endloop
  endfacet
  facet normal 0 -0.891007 0.45399
    outer loop
      vertex 47.125 -37.3081 6.48446
      vertex 32 -37.4276 6.25
      vertex 48 -37.4276 6.25
    endloop
  endfacet
  facet normal -1.36737e-007 -0.891007 0.45399
    outer loop
      vertex 55 -37.4718 6.16317
      vertex 49.4249 -37.028 7.03432
      vertex 48.875 -37.3081 6.48446
    endloop
  endfacet
  facet normal -1.55654e-007 -0.891007 0.45399
    outer loop
      vertex 55 -37.4718 6.16317
      vertex 48.875 -37.3081 6.48446
      vertex 48 -37.4276 6.25
    endloop
  endfacet
  facet normal 0 -0.891006 0.453991
    outer loop
      vertex 49.4249 -37.028 7.03432
      vertex 55 -37.4718 6.16317
      vertex 55 -37.028 7.03432
    endloop
  endfacet
  facet normal 0 -0.891002 0.454
    outer loop
      vertex 55 -37.4718 6.16317
      vertex 48 -37.4276 6.25
      vertex 27 -37.4718 6.16317
    endloop
  endfacet
  facet normal 0 -0.891007 -0.45399
    outer loop
      vertex 32.875 -37.3081 9.51554
      vertex 48 -37.4276 9.75
      vertex 32 -37.4276 9.75
    endloop
  endfacet
  facet normal 0 -0.891007 -0.45399
    outer loop
      vertex 32.875 -37.3081 9.51554
      vertex 47.125 -37.3081 9.51554
      vertex 48 -37.4276 9.75
    endloop
  endfacet
  facet normal 0 -0.891007 -0.45399
    outer loop
      vertex 33.4249 -37.028 8.96568
      vertex 47.125 -37.3081 9.51554
      vertex 32.875 -37.3081 9.51554
    endloop
  endfacet
  facet normal 0 -0.891007 -0.45399
    outer loop
      vertex 47.125 -37.3081 9.51554
      vertex 33.4249 -37.028 8.96568
      vertex 46.5751 -37.028 8.96568
    endloop
  endfacet
  facet normal 0 -0.891 -0.454004
    outer loop
      vertex 27 -37.4718 9.83683
      vertex 32 -37.4276 9.75
      vertex 55 -37.4718 9.83683
    endloop
  endfacet
  facet normal 2.95448e-007 -0.891006 -0.453991
    outer loop
      vertex 27 -37.4718 9.83683
      vertex 31.125 -37.3081 9.51554
      vertex 32 -37.4276 9.75
    endloop
  endfacet
  facet normal -0 -0.891006 -0.453991
    outer loop
      vertex 30.5751 -37.028 8.96568
      vertex 27 -37.4718 9.83683
      vertex 27 -37.028 8.96568
    endloop
  endfacet
  facet normal 3.52515e-007 -0.891007 -0.45399
    outer loop
      vertex 27 -37.4718 9.83683
      vertex 30.5751 -37.028 8.96568
      vertex 31.125 -37.3081 9.51554
    endloop
  endfacet
  facet normal -0 -0.891 -0.454004
    outer loop
      vertex 48 -37.4276 9.75
      vertex 55 -37.4718 9.83683
      vertex 32 -37.4276 9.75
    endloop
  endfacet
  facet normal -2.14769e-007 -0.891007 -0.45399
    outer loop
      vertex 48.875 -37.3081 9.51554
      vertex 55 -37.4718 9.83683
      vertex 48 -37.4276 9.75
    endloop
  endfacet
  facet normal -2.43145e-007 -0.891007 -0.45399
    outer loop
      vertex 49.4249 -37.028 8.96568
      vertex 55 -37.4718 9.83683
      vertex 48.875 -37.3081 9.51554
    endloop
  endfacet
  facet normal 0 -0.891006 -0.453991
    outer loop
      vertex 55 -37.4718 9.83683
      vertex 49.4249 -37.028 8.96568
      vertex 55 -37.028 8.96568
    endloop
  endfacet
  facet normal 0 -0.707109 -0.707105
    outer loop
      vertex 27 -37.4718 9.83683
      vertex 55 -38.1632 10.5282
      vertex 27 -38.1632 10.5282
    endloop
  endfacet
  facet normal 0 -0.707109 -0.707105
    outer loop
      vertex 55 -38.1632 10.5282
      vertex 27 -37.4718 9.83683
      vertex 55 -37.4718 9.83683
    endloop
  endfacet
  facet normal 0 -0.987688 -0.156439
    outer loop
      vertex 27 -37.028 8.96568
      vertex 30.4845 -37.0136 8.875
      vertex 30.5751 -37.028 8.96568
    endloop
  endfacet
  facet normal -0 -0.987688 -0.156436
    outer loop
      vertex 30.25 -36.875 8
      vertex 27 -37.028 8.96568
      vertex 27 -36.875 8
    endloop
  endfacet
  facet normal 8.60214e-008 -0.987688 -0.156436
    outer loop
      vertex 27 -37.028 8.96568
      vertex 30.25 -36.875 8
      vertex 30.4845 -37.0136 8.875
    endloop
  endfacet
  facet normal 0 -0.987688 -0.156439
    outer loop
      vertex 49.5155 -37.0136 8.875
      vertex 55 -37.028 8.96568
      vertex 49.4249 -37.028 8.96568
    endloop
  endfacet
  facet normal -5.47906e-008 -0.987688 -0.156436
    outer loop
      vertex 49.75 -36.875 8
      vertex 55 -37.028 8.96568
      vertex 49.5155 -37.0136 8.875
    endloop
  endfacet
  facet normal 0 -0.987688 -0.156436
    outer loop
      vertex 55 -37.028 8.96568
      vertex 49.75 -36.875 8
      vertex 55 -36.875 8
    endloop
  endfacet
  facet normal 0 -0.987688 -0.156439
    outer loop
      vertex 33.5155 -37.0136 8.875
      vertex 46.5751 -37.028 8.96568
      vertex 33.4249 -37.028 8.96568
    endloop
  endfacet
  facet normal 0 -0.987688 -0.156439
    outer loop
      vertex 33.5155 -37.0136 8.875
      vertex 46.4845 -37.0136 8.875
      vertex 46.5751 -37.028 8.96568
    endloop
  endfacet
  facet normal 0 -0.987688 -0.156436
    outer loop
      vertex 33.75 -36.875 8
      vertex 46.4845 -37.0136 8.875
      vertex 33.5155 -37.0136 8.875
    endloop
  endfacet
  facet normal 0 -0.987688 -0.156436
    outer loop
      vertex 46.4845 -37.0136 8.875
      vertex 33.75 -36.875 8
      vertex 46.25 -36.875 8
    endloop
  endfacet
  facet normal 1 0 0
    outer loop
      vertex 27 -37.028 8.96568
      vertex 27 -37.028 7.03432
      vertex 27 -36.875 8
    endloop
  endfacet
  facet normal 1 0 0
    outer loop
      vertex 27 -37.4718 9.83683
      vertex 27 -37.028 7.03432
      vertex 27 -37.028 8.96568
    endloop
  endfacet
  facet normal 1 0 0
    outer loop
      vertex 27 -37.4718 9.83683
      vertex 27 -37.4718 6.16317
      vertex 27 -37.028 7.03432
    endloop
  endfacet
  facet normal 1 0 0
    outer loop
      vertex 27 -38.1632 10.5282
      vertex 27 -37.4718 6.16317
      vertex 27 -37.4718 9.83683
    endloop
  endfacet
  facet normal 1 0 0
    outer loop
      vertex 27 -38.1632 10.5282
      vertex 27 -38.1632 5.47182
      vertex 27 -37.4718 6.16317
    endloop
  endfacet
  facet normal 1 0 0
    outer loop
      vertex 27 -39.0343 10.9721
      vertex 27 -38.1632 5.47182
      vertex 27 -38.1632 10.5282
    endloop
  endfacet
  facet normal 1 0 0
    outer loop
      vertex 27 -39.0343 10.9721
      vertex 27 -39.0343 5.02795
      vertex 27 -38.1632 5.47182
    endloop
  endfacet
  facet normal 1 0 0
    outer loop
      vertex 27 -40 11.125
      vertex 27 -39.0343 5.02795
      vertex 27 -39.0343 10.9721
    endloop
  endfacet
  facet normal 1 0 0
    outer loop
      vertex 27 -40 11.125
      vertex 27 -40 4.875
      vertex 27 -39.0343 5.02795
    endloop
  endfacet
  facet normal 1 -0 0
    outer loop
      vertex 27 -40.9657 10.9721
      vertex 27 -40 4.875
      vertex 27 -40 11.125
    endloop
  endfacet
  facet normal 1 0 0
    outer loop
      vertex 27 -40.9657 10.9721
      vertex 27 -40.9657 5.02795
      vertex 27 -40 4.875
    endloop
  endfacet
  facet normal 1 -0 0
    outer loop
      vertex 27 -41.8368 10.5282
      vertex 27 -40.9657 5.02795
      vertex 27 -40.9657 10.9721
    endloop
  endfacet
  facet normal 1 0 0
    outer loop
      vertex 27 -41.8368 10.5282
      vertex 27 -41.8368 5.47182
      vertex 27 -40.9657 5.02795
    endloop
  endfacet
  facet normal 1 -0 0
    outer loop
      vertex 27 -42.5282 9.83683
      vertex 27 -41.8368 5.47182
      vertex 27 -41.8368 10.5282
    endloop
  endfacet
  facet normal 1 0 0
    outer loop
      vertex 27 -42.5282 9.83683
      vertex 27 -42.5282 6.16317
      vertex 27 -41.8368 5.47182
    endloop
  endfacet
  facet normal 1 -0 0
    outer loop
      vertex 27 -42.972 8.96568
      vertex 27 -42.5282 6.16317
      vertex 27 -42.5282 9.83683
    endloop
  endfacet
  facet normal 1 0 0
    outer loop
      vertex 27 -42.972 8.96568
      vertex 27 -42.972 7.03432
      vertex 27 -42.5282 6.16317
    endloop
  endfacet
  facet normal 1 0 -0
    outer loop
      vertex 27 -42.972 7.03432
      vertex 27 -42.972 8.96568
      vertex 27 -43.125 8
    endloop
  endfacet
  facet normal -0 0.453989 0.891007
    outer loop
      vertex 27 -40.9657 5.02795
      vertex 55 -41.8368 5.47182
      vertex 55 -40.9657 5.02795
    endloop
  endfacet
  facet normal 0 0.453989 0.891007
    outer loop
      vertex 55 -41.8368 5.47182
      vertex 27 -40.9657 5.02795
      vertex 27 -41.8368 5.47182
    endloop
  endfacet
  facet normal 0 0.707109 -0.707105
    outer loop
      vertex 55 -42.5282 9.83683
      vertex 27 -41.8368 10.5282
      vertex 55 -41.8368 10.5282
    endloop
  endfacet
  facet normal 0 0.707109 -0.707105
    outer loop
      vertex 27 -41.8368 10.5282
      vertex 55 -42.5282 9.83683
      vertex 27 -42.5282 9.83683
    endloop
  endfacet
  facet normal 0 0.156436 -0.987688
    outer loop
      vertex 27 -40.9657 10.9721
      vertex 55 -40 11.125
      vertex 55 -40.9657 10.9721
    endloop
  endfacet
  facet normal 0 0.156436 -0.987688
    outer loop
      vertex 55 -40 11.125
      vertex 27 -40.9657 10.9721
      vertex 27 -40 11.125
    endloop
  endfacet
  facet normal 0 -0.707109 0.707105
    outer loop
      vertex 27 -38.1632 5.47182
      vertex 55 -37.4718 6.16317
      vertex 27 -37.4718 6.16317
    endloop
  endfacet
  facet normal 0 -0.707109 0.707105
    outer loop
      vertex 55 -37.4718 6.16317
      vertex 27 -38.1632 5.47182
      vertex 55 -38.1632 5.47182
    endloop
  endfacet
  facet normal 0 -0.987688 0.156436
    outer loop
      vertex 27 -37.028 7.03432
      vertex 30.25 -36.875 8
      vertex 27 -36.875 8
    endloop
  endfacet
  facet normal -3.4233e-009 -0.987688 0.156436
    outer loop
      vertex 30.25 -36.875 8
      vertex 27 -37.028 7.03432
      vertex 30.4845 -37.0136 7.125
    endloop
  endfacet
  facet normal 0 -0.987688 0.156436
    outer loop
      vertex 30.4845 -37.0136 7.125
      vertex 27 -37.028 7.03432
      vertex 30.5751 -37.028 7.03432
    endloop
  endfacet
  facet normal -2.77084e-008 -0.987688 0.156436
    outer loop
      vertex 55 -37.028 7.03432
      vertex 49.75 -36.875 8
      vertex 49.5155 -37.0136 7.125
    endloop
  endfacet
  facet normal 0 -0.987688 0.156438
    outer loop
      vertex 55 -37.028 7.03432
      vertex 49.5155 -37.0136 7.125
      vertex 49.4249 -37.028 7.03432
    endloop
  endfacet
  facet normal 0 -0.987688 0.156436
    outer loop
      vertex 49.75 -36.875 8
      vertex 55 -37.028 7.03432
      vertex 55 -36.875 8
    endloop
  endfacet
  facet normal 0 -0.987688 0.156436
    outer loop
      vertex 33.75 -36.875 8
      vertex 46.4845 -37.0136 7.125
      vertex 46.25 -36.875 8
    endloop
  endfacet
  facet normal -1.15036e-008 -0.987688 0.156436
    outer loop
      vertex 33.5155 -37.0136 7.125
      vertex 46.4845 -37.0136 7.125
      vertex 33.75 -36.875 8
    endloop
  endfacet
  facet normal -1.15037e-008 -0.987688 0.156438
    outer loop
      vertex 33.4249 -37.028 7.03432
      vertex 46.4845 -37.0136 7.125
      vertex 33.5155 -37.0136 7.125
    endloop
  endfacet
  facet normal 0 -0.987688 0.156436
    outer loop
      vertex 46.4845 -37.0136 7.125
      vertex 33.4249 -37.028 7.03432
      vertex 46.5751 -37.028 7.03432
    endloop
  endfacet
  facet normal 0 -0.453989 -0.891007
    outer loop
      vertex 27 -39.0343 10.9721
      vertex 55 -38.1632 10.5282
      vertex 55 -39.0343 10.9721
    endloop
  endfacet
  facet normal -0 -0.453989 -0.891007
    outer loop
      vertex 55 -38.1632 10.5282
      vertex 27 -39.0343 10.9721
      vertex 27 -38.1632 10.5282
    endloop
  endfacet
  facet normal -0 0.156435 0.987688
    outer loop
      vertex 27 -40 4.875
      vertex 55 -40.9657 5.02795
      vertex 55 -40 4.875
    endloop
  endfacet
  facet normal 0 0.156435 0.987688
    outer loop
      vertex 55 -40.9657 5.02795
      vertex 27 -40 4.875
      vertex 27 -40.9657 5.02795
    endloop
  endfacet
  facet normal 0 0.987688 0.156436
    outer loop
      vertex 55 -42.972 7.03432
      vertex 27 -43.125 8
      vertex 55 -43.125 8
    endloop
  endfacet
  facet normal 0 0.987688 0.156436
    outer loop
      vertex 27 -43.125 8
      vertex 55 -42.972 7.03432
      vertex 27 -42.972 7.03432
    endloop
  endfacet
  facet normal 0 0.707109 0.707105
    outer loop
      vertex 55 -41.8368 5.47182
      vertex 27 -42.5282 6.16317
      vertex 55 -42.5282 6.16317
    endloop
  endfacet
  facet normal 0 0.707109 0.707105
    outer loop
      vertex 27 -42.5282 6.16317
      vertex 55 -41.8368 5.47182
      vertex 27 -41.8368 5.47182
    endloop
  endfacet
  facet normal 0 0.891006 -0.453991
    outer loop
      vertex 55 -42.972 8.96568
      vertex 27 -42.5282 9.83683
      vertex 55 -42.5282 9.83683
    endloop
  endfacet
  facet normal 0 0.891006 -0.453991
    outer loop
      vertex 27 -42.5282 9.83683
      vertex 55 -42.972 8.96568
      vertex 27 -42.972 8.96568
    endloop
  endfacet
  facet normal 0 0.891006 0.453991
    outer loop
      vertex 55 -42.5282 6.16317
      vertex 27 -42.972 7.03432
      vertex 55 -42.972 7.03432
    endloop
  endfacet
  facet normal 0 0.891006 0.453991
    outer loop
      vertex 27 -42.972 7.03432
      vertex 55 -42.5282 6.16317
      vertex 27 -42.5282 6.16317
    endloop
  endfacet
  facet normal 1 0 0
    outer loop
      vertex -1.3125 -34.9579 4
      vertex -1.3125 -23.75 8
      vertex -1.3125 -34.9579 8
    endloop
  endfacet
  facet normal 1 0 0
    outer loop
      vertex -1.3125 -23.75 8
      vertex -1.3125 -34.9579 4
      vertex -1.3125 -23.75 0
    endloop
  endfacet
  facet normal 1 0 0
    outer loop
      vertex -1.3125 -37.0661 0
      vertex -1.3125 -34.9579 4
      vertex -1.3125 -37.0661 4
    endloop
  endfacet
  facet normal 1 0 0
    outer loop
      vertex -1.3125 -34.9579 4
      vertex -1.3125 -37.0661 0
      vertex -1.3125 -23.75 0
    endloop
  endfacet
  facet normal -1 0 0
    outer loop
      vertex 1.3125 -23.75 0
      vertex 1.3125 -34.9579 4
      vertex 1.3125 -23.75 8
    endloop
  endfacet
  facet normal -1 0 0
    outer loop
      vertex 1.3125 -37.0661 0
      vertex 1.3125 -34.9579 4
      vertex 1.3125 -23.75 0
    endloop
  endfacet
  facet normal -1 -0 0
    outer loop
      vertex 1.3125 -34.9579 4
      vertex 1.3125 -37.0661 0
      vertex 1.3125 -37.0661 4
    endloop
  endfacet
  facet normal -1 -0 0
    outer loop
      vertex 1.3125 -23.75 8
      vertex 1.3125 -34.9579 4
      vertex 1.3125 -34.9579 8
    endloop
  endfacet
endsolid OpenSCAD_Model
