<?xml version="1.0" encoding="UTF-8" standalone="no"?>
<!-- Created with Inkscape (http://www.inkscape.org/) -->

<svg
   xmlns:dc="http://purl.org/dc/elements/1.1/"
   xmlns:cc="http://creativecommons.org/ns#"
   xmlns:rdf="http://www.w3.org/1999/02/22-rdf-syntax-ns#"
   xmlns:svg="http://www.w3.org/2000/svg"
   xmlns="http://www.w3.org/2000/svg"
   xmlns:sodipodi="http://sodipodi.sourceforge.net/DTD/sodipodi-0.dtd"
   xmlns:inkscape="http://www.inkscape.org/namespaces/inkscape"
   width="1052.3622"
   height="744.09448"
   id="svg2"
   version="1.1"
   inkscape:version="0.48.4 r9939"
   sodipodi:docname="_testPattern0.2.svg">
  <sodipodi:namedview
     id="base"
     pagecolor="#ffffff"
     bordercolor="#666666"
     borderopacity="1.0"
     inkscape:pageopacity="0.0"
     inkscape:pageshadow="2"
     inkscape:zoom="0.70958731"
     inkscape:cx="526.18109"
     inkscape:cy="372.04724"
     inkscape:document-units="px"
     inkscape:current-layer="layer1"
     showgrid="false"
     inkscape:window-width="1366"
     inkscape:window-height="715"
     inkscape:window-x="-8"
     inkscape:window-y="-8"
     inkscape:window-maximized="1"
     showguides="true"
     inkscape:guide-bbox="true" />
  <defs
     id="defs4" />
  <metadata
     id="metadata7">
    <rdf:RDF>
      <cc:Work
         rdf:about="">
        <dc:format>image/svg+xml</dc:format>
        <dc:type
           rdf:resource="http://purl.org/dc/dcmitype/StillImage" />
        <dc:title />
      </cc:Work>
    </rdf:RDF>
  </metadata>
  <g
     id="layer1"
     inkscape:groupmode="layer"
     inkscape:label="Layer 1"
     transform="translate(0,-308.2677)">
    <g
       transform="matrix(0.99992543,0,0,1.0618637,120.50327,428.62633)"
       style="font-size:40px;font-style:normal;font-weight:normal;line-height:125%;letter-spacing:0px;word-spacing:0px;fill:none;stroke:#000000;stroke-opacity:0.39361703999999997;font-family:Sans;stroke-width:0.97046931;stroke-miterlimit:4;stroke-dasharray:none"
       id="text3825">
      <path
         d="m 330.03656,484.78882 0,-28.63281 10.80078,0 c 1.90103,2e-5 3.35285,0.0912 4.35547,0.27343 1.40623,0.23441 2.58461,0.68037 3.53516,1.33789 0.95049,0.65758 1.71547,1.57881 2.29492,2.76368 0.5794,1.18491 0.86911,2.487 0.86914,3.90625 -3e-5,2.43491 -0.77476,4.49545 -2.32422,6.18164 -1.5495,1.68621 -4.34898,2.52931 -8.39844,2.52929 l -7.34375,0 0,11.64063 z m 3.78906,-15.01953 7.40235,0 c 2.4479,10e-6 4.18618,-0.45572 5.21484,-1.36719 1.02863,-0.91144 1.54295,-2.19399 1.54297,-3.84766 -2e-5,-1.19789 -0.30276,-2.22328 -0.9082,-3.07617 -0.60549,-0.85284 -1.40302,-1.41599 -2.39258,-1.68945 -0.63804,-0.16925 -1.81642,-0.25388 -3.53516,-0.25391 l -7.32422,0 z"
         style="fill:none;stroke:#000000;stroke-opacity:0.39361703999999997;stroke-width:0.97046931;stroke-miterlimit:4;stroke-dasharray:none"
         id="path3840"
         inkscape:connector-curvature="0" />
      <path
         d="m 356.22797,484.78882 0,-28.63281 3.51562,0 0,28.63281 z"
         style="fill:none;stroke:#000000;stroke-opacity:0.39361703999999997;stroke-width:0.97046931;stroke-miterlimit:4;stroke-dasharray:none"
         id="path3842"
         inkscape:connector-curvature="0" />
      <path
         d="m 363.90375,474.41772 c 0,-3.84113 1.0677,-6.68618 3.20312,-8.53515 1.78385,-1.53644 3.95833,-2.30467 6.52344,-2.30469 2.85155,2e-5 5.18228,0.93427 6.99219,2.80274 1.80987,1.8685 2.71482,4.44988 2.71484,7.74414 -2e-5,2.66927 -0.40041,4.76888 -1.20117,6.29882 -0.8008,1.52995 -1.96616,2.7181 -3.49609,3.56446 -1.52997,0.84635 -3.19989,1.26953 -5.00977,1.26953 -2.90365,0 -5.25066,-0.93099 -7.04102,-2.79297 -1.79036,-1.86198 -2.68554,-4.54426 -2.68554,-8.04688 z m 3.61328,0 c -10e-6,2.65626 0.57942,4.64519 1.73828,5.9668 1.15885,1.32162 2.61718,1.98243 4.375,1.98242 1.74478,10e-6 3.1966,-0.66406 4.35547,-1.99218 1.15884,-1.32812 1.73826,-3.35286 1.73828,-6.07422 -2e-5,-2.56509 -0.5827,-4.50845 -1.74805,-5.83008 -1.16538,-1.3216 -2.61394,-1.9824 -4.3457,-1.98242 -1.75782,2e-5 -3.21615,0.65757 -4.375,1.97265 -1.15886,1.31512 -1.73829,3.3008 -1.73828,5.95703 z"
         style="fill:none;stroke:#000000;stroke-opacity:0.39361703999999997;stroke-width:0.97046931;stroke-miterlimit:4;stroke-dasharray:none"
         id="path3844"
         inkscape:connector-curvature="0" />
      <path
         d="m 395.15375,481.64429 0.50781,3.10547 c -0.98959,0.20833 -1.87501,0.3125 -2.65625,0.3125 -1.27605,0 -2.26563,-0.20183 -2.96875,-0.60547 -0.70313,-0.40365 -1.19792,-0.93425 -1.48437,-1.5918 -0.28647,-0.65755 -0.4297,-2.04101 -0.42969,-4.15039 l 0,-11.93359 -2.57813,0 0,-2.73438 2.57813,0 0,-5.13672 3.49609,-2.10937 0,7.24609 3.53516,0 0,2.73438 -3.53516,0 0,12.1289 c -10e-6,1.00261 0.0618,1.64714 0.18555,1.9336 0.12369,0.28646 0.32551,0.51432 0.60547,0.68359 0.27994,0.16927 0.68033,0.25391 1.20117,0.25391 0.39061,0 0.90494,-0.0456 1.54297,-0.13672 z"
         style="fill:none;stroke:#000000;stroke-opacity:0.39361703999999997;stroke-width:0.97046931;stroke-miterlimit:4;stroke-dasharray:none"
         id="path3846"
         inkscape:connector-curvature="0" />
      <path
         d="m 406.2475,481.64429 0.50781,3.10547 c -0.98959,0.20833 -1.87501,0.3125 -2.65625,0.3125 -1.27605,0 -2.26563,-0.20183 -2.96875,-0.60547 -0.70313,-0.40365 -1.19792,-0.93425 -1.48437,-1.5918 -0.28647,-0.65755 -0.4297,-2.04101 -0.42969,-4.15039 l 0,-11.93359 -2.57813,0 0,-2.73438 2.57813,0 0,-5.13672 3.49609,-2.10937 0,7.24609 3.53516,0 0,2.73438 -3.53516,0 0,12.1289 c -10e-6,1.00261 0.0618,1.64714 0.18555,1.9336 0.12369,0.28646 0.32551,0.51432 0.60547,0.68359 0.27994,0.16927 0.68033,0.25391 1.20117,0.25391 0.39061,0 0.90494,-0.0456 1.54297,-0.13672 z"
         style="fill:none;stroke:#000000;stroke-opacity:0.39361703999999997;stroke-width:0.97046931;stroke-miterlimit:4;stroke-dasharray:none"
         id="path3848"
         inkscape:connector-curvature="0" />
      <path
         d="m 423.86469,478.10913 3.63281,0.44922 c -0.57294,2.1224 -1.63414,3.76953 -3.1836,4.94141 -1.54949,1.17187 -3.52866,1.75781 -5.9375,1.75781 -3.03386,0 -5.43946,-0.93425 -7.21679,-2.80274 -1.77735,-1.86848 -2.66602,-4.48892 -2.66602,-7.86132 0,-3.48957 0.89844,-6.1979 2.69531,-8.125 1.79687,-1.92707 4.1276,-2.89061 6.99219,-2.89063 2.77342,2e-5 5.03905,0.94403 6.79688,2.83203 1.75779,1.88804 2.63669,4.54429 2.63672,7.96875 -3e-5,0.20835 -0.007,0.52085 -0.0195,0.9375 l -15.46875,0 c 0.13021,2.27866 0.77474,4.02345 1.9336,5.23438 1.15884,1.21094 2.60415,1.81641 4.33594,1.8164 1.28904,10e-6 2.3893,-0.33854 3.30078,-1.01562 0.91144,-0.67708 1.63409,-1.75781 2.16797,-3.24219 z m -11.54297,-5.68359 11.58203,0 c -0.15627,-1.74478 -0.59898,-3.05337 -1.32813,-3.92578 -1.1198,-1.35415 -2.57163,-2.03124 -4.35547,-2.03125 -1.61459,1e-5 -2.97201,0.54038 -4.07226,1.62109 -1.10027,1.08074 -1.70899,2.52606 -1.82617,4.33594 z"
         style="fill:none;stroke:#000000;stroke-opacity:0.39361703999999997;stroke-width:0.97046931;stroke-miterlimit:4;stroke-dasharray:none"
         id="path3850"
         inkscape:connector-curvature="0" />
      <path
         d="m 431.89203,484.78882 0,-20.74219 3.16406,0 0,3.14453 c 0.80729,-1.47133 1.55273,-2.44138 2.23633,-2.91015 0.68358,-0.46873 1.43554,-0.70311 2.25586,-0.70313 1.18488,2e-5 2.38931,0.37763 3.61328,1.13281 l -1.21094,3.26172 c -0.85938,-0.50779 -1.71876,-0.7617 -2.57812,-0.76172 -0.76824,2e-5 -1.45834,0.23114 -2.07031,0.69336 -0.61199,0.46226 -1.04819,1.10353 -1.3086,1.92383 -0.39063,1.25001 -0.58594,2.6172 -0.58594,4.10156 l 0,10.85938 z"
         style="fill:none;stroke:#000000;stroke-opacity:0.39361703999999997;stroke-width:0.97046931;stroke-miterlimit:4;stroke-dasharray:none"
         id="path3852"
         inkscape:connector-curvature="0" />
      <path
         d="m 464.06,481.64429 0.50781,3.10547 c -0.98959,0.20833 -1.87501,0.3125 -2.65625,0.3125 -1.27605,0 -2.26563,-0.20183 -2.96875,-0.60547 -0.70313,-0.40365 -1.19792,-0.93425 -1.48437,-1.5918 -0.28647,-0.65755 -0.4297,-2.04101 -0.42969,-4.15039 l 0,-11.93359 -2.57813,0 0,-2.73438 2.57813,0 0,-5.13672 3.49609,-2.10937 0,7.24609 3.53516,0 0,2.73438 -3.53516,0 0,12.1289 c -10e-6,1.00261 0.0618,1.64714 0.18555,1.9336 0.12369,0.28646 0.32551,0.51432 0.60547,0.68359 0.27994,0.16927 0.68033,0.25391 1.20117,0.25391 0.39061,0 0.90494,-0.0456 1.54297,-0.13672 z"
         style="fill:none;stroke:#000000;stroke-opacity:0.39361703999999997;stroke-width:0.97046931;stroke-miterlimit:4;stroke-dasharray:none"
         id="path3854"
         inkscape:connector-curvature="0" />
      <path
         d="m 481.67719,478.10913 3.63281,0.44922 c -0.57294,2.1224 -1.63414,3.76953 -3.1836,4.94141 -1.54949,1.17187 -3.52866,1.75781 -5.9375,1.75781 -3.03386,0 -5.43946,-0.93425 -7.21679,-2.80274 -1.77735,-1.86848 -2.66602,-4.48892 -2.66602,-7.86132 0,-3.48957 0.89844,-6.1979 2.69531,-8.125 1.79687,-1.92707 4.1276,-2.89061 6.99219,-2.89063 2.77342,2e-5 5.03905,0.94403 6.79688,2.83203 1.75779,1.88804 2.63669,4.54429 2.63672,7.96875 -3e-5,0.20835 -0.007,0.52085 -0.0195,0.9375 l -15.46875,0 c 0.13021,2.27866 0.77474,4.02345 1.9336,5.23438 1.15884,1.21094 2.60415,1.81641 4.33594,1.8164 1.28904,10e-6 2.3893,-0.33854 3.30078,-1.01562 0.91144,-0.67708 1.63409,-1.75781 2.16797,-3.24219 z m -11.54297,-5.68359 11.58203,0 c -0.15627,-1.74478 -0.59898,-3.05337 -1.32813,-3.92578 -1.1198,-1.35415 -2.57163,-2.03124 -4.35547,-2.03125 -1.61459,1e-5 -2.97201,0.54038 -4.07226,1.62109 -1.10027,1.08074 -1.70899,2.52606 -1.82617,4.33594 z"
         style="fill:none;stroke:#000000;stroke-opacity:0.39361703999999997;stroke-width:0.97046931;stroke-miterlimit:4;stroke-dasharray:none"
         id="path3856"
         inkscape:connector-curvature="0" />
      <path
         d="m 488.33734,478.59741 3.47656,-0.54687 c 0.19531,1.39323 0.73893,2.46094 1.63086,3.20312 0.89192,0.74219 2.13867,1.11329 3.74024,1.11328 1.61457,10e-6 2.81248,-0.32877 3.59375,-0.98632 0.78123,-0.65755 1.17186,-1.42904 1.17187,-2.31446 -1e-5,-0.79426 -0.34506,-1.41926 -1.03515,-1.875 -0.48179,-0.31249 -1.6797,-0.70963 -3.59375,-1.1914 -2.57814,-0.65104 -4.36524,-1.21419 -5.36133,-1.68946 -0.9961,-0.47525 -1.75131,-1.1328 -2.26563,-1.97265 -0.51432,-0.83983 -0.77148,-1.76757 -0.77148,-2.78321 0,-0.92446 0.21159,-1.78058 0.63476,-2.56836 0.42318,-0.78774 0.99935,-1.44203 1.72852,-1.96289 0.54687,-0.40362 1.29231,-0.74542 2.23633,-1.02539 0.944,-0.27992 1.95637,-0.4199 3.03711,-0.41992 1.62759,2e-5 3.05663,0.2344 4.28711,0.70313 1.23045,0.46877 2.13865,1.10353 2.72461,1.90429 0.58592,0.8008 0.98956,1.87176 1.21093,3.21289 l -3.4375,0.46875 c -0.15626,-1.06769 -0.60873,-1.90102 -1.35742,-2.5 -0.74871,-0.59894 -1.80665,-0.89842 -3.17383,-0.89843 -1.61459,1e-5 -2.76693,0.26694 -3.45703,0.80078 -0.69011,0.53387 -1.03516,1.15887 -1.03515,1.875 -1e-5,0.45574 0.14322,0.8659 0.42968,1.23047 0.28646,0.37761 0.73567,0.69011 1.34766,0.9375 0.35156,0.13022 1.38671,0.4297 3.10547,0.89843 2.48697,0.66408 4.22199,1.2077 5.20508,1.63086 0.98305,0.42319 1.75454,1.03842 2.31445,1.84571 0.55988,0.8073 0.83983,1.8099 0.83984,3.00781 -10e-6,1.17188 -0.34181,2.27539 -1.02539,3.31055 -0.68361,1.03515 -1.66993,1.83593 -2.95898,2.40234 -1.28908,0.56641 -2.74741,0.84961 -4.375,0.84961 -2.69532,0 -4.74936,-0.5599 -6.16211,-1.67969 -1.41276,-1.11979 -2.31446,-2.77994 -2.70508,-4.98047 z"
         style="fill:none;stroke:#000000;stroke-opacity:0.39361703999999997;stroke-width:0.97046931;stroke-miterlimit:4;stroke-dasharray:none"
         id="path3858"
         inkscape:connector-curvature="0" />
      <path
         d="m 517.41937,481.64429 0.50782,3.10547 c -0.9896,0.20833 -1.87501,0.3125 -2.65625,0.3125 -1.27605,0 -2.26564,-0.20183 -2.96875,-0.60547 -0.70313,-0.40365 -1.19793,-0.93425 -1.48438,-1.5918 -0.28646,-0.65755 -0.42969,-2.04101 -0.42969,-4.15039 l 0,-11.93359 -2.57812,0 0,-2.73438 2.57812,0 0,-5.13672 3.4961,-2.10937 0,7.24609 3.53515,0 0,2.73438 -3.53515,0 0,12.1289 c -10e-6,1.00261 0.0618,1.64714 0.18554,1.9336 0.12369,0.28646 0.32552,0.51432 0.60547,0.68359 0.27994,0.16927 0.68033,0.25391 1.20117,0.25391 0.39062,0 0.90494,-0.0456 1.54297,-0.13672 z"
         style="fill:none;stroke:#000000;stroke-opacity:0.39361703999999997;stroke-width:0.97046931;stroke-miterlimit:4;stroke-dasharray:none"
         id="path3860"
         inkscape:connector-curvature="0" />
      <path
         d="m 531.93109,492.73804 0,-28.69141 3.20313,0 0,2.69531 c 0.7552,-1.05467 1.60806,-1.84568 2.55859,-2.37304 0.95051,-0.52733 2.10285,-0.791 3.45703,-0.79102 1.77082,2e-5 3.33332,0.45575 4.6875,1.36719 1.35415,0.91148 2.37628,2.19728 3.06641,3.85742 0.69008,1.66017 1.03513,3.47983 1.03515,5.45898 -2e-5,2.12241 -0.38088,4.03321 -1.14257,5.73243 -0.76174,1.69922 -1.86851,3.0013 -3.32032,3.90625 -1.45183,0.90494 -2.97853,1.35742 -4.58007,1.35742 -1.17189,0 -2.22332,-0.2474 -3.1543,-0.74219 -0.931,-0.49479 -1.69597,-1.11979 -2.29492,-1.875 l 0,10.09766 z m 3.1836,-18.20313 c -10e-6,2.66928 0.54035,4.64193 1.62109,5.91797 1.08072,1.27605 2.38931,1.91407 3.92578,1.91406 1.56249,10e-6 2.90038,-0.6608 4.01367,-1.98242 1.11327,-1.32161 1.66991,-3.36913 1.66992,-6.14258 -10e-6,-2.64321 -0.54363,-4.62238 -1.63086,-5.9375 -1.08725,-1.31508 -2.38608,-1.97263 -3.89648,-1.97265 -1.49741,2e-5 -2.82227,0.69988 -3.97461,2.09961 -1.15235,1.39975 -1.72852,3.43425 -1.72851,6.10351 z"
         style="fill:none;stroke:#000000;stroke-opacity:0.39361703999999997;stroke-width:0.97046931;stroke-miterlimit:4;stroke-dasharray:none"
         id="path3862"
         inkscape:connector-curvature="0" />
      <path
         d="m 567.73187,482.23022 c -1.3021,1.10678 -2.55535,1.88803 -3.75976,2.34375 -1.20444,0.45573 -2.49676,0.6836 -3.87696,0.6836 -2.27865,0 -4.02995,-0.55664 -5.2539,-1.66992 -1.22396,-1.11328 -1.83594,-2.53581 -1.83594,-4.26758 0,-1.01562 0.23112,-1.94335 0.69336,-2.7832 0.46224,-0.83984 1.0677,-1.51367 1.81641,-2.02149 0.74869,-0.5078 1.59179,-0.89192 2.52929,-1.15234 0.6901,-0.18228 1.73177,-0.35806 3.125,-0.52735 2.83853,-0.33853 4.92837,-0.74217 6.26953,-1.21093 0.013,-0.48176 0.0195,-0.78775 0.0195,-0.91797 -2e-5,-1.43228 -0.33205,-2.44139 -0.9961,-3.02735 -0.89845,-0.79425 -2.23308,-1.19138 -4.0039,-1.1914 -1.65366,2e-5 -2.87436,0.28973 -3.66211,0.86914 -0.78777,0.57944 -1.37045,1.60483 -1.74805,3.07617 l -3.4375,-0.46875 c 0.3125,-1.47134 0.82682,-2.65949 1.54297,-3.56445 0.71614,-0.90493 1.75129,-1.60155 3.10547,-2.08985 1.35415,-0.48826 2.92316,-0.7324 4.70703,-0.73242 1.77082,2e-5 3.20962,0.20836 4.3164,0.625 1.10676,0.41669 1.92056,0.94078 2.44141,1.57227 0.52081,0.63153 0.8854,1.42905 1.09375,2.39257 0.11717,0.59898 0.17576,1.67971 0.17578,3.24219 l 0,4.6875 c -2e-5,3.26824 0.0748,5.33529 0.22461,6.20117 0.14972,0.86589 0.44594,1.69597 0.88867,2.49024 l -3.67187,0 c -0.3646,-0.72917 -0.59898,-1.58203 -0.70313,-2.5586 z m -0.29297,-7.85156 c -1.27605,0.52085 -3.19011,0.96355 -5.74218,1.32813 -1.44532,0.20834 -2.46746,0.44271 -3.06641,0.70312 -0.59896,0.26043 -1.0612,0.64129 -1.38672,1.14258 -0.32552,0.50131 -0.48829,1.05795 -0.48828,1.66992 -10e-6,0.93751 0.35481,1.71876 1.06445,2.34375 0.70963,0.625 1.74804,0.9375 3.11524,0.9375 1.35415,0 2.55858,-0.29622 3.61328,-0.88867 1.05467,-0.59244 1.82941,-1.40299 2.32422,-2.43164 0.37759,-0.79426 0.56639,-1.96614 0.5664,-3.51563 z"
         style="fill:none;stroke:#000000;stroke-opacity:0.39361703999999997;stroke-width:0.97046931;stroke-miterlimit:4;stroke-dasharray:none"
         id="path3864"
         inkscape:connector-curvature="0" />
      <path
         d="m 584.13812,481.64429 0.50782,3.10547 c -0.9896,0.20833 -1.87501,0.3125 -2.65625,0.3125 -1.27605,0 -2.26564,-0.20183 -2.96875,-0.60547 -0.70313,-0.40365 -1.19793,-0.93425 -1.48438,-1.5918 -0.28646,-0.65755 -0.42969,-2.04101 -0.42969,-4.15039 l 0,-11.93359 -2.57812,0 0,-2.73438 2.57812,0 0,-5.13672 3.4961,-2.10937 0,7.24609 3.53515,0 0,2.73438 -3.53515,0 0,12.1289 c -10e-6,1.00261 0.0618,1.64714 0.18554,1.9336 0.12369,0.28646 0.32552,0.51432 0.60547,0.68359 0.27994,0.16927 0.68033,0.25391 1.20117,0.25391 0.39062,0 0.90494,-0.0456 1.54297,-0.13672 z"
         style="fill:none;stroke:#000000;stroke-opacity:0.39361703999999997;stroke-width:0.97046931;stroke-miterlimit:4;stroke-dasharray:none"
         id="path3866"
         inkscape:connector-curvature="0" />
      <path
         d="m 595.23187,481.64429 0.50782,3.10547 c -0.9896,0.20833 -1.87501,0.3125 -2.65625,0.3125 -1.27605,0 -2.26564,-0.20183 -2.96875,-0.60547 -0.70313,-0.40365 -1.19793,-0.93425 -1.48438,-1.5918 -0.28646,-0.65755 -0.42969,-2.04101 -0.42969,-4.15039 l 0,-11.93359 -2.57812,0 0,-2.73438 2.57812,0 0,-5.13672 3.4961,-2.10937 0,7.24609 3.53515,0 0,2.73438 -3.53515,0 0,12.1289 c -10e-6,1.00261 0.0618,1.64714 0.18554,1.9336 0.12369,0.28646 0.32552,0.51432 0.60547,0.68359 0.27994,0.16927 0.68033,0.25391 1.20117,0.25391 0.39062,0 0.90494,-0.0456 1.54297,-0.13672 z"
         style="fill:none;stroke:#000000;stroke-opacity:0.39361703999999997;stroke-width:0.97046931;stroke-miterlimit:4;stroke-dasharray:none"
         id="path3868"
         inkscape:connector-curvature="0" />
      <path
         d="m 612.84906,478.10913 3.63281,0.44922 c -0.57293,2.1224 -1.63413,3.76953 -3.18359,4.94141 -1.5495,1.17187 -3.52866,1.75781 -5.9375,1.75781 -3.03386,0 -5.43946,-0.93425 -7.2168,-2.80274 -1.77734,-1.86848 -2.66602,-4.48892 -2.66601,-7.86132 -10e-6,-3.48957 0.89843,-6.1979 2.69531,-8.125 1.79687,-1.92707 4.12759,-2.89061 6.99219,-2.89063 2.77342,2e-5 5.03904,0.94403 6.79687,2.83203 1.75779,1.88804 2.6367,4.54429 2.63672,7.96875 -2e-5,0.20835 -0.007,0.52085 -0.0195,0.9375 l -15.46875,0 c 0.1302,2.27866 0.77473,4.02345 1.93359,5.23438 1.15885,1.21094 2.60416,1.81641 4.33594,1.8164 1.28905,10e-6 2.38931,-0.33854 3.30078,-1.01562 0.91144,-0.67708 1.6341,-1.75781 2.16797,-3.24219 z m -11.54297,-5.68359 11.58203,0 c -0.15626,-1.74478 -0.59897,-3.05337 -1.32812,-3.92578 -1.11981,-1.35415 -2.57163,-2.03124 -4.35547,-2.03125 -1.61459,1e-5 -2.97201,0.54038 -4.07227,1.62109 -1.10026,1.08074 -1.70899,2.52606 -1.82617,4.33594 z"
         style="fill:none;stroke:#000000;stroke-opacity:0.39361703999999997;stroke-width:0.97046931;stroke-miterlimit:4;stroke-dasharray:none"
         id="path3870"
         inkscape:connector-curvature="0" />
      <path
         d="m 620.8764,484.78882 0,-20.74219 3.16407,0 0,3.14453 c 0.80728,-1.47133 1.55272,-2.44138 2.23632,-2.91015 0.68359,-0.46873 1.43554,-0.70311 2.25586,-0.70313 1.18489,2e-5 2.38931,0.37763 3.61329,1.13281 l -1.21094,3.26172 c -0.85939,-0.50779 -1.71876,-0.7617 -2.57813,-0.76172 -0.76824,2e-5 -1.45834,0.23114 -2.07031,0.69336 -0.61199,0.46226 -1.04818,1.10353 -1.30859,1.92383 -0.39063,1.25001 -0.58595,2.6172 -0.58594,4.10156 l 0,10.85938 z"
         style="fill:none;stroke:#000000;stroke-opacity:0.39361703999999997;stroke-width:0.97046931;stroke-miterlimit:4;stroke-dasharray:none"
         id="path3872"
         inkscape:connector-curvature="0" />
      <path
         d="m 634.27484,484.78882 0,-20.74219 3.16406,0 0,2.94922 c 1.52343,-2.27863 3.72395,-3.41795 6.60157,-3.41797 1.24998,2e-5 2.39907,0.22463 3.44726,0.67383 1.04816,0.44924 1.83267,1.03843 2.35352,1.76758 0.52081,0.72918 0.8854,1.59507 1.09375,2.59765 0.13019,0.65106 0.19529,1.79038 0.19531,3.41797 l 0,12.75391 -3.51562,0 0,-12.61719 c -2e-5,-1.43228 -0.13674,-2.50324 -0.41016,-3.21289 -0.27345,-0.70962 -0.75848,-1.27602 -1.45508,-1.69922 -0.69663,-0.42316 -1.51368,-0.63475 -2.45117,-0.63476 -1.49741,1e-5 -2.78972,0.47527 -3.87695,1.42578 -1.08725,0.95053 -1.63087,2.75392 -1.63086,5.41015 l 0,11.32813 z"
         style="fill:none;stroke:#000000;stroke-opacity:0.39361703999999997;stroke-width:0.97046931;stroke-miterlimit:4;stroke-dasharray:none"
         id="path3874"
         inkscape:connector-curvature="0" />
      <path
         d="m 673.39594,484.78882 -7.89063,-20.74219 3.71094,0 4.45312,12.42188 c 0.48176,1.34115 0.92447,2.73438 1.32813,4.17968 0.31249,-1.09374 0.74868,-2.40884 1.30859,-3.94531 l 4.60938,-12.65625 3.61328,0 -7.85156,20.74219 z"
         style="fill:none;stroke:#000000;stroke-opacity:0.39361703999999997;stroke-width:0.97046931;stroke-miterlimit:4;stroke-dasharray:none"
         id="path3876"
         inkscape:connector-curvature="0" />
      <path
         d="m 686.65765,470.66772 c 0,-3.38539 0.34831,-6.11 1.04493,-8.17382 0.69661,-2.06378 1.73176,-3.65558 3.10546,-4.77539 1.3737,-1.11977 3.10221,-1.67966 5.18555,-1.67969 1.53645,3e-5 2.8841,0.30927 4.04297,0.92773 1.15884,0.61852 2.11587,1.51045 2.87109,2.67578 0.75519,1.16539 1.34764,2.58466 1.77735,4.25782 0.42966,1.67319 0.64451,3.92905 0.64453,6.76757 -2e-5,3.35939 -0.34507,6.07098 -1.03516,8.13477 -0.69012,2.06381 -1.72202,3.65886 -3.0957,4.78516 -1.37371,1.1263 -3.10874,1.68945 -5.20508,1.68945 -2.76042,0 -4.92839,-0.98958 -6.5039,-2.96875 -1.88803,-2.38281 -2.83204,-6.26301 -2.83204,-11.64063 z m 3.61329,0 c -10e-6,4.70053 0.55012,7.82879 1.65039,9.38477 1.10025,1.55599 2.45767,2.33399 4.07226,2.33398 1.61457,1e-5 2.97199,-0.78124 4.07227,-2.34375 1.10024,-1.56249 1.65037,-4.68749 1.65039,-9.375 -2e-5,-4.71352 -0.55015,-7.84503 -1.65039,-9.39453 -1.10028,-1.54945 -2.47072,-2.32419 -4.11133,-2.32422 -1.61459,3e-5 -2.90366,0.68362 -3.86719,2.05079 -1.21094,1.74481 -1.81641,4.96746 -1.8164,9.66796 z"
         style="fill:none;stroke:#000000;stroke-opacity:0.39361703999999997;stroke-width:0.97046931;stroke-miterlimit:4;stroke-dasharray:none"
         id="path3878"
         inkscape:connector-curvature="0" />
      <path
         d="m 710.89594,484.78882 0,-4.00391 4.0039,0 0,4.00391 z"
         style="fill:none;stroke:#000000;stroke-opacity:0.39361703999999997;stroke-width:0.97046931;stroke-miterlimit:4;stroke-dasharray:none"
         id="path3880"
         inkscape:connector-curvature="0" />
      <path
         d="m 738.49359,481.40991 0,3.37891 -18.92578,0 c -0.026,-0.84635 0.11068,-1.66016 0.41016,-2.44141 0.48177,-1.28906 1.25325,-2.55859 2.31445,-3.80859 1.06119,-1.24999 2.59439,-2.69531 4.59961,-4.33594 3.11197,-2.55207 5.21483,-4.57355 6.30859,-6.06445 1.09374,-1.49087 1.64061,-2.90037 1.64063,-4.22852 -2e-5,-1.3932 -0.49807,-2.56833 -1.49414,-3.52539 -0.99611,-0.957 -2.29494,-1.43552 -3.89649,-1.43555 -1.69272,3e-5 -3.04688,0.50784 -4.0625,1.52344 -1.01563,1.01565 -1.52995,2.4219 -1.54297,4.21875 l -3.61328,-0.37109 c 0.2474,-2.69529 1.17838,-4.74933 2.79297,-6.16211 1.61458,-1.41273 3.78254,-2.11911 6.50391,-2.11914 2.74738,3e-5 4.92186,0.76175 6.52344,2.28515 1.60154,1.52347 2.40232,3.41149 2.40234,5.66407 -2e-5,1.14585 -0.2344,2.27215 -0.70313,3.3789 -0.46877,1.10679 -1.24676,2.27215 -2.33398,3.4961 -1.08726,1.22397 -2.89389,2.90365 -5.41992,5.03906 -2.10939,1.77084 -3.46355,2.97201 -4.0625,3.60352 -0.59897,0.63151 -1.09376,1.26628 -1.48438,1.90429 z"
         style="fill:none;stroke:#000000;stroke-opacity:0.39361703999999997;stroke-width:0.97046931;stroke-miterlimit:4;stroke-dasharray:none"
         id="path3882"
         inkscape:connector-curvature="0" />
    </g>
    <path
       sodipodi:type="arc"
       style="fill:#000000;fill-opacity:0;stroke:#000000;stroke-width:1.00282225;stroke-linejoin:round;stroke-miterlimit:4;stroke-opacity:0.39361703999999997;stroke-dasharray:none"
       id="path3041"
       sodipodi:cx="354.33072"
       sodipodi:cy="389.76376"
       sodipodi:rx="177.16536"
       sodipodi:ry="177.16536"
       d="m 531.49608,389.76376 c 0,97.84573 -79.31963,177.16536 -177.16536,177.16536 -97.84573,0 -177.16536,-79.31963 -177.16536,-177.16536 0,-97.84572 79.31963,-177.16536 177.16536,-177.16536 97.84573,0 177.16536,79.31964 177.16536,177.16536 z"
       transform="matrix(0.99718569,0,0,0.99718569,0.9971857,309.36463)" />
    <path
       transform="matrix(0.99718569,0,0,0.99718569,355.32789,309.36463)"
       d="m 531.49608,389.76376 c 0,97.84573 -79.31963,177.16536 -177.16536,177.16536 -97.84573,0 -177.16536,-79.31963 -177.16536,-177.16536 0,-97.84572 79.31963,-177.16536 177.16536,-177.16536 97.84573,0 177.16536,79.31964 177.16536,177.16536 z"
       sodipodi:ry="177.16536"
       sodipodi:rx="177.16536"
       sodipodi:cy="389.76376"
       sodipodi:cx="354.33072"
       id="path3043"
       style="fill:#000000;fill-opacity:0;stroke:#000000;stroke-width:1.00282225;stroke-linejoin:round;stroke-miterlimit:4;stroke-opacity:0.39361703999999997;stroke-dasharray:none"
       sodipodi:type="arc" />
    <rect
       style="fill:#000000;fill-opacity:0;stroke:#000000;stroke-width:1;stroke-linejoin:round;stroke-miterlimit:4;stroke-opacity:0.39361703999999997;stroke-dasharray:none"
       id="rect3045"
       width="707.66351"
       height="353.33282"
       x="177.66431"
       y="521.36511" />
    <path
       transform="matrix(0.79774855,0,0,0.79774855,71.66389,387.098)"
       d="m 531.49608,389.76376 c 0,97.84573 -79.31963,177.16536 -177.16536,177.16536 -97.84573,0 -177.16536,-79.31963 -177.16536,-177.16536 0,-97.84572 79.31963,-177.16536 177.16536,-177.16536 97.84573,0 177.16536,79.31964 177.16536,177.16536 z"
       sodipodi:ry="177.16536"
       sodipodi:rx="177.16536"
       sodipodi:cy="389.76376"
       sodipodi:cx="354.33072"
       id="path3047"
       style="fill:#000000;fill-opacity:0;stroke:#000000;stroke-width:1.25352782;stroke-linejoin:round;stroke-miterlimit:4;stroke-opacity:0.39361703999999997;stroke-dasharray:none"
       sodipodi:type="arc" />
    <path
       sodipodi:type="arc"
       style="fill:#000000;fill-opacity:0;stroke:#000000;stroke-width:1.56690977;stroke-linejoin:round;stroke-miterlimit:4;stroke-opacity:0.39361703999999997;stroke-dasharray:none"
       id="path3049"
       sodipodi:cx="354.33072"
       sodipodi:cy="389.76376"
       sodipodi:rx="177.16536"
       sodipodi:ry="177.16536"
       d="m 531.49608,389.76376 c 0,97.84573 -79.31963,177.16536 -177.16536,177.16536 -97.84573,0 -177.16536,-79.31963 -177.16536,-177.16536 0,-97.84572 79.31963,-177.16536 177.16536,-177.16536 97.84573,0 177.16536,79.31964 177.16536,177.16536 z"
       transform="matrix(0.63819884,0,0,0.63819884,128.19725,449.2847)" />
    <path
       transform="matrix(0.51055907,0,0,0.51055907,173.42394,499.03406)"
       d="m 531.49608,389.76376 c 0,97.84573 -79.31963,177.16536 -177.16536,177.16536 -97.84573,0 -177.16536,-79.31963 -177.16536,-177.16536 0,-97.84572 79.31963,-177.16536 177.16536,-177.16536 97.84573,0 177.16536,79.31964 177.16536,177.16536 z"
       sodipodi:ry="177.16536"
       sodipodi:rx="177.16536"
       sodipodi:cy="389.76376"
       sodipodi:cx="354.33072"
       id="path3051"
       style="fill:#000000;fill-opacity:0;stroke:#000000;stroke-width:1.95863722;stroke-linejoin:round;stroke-miterlimit:4;stroke-opacity:0.39361703999999997;stroke-dasharray:none"
       sodipodi:type="arc" />
    <path
       sodipodi:type="arc"
       style="fill:#000000;fill-opacity:0;stroke:#000000;stroke-width:2.44829651;stroke-linejoin:round;stroke-miterlimit:4;stroke-opacity:0.39361703999999997;stroke-dasharray:none"
       id="path3053"
       sodipodi:cx="354.33072"
       sodipodi:cy="389.76376"
       sodipodi:rx="177.16536"
       sodipodi:ry="177.16536"
       d="m 531.49608,389.76376 c 0,97.84573 -79.31963,177.16536 -177.16536,177.16536 -97.84573,0 -177.16536,-79.31963 -177.16536,-177.16536 0,-97.84572 79.31963,-177.16536 177.16536,-177.16536 97.84573,0 177.16536,79.31964 177.16536,177.16536 z"
       transform="matrix(0.40844726,0,0,0.40844726,209.60529,538.83354)" />
    <path
       transform="matrix(0.32675781,0,0,0.32675781,238.55037,570.67313)"
       d="m 531.49608,389.76376 c 0,97.84573 -79.31963,177.16536 -177.16536,177.16536 -97.84573,0 -177.16536,-79.31963 -177.16536,-177.16536 0,-97.84572 79.31963,-177.16536 177.16536,-177.16536 97.84573,0 177.16536,79.31964 177.16536,177.16536 z"
       sodipodi:ry="177.16536"
       sodipodi:rx="177.16536"
       sodipodi:cy="389.76376"
       sodipodi:cx="354.33072"
       id="path3055"
       style="fill:#000000;fill-opacity:0;stroke:#000000;stroke-width:3.06037062;stroke-linejoin:round;stroke-miterlimit:4;stroke-opacity:0.39361703999999997;stroke-dasharray:none"
       sodipodi:type="arc" />
    <path
       sodipodi:type="arc"
       style="fill:#000000;fill-opacity:0;stroke:#000000;stroke-width:3.82546324;stroke-linejoin:round;stroke-miterlimit:4;stroke-opacity:0.39361703999999997;stroke-dasharray:none"
       id="path3057"
       sodipodi:cx="354.33072"
       sodipodi:cy="389.76376"
       sodipodi:rx="177.16536"
       sodipodi:ry="177.16536"
       d="m 531.49608,389.76376 c 0,97.84573 -79.31963,177.16536 -177.16536,177.16536 -97.84573,0 -177.16536,-79.31963 -177.16536,-177.16536 0,-97.84572 79.31963,-177.16536 177.16536,-177.16536 97.84573,0 177.16536,79.31964 177.16536,177.16536 z"
       transform="matrix(0.26140625,0,0,0.26140625,261.70644,596.1448)" />
    <path
       style="fill:none;stroke:#000000;stroke-width:1;stroke-linecap:butt;stroke-linejoin:miter;stroke-opacity:1;stroke-miterlimit:4;stroke-dasharray:none"
       d="M 177.64116,521.34194 531.02025,874.72102"
       id="path3059"
       inkscape:connector-curvature="0" />
    <rect
       style="fill:#000000;fill-opacity:0;stroke:#000000;stroke-width:1;stroke-linejoin:round;stroke-miterlimit:4;stroke-opacity:0.39361703999999997;stroke-dasharray:none"
       id="rect3061"
       width="176.17097"
       height="176.17097"
       x="620.57593"
       y="609.94598" />
    <rect
       y="906.59662"
       x="-80.568985"
       height="176.17097"
       width="176.17097"
       id="rect3063"
       style="fill:#000000;fill-opacity:0;stroke:#000000;stroke-width:1;stroke-linejoin:round;stroke-miterlimit:4;stroke-opacity:0.39361703999999997;stroke-dasharray:none"
       transform="matrix(0.70710678,-0.70710678,0.70710678,0.70710678,0,0)" />
    <g
       id="g3065"
       style="font-size:40px;font-style:normal;font-weight:normal;line-height:125%;letter-spacing:0px;word-spacing:0px;fill:none;stroke:#000000;stroke-opacity:0.39361703999999997;font-family:Sans;stroke-width:0.97046931;stroke-miterlimit:4;stroke-dasharray:none"
       transform="matrix(0.99992543,0,0,1.0618637,-152.33138,-38.302804)">
      <path
         inkscape:connector-curvature="0"
         id="path3067"
         style="fill:none;stroke:#000000;stroke-opacity:0.39361703999999997;stroke-width:0.97046931;stroke-miterlimit:4;stroke-dasharray:none"
         d="m 330.03656,484.78882 0,-28.63281 10.80078,0 c 1.90103,2e-5 3.35285,0.0912 4.35547,0.27343 1.40623,0.23441 2.58461,0.68037 3.53516,1.33789 0.95049,0.65758 1.71547,1.57881 2.29492,2.76368 0.5794,1.18491 0.86911,2.487 0.86914,3.90625 -3e-5,2.43491 -0.77476,4.49545 -2.32422,6.18164 -1.5495,1.68621 -4.34898,2.52931 -8.39844,2.52929 l -7.34375,0 0,11.64063 z m 3.78906,-15.01953 7.40235,0 c 2.4479,10e-6 4.18618,-0.45572 5.21484,-1.36719 1.02863,-0.91144 1.54295,-2.19399 1.54297,-3.84766 -2e-5,-1.19789 -0.30276,-2.22328 -0.9082,-3.07617 -0.60549,-0.85284 -1.40302,-1.41599 -2.39258,-1.68945 -0.63804,-0.16925 -1.81642,-0.25388 -3.53516,-0.25391 l -7.32422,0 z" />
      <path
         inkscape:connector-curvature="0"
         id="path3069"
         style="fill:none;stroke:#000000;stroke-opacity:0.39361703999999997;stroke-width:0.97046931;stroke-miterlimit:4;stroke-dasharray:none"
         d="m 356.22797,484.78882 0,-28.63281 3.51562,0 0,28.63281 z" />
      <path
         inkscape:connector-curvature="0"
         id="path3071"
         style="fill:none;stroke:#000000;stroke-opacity:0.39361703999999997;stroke-width:0.97046931;stroke-miterlimit:4;stroke-dasharray:none"
         d="m 363.90375,474.41772 c 0,-3.84113 1.0677,-6.68618 3.20312,-8.53515 1.78385,-1.53644 3.95833,-2.30467 6.52344,-2.30469 2.85155,2e-5 5.18228,0.93427 6.99219,2.80274 1.80987,1.8685 2.71482,4.44988 2.71484,7.74414 -2e-5,2.66927 -0.40041,4.76888 -1.20117,6.29882 -0.8008,1.52995 -1.96616,2.7181 -3.49609,3.56446 -1.52997,0.84635 -3.19989,1.26953 -5.00977,1.26953 -2.90365,0 -5.25066,-0.93099 -7.04102,-2.79297 -1.79036,-1.86198 -2.68554,-4.54426 -2.68554,-8.04688 z m 3.61328,0 c -10e-6,2.65626 0.57942,4.64519 1.73828,5.9668 1.15885,1.32162 2.61718,1.98243 4.375,1.98242 1.74478,10e-6 3.1966,-0.66406 4.35547,-1.99218 1.15884,-1.32812 1.73826,-3.35286 1.73828,-6.07422 -2e-5,-2.56509 -0.5827,-4.50845 -1.74805,-5.83008 -1.16538,-1.3216 -2.61394,-1.9824 -4.3457,-1.98242 -1.75782,2e-5 -3.21615,0.65757 -4.375,1.97265 -1.15886,1.31512 -1.73829,3.3008 -1.73828,5.95703 z" />
      <path
         inkscape:connector-curvature="0"
         id="path3073"
         style="fill:none;stroke:#000000;stroke-opacity:0.39361703999999997;stroke-width:0.97046931;stroke-miterlimit:4;stroke-dasharray:none"
         d="m 395.15375,481.64429 0.50781,3.10547 c -0.98959,0.20833 -1.87501,0.3125 -2.65625,0.3125 -1.27605,0 -2.26563,-0.20183 -2.96875,-0.60547 -0.70313,-0.40365 -1.19792,-0.93425 -1.48437,-1.5918 -0.28647,-0.65755 -0.4297,-2.04101 -0.42969,-4.15039 l 0,-11.93359 -2.57813,0 0,-2.73438 2.57813,0 0,-5.13672 3.49609,-2.10937 0,7.24609 3.53516,0 0,2.73438 -3.53516,0 0,12.1289 c -10e-6,1.00261 0.0618,1.64714 0.18555,1.9336 0.12369,0.28646 0.32551,0.51432 0.60547,0.68359 0.27994,0.16927 0.68033,0.25391 1.20117,0.25391 0.39061,0 0.90494,-0.0456 1.54297,-0.13672 z" />
      <path
         inkscape:connector-curvature="0"
         id="path3075"
         style="fill:none;stroke:#000000;stroke-opacity:0.39361703999999997;stroke-width:0.97046931;stroke-miterlimit:4;stroke-dasharray:none"
         d="m 406.2475,481.64429 0.50781,3.10547 c -0.98959,0.20833 -1.87501,0.3125 -2.65625,0.3125 -1.27605,0 -2.26563,-0.20183 -2.96875,-0.60547 -0.70313,-0.40365 -1.19792,-0.93425 -1.48437,-1.5918 -0.28647,-0.65755 -0.4297,-2.04101 -0.42969,-4.15039 l 0,-11.93359 -2.57813,0 0,-2.73438 2.57813,0 0,-5.13672 3.49609,-2.10937 0,7.24609 3.53516,0 0,2.73438 -3.53516,0 0,12.1289 c -10e-6,1.00261 0.0618,1.64714 0.18555,1.9336 0.12369,0.28646 0.32551,0.51432 0.60547,0.68359 0.27994,0.16927 0.68033,0.25391 1.20117,0.25391 0.39061,0 0.90494,-0.0456 1.54297,-0.13672 z" />
      <path
         inkscape:connector-curvature="0"
         id="path3077"
         style="fill:none;stroke:#000000;stroke-opacity:0.39361703999999997;stroke-width:0.97046931;stroke-miterlimit:4;stroke-dasharray:none"
         d="m 423.86469,478.10913 3.63281,0.44922 c -0.57294,2.1224 -1.63414,3.76953 -3.1836,4.94141 -1.54949,1.17187 -3.52866,1.75781 -5.9375,1.75781 -3.03386,0 -5.43946,-0.93425 -7.21679,-2.80274 -1.77735,-1.86848 -2.66602,-4.48892 -2.66602,-7.86132 0,-3.48957 0.89844,-6.1979 2.69531,-8.125 1.79687,-1.92707 4.1276,-2.89061 6.99219,-2.89063 2.77342,2e-5 5.03905,0.94403 6.79688,2.83203 1.75779,1.88804 2.63669,4.54429 2.63672,7.96875 -3e-5,0.20835 -0.007,0.52085 -0.0195,0.9375 l -15.46875,0 c 0.13021,2.27866 0.77474,4.02345 1.9336,5.23438 1.15884,1.21094 2.60415,1.81641 4.33594,1.8164 1.28904,10e-6 2.3893,-0.33854 3.30078,-1.01562 0.91144,-0.67708 1.63409,-1.75781 2.16797,-3.24219 z m -11.54297,-5.68359 11.58203,0 c -0.15627,-1.74478 -0.59898,-3.05337 -1.32813,-3.92578 -1.1198,-1.35415 -2.57163,-2.03124 -4.35547,-2.03125 -1.61459,1e-5 -2.97201,0.54038 -4.07226,1.62109 -1.10027,1.08074 -1.70899,2.52606 -1.82617,4.33594 z" />
      <path
         inkscape:connector-curvature="0"
         id="path3079"
         style="fill:none;stroke:#000000;stroke-opacity:0.39361703999999997;stroke-width:0.97046931;stroke-miterlimit:4;stroke-dasharray:none"
         d="m 431.89203,484.78882 0,-20.74219 3.16406,0 0,3.14453 c 0.80729,-1.47133 1.55273,-2.44138 2.23633,-2.91015 0.68358,-0.46873 1.43554,-0.70311 2.25586,-0.70313 1.18488,2e-5 2.38931,0.37763 3.61328,1.13281 l -1.21094,3.26172 c -0.85938,-0.50779 -1.71876,-0.7617 -2.57812,-0.76172 -0.76824,2e-5 -1.45834,0.23114 -2.07031,0.69336 -0.61199,0.46226 -1.04819,1.10353 -1.3086,1.92383 -0.39063,1.25001 -0.58594,2.6172 -0.58594,4.10156 l 0,10.85938 z" />
      <path
         inkscape:connector-curvature="0"
         id="path3081"
         style="fill:none;stroke:#000000;stroke-opacity:0.39361703999999997;stroke-width:0.97046931;stroke-miterlimit:4;stroke-dasharray:none"
         d="m 464.06,481.64429 0.50781,3.10547 c -0.98959,0.20833 -1.87501,0.3125 -2.65625,0.3125 -1.27605,0 -2.26563,-0.20183 -2.96875,-0.60547 -0.70313,-0.40365 -1.19792,-0.93425 -1.48437,-1.5918 -0.28647,-0.65755 -0.4297,-2.04101 -0.42969,-4.15039 l 0,-11.93359 -2.57813,0 0,-2.73438 2.57813,0 0,-5.13672 3.49609,-2.10937 0,7.24609 3.53516,0 0,2.73438 -3.53516,0 0,12.1289 c -10e-6,1.00261 0.0618,1.64714 0.18555,1.9336 0.12369,0.28646 0.32551,0.51432 0.60547,0.68359 0.27994,0.16927 0.68033,0.25391 1.20117,0.25391 0.39061,0 0.90494,-0.0456 1.54297,-0.13672 z" />
      <path
         inkscape:connector-curvature="0"
         id="path3083"
         style="fill:none;stroke:#000000;stroke-opacity:0.39361703999999997;stroke-width:0.97046931;stroke-miterlimit:4;stroke-dasharray:none"
         d="m 481.67719,478.10913 3.63281,0.44922 c -0.57294,2.1224 -1.63414,3.76953 -3.1836,4.94141 -1.54949,1.17187 -3.52866,1.75781 -5.9375,1.75781 -3.03386,0 -5.43946,-0.93425 -7.21679,-2.80274 -1.77735,-1.86848 -2.66602,-4.48892 -2.66602,-7.86132 0,-3.48957 0.89844,-6.1979 2.69531,-8.125 1.79687,-1.92707 4.1276,-2.89061 6.99219,-2.89063 2.77342,2e-5 5.03905,0.94403 6.79688,2.83203 1.75779,1.88804 2.63669,4.54429 2.63672,7.96875 -3e-5,0.20835 -0.007,0.52085 -0.0195,0.9375 l -15.46875,0 c 0.13021,2.27866 0.77474,4.02345 1.9336,5.23438 1.15884,1.21094 2.60415,1.81641 4.33594,1.8164 1.28904,10e-6 2.3893,-0.33854 3.30078,-1.01562 0.91144,-0.67708 1.63409,-1.75781 2.16797,-3.24219 z m -11.54297,-5.68359 11.58203,0 c -0.15627,-1.74478 -0.59898,-3.05337 -1.32813,-3.92578 -1.1198,-1.35415 -2.57163,-2.03124 -4.35547,-2.03125 -1.61459,1e-5 -2.97201,0.54038 -4.07226,1.62109 -1.10027,1.08074 -1.70899,2.52606 -1.82617,4.33594 z" />
      <path
         inkscape:connector-curvature="0"
         id="path3085"
         style="fill:none;stroke:#000000;stroke-opacity:0.39361703999999997;stroke-width:0.97046931;stroke-miterlimit:4;stroke-dasharray:none"
         d="m 488.33734,478.59741 3.47656,-0.54687 c 0.19531,1.39323 0.73893,2.46094 1.63086,3.20312 0.89192,0.74219 2.13867,1.11329 3.74024,1.11328 1.61457,10e-6 2.81248,-0.32877 3.59375,-0.98632 0.78123,-0.65755 1.17186,-1.42904 1.17187,-2.31446 -1e-5,-0.79426 -0.34506,-1.41926 -1.03515,-1.875 -0.48179,-0.31249 -1.6797,-0.70963 -3.59375,-1.1914 -2.57814,-0.65104 -4.36524,-1.21419 -5.36133,-1.68946 -0.9961,-0.47525 -1.75131,-1.1328 -2.26563,-1.97265 -0.51432,-0.83983 -0.77148,-1.76757 -0.77148,-2.78321 0,-0.92446 0.21159,-1.78058 0.63476,-2.56836 0.42318,-0.78774 0.99935,-1.44203 1.72852,-1.96289 0.54687,-0.40362 1.29231,-0.74542 2.23633,-1.02539 0.944,-0.27992 1.95637,-0.4199 3.03711,-0.41992 1.62759,2e-5 3.05663,0.2344 4.28711,0.70313 1.23045,0.46877 2.13865,1.10353 2.72461,1.90429 0.58592,0.8008 0.98956,1.87176 1.21093,3.21289 l -3.4375,0.46875 c -0.15626,-1.06769 -0.60873,-1.90102 -1.35742,-2.5 -0.74871,-0.59894 -1.80665,-0.89842 -3.17383,-0.89843 -1.61459,1e-5 -2.76693,0.26694 -3.45703,0.80078 -0.69011,0.53387 -1.03516,1.15887 -1.03515,1.875 -1e-5,0.45574 0.14322,0.8659 0.42968,1.23047 0.28646,0.37761 0.73567,0.69011 1.34766,0.9375 0.35156,0.13022 1.38671,0.4297 3.10547,0.89843 2.48697,0.66408 4.22199,1.2077 5.20508,1.63086 0.98305,0.42319 1.75454,1.03842 2.31445,1.84571 0.55988,0.8073 0.83983,1.8099 0.83984,3.00781 -10e-6,1.17188 -0.34181,2.27539 -1.02539,3.31055 -0.68361,1.03515 -1.66993,1.83593 -2.95898,2.40234 -1.28908,0.56641 -2.74741,0.84961 -4.375,0.84961 -2.69532,0 -4.74936,-0.5599 -6.16211,-1.67969 -1.41276,-1.11979 -2.31446,-2.77994 -2.70508,-4.98047 z" />
      <path
         inkscape:connector-curvature="0"
         id="path3087"
         style="fill:none;stroke:#000000;stroke-opacity:0.39361703999999997;stroke-width:0.97046931;stroke-miterlimit:4;stroke-dasharray:none"
         d="m 517.41937,481.64429 0.50782,3.10547 c -0.9896,0.20833 -1.87501,0.3125 -2.65625,0.3125 -1.27605,0 -2.26564,-0.20183 -2.96875,-0.60547 -0.70313,-0.40365 -1.19793,-0.93425 -1.48438,-1.5918 -0.28646,-0.65755 -0.42969,-2.04101 -0.42969,-4.15039 l 0,-11.93359 -2.57812,0 0,-2.73438 2.57812,0 0,-5.13672 3.4961,-2.10937 0,7.24609 3.53515,0 0,2.73438 -3.53515,0 0,12.1289 c -10e-6,1.00261 0.0618,1.64714 0.18554,1.9336 0.12369,0.28646 0.32552,0.51432 0.60547,0.68359 0.27994,0.16927 0.68033,0.25391 1.20117,0.25391 0.39062,0 0.90494,-0.0456 1.54297,-0.13672 z" />
      <path
         inkscape:connector-curvature="0"
         id="path3089"
         style="fill:none;stroke:#000000;stroke-opacity:0.39361703999999997;stroke-width:0.97046931;stroke-miterlimit:4;stroke-dasharray:none"
         d="m 531.93109,492.73804 0,-28.69141 3.20313,0 0,2.69531 c 0.7552,-1.05467 1.60806,-1.84568 2.55859,-2.37304 0.95051,-0.52733 2.10285,-0.791 3.45703,-0.79102 1.77082,2e-5 3.33332,0.45575 4.6875,1.36719 1.35415,0.91148 2.37628,2.19728 3.06641,3.85742 0.69008,1.66017 1.03513,3.47983 1.03515,5.45898 -2e-5,2.12241 -0.38088,4.03321 -1.14257,5.73243 -0.76174,1.69922 -1.86851,3.0013 -3.32032,3.90625 -1.45183,0.90494 -2.97853,1.35742 -4.58007,1.35742 -1.17189,0 -2.22332,-0.2474 -3.1543,-0.74219 -0.931,-0.49479 -1.69597,-1.11979 -2.29492,-1.875 l 0,10.09766 z m 3.1836,-18.20313 c -10e-6,2.66928 0.54035,4.64193 1.62109,5.91797 1.08072,1.27605 2.38931,1.91407 3.92578,1.91406 1.56249,10e-6 2.90038,-0.6608 4.01367,-1.98242 1.11327,-1.32161 1.66991,-3.36913 1.66992,-6.14258 -10e-6,-2.64321 -0.54363,-4.62238 -1.63086,-5.9375 -1.08725,-1.31508 -2.38608,-1.97263 -3.89648,-1.97265 -1.49741,2e-5 -2.82227,0.69988 -3.97461,2.09961 -1.15235,1.39975 -1.72852,3.43425 -1.72851,6.10351 z" />
      <path
         inkscape:connector-curvature="0"
         id="path3091"
         style="fill:none;stroke:#000000;stroke-opacity:0.39361703999999997;stroke-width:0.97046931;stroke-miterlimit:4;stroke-dasharray:none"
         d="m 567.73187,482.23022 c -1.3021,1.10678 -2.55535,1.88803 -3.75976,2.34375 -1.20444,0.45573 -2.49676,0.6836 -3.87696,0.6836 -2.27865,0 -4.02995,-0.55664 -5.2539,-1.66992 -1.22396,-1.11328 -1.83594,-2.53581 -1.83594,-4.26758 0,-1.01562 0.23112,-1.94335 0.69336,-2.7832 0.46224,-0.83984 1.0677,-1.51367 1.81641,-2.02149 0.74869,-0.5078 1.59179,-0.89192 2.52929,-1.15234 0.6901,-0.18228 1.73177,-0.35806 3.125,-0.52735 2.83853,-0.33853 4.92837,-0.74217 6.26953,-1.21093 0.013,-0.48176 0.0195,-0.78775 0.0195,-0.91797 -2e-5,-1.43228 -0.33205,-2.44139 -0.9961,-3.02735 -0.89845,-0.79425 -2.23308,-1.19138 -4.0039,-1.1914 -1.65366,2e-5 -2.87436,0.28973 -3.66211,0.86914 -0.78777,0.57944 -1.37045,1.60483 -1.74805,3.07617 l -3.4375,-0.46875 c 0.3125,-1.47134 0.82682,-2.65949 1.54297,-3.56445 0.71614,-0.90493 1.75129,-1.60155 3.10547,-2.08985 1.35415,-0.48826 2.92316,-0.7324 4.70703,-0.73242 1.77082,2e-5 3.20962,0.20836 4.3164,0.625 1.10676,0.41669 1.92056,0.94078 2.44141,1.57227 0.52081,0.63153 0.8854,1.42905 1.09375,2.39257 0.11717,0.59898 0.17576,1.67971 0.17578,3.24219 l 0,4.6875 c -2e-5,3.26824 0.0748,5.33529 0.22461,6.20117 0.14972,0.86589 0.44594,1.69597 0.88867,2.49024 l -3.67187,0 c -0.3646,-0.72917 -0.59898,-1.58203 -0.70313,-2.5586 z m -0.29297,-7.85156 c -1.27605,0.52085 -3.19011,0.96355 -5.74218,1.32813 -1.44532,0.20834 -2.46746,0.44271 -3.06641,0.70312 -0.59896,0.26043 -1.0612,0.64129 -1.38672,1.14258 -0.32552,0.50131 -0.48829,1.05795 -0.48828,1.66992 -10e-6,0.93751 0.35481,1.71876 1.06445,2.34375 0.70963,0.625 1.74804,0.9375 3.11524,0.9375 1.35415,0 2.55858,-0.29622 3.61328,-0.88867 1.05467,-0.59244 1.82941,-1.40299 2.32422,-2.43164 0.37759,-0.79426 0.56639,-1.96614 0.5664,-3.51563 z" />
      <path
         inkscape:connector-curvature="0"
         id="path3093"
         style="fill:none;stroke:#000000;stroke-opacity:0.39361703999999997;stroke-width:0.97046931;stroke-miterlimit:4;stroke-dasharray:none"
         d="m 584.13812,481.64429 0.50782,3.10547 c -0.9896,0.20833 -1.87501,0.3125 -2.65625,0.3125 -1.27605,0 -2.26564,-0.20183 -2.96875,-0.60547 -0.70313,-0.40365 -1.19793,-0.93425 -1.48438,-1.5918 -0.28646,-0.65755 -0.42969,-2.04101 -0.42969,-4.15039 l 0,-11.93359 -2.57812,0 0,-2.73438 2.57812,0 0,-5.13672 3.4961,-2.10937 0,7.24609 3.53515,0 0,2.73438 -3.53515,0 0,12.1289 c -10e-6,1.00261 0.0618,1.64714 0.18554,1.9336 0.12369,0.28646 0.32552,0.51432 0.60547,0.68359 0.27994,0.16927 0.68033,0.25391 1.20117,0.25391 0.39062,0 0.90494,-0.0456 1.54297,-0.13672 z" />
      <path
         inkscape:connector-curvature="0"
         id="path3095"
         style="fill:none;stroke:#000000;stroke-opacity:0.39361703999999997;stroke-width:0.97046931;stroke-miterlimit:4;stroke-dasharray:none"
         d="m 595.23187,481.64429 0.50782,3.10547 c -0.9896,0.20833 -1.87501,0.3125 -2.65625,0.3125 -1.27605,0 -2.26564,-0.20183 -2.96875,-0.60547 -0.70313,-0.40365 -1.19793,-0.93425 -1.48438,-1.5918 -0.28646,-0.65755 -0.42969,-2.04101 -0.42969,-4.15039 l 0,-11.93359 -2.57812,0 0,-2.73438 2.57812,0 0,-5.13672 3.4961,-2.10937 0,7.24609 3.53515,0 0,2.73438 -3.53515,0 0,12.1289 c -10e-6,1.00261 0.0618,1.64714 0.18554,1.9336 0.12369,0.28646 0.32552,0.51432 0.60547,0.68359 0.27994,0.16927 0.68033,0.25391 1.20117,0.25391 0.39062,0 0.90494,-0.0456 1.54297,-0.13672 z" />
      <path
         inkscape:connector-curvature="0"
         id="path3097"
         style="fill:none;stroke:#000000;stroke-opacity:0.39361703999999997;stroke-width:0.97046931;stroke-miterlimit:4;stroke-dasharray:none"
         d="m 612.84906,478.10913 3.63281,0.44922 c -0.57293,2.1224 -1.63413,3.76953 -3.18359,4.94141 -1.5495,1.17187 -3.52866,1.75781 -5.9375,1.75781 -3.03386,0 -5.43946,-0.93425 -7.2168,-2.80274 -1.77734,-1.86848 -2.66602,-4.48892 -2.66601,-7.86132 -10e-6,-3.48957 0.89843,-6.1979 2.69531,-8.125 1.79687,-1.92707 4.12759,-2.89061 6.99219,-2.89063 2.77342,2e-5 5.03904,0.94403 6.79687,2.83203 1.75779,1.88804 2.6367,4.54429 2.63672,7.96875 -2e-5,0.20835 -0.007,0.52085 -0.0195,0.9375 l -15.46875,0 c 0.1302,2.27866 0.77473,4.02345 1.93359,5.23438 1.15885,1.21094 2.60416,1.81641 4.33594,1.8164 1.28905,10e-6 2.38931,-0.33854 3.30078,-1.01562 0.91144,-0.67708 1.6341,-1.75781 2.16797,-3.24219 z m -11.54297,-5.68359 11.58203,0 c -0.15626,-1.74478 -0.59897,-3.05337 -1.32812,-3.92578 -1.11981,-1.35415 -2.57163,-2.03124 -4.35547,-2.03125 -1.61459,1e-5 -2.97201,0.54038 -4.07227,1.62109 -1.10026,1.08074 -1.70899,2.52606 -1.82617,4.33594 z" />
      <path
         inkscape:connector-curvature="0"
         id="path3099"
         style="fill:none;stroke:#000000;stroke-opacity:0.39361703999999997;stroke-width:0.97046931;stroke-miterlimit:4;stroke-dasharray:none"
         d="m 620.8764,484.78882 0,-20.74219 3.16407,0 0,3.14453 c 0.80728,-1.47133 1.55272,-2.44138 2.23632,-2.91015 0.68359,-0.46873 1.43554,-0.70311 2.25586,-0.70313 1.18489,2e-5 2.38931,0.37763 3.61329,1.13281 l -1.21094,3.26172 c -0.85939,-0.50779 -1.71876,-0.7617 -2.57813,-0.76172 -0.76824,2e-5 -1.45834,0.23114 -2.07031,0.69336 -0.61199,0.46226 -1.04818,1.10353 -1.30859,1.92383 -0.39063,1.25001 -0.58595,2.6172 -0.58594,4.10156 l 0,10.85938 z" />
      <path
         inkscape:connector-curvature="0"
         id="path3101"
         style="fill:none;stroke:#000000;stroke-opacity:0.39361703999999997;stroke-width:0.97046931;stroke-miterlimit:4;stroke-dasharray:none"
         d="m 634.27484,484.78882 0,-20.74219 3.16406,0 0,2.94922 c 1.52343,-2.27863 3.72395,-3.41795 6.60157,-3.41797 1.24998,2e-5 2.39907,0.22463 3.44726,0.67383 1.04816,0.44924 1.83267,1.03843 2.35352,1.76758 0.52081,0.72918 0.8854,1.59507 1.09375,2.59765 0.13019,0.65106 0.19529,1.79038 0.19531,3.41797 l 0,12.75391 -3.51562,0 0,-12.61719 c -2e-5,-1.43228 -0.13674,-2.50324 -0.41016,-3.21289 -0.27345,-0.70962 -0.75848,-1.27602 -1.45508,-1.69922 -0.69663,-0.42316 -1.51368,-0.63475 -2.45117,-0.63476 -1.49741,1e-5 -2.78972,0.47527 -3.87695,1.42578 -1.08725,0.95053 -1.63087,2.75392 -1.63086,5.41015 l 0,11.32813 z" />
      <path
         inkscape:connector-curvature="0"
         id="path3103"
         style="fill:none;stroke:#000000;stroke-opacity:0.39361703999999997;stroke-width:0.97046931;stroke-miterlimit:4;stroke-dasharray:none"
         d="m 673.39594,484.78882 -7.89063,-20.74219 3.71094,0 4.45312,12.42188 c 0.48176,1.34115 0.92447,2.73438 1.32813,4.17968 0.31249,-1.09374 0.74868,-2.40884 1.30859,-3.94531 l 4.60938,-12.65625 3.61328,0 -7.85156,20.74219 z" />
      <path
         inkscape:connector-curvature="0"
         id="path3105"
         style="fill:none;stroke:#000000;stroke-opacity:0.39361703999999997;stroke-width:0.97046931;stroke-miterlimit:4;stroke-dasharray:none"
         d="m 686.65765,470.66772 c 0,-3.38539 0.34831,-6.11 1.04493,-8.17382 0.69661,-2.06378 1.73176,-3.65558 3.10546,-4.77539 1.3737,-1.11977 3.10221,-1.67966 5.18555,-1.67969 1.53645,3e-5 2.8841,0.30927 4.04297,0.92773 1.15884,0.61852 2.11587,1.51045 2.87109,2.67578 0.75519,1.16539 1.34764,2.58466 1.77735,4.25782 0.42966,1.67319 0.64451,3.92905 0.64453,6.76757 -2e-5,3.35939 -0.34507,6.07098 -1.03516,8.13477 -0.69012,2.06381 -1.72202,3.65886 -3.0957,4.78516 -1.37371,1.1263 -3.10874,1.68945 -5.20508,1.68945 -2.76042,0 -4.92839,-0.98958 -6.5039,-2.96875 -1.88803,-2.38281 -2.83204,-6.26301 -2.83204,-11.64063 z m 3.61329,0 c -10e-6,4.70053 0.55012,7.82879 1.65039,9.38477 1.10025,1.55599 2.45767,2.33399 4.07226,2.33398 1.61457,1e-5 2.97199,-0.78124 4.07227,-2.34375 1.10024,-1.56249 1.65037,-4.68749 1.65039,-9.375 -2e-5,-4.71352 -0.55015,-7.84503 -1.65039,-9.39453 -1.10028,-1.54945 -2.47072,-2.32419 -4.11133,-2.32422 -1.61459,3e-5 -2.90366,0.68362 -3.86719,2.05079 -1.21094,1.74481 -1.81641,4.96746 -1.8164,9.66796 z" />
      <path
         inkscape:connector-curvature="0"
         id="path3107"
         style="fill:none;stroke:#000000;stroke-opacity:0.39361703999999997;stroke-width:0.97046931;stroke-miterlimit:4;stroke-dasharray:none"
         d="m 710.89594,484.78882 0,-4.00391 4.0039,0 0,4.00391 z" />
      <path
         inkscape:connector-curvature="0"
         id="path3109"
         style="fill:none;stroke:#000000;stroke-opacity:0.39361703999999997;stroke-width:0.97046931;stroke-miterlimit:4;stroke-dasharray:none"
         d="m 738.49359,481.40991 0,3.37891 -18.92578,0 c -0.026,-0.84635 0.11068,-1.66016 0.41016,-2.44141 0.48177,-1.28906 1.25325,-2.55859 2.31445,-3.80859 1.06119,-1.24999 2.59439,-2.69531 4.59961,-4.33594 3.11197,-2.55207 5.21483,-4.57355 6.30859,-6.06445 1.09374,-1.49087 1.64061,-2.90037 1.64063,-4.22852 -2e-5,-1.3932 -0.49807,-2.56833 -1.49414,-3.52539 -0.99611,-0.957 -2.29494,-1.43552 -3.89649,-1.43555 -1.69272,3e-5 -3.04688,0.50784 -4.0625,1.52344 -1.01563,1.01565 -1.52995,2.4219 -1.54297,4.21875 l -3.61328,-0.37109 c 0.2474,-2.69529 1.17838,-4.74933 2.79297,-6.16211 1.61458,-1.41273 3.78254,-2.11911 6.50391,-2.11914 2.74738,3e-5 4.92186,0.76175 6.52344,2.28515 1.60154,1.52347 2.40232,3.41149 2.40234,5.66407 -2e-5,1.14585 -0.2344,2.27215 -0.70313,3.3789 -0.46877,1.10679 -1.24676,2.27215 -2.33398,3.4961 -1.08726,1.22397 -2.89389,2.90365 -5.41992,5.03906 -2.10939,1.77084 -3.46355,2.97201 -4.0625,3.60352 -0.59897,0.63151 -1.09376,1.26628 -1.48438,1.90429 z" />
    </g>
    <g
       transform="translate(59.642425,383.27192)"
       style="font-size:40px;font-style:normal;font-weight:normal;line-height:125%;letter-spacing:0px;word-spacing:0px;fill:none;stroke:#000000;stroke-opacity:1;font-family:Sans"
       id="text3879">
      <path
         d="m 714.90674,134.72954 0,3.3789 -18.92578,0 c -0.026,-0.84635 0.11067,-1.66015 0.41015,-2.4414 0.48177,-1.28906 1.25326,-2.55859 2.31446,-3.8086 1.06119,-1.24999 2.59439,-2.6953 4.59961,-4.33593 3.11196,-2.55207 5.21483,-4.57356 6.30859,-6.06446 1.09373,-1.49086 1.64061,-2.90037 1.64062,-4.22851 -10e-6,-1.39321 -0.49806,-2.56834 -1.49414,-3.52539 -0.9961,-0.95701 -2.29493,-1.43552 -3.89648,-1.43555 -1.69272,3e-5 -3.04688,0.50784 -4.0625,1.52344 -1.01563,1.01565 -1.52995,2.42189 -1.54297,4.21875 l -3.61328,-0.3711 c 0.24739,-2.69529 1.17838,-4.74932 2.79297,-6.16211 1.61458,-1.41273 3.78254,-2.11911 6.5039,-2.11914 2.74739,3e-5 4.92186,0.76175 6.52344,2.28516 1.60155,1.52346 2.40233,3.41148 2.40235,5.66406 -2e-5,1.14586 -0.2344,2.27216 -0.70313,3.37891 -0.46877,1.10679 -1.24676,2.27215 -2.33398,3.49609 -1.08726,1.22397 -2.8939,2.90366 -5.41993,5.03907 -2.10938,1.77084 -3.46355,2.97201 -4.0625,3.60351 -0.59896,0.63152 -1.09375,1.26628 -1.48437,1.9043 z"
         id="path3884"
         inkscape:connector-curvature="0" />
      <path
         d="m 718.6958,123.98735 c 0,-3.3854 0.34831,-6.11001 1.04492,-8.17383 0.69661,-2.06378 1.73177,-3.65557 3.10547,-4.77539 1.37369,-1.11976 3.10221,-1.67966 5.18555,-1.67969 1.53644,3e-5 2.8841,0.30928 4.04297,0.92774 1.15884,0.61852 2.11587,1.51044 2.87109,2.67578 0.75519,1.16539 1.34764,2.58466 1.77734,4.25781 0.42967,1.6732 0.64452,3.92906 0.64454,6.76758 -2e-5,3.35939 -0.34508,6.07097 -1.03516,8.13477 -0.69012,2.0638 -1.72202,3.65885 -3.0957,4.78515 -1.37372,1.1263 -3.10874,1.68945 -5.20508,1.68946 -2.76043,-1e-5 -4.92839,-0.98959 -6.50391,-2.96875 -1.88802,-2.38281 -2.83203,-6.26302 -2.83203,-11.64063 z m 3.61328,0 c 0,4.70053 0.55013,7.82878 1.65039,9.38477 1.10026,1.55599 2.45768,2.33398 4.07227,2.33398 1.61457,0 2.97199,-0.78125 4.07226,-2.34375 1.10025,-1.56249 1.65038,-4.68749 1.65039,-9.375 -10e-6,-4.71352 -0.55014,-7.84503 -1.65039,-9.39453 -1.10027,-1.54945 -2.47071,-2.32419 -4.11132,-2.32422 -1.6146,3e-5 -2.90366,0.68362 -3.86719,2.05078 -1.21095,1.74482 -1.81641,4.96747 -1.81641,9.66797 z"
         id="path3886"
         inkscape:connector-curvature="0" />
      <path
         d="m 740.96143,123.98735 c -10e-6,-3.3854 0.3483,-6.11001 1.04492,-8.17383 0.69661,-2.06378 1.73176,-3.65557 3.10547,-4.77539 1.37369,-1.11976 3.1022,-1.67966 5.18554,-1.67969 1.53645,3e-5 2.8841,0.30928 4.04297,0.92774 1.15884,0.61852 2.11587,1.51044 2.8711,2.67578 0.75519,1.16539 1.34763,2.58466 1.77734,4.25781 0.42967,1.6732 0.64451,3.92906 0.64453,6.76758 -2e-5,3.35939 -0.34507,6.07097 -1.03516,8.13477 -0.69012,2.0638 -1.72202,3.65885 -3.0957,4.78515 -1.37371,1.1263 -3.10874,1.68945 -5.20508,1.68946 -2.76042,-1e-5 -4.92839,-0.98959 -6.5039,-2.96875 -1.88803,-2.38281 -2.83204,-6.26302 -2.83203,-11.64063 z m 3.61328,0 c -10e-6,4.70053 0.55012,7.82878 1.65039,9.38477 1.10025,1.55599 2.45767,2.33398 4.07226,2.33398 1.61457,0 2.97199,-0.78125 4.07227,-2.34375 1.10024,-1.56249 1.65037,-4.68749 1.65039,-9.375 -2e-5,-4.71352 -0.55015,-7.84503 -1.65039,-9.39453 -1.10028,-1.54945 -2.47072,-2.32419 -4.11133,-2.32422 -1.61459,3e-5 -2.90365,0.68362 -3.86719,2.05078 -1.21094,1.74482 -1.81641,4.96747 -1.8164,9.66797 z"
         id="path3888"
         inkscape:connector-curvature="0" />
      <path
         d="m 764.20361,138.10844 0,-20.74218 3.14453,0 0,2.91015 c 0.65104,-1.0156 1.51692,-1.83266 2.59766,-2.45117 1.08072,-0.61847 2.31119,-0.92771 3.69141,-0.92773 1.53644,2e-5 2.79621,0.31903 3.77929,0.95703 0.98306,0.63804 1.67642,1.52996 2.08008,2.67578 1.64061,-2.42186 3.77602,-3.63279 6.40625,-3.63281 2.05727,2e-5 3.6393,0.56968 4.7461,1.70898 1.10674,1.13934 1.66012,2.8939 1.66015,5.26367 l 0,14.23828 -3.49609,0 0,-13.0664 c -3e-5,-1.40624 -0.11396,-2.41861 -0.3418,-3.03711 -0.22789,-0.61847 -0.6413,-1.11652 -1.24023,-1.49414 -0.59899,-0.37759 -1.30211,-0.56639 -2.10938,-0.56641 -1.45835,2e-5 -2.66929,0.48505 -3.63281,1.45508 -0.96356,0.97007 -1.44533,2.5228 -1.44531,4.6582 l 0,12.05078 -3.51563,0 0,-13.47656 c -10e-6,-1.56248 -0.28647,-2.73436 -0.85937,-3.51562 -0.57293,-0.78124 -1.51043,-1.17186 -2.8125,-1.17188 -0.9896,2e-5 -1.90431,0.26044 -2.74414,0.78125 -0.83986,0.52085 -1.44858,1.28257 -1.82618,2.28516 -0.37761,1.00262 -0.56641,2.44793 -0.5664,4.33594 l 0,10.76171 z"
         id="path3890"
         inkscape:connector-curvature="0" />
      <path
         d="m 797.56299,138.10844 0,-20.74218 3.14453,0 0,2.91015 c 0.65103,-1.0156 1.51692,-1.83266 2.59766,-2.45117 1.08072,-0.61847 2.31118,-0.92771 3.6914,-0.92773 1.53645,2e-5 2.79621,0.31903 3.7793,0.95703 0.98305,0.63804 1.67641,1.52996 2.08008,2.67578 1.6406,-2.42186 3.77602,-3.63279 6.40625,-3.63281 2.05726,2e-5 3.63929,0.56968 4.74609,1.70898 1.10674,1.13934 1.66013,2.8939 1.66016,5.26367 l 0,14.23828 -3.4961,0 0,-13.0664 c -2e-5,-1.40624 -0.11396,-2.41861 -0.34179,-3.03711 -0.22789,-0.61847 -0.64131,-1.11652 -1.24024,-1.49414 -0.59898,-0.37759 -1.30211,-0.56639 -2.10937,-0.56641 -1.45836,2e-5 -2.66929,0.48505 -3.63282,1.45508 -0.96356,0.97007 -1.44533,2.5228 -1.44531,4.6582 l 0,12.05078 -3.51562,0 0,-13.47656 c -2e-5,-1.56248 -0.28648,-2.73436 -0.85938,-3.51562 -0.57293,-0.78124 -1.51043,-1.17186 -2.8125,-1.17188 -0.98959,2e-5 -1.9043,0.26044 -2.74414,0.78125 -0.83985,0.52085 -1.44857,1.28257 -1.82617,2.28516 -0.37761,1.00262 -0.56641,2.44793 -0.56641,4.33594 l 0,10.76171 z"
         id="path3892"
         inkscape:connector-curvature="0" />
    </g>
    <rect
       style="fill:none;stroke:#000000;stroke-width:1;stroke-linejoin:round;stroke-miterlimit:4;stroke-opacity:1;stroke-dasharray:none"
       id="rect3047"
       width="1054.1338"
       height="748.32227"
       x="0"
       y="-1.4092668"
       transform="translate(0,308.2677)" />
  </g>
  <eggbot
     id="eggbot2990"
     totaldeltay="0"
     totaldeltax="0"
     lastpathnc="0"
     lastpath="0"
     node="0"
     layer="0"
     serialport="COM3" />
</svg>
