<?xml version="1.0" encoding="UTF-8" standalone="no"?>
<!-- Created with Inkscape (http://www.inkscape.org/) -->

<svg
   xmlns:dc="http://purl.org/dc/elements/1.1/"
   xmlns:cc="http://creativecommons.org/ns#"
   xmlns:rdf="http://www.w3.org/1999/02/22-rdf-syntax-ns#"
   xmlns:svg="http://www.w3.org/2000/svg"
   xmlns="http://www.w3.org/2000/svg"
   xmlns:sodipodi="http://sodipodi.sourceforge.net/DTD/sodipodi-0.dtd"
   xmlns:inkscape="http://www.inkscape.org/namespaces/inkscape"
   width="1488.189"
   height="1052.3622"
   id="svg2"
   version="1.1"
   inkscape:version="0.48.4 r9939"
   sodipodi:docname="_testPattern0.3.svg">
  <defs
     id="defs4" />
  <sodipodi:namedview
     id="base"
     pagecolor="#ffffff"
     bordercolor="#666666"
     borderopacity="1.0"
     inkscape:pageopacity="0.0"
     inkscape:pageshadow="2"
     inkscape:zoom="0.50172841"
     inkscape:cx="433.16929"
     inkscape:cy="526.18109"
     inkscape:document-units="px"
     inkscape:current-layer="layer1"
     showgrid="false"
     units="mm"
     inkscape:window-width="1366"
     inkscape:window-height="715"
     inkscape:window-x="-8"
     inkscape:window-y="-8"
     inkscape:window-maximized="1" />
  <metadata
     id="metadata7">
    <rdf:RDF>
      <cc:Work
         rdf:about="">
        <dc:format>image/svg+xml</dc:format>
        <dc:type
           rdf:resource="http://purl.org/dc/dcmitype/StillImage" />
        <dc:title></dc:title>
      </cc:Work>
    </rdf:RDF>
  </metadata>
  <g
     inkscape:label="Layer 1"
     inkscape:groupmode="layer"
     id="layer1"
     transform="translate(0,0.00235341)">
    <path
       style="fill:none;stroke:#000000;stroke-width:3.40522718;stroke-linejoin:round;stroke-miterlimit:4;stroke-opacity:1"
       d="m 214.30103,173.55066 1059.58687,0 0,705.25616 -1059.58687,0 z"
       id="rect3000" />
    <path
       style="color:#000000;fill:#e40000;fill-opacity:1;fill-rule:nonzero;stroke:#5d0000;stroke-width:1.31994283;stroke-linecap:butt;stroke-linejoin:miter;stroke-miterlimit:4;stroke-opacity:1;stroke-dasharray:none;stroke-dashoffset:0;marker:none;visibility:visible;display:inline;overflow:visible;enable-background:accumulate"
       d="m 744.75446,96.326897 0,884.506823"
       id="path3002"
       inkscape:connector-curvature="0" />
    <path
       transform="matrix(1.2610839,0,0,1.2610839,-11.206027,22.226166)"
       style="fill:none;stroke:#000000;stroke-width:3.54330707;stroke-linejoin:round;stroke-miterlimit:4;stroke-opacity:1"
       d="m 709.54723,399.61859 c 0,61.09242 -49.52519,110.61761 -110.6176,110.61761 -61.09242,0 -110.61761,-49.52519 -110.61761,-110.61761 0,-61.09242 49.52519,-110.61761 110.61761,-110.61761 61.09241,0 110.6176,49.52519 110.6176,110.61761 z"
       id="path3004" />
    <g
       transform="translate(0,-0.00235341)"
       style="font-size:50px;font-style:normal;font-variant:normal;font-weight:normal;font-stretch:normal;line-height:125%;letter-spacing:0px;word-spacing:0px;fill:none;fill-opacity:1;stroke:#000000;font-family:Verdana;-inkscape-font-specification:Verdana;stroke-opacity:1"
       id="text3006">
      <path
         d="m 288.76318,259.10434 -14.35547,0 0,-3.71094 4.76075,0 0,-28.93066 -4.76075,0 0,-3.71094 14.35547,0 0,3.71094 -4.76074,0 0,28.93066 4.76074,0 z"
         style="fill:none;stroke:#000000;stroke-opacity:1"
         id="path3013" />
      <path
         d="m 306.19482,252.14633 -6.88476,15.99121 -3.56445,0 4.24804,-15.99121 z"
         style="fill:none;stroke:#000000;stroke-opacity:1"
         id="path3015" />
      <path
         d="m 347.08838,225.55942 -0.24414,0 c -0.50458,-0.14645 -1.16376,-0.29701 -1.97754,-0.45166 -0.81382,-0.15459 -1.52996,-0.2319 -2.14844,-0.23194 -1.96941,4e-5 -3.39763,0.43542 -4.28467,1.30616 -0.88705,0.8708 -1.33057,2.4455 -1.33056,4.72412 l 0,0.92773 8.27636,0 0,3.85742 -8.12988,0 0,23.41309 -4.58984,0 0,-23.41309 -3.10059,0 0,-3.85742 3.10059,0 0,-0.90332 c -1e-5,-3.2389 0.80566,-5.72506 2.41699,-7.45849 1.61132,-1.73337 3.93879,-2.60006 6.98242,-2.6001 1.02538,4e-5 1.94904,0.0489 2.771,0.14648 0.82192,0.0977 1.57469,0.21163 2.2583,0.3418 z"
         style="fill:none;stroke:#000000;stroke-opacity:1"
         id="path3017" />
      <path
         d="m 373.23584,245.48129 c -3e-5,4.44337 -1.13935,7.95085 -3.41797,10.52246 -2.27867,2.57162 -5.33042,3.85742 -9.15527,3.85743 -3.85744,-10e-6 -6.9214,-1.28581 -9.1919,-3.85743 -2.27051,-2.57161 -3.40576,-6.07909 -3.40576,-10.52246 0,-4.44334 1.13525,-7.95489 3.40576,-10.53467 2.2705,-2.57972 5.33446,-3.8696 9.1919,-3.86962 3.82485,2e-5 6.8766,1.2899 9.15527,3.86962 2.27862,2.57978 3.41794,6.09133 3.41797,10.53467 z m -4.73633,0 c -2e-5,-3.53188 -0.69175,-6.15639 -2.07519,-7.87353 -1.38349,-1.7171 -3.30406,-2.57566 -5.76172,-2.57569 -2.49025,3e-5 -4.42303,0.85859 -5.79834,2.57569 -1.37534,1.71714 -2.063,4.34165 -2.06299,7.87353 -10e-6,3.41798 0.69172,6.00994 2.07519,7.77588 1.38346,1.76596 3.31217,2.64893 5.78614,2.64893 2.44139,0 4.35789,-0.87484 5.74951,-2.62451 1.39158,-1.74967 2.08738,-4.34977 2.0874,-7.8003 z"
         style="fill:none;stroke:#000000;stroke-opacity:1"
         id="path3019" />
      <path
         d="m 397.38135,236.83871 -0.24414,0 c -0.68362,-0.16273 -1.34687,-0.28073 -1.98975,-0.354 -0.64292,-0.0732 -1.40383,-0.10984 -2.28271,-0.10986 -1.41604,2e-5 -2.78322,0.31333 -4.10157,0.93994 -1.31837,0.62665 -2.5879,1.43638 -3.80859,2.4292 l 0,19.36035 -4.58984,0 0,-27.27051 4.58984,0 0,4.02832 c 1.82291,-1.46482 3.43016,-2.50241 4.82178,-3.11279 1.39158,-0.61033 2.81167,-0.9155 4.26025,-0.91553 0.79751,3e-5 1.37531,0.0204 1.7334,0.061 0.35805,0.0407 0.89516,0.11803 1.61133,0.23193 z"
         style="fill:none;stroke:#000000;stroke-opacity:1"
         id="path3021" />
      <path
         d="m 442.57178,245.48129 c -3e-5,4.44337 -1.13935,7.95085 -3.41797,10.52246 -2.27867,2.57162 -5.33042,3.85742 -9.15527,3.85743 -3.85744,-10e-6 -6.9214,-1.28581 -9.1919,-3.85743 -2.27051,-2.57161 -3.40576,-6.07909 -3.40576,-10.52246 0,-4.44334 1.13525,-7.95489 3.40576,-10.53467 2.2705,-2.57972 5.33446,-3.8696 9.1919,-3.86962 3.82485,2e-5 6.8766,1.2899 9.15527,3.86962 2.27862,2.57978 3.41794,6.09133 3.41797,10.53467 z m -4.73633,0 c -2e-5,-3.53188 -0.69175,-6.15639 -2.0752,-7.87353 -1.38348,-1.7171 -3.30405,-2.57566 -5.76171,-2.57569 -2.49025,3e-5 -4.42303,0.85859 -5.79834,2.57569 -1.37534,1.71714 -2.063,4.34165 -2.06299,7.87353 -10e-6,3.41798 0.69172,6.00994 2.07519,7.77588 1.38346,1.76596 3.31216,2.64893 5.78614,2.64893 2.44138,0 4.35789,-0.87484 5.74951,-2.62451 1.39158,-1.74967 2.08738,-4.34977 2.0874,-7.8003 z"
         style="fill:none;stroke:#000000;stroke-opacity:1"
         id="path3023" />
      <path
         d="m 472.50342,259.10434 -4.58985,0 0,-15.52734 c -2e-5,-1.25324 -0.0733,-2.42919 -0.21972,-3.52784 -0.14651,-1.09861 -0.41506,-1.95717 -0.80567,-2.57568 -0.40692,-0.68357 -0.99286,-1.1922 -1.75781,-1.52588 -0.76499,-0.33363 -1.75783,-0.50046 -2.97851,-0.50049 -1.25328,3e-5 -2.5635,0.30927 -3.93067,0.92774 -1.3672,0.61851 -2.67742,1.4079 -3.93066,2.36816 l 0,20.36133 -4.58985,0 0,-27.27051 4.58985,0 0,3.02735 c 1.43228,-1.18813 2.9134,-2.11586 4.44336,-2.78321 1.52993,-0.66729 3.10057,-1.00095 4.71191,-1.00097 2.94594,2e-5 5.19203,0.88707 6.73828,2.66113 1.5462,1.77411 2.31931,4.32945 2.31934,7.66601 z"
         style="fill:none;stroke:#000000;stroke-opacity:1"
         id="path3025" />
      <path
         d="m 504.16846,245.94516 -20.09278,0 c 0,1.67644 0.25227,3.13722 0.75684,4.38232 0.50455,1.24513 1.19628,2.26645 2.07519,3.06397 0.84635,0.78125 1.85139,1.36719 3.01514,1.75781 1.16372,0.39063 2.44546,0.58594 3.84522,0.58594 1.85545,0 3.72312,-0.37028 5.60302,-1.11084 1.87986,-0.74056 3.21857,-1.46891 4.01612,-2.18506 l 0.24414,0 0,5.00488 c -1.54625,0.65105 -3.12503,1.19629 -4.73633,1.63575 -1.61135,0.43945 -3.30406,0.65917 -5.07813,0.65918 -4.52475,-10e-6 -8.05665,-1.22478 -10.5957,-3.67432 -2.53906,-2.44954 -3.80859,-5.92854 -3.80859,-10.43701 0,-4.45962 1.21663,-7.99966 3.6499,-10.62012 2.43326,-2.62042 5.63557,-3.93064 9.60693,-3.93066 3.67837,2e-5 6.51447,1.07424 8.5083,3.22265 1.99379,2.14846 2.9907,5.20022 2.99073,9.15528 z m -4.46778,-3.51563 c -0.0163,-2.40883 -0.62258,-4.27244 -1.81884,-5.59082 -1.19631,-1.31833 -3.01516,-1.97751 -5.45655,-1.97753 -2.45769,2e-5 -4.41488,0.7243 -5.87158,2.17285 -1.45671,1.44859 -2.28272,3.24709 -2.47803,5.3955 z"
         style="fill:none;stroke:#000000;stroke-opacity:1"
         id="path3027" />
      <path
         d="m 520.64795,252.14633 -6.88477,15.99121 -3.56445,0 4.24805,-15.99121 z"
         style="fill:none;stroke:#000000;stroke-opacity:1"
         id="path3029" />
      <path
         d="m 581.17041,231.83383 -7.10449,27.27051 -4.24805,0 -7.00683,-21.02051 -6.95801,21.02051 -4.22364,0 -7.17773,-27.27051 4.78516,0 5.00488,21.11817 6.81152,-21.11817 3.78418,0 6.98242,21.11817 4.73633,-21.11817 z"
         style="fill:none;stroke:#000000;stroke-opacity:1"
         id="path3031" />
      <path
         d="m 610.61377,245.94516 -20.09277,0 c -10e-6,1.67644 0.25227,3.13722 0.75683,4.38232 0.50455,1.24513 1.19628,2.26645 2.0752,3.06397 0.84634,0.78125 1.85139,1.36719 3.01513,1.75781 1.16373,0.39063 2.44546,0.58594 3.84522,0.58594 1.85545,0 3.72312,-0.37028 5.60303,-1.11084 1.87985,-0.74056 3.21856,-1.46891 4.01611,-2.18506 l 0.24414,0 0,5.00488 c -1.54625,0.65105 -3.12502,1.19629 -4.73633,1.63575 -1.61135,0.43945 -3.30405,0.65917 -5.07812,0.65918 -4.52476,-10e-6 -8.05665,-1.22478 -10.59571,-3.67432 -2.53906,-2.44954 -3.80859,-5.92854 -3.80859,-10.43701 0,-4.45962 1.21663,-7.99966 3.6499,-10.62012 2.43326,-2.62042 5.63557,-3.93064 9.60694,-3.93066 3.67836,2e-5 6.51446,1.07424 8.5083,3.22265 1.99379,2.14846 2.99069,5.20022 2.99072,9.15528 z m -4.46777,-3.51563 c -0.0163,-2.40883 -0.62258,-4.27244 -1.81885,-5.59082 -1.19631,-1.31833 -3.01516,-1.97751 -5.45654,-1.97753 -2.4577,2e-5 -4.41489,0.7243 -5.87159,2.17285 -1.45671,1.44859 -2.28272,3.24709 -2.47802,5.3955 z"
         style="fill:none;stroke:#000000;stroke-opacity:1"
         id="path3033" />
      <path
         d="m 622.21045,259.10434 -4.58984,0 0,-37.98828 4.58984,0 z"
         style="fill:none;stroke:#000000;stroke-opacity:1"
         id="path3035" />
      <path
         d="m 651.31201,257.39536 c -1.52997,0.73242 -2.9826,1.30208 -4.35791,1.70898 -1.37534,0.4069 -2.83612,0.61035 -4.38232,0.61035 -1.96942,0 -3.77606,-0.2889 -5.41992,-0.8667 -1.64389,-0.5778 -3.05177,-1.45263 -4.22364,-2.62451 -1.18815,-1.17187 -2.10775,-2.65299 -2.75879,-4.44336 -0.65104,-1.79035 -0.97656,-3.88182 -0.97656,-6.27441 0,-4.45962 1.22477,-7.95897 3.67432,-10.49805 2.44953,-2.53904 5.68439,-3.80857 9.70459,-3.80859 1.56248,2e-5 3.0965,0.21975 4.60205,0.65918 1.50551,0.43948 2.8849,0.97658 4.13818,1.61132 l 0,5.10254 -0.24414,0 c -1.39976,-1.09047 -2.84426,-1.92869 -4.3335,-2.51465 -1.48927,-0.58591 -2.94191,-0.87888 -4.35791,-0.8789 -2.60417,2e-5 -4.65902,0.87486 -6.16455,2.62451 -1.50554,1.74969 -2.2583,4.31724 -2.2583,7.70264 0,3.28777 0.73649,5.81462 2.20948,7.58056 1.47297,1.76596 3.54409,2.64893 6.21337,2.64893 0.92772,0 1.87173,-0.12207 2.83204,-0.36621 0.96026,-0.24414 1.82289,-0.56152 2.58789,-0.95215 0.66729,-0.34179 1.29392,-0.70393 1.87988,-1.08643 0.58591,-0.38248 1.04978,-0.71207 1.3916,-0.98877 l 0.24414,0 z"
         style="fill:none;stroke:#000000;stroke-opacity:1"
         id="path3037" />
      <path
         d="m 680.4624,245.48129 c -3e-5,4.44337 -1.13935,7.95085 -3.41797,10.52246 -2.27866,2.57162 -5.33042,3.85742 -9.15527,3.85743 -3.85743,-10e-6 -6.92139,-1.28581 -9.19189,-3.85743 -2.27052,-2.57161 -3.40577,-6.07909 -3.40577,-10.52246 0,-4.44334 1.13525,-7.95489 3.40577,-10.53467 2.2705,-2.57972 5.33446,-3.8696 9.19189,-3.86962 3.82485,2e-5 6.87661,1.2899 9.15527,3.86962 2.27862,2.57978 3.41794,6.09133 3.41797,10.53467 z m -4.73633,0 c -2e-5,-3.53188 -0.69175,-6.15639 -2.07519,-7.87353 -1.38348,-1.7171 -3.30406,-2.57566 -5.76172,-2.57569 -2.49025,3e-5 -4.42302,0.85859 -5.79834,2.57569 -1.37533,1.71714 -2.063,4.34165 -2.06299,7.87353 -10e-6,3.41798 0.69173,6.00994 2.0752,7.77588 1.38345,1.76596 3.31216,2.64893 5.78613,2.64893 2.44139,0 4.35789,-0.87484 5.74951,-2.62451 1.39158,-1.74967 2.08738,-4.34977 2.0874,-7.8003 z"
         style="fill:none;stroke:#000000;stroke-opacity:1"
         id="path3039" />
      <path
         d="m 727.38623,259.10434 -4.58984,0 0,-15.52734 c -4e-5,-1.17186 -0.0529,-2.30305 -0.15869,-3.39356 -0.10584,-1.09047 -0.32963,-1.96124 -0.67139,-2.6123 -0.37439,-0.69985 -0.9115,-1.22882 -1.61133,-1.58692 -0.69991,-0.35805 -1.70902,-0.53708 -3.02734,-0.53711 -1.28584,3e-5 -2.57165,0.32148 -3.85743,0.96436 -1.28583,0.64292 -2.57164,1.46079 -3.85742,2.45361 0.0488,0.37437 0.0895,0.80975 0.12207,1.30615 0.0325,0.49644 0.0488,0.98879 0.0488,1.47705 l 0,17.45606 -4.58984,0 0,-15.52734 c -2e-5,-1.20441 -0.0529,-2.34781 -0.15869,-3.43018 -0.10582,-1.08234 -0.32962,-1.94904 -0.67139,-2.6001 -0.37437,-0.69985 -0.91148,-1.22475 -1.61133,-1.5747 -0.69989,-0.34992 -1.709,-0.52488 -3.02734,-0.52491 -1.25327,3e-5 -2.5106,0.30927 -3.77198,0.92774 -1.2614,0.61851 -2.51872,1.4079 -3.77197,2.36816 l 0,20.36133 -4.58984,0 0,-27.27051 4.58984,0 0,3.02735 c 1.43228,-1.18813 2.8605,-2.11586 4.28467,-2.78321 1.42414,-0.66729 2.94188,-1.00095 4.55322,-1.00097 1.85545,2e-5 3.43016,0.39065 4.72412,1.17187 1.29393,0.78128 2.25828,1.86363 2.89307,3.24707 1.85544,-1.56247 3.54815,-2.68959 5.07813,-3.38135 1.52991,-0.6917 3.16565,-1.03757 4.90722,-1.03759 2.99476,2e-5 5.20423,0.90741 6.62842,2.72216 1.42411,1.81481 2.13619,4.3498 2.13623,7.60498 z"
         style="fill:none;stroke:#000000;stroke-opacity:1"
         id="path3041" />
      <path
         d="m 759.05127,245.94516 -20.09277,0 c -10e-6,1.67644 0.25227,3.13722 0.75683,4.38232 0.50455,1.24513 1.19628,2.26645 2.0752,3.06397 0.84634,0.78125 1.85139,1.36719 3.01513,1.75781 1.16373,0.39063 2.44546,0.58594 3.84522,0.58594 1.85545,0 3.72312,-0.37028 5.60303,-1.11084 1.87985,-0.74056 3.21856,-1.46891 4.01611,-2.18506 l 0.24414,0 0,5.00488 c -1.54625,0.65105 -3.12502,1.19629 -4.73633,1.63575 -1.61135,0.43945 -3.30405,0.65917 -5.07812,0.65918 -4.52476,-10e-6 -8.05665,-1.22478 -10.59571,-3.67432 -2.53906,-2.44954 -3.80859,-5.92854 -3.80859,-10.43701 0,-4.45962 1.21663,-7.99966 3.6499,-10.62012 2.43326,-2.62042 5.63557,-3.93064 9.60694,-3.93066 3.67836,2e-5 6.51446,1.07424 8.5083,3.22265 1.99379,2.14846 2.99069,5.20022 2.99072,9.15528 z m -4.46777,-3.51563 c -0.0163,-2.40883 -0.62258,-4.27244 -1.81885,-5.59082 -1.19631,-1.31833 -3.01516,-1.97751 -5.45654,-1.97753 -2.4577,2e-5 -4.41489,0.7243 -5.87159,2.17285 -1.45671,1.44859 -2.28272,3.24709 -2.47802,5.3955 z"
         style="fill:none;stroke:#000000;stroke-opacity:1"
         id="path3043" />
      <path
         d="m 806.82959,245.48129 c -3e-5,4.44337 -1.13935,7.95085 -3.41797,10.52246 -2.27867,2.57162 -5.33042,3.85742 -9.15527,3.85743 -3.85744,-10e-6 -6.9214,-1.28581 -9.1919,-3.85743 -2.27051,-2.57161 -3.40576,-6.07909 -3.40576,-10.52246 0,-4.44334 1.13525,-7.95489 3.40576,-10.53467 2.2705,-2.57972 5.33446,-3.8696 9.1919,-3.86962 3.82485,2e-5 6.8766,1.2899 9.15527,3.86962 2.27862,2.57978 3.41794,6.09133 3.41797,10.53467 z m -4.73633,0 c -2e-5,-3.53188 -0.69175,-6.15639 -2.07519,-7.87353 -1.38349,-1.7171 -3.30406,-2.57566 -5.76172,-2.57569 -2.49025,3e-5 -4.42303,0.85859 -5.79834,2.57569 -1.37534,1.71714 -2.063,4.34165 -2.06299,7.87353 -1e-5,3.41798 0.69172,6.00994 2.07519,7.77588 1.38346,1.76596 3.31217,2.64893 5.78614,2.64893 2.44139,0 4.35789,-0.87484 5.74951,-2.62451 1.39158,-1.74967 2.08738,-4.34977 2.0874,-7.8003 z"
         style="fill:none;stroke:#000000;stroke-opacity:1"
         id="path3045" />
      <path
         d="m 836.56592,259.10434 -4.58985,0 0,-3.02734 c -1.54624,1.2207 -3.02736,2.15657 -4.44336,2.80761 -1.41603,0.65104 -2.97853,0.97656 -4.6875,0.97657 -2.86459,-10e-6 -5.0944,-0.87484 -6.68945,-2.62452 -1.59506,-1.74967 -2.39258,-4.31721 -2.39258,-7.70263 l 0,-17.7002 4.58985,0 0,15.52735 c -10e-6,1.38347 0.0651,2.56755 0.19531,3.55224 0.1302,0.98471 0.40689,1.82699 0.83008,2.52686 0.43944,0.71615 1.0091,1.23698 1.70898,1.5625 0.69986,0.32552 1.71711,0.48828 3.05176,0.48828 1.18814,0 2.48615,-0.30924 3.89404,-0.92774 1.40786,-0.61848 2.72215,-1.40787 3.94287,-2.36816 l 0,-20.36133 4.58985,0 z"
         style="fill:none;stroke:#000000;stroke-opacity:1"
         id="path3047" />
      <path
         d="m 862.61572,236.83871 -0.24414,0 c -0.68361,-0.16273 -1.34686,-0.28073 -1.98974,-0.354 -0.64293,-0.0732 -1.40383,-0.10984 -2.28272,-0.10986 -1.41603,2e-5 -2.78322,0.31333 -4.10156,0.93994 -1.31837,0.62665 -2.5879,1.43638 -3.8086,2.4292 l 0,19.36035 -4.58984,0 0,-27.27051 4.58984,0 0,4.02832 c 1.82291,-1.46482 3.43017,-2.50241 4.82178,-3.11279 1.39159,-0.61033 2.81167,-0.9155 4.26026,-0.91553 0.7975,3e-5 1.3753,0.0204 1.73339,0.061 0.35806,0.0407 0.89517,0.11803 1.61133,0.23193 z"
         style="fill:none;stroke:#000000;stroke-opacity:1"
         id="path3049" />
      <path
         d="m 907.3667,259.10434 -4.58984,0 0,-15.52734 c -3e-5,-1.25324 -0.0733,-2.42919 -0.21973,-3.52784 -0.14651,-1.09861 -0.41506,-1.95717 -0.80567,-2.57568 -0.40692,-0.68357 -0.99285,-1.1922 -1.75781,-1.52588 -0.76499,-0.33363 -1.75783,-0.50046 -2.97851,-0.50049 -1.25327,3e-5 -2.56349,0.30927 -3.93067,0.92774 -1.3672,0.61851 -2.67742,1.4079 -3.93066,2.36816 l 0,20.36133 -4.58985,0 0,-27.27051 4.58985,0 0,3.02735 c 1.43228,-1.18813 2.9134,-2.11586 4.44336,-2.78321 1.52993,-0.66729 3.10057,-1.00095 4.71191,-1.00097 2.94594,2e-5 5.19204,0.88707 6.73828,2.66113 1.5462,1.77411 2.31931,4.32945 2.31934,7.66601 z"
         style="fill:none;stroke:#000000;stroke-opacity:1"
         id="path3051" />
      <path
         d="m 939.03174,245.94516 -20.09278,0 c 0,1.67644 0.25228,3.13722 0.75684,4.38232 0.50455,1.24513 1.19628,2.26645 2.0752,3.06397 0.84634,0.78125 1.85138,1.36719 3.01513,1.75781 1.16373,0.39063 2.44546,0.58594 3.84522,0.58594 1.85545,0 3.72312,-0.37028 5.60302,-1.11084 1.87986,-0.74056 3.21857,-1.46891 4.01612,-2.18506 l 0.24414,0 0,5.00488 c -1.54625,0.65105 -3.12502,1.19629 -4.73633,1.63575 -1.61135,0.43945 -3.30405,0.65917 -5.07812,0.65918 -4.52476,-10e-6 -8.05665,-1.22478 -10.59571,-3.67432 -2.53906,-2.44954 -3.80859,-5.92854 -3.80859,-10.43701 0,-4.45962 1.21663,-7.99966 3.6499,-10.62012 2.43326,-2.62042 5.63557,-3.93064 9.60693,-3.93066 3.67837,2e-5 6.51447,1.07424 8.50831,3.22265 1.99378,2.14846 2.99069,5.20022 2.99072,9.15528 z m -4.46778,-3.51563 c -0.0163,-2.40883 -0.62258,-4.27244 -1.81884,-5.59082 -1.19631,-1.31833 -3.01516,-1.97751 -5.45655,-1.97753 -2.45769,2e-5 -4.41488,0.7243 -5.87158,2.17285 -1.45671,1.44859 -2.28272,3.24709 -2.47803,5.3955 z"
         style="fill:none;stroke:#000000;stroke-opacity:1"
         id="path3053" />
      <path
         d="m 980.2915,231.83383 -7.10449,27.27051 -4.24805,0 -7.00683,-21.02051 -6.95801,21.02051 -4.22363,0 -7.17774,-27.27051 4.78516,0 5.00488,21.11817 6.81153,-21.11817 3.78418,0 6.98242,21.11817 4.73633,-21.11817 z"
         style="fill:none;stroke:#000000;stroke-opacity:1"
         id="path3055" />
      <path
         d="m 297.69873,321.60434 -4.58984,0 0,-2.85645 c -1.31838,1.13933 -2.69371,2.02637 -4.12598,2.66114 -1.43231,0.63476 -2.98667,0.95214 -4.66309,0.95215 -3.25521,-10e-6 -5.83903,-1.25326 -7.75146,-3.75977 -1.91244,-2.5065 -2.86866,-5.98144 -2.86865,-10.4248 -10e-6,-2.31119 0.32958,-4.3701 0.98877,-6.17676 0.65917,-1.80662 1.55028,-3.34471 2.67334,-4.61426 1.10676,-1.23695 2.39663,-2.18096 3.86963,-2.83203 1.47297,-0.65102 2.99884,-0.97654 4.57763,-0.97656 1.43228,2e-5 2.70181,0.15058 3.8086,0.45166 1.10675,0.30113 2.27048,0.76907 3.49121,1.4038 l 0,-11.8164 4.58984,0 z m -4.58984,-6.71387 0,-15.64941 c -1.237,-0.55336 -2.34377,-0.93585 -3.32032,-1.14746 -0.97658,-0.21157 -2.04266,-0.31736 -3.19824,-0.31739 -2.57163,3e-5 -4.57358,0.89521 -6.00586,2.68555 -1.4323,1.79039 -2.14844,4.32945 -2.14843,7.61719 -10e-6,3.23894 0.55337,5.70069 1.66015,7.38525 1.10676,1.68458 2.88085,2.52686 5.32227,2.52686 1.30206,0 2.62042,-0.2889 3.95508,-0.8667 1.33461,-0.5778 2.57973,-1.32242 3.73535,-2.23389 z"
         style="fill:none;stroke:#000000;stroke-opacity:1"
         id="path3057" />
      <path
         d="m 323.74854,299.33871 -0.24415,0 c -0.68361,-0.16273 -1.34686,-0.28073 -1.98974,-0.354 -0.64292,-0.0732 -1.40383,-0.10984 -2.28272,-0.10986 -1.41603,2e-5 -2.78321,0.31333 -4.10156,0.93994 -1.31837,0.62665 -2.5879,1.43638 -3.80859,2.4292 l 0,19.36035 -4.58985,0 0,-27.27051 4.58985,0 0,4.02832 c 1.8229,-1.46482 3.43016,-2.50241 4.82177,-3.11279 1.39159,-0.61033 2.81167,-0.9155 4.26026,-0.91553 0.79751,3e-5 1.3753,0.0204 1.7334,0.061 0.35805,0.0407 0.89516,0.11803 1.61133,0.23193 z"
         style="fill:none;stroke:#000000;stroke-opacity:1"
         id="path3059" />
      <path
         d="m 349.31006,321.60434 -4.56543,0 0,-2.90527 c -0.40692,0.27669 -0.95624,0.66325 -1.64795,1.15966 -0.69175,0.49642 -1.36314,0.89112 -2.01416,1.18409 -0.76499,0.37435 -1.6439,0.68766 -2.63672,0.93994 -0.99285,0.25228 -2.15659,0.37841 -3.49121,0.37842 -2.45769,-10e-6 -4.54102,-0.81381 -6.25,-2.44141 -1.70899,-1.6276 -2.56348,-3.70279 -2.56348,-6.22559 0,-2.06704 0.44352,-3.73941 1.33057,-5.01709 0.88704,-1.27765 2.1525,-2.2827 3.79639,-3.01513 1.66014,-0.73241 3.65396,-1.22883 5.98144,-1.48926 2.32746,-0.2604 4.82583,-0.45571 7.49512,-0.58594 l 0,-0.70801 c -2e-5,-1.04164 -0.18313,-1.90427 -0.54932,-2.58789 -0.36623,-0.68357 -0.89113,-1.22068 -1.5747,-1.61133 -0.65106,-0.37432 -1.43231,-0.6266 -2.34375,-0.75683 -0.91148,-0.13019 -1.86363,-0.19529 -2.85645,-0.19531 -1.20444,2e-5 -2.54721,0.15871 -4.02832,0.47607 -1.48113,0.31741 -3.01107,0.7772 -4.58984,1.3794 l -0.24414,0 0,-4.66309 c 0.89517,-0.24411 2.18912,-0.51267 3.88183,-0.80566 1.6927,-0.29295 3.36099,-0.43943 5.00488,-0.43946 1.92056,3e-5 3.59292,0.15872 5.01709,0.47608 1.42414,0.31741 2.65705,0.85858 3.69873,1.62353 1.02537,0.74872 1.80662,1.71715 2.34375,2.90527 0.53709,1.18818 0.80564,2.66116 0.80567,4.41895 z m -4.56543,-6.71387 0,-7.59277 c -1.39976,0.0814 -3.04771,0.20346 -4.94385,0.36621 -1.89617,0.16277 -3.39764,0.39878 -4.50439,0.70801 -1.31837,0.37436 -2.38445,0.95623 -3.19825,1.7456 -0.81381,0.7894 -1.22071,1.87583 -1.2207,3.25928 -10e-6,1.56251 0.472,2.73845 1.41602,3.52783 0.944,0.78939 2.38443,1.18409 4.32129,1.18408 1.61131,1e-5 3.08429,-0.31331 4.41894,-0.93994 1.33462,-0.62662 2.5716,-1.37939 3.71094,-2.2583 z"
         style="fill:none;stroke:#000000;stroke-opacity:1"
         id="path3061" />
      <path
         d="m 392.49854,294.33383 -7.1045,27.27051 -4.24804,0 -7.00684,-21.02051 -6.95801,21.02051 -4.22363,0 -7.17773,-27.27051 4.78515,0 5.00488,21.11817 6.81153,-21.11817 3.78418,0 6.98242,21.11817 4.73633,-21.11817 z"
         style="fill:none;stroke:#000000;stroke-opacity:1"
         id="path3063" />
      <path
         d="m 404.04639,289.7684 -5.17578,0 0,-4.76074 5.17578,0 z m -0.29297,31.83594 -4.58985,0 0,-27.27051 4.58985,0 z"
         style="fill:none;stroke:#000000;stroke-opacity:1"
         id="path3065" />
      <path
         d="m 435.4917,321.60434 -4.58984,0 0,-15.52734 c -3e-5,-1.25324 -0.0733,-2.42919 -0.21973,-3.52784 -0.14651,-1.09861 -0.41506,-1.95717 -0.80567,-2.57568 -0.40692,-0.68357 -0.99285,-1.1922 -1.75781,-1.52588 -0.76499,-0.33363 -1.75783,-0.50046 -2.97851,-0.50049 -1.25327,3e-5 -2.56349,0.30927 -3.93067,0.92774 -1.3672,0.61851 -2.67742,1.4079 -3.93066,2.36816 l 0,20.36133 -4.58985,0 0,-27.27051 4.58985,0 0,3.02735 c 1.43228,-1.18813 2.9134,-2.11586 4.44336,-2.78321 1.52993,-0.66729 3.10057,-1.00095 4.71191,-1.00097 2.94594,2e-5 5.19204,0.88707 6.73828,2.66113 1.5462,1.77411 2.31931,4.32945 2.31934,7.66601 z"
         style="fill:none;stroke:#000000;stroke-opacity:1"
         id="path3067" />
      <path
         d="m 466.44873,318.50375 c -3e-5,4.6224 -1.04983,8.01595 -3.14941,10.18067 -2.09963,2.1647 -5.33043,3.24706 -9.69239,3.24707 -1.44858,-10e-6 -2.86052,-0.10174 -4.23584,-0.30518 -1.37533,-0.20346 -2.73031,-0.49236 -4.06494,-0.8667 l 0,-4.6875 0.24414,0 c 0.74869,0.29297 1.93684,0.65511 3.56446,1.08643 1.62759,0.43131 3.25519,0.64697 4.88281,0.64697 1.56248,0 2.85643,-0.18718 3.88183,-0.56152 1.02538,-0.37436 1.8229,-0.89519 2.39258,-1.5625 0.56964,-0.63477 0.97654,-1.39974 1.22071,-2.29492 0.24411,-0.89519 0.36618,-1.89616 0.36621,-3.00293 l 0,-2.49024 c -1.38349,1.10678 -2.70591,1.93278 -3.96729,2.47803 -1.26141,0.54525 -2.86867,0.81787 -4.82178,0.81787 -3.25521,0 -5.83903,-1.17594 -7.75146,-3.52783 -1.91244,-2.35188 -2.86866,-5.66812 -2.86865,-9.94873 -10e-6,-2.34374 0.32958,-4.36603 0.98877,-6.0669 0.65917,-1.70082 1.55842,-3.16973 2.69775,-4.40673 1.05794,-1.15558 2.34374,-2.05483 3.85742,-2.69776 1.51366,-0.64287 3.01919,-0.96433 4.5166,-0.96435 1.57876,2e-5 2.90119,0.15872 3.96729,0.47607 1.06606,0.31741 2.19317,0.80162 3.38135,1.45264 l 0.29297,-1.17188 4.29687,0 z m -4.58984,-4.39453 0,-14.86816 c -1.22073,-0.55336 -2.35598,-0.94806 -3.40577,-1.18408 -1.04982,-0.23598 -2.09555,-0.35398 -3.1372,-0.35401 -2.5228,3e-5 -4.50848,0.84638 -5.95703,2.53906 -1.44858,1.69273 -2.17286,4.15041 -2.17285,7.37305 -10e-6,3.05991 0.5371,5.37924 1.61132,6.95801 1.07421,1.57878 2.85644,2.36817 5.34668,2.36816 1.33462,10e-6 2.67333,-0.25634 4.01612,-0.76904 1.34275,-0.51269 2.57566,-1.20035 3.69873,-2.06299 z"
         style="fill:none;stroke:#000000;stroke-opacity:1"
         id="path3069" />
      <path
         d="m 532.85498,321.60434 -4.58984,0 0,-15.52734 c -4e-5,-1.17186 -0.0529,-2.30305 -0.15869,-3.39356 -0.10584,-1.09047 -0.32963,-1.96124 -0.67139,-2.6123 -0.37439,-0.69985 -0.9115,-1.22882 -1.61133,-1.58692 -0.69991,-0.35805 -1.70902,-0.53708 -3.02734,-0.53711 -1.28584,3e-5 -2.57165,0.32148 -3.85743,0.96436 -1.28583,0.64292 -2.57164,1.46079 -3.85742,2.45361 0.0488,0.37437 0.0895,0.80975 0.12207,1.30615 0.0325,0.49644 0.0488,0.98879 0.0488,1.47705 l 0,17.45606 -4.58984,0 0,-15.52734 c -2e-5,-1.20441 -0.0529,-2.34781 -0.15869,-3.43018 -0.10582,-1.08234 -0.32962,-1.94904 -0.67139,-2.6001 -0.37437,-0.69985 -0.91148,-1.22475 -1.61133,-1.5747 -0.69989,-0.34992 -1.709,-0.52488 -3.02734,-0.52491 -1.25327,3e-5 -2.5106,0.30927 -3.77198,0.92774 -1.2614,0.61851 -2.51872,1.4079 -3.77197,2.36816 l 0,20.36133 -4.58984,0 0,-27.27051 4.58984,0 0,3.02735 c 1.43228,-1.18813 2.8605,-2.11586 4.28467,-2.78321 1.42414,-0.66729 2.94188,-1.00095 4.55322,-1.00097 1.85545,2e-5 3.43016,0.39065 4.72412,1.17187 1.29393,0.78128 2.25828,1.86363 2.89307,3.24707 1.85544,-1.56247 3.54815,-2.68959 5.07813,-3.38135 1.52991,-0.6917 3.16565,-1.03757 4.90722,-1.03759 2.99476,2e-5 5.20423,0.90741 6.62842,2.72216 1.42411,1.81481 2.13619,4.3498 2.13623,7.60498 z"
         style="fill:none;stroke:#000000;stroke-opacity:1"
         id="path3071" />
      <path
         d="m 562.88428,321.60434 -4.56543,0 0,-2.90527 c -0.40692,0.27669 -0.95624,0.66325 -1.64795,1.15966 -0.69175,0.49642 -1.36314,0.89112 -2.01416,1.18409 -0.76499,0.37435 -1.6439,0.68766 -2.63672,0.93994 -0.99285,0.25228 -2.15659,0.37841 -3.49121,0.37842 -2.45769,-10e-6 -4.54102,-0.81381 -6.25,-2.44141 -1.70899,-1.6276 -2.56348,-3.70279 -2.56348,-6.22559 0,-2.06704 0.44352,-3.73941 1.33057,-5.01709 0.88704,-1.27765 2.1525,-2.2827 3.79639,-3.01513 1.66014,-0.73241 3.65396,-1.22883 5.98144,-1.48926 2.32746,-0.2604 4.82583,-0.45571 7.49512,-0.58594 l 0,-0.70801 c -2e-5,-1.04164 -0.18313,-1.90427 -0.54932,-2.58789 -0.36623,-0.68357 -0.89113,-1.22068 -1.57471,-1.61133 -0.65106,-0.37432 -1.43231,-0.6266 -2.34375,-0.75683 -0.91147,-0.13019 -1.86362,-0.19529 -2.85644,-0.19531 -1.20444,2e-5 -2.54721,0.15871 -4.02832,0.47607 -1.48113,0.31741 -3.01108,0.7772 -4.58985,1.3794 l -0.24414,0 0,-4.66309 c 0.89518,-0.24411 2.18912,-0.51267 3.88184,-0.80566 1.6927,-0.29295 3.36099,-0.43943 5.00488,-0.43946 1.92056,3e-5 3.59292,0.15872 5.01709,0.47608 1.42414,0.31741 2.65705,0.85858 3.69873,1.62353 1.02537,0.74872 1.80662,1.71715 2.34375,2.90527 0.53709,1.18818 0.80564,2.66116 0.80567,4.41895 z m -4.56543,-6.71387 0,-7.59277 c -1.39976,0.0814 -3.04771,0.20346 -4.94385,0.36621 -1.89617,0.16277 -3.39764,0.39878 -4.50439,0.70801 -1.31837,0.37436 -2.38445,0.95623 -3.19825,1.7456 -0.81381,0.7894 -1.22071,1.87583 -1.2207,3.25928 -10e-6,1.56251 0.472,2.73845 1.41602,3.52783 0.944,0.78939 2.38442,1.18409 4.32128,1.18408 1.61132,1e-5 3.0843,-0.31331 4.41895,-0.93994 1.33462,-0.62662 2.57159,-1.37939 3.71094,-2.2583 z"
         style="fill:none;stroke:#000000;stroke-opacity:1"
         id="path3073" />
      <path
         d="m 591.93701,319.89536 c -1.52997,0.73242 -2.9826,1.30208 -4.35791,1.70898 -1.37534,0.4069 -2.83612,0.61035 -4.38232,0.61035 -1.96942,0 -3.77606,-0.2889 -5.41992,-0.8667 -1.64389,-0.5778 -3.05177,-1.45263 -4.22364,-2.62451 -1.18815,-1.17187 -2.10775,-2.65299 -2.75879,-4.44336 -0.65104,-1.79035 -0.97656,-3.88182 -0.97656,-6.27441 0,-4.45962 1.22477,-7.95897 3.67432,-10.49805 2.44953,-2.53904 5.68439,-3.80857 9.70459,-3.80859 1.56248,2e-5 3.0965,0.21975 4.60205,0.65918 1.50551,0.43948 2.8849,0.97658 4.13818,1.61132 l 0,5.10254 -0.24414,0 c -1.39976,-1.09047 -2.84426,-1.92869 -4.3335,-2.51465 -1.48927,-0.58591 -2.94191,-0.87888 -4.35791,-0.8789 -2.60417,2e-5 -4.65902,0.87486 -6.16455,2.62451 -1.50554,1.74969 -2.2583,4.31724 -2.2583,7.70264 0,3.28777 0.73649,5.81462 2.20948,7.58056 1.47297,1.76596 3.54409,2.64893 6.21337,2.64893 0.92772,0 1.87173,-0.12207 2.83204,-0.36621 0.96026,-0.24414 1.82289,-0.56152 2.58789,-0.95215 0.66729,-0.34179 1.29392,-0.70393 1.87988,-1.08643 0.58591,-0.38248 1.04978,-0.71207 1.3916,-0.98877 l 0.24414,0 z"
         style="fill:none;stroke:#000000;stroke-opacity:1"
         id="path3075" />
      <path
         d="m 620.64795,321.60434 -4.58984,0 0,-15.52734 c -3e-5,-1.25324 -0.0733,-2.42919 -0.21973,-3.52784 -0.14651,-1.09861 -0.41506,-1.95717 -0.80567,-2.57568 -0.40692,-0.68357 -0.99285,-1.1922 -1.75781,-1.52588 -0.76499,-0.33363 -1.75783,-0.50046 -2.97851,-0.50049 -1.25327,3e-5 -2.56349,0.30927 -3.93067,0.92774 -1.3672,0.61851 -2.67742,1.4079 -3.93066,2.36816 l 0,20.36133 -4.58985,0 0,-37.98828 4.58985,0 0,13.74512 c 1.43228,-1.18813 2.9134,-2.11586 4.44336,-2.78321 1.52993,-0.66729 3.10057,-1.00095 4.71191,-1.00097 2.94594,2e-5 5.19204,0.88707 6.73828,2.66113 1.5462,1.77411 2.31931,4.32945 2.31934,7.66601 z"
         style="fill:none;stroke:#000000;stroke-opacity:1"
         id="path3077" />
      <path
         d="m 634.41748,289.7684 -5.17578,0 0,-4.76074 5.17578,0 z m -0.29297,31.83594 -4.58984,0 0,-27.27051 4.58984,0 z"
         style="fill:none;stroke:#000000;stroke-opacity:1"
         id="path3079" />
      <path
         d="m 665.86279,321.60434 -4.58984,0 0,-15.52734 c -2e-5,-1.25324 -0.0733,-2.42919 -0.21973,-3.52784 -0.1465,-1.09861 -0.41506,-1.95717 -0.80566,-2.57568 -0.40692,-0.68357 -0.99286,-1.1922 -1.75781,-1.52588 -0.765,-0.33363 -1.75783,-0.50046 -2.97852,-0.50049 -1.25327,3e-5 -2.56349,0.30927 -3.93066,0.92774 -1.3672,0.61851 -2.67742,1.4079 -3.93067,2.36816 l 0,20.36133 -4.58984,0 0,-27.27051 4.58984,0 0,3.02735 c 1.43228,-1.18813 2.9134,-2.11586 4.44336,-2.78321 1.52993,-0.66729 3.10057,-1.00095 4.71192,-1.00097 2.94594,2e-5 5.19203,0.88707 6.73828,2.66113 1.54619,1.77411 2.31931,4.32945 2.31933,7.66601 z"
         style="fill:none;stroke:#000000;stroke-opacity:1"
         id="path3081" />
      <path
         d="m 697.52783,308.44516 -20.09277,0 c -10e-6,1.67644 0.25227,3.13722 0.75683,4.38232 0.50455,1.24513 1.19628,2.26645 2.0752,3.06397 0.84634,0.78125 1.85139,1.36719 3.01514,1.75781 1.16372,0.39063 2.44546,0.58594 3.84521,0.58594 1.85545,0 3.72313,-0.37028 5.60303,-1.11084 1.87986,-0.74056 3.21856,-1.46891 4.01611,-2.18506 l 0.24414,0 0,5.00488 c -1.54625,0.65105 -3.12502,1.19629 -4.73633,1.63575 -1.61134,0.43945 -3.30405,0.65917 -5.07812,0.65918 -4.52475,-10e-6 -8.05665,-1.22478 -10.5957,-3.67432 -2.53907,-2.44954 -3.8086,-5.92854 -3.8086,-10.43701 0,-4.45962 1.21663,-7.99966 3.6499,-10.62012 2.43326,-2.62042 5.63557,-3.93064 9.60694,-3.93066 3.67836,2e-5 6.51446,1.07424 8.5083,3.22265 1.99379,2.14846 2.99069,5.20022 2.99072,9.15528 z m -4.46777,-3.51563 c -0.0163,-2.40883 -0.62258,-4.27244 -1.81885,-5.59082 -1.19631,-1.31833 -3.01515,-1.97751 -5.45654,-1.97753 -2.4577,2e-5 -4.41489,0.7243 -5.87158,2.17285 -1.45672,1.44859 -2.28273,3.24709 -2.47803,5.3955 z"
         style="fill:none;stroke:#000000;stroke-opacity:1"
         id="path3083" />
      <path
         d="m 745.30615,307.98129 c -3e-5,4.44337 -1.13935,7.95085 -3.41797,10.52246 -2.27866,2.57162 -5.33042,3.85742 -9.15527,3.85743 -3.85743,-10e-6 -6.92139,-1.28581 -9.19189,-3.85743 -2.27052,-2.57161 -3.40577,-6.07909 -3.40577,-10.52246 0,-4.44334 1.13525,-7.95489 3.40577,-10.53467 2.2705,-2.57972 5.33446,-3.8696 9.19189,-3.86962 3.82485,2e-5 6.87661,1.2899 9.15527,3.86962 2.27862,2.57978 3.41794,6.09133 3.41797,10.53467 z m -4.73633,0 c -2e-5,-3.53188 -0.69175,-6.15639 -2.07519,-7.87353 -1.38348,-1.7171 -3.30406,-2.57566 -5.76172,-2.57569 -2.49025,3e-5 -4.42302,0.85859 -5.79834,2.57569 -1.37533,1.71714 -2.063,4.34165 -2.06299,7.87353 -10e-6,3.41798 0.69173,6.00994 2.0752,7.77588 1.38345,1.76596 3.31216,2.64893 5.78613,2.64893 2.44139,0 4.35789,-0.87484 5.74951,-2.62451 1.39158,-1.74967 2.08738,-4.34977 2.0874,-7.8003 z"
         style="fill:none;stroke:#000000;stroke-opacity:1"
         id="path3085" />
      <path
         d="m 776.01904,294.33383 -11.03515,27.27051 -4.61426,0 -10.96192,-27.27051 4.98047,0 8.44727,21.7041 8.37402,-21.7041 z"
         style="fill:none;stroke:#000000;stroke-opacity:1"
         id="path3087" />
      <path
         d="m 804.85205,308.44516 -20.09277,0 c -10e-6,1.67644 0.25227,3.13722 0.75683,4.38232 0.50455,1.24513 1.19628,2.26645 2.0752,3.06397 0.84634,0.78125 1.85139,1.36719 3.01514,1.75781 1.16372,0.39063 2.44546,0.58594 3.84521,0.58594 1.85545,0 3.72312,-0.37028 5.60303,-1.11084 1.87986,-0.74056 3.21856,-1.46891 4.01611,-2.18506 l 0.24414,0 0,5.00488 c -1.54625,0.65105 -3.12502,1.19629 -4.73633,1.63575 -1.61135,0.43945 -3.30405,0.65917 -5.07812,0.65918 -4.52475,-10e-6 -8.05665,-1.22478 -10.5957,-3.67432 -2.53907,-2.44954 -3.8086,-5.92854 -3.8086,-10.43701 0,-4.45962 1.21663,-7.99966 3.6499,-10.62012 2.43326,-2.62042 5.63557,-3.93064 9.60694,-3.93066 3.67836,2e-5 6.51446,1.07424 8.5083,3.22265 1.99379,2.14846 2.99069,5.20022 2.99072,9.15528 z m -4.46777,-3.51563 c -0.0163,-2.40883 -0.62258,-4.27244 -1.81885,-5.59082 -1.19631,-1.31833 -3.01516,-1.97751 -5.45654,-1.97753 -2.4577,2e-5 -4.41489,0.7243 -5.87159,2.17285 -1.45671,1.44859 -2.28272,3.24709 -2.47802,5.3955 z"
         style="fill:none;stroke:#000000;stroke-opacity:1"
         id="path3089" />
      <path
         d="m 828.82666,299.33871 -0.24414,0 c -0.68361,-0.16273 -1.34686,-0.28073 -1.98975,-0.354 -0.64292,-0.0732 -1.40382,-0.10984 -2.28271,-0.10986 -1.41603,2e-5 -2.78322,0.31333 -4.10156,0.93994 -1.31837,0.62665 -2.5879,1.43638 -3.8086,2.4292 l 0,19.36035 -4.58984,0 0,-27.27051 4.58984,0 0,4.02832 c 1.82291,-1.46482 3.43017,-2.50241 4.82178,-3.11279 1.39159,-0.61033 2.81167,-0.9155 4.26025,-0.91553 0.79751,3e-5 1.37531,0.0204 1.7334,0.061 0.35805,0.0407 0.89516,0.11803 1.61133,0.23193 z"
         style="fill:none;stroke:#000000;stroke-opacity:1"
         id="path3091" />
      <path
         d="m 837.83545,321.60434 -4.58984,0 0,-37.98828 4.58984,0 z"
         style="fill:none;stroke:#000000;stroke-opacity:1"
         id="path3093" />
      <path
         d="m 870.01318,307.98129 c -2e-5,4.44337 -1.13935,7.95085 -3.41797,10.52246 -2.27866,2.57162 -5.33042,3.85742 -9.15527,3.85743 -3.85743,-10e-6 -6.92139,-1.28581 -9.19189,-3.85743 -2.27051,-2.57161 -3.40577,-6.07909 -3.40576,-10.52246 -1e-5,-4.44334 1.13525,-7.95489 3.40576,-10.53467 2.2705,-2.57972 5.33446,-3.8696 9.19189,-3.86962 3.82485,2e-5 6.87661,1.2899 9.15527,3.86962 2.27862,2.57978 3.41795,6.09133 3.41797,10.53467 z m -4.73632,0 c -3e-5,-3.53188 -0.69176,-6.15639 -2.0752,-7.87353 -1.38348,-1.7171 -3.30405,-2.57566 -5.76172,-2.57569 -2.49025,3e-5 -4.42302,0.85859 -5.79834,2.57569 -1.37533,1.71714 -2.06299,4.34165 -2.06299,7.87353 0,3.41798 0.69173,6.00994 2.0752,7.77588 1.38345,1.76596 3.31216,2.64893 5.78613,2.64893 2.44139,0 4.35789,-0.87484 5.74951,-2.62451 1.39158,-1.74967 2.08738,-4.34977 2.08741,-7.8003 z"
         style="fill:none;stroke:#000000;stroke-opacity:1"
         id="path3095" />
      <path
         d="m 894.15869,299.33871 -0.24414,0 c -0.68361,-0.16273 -1.34686,-0.28073 -1.98975,-0.354 -0.64292,-0.0732 -1.40382,-0.10984 -2.28271,-0.10986 -1.41603,2e-5 -2.78322,0.31333 -4.10156,0.93994 -1.31837,0.62665 -2.5879,1.43638 -3.8086,2.4292 l 0,19.36035 -4.58984,0 0,-27.27051 4.58984,0 0,4.02832 c 1.82291,-1.46482 3.43017,-2.50241 4.82178,-3.11279 1.39159,-0.61033 2.81167,-0.9155 4.26025,-0.91553 0.79751,3e-5 1.37531,0.0204 1.7334,0.061 0.35806,0.0407 0.89516,0.11803 1.61133,0.23193 z"
         style="fill:none;stroke:#000000;stroke-opacity:1"
         id="path3097" />
      <path
         d="m 920.64795,321.60434 -4.58984,0 0,-2.85645 c -1.31838,1.13933 -2.69371,2.02637 -4.12598,2.66114 -1.43231,0.63476 -2.98667,0.95214 -4.66309,0.95215 -3.25522,-10e-6 -5.83903,-1.25326 -7.75146,-3.75977 -1.91244,-2.5065 -2.86866,-5.98144 -2.86865,-10.4248 -10e-6,-2.31119 0.32958,-4.3701 0.98877,-6.17676 0.65917,-1.80662 1.55028,-3.34471 2.67334,-4.61426 1.10676,-1.23695 2.39663,-2.18096 3.86962,-2.83203 1.47297,-0.65102 2.99885,-0.97654 4.57764,-0.97656 1.43228,2e-5 2.70181,0.15058 3.80859,0.45166 1.10676,0.30113 2.27049,0.76907 3.49122,1.4038 l 0,-11.8164 4.58984,0 z m -4.58984,-6.71387 0,-15.64941 c -1.237,-0.55336 -2.34377,-0.93585 -3.32032,-1.14746 -0.97658,-0.21157 -2.04266,-0.31736 -3.19824,-0.31739 -2.57163,3e-5 -4.57358,0.89521 -6.00586,2.68555 -1.4323,1.79039 -2.14844,4.32945 -2.14844,7.61719 0,3.23894 0.55338,5.70069 1.66016,7.38525 1.10676,1.68458 2.88085,2.52686 5.32227,2.52686 1.30206,0 2.62042,-0.2889 3.95507,-0.8667 1.33462,-0.5778 2.57974,-1.32242 3.73536,-2.23389 z"
         style="fill:none;stroke:#000000;stroke-opacity:1"
         id="path3099" />
      <path
         d="m 949.16357,313.74301 c -2e-5,2.49024 -1.02948,4.53288 -3.08837,6.12793 -2.05894,1.59505 -4.87063,2.39258 -8.43506,2.39258 -2.01824,0 -3.86964,-0.24007 -5.5542,-0.72022 -1.68458,-0.48014 -3.09652,-1.00504 -4.23584,-1.5747 l 0,-5.15137 0.24414,0 c 1.44856,1.0905 3.05989,1.9572 4.83398,2.6001 1.77408,0.64291 3.47493,0.96436 5.10254,0.96435 2.01822,10e-6 3.59699,-0.32551 4.73633,-0.97656 1.1393,-0.65104 1.70896,-1.67643 1.70898,-3.07617 -2e-5,-1.07421 -0.30926,-1.88801 -0.92773,-2.44141 -0.61851,-0.55337 -1.80666,-1.02538 -3.56445,-1.41601 -0.65106,-0.14648 -1.50148,-0.31737 -2.55127,-0.5127 -1.04982,-0.1953 -2.00604,-0.40689 -2.86866,-0.63476 -2.39258,-0.63476 -4.08936,-1.56656 -5.09033,-2.79541 -1.00098,-1.22883 -1.50146,-2.73843 -1.50146,-4.52881 0,-1.12303 0.23193,-2.18097 0.6958,-3.17383 0.46386,-0.99282 1.1678,-1.87986 2.11182,-2.66113 0.91145,-0.76495 2.07111,-1.37123 3.479,-1.81885 1.40787,-0.44756 2.98257,-0.67136 4.72412,-0.67139 1.62759,3e-5 3.27554,0.19941 4.94385,0.59815 1.66827,0.39879 3.0558,0.883 4.1626,1.45263 l 0,4.90723 -0.24415,0 c -1.17189,-0.86261 -2.59604,-1.59096 -4.27246,-2.18506 -1.67645,-0.59405 -3.32032,-0.89109 -4.93164,-0.89111 -1.67644,2e-5 -3.09246,0.32147 -4.24804,0.96435 -1.15561,0.64293 -1.73341,1.59915 -1.7334,2.86866 -10e-6,1.12306 0.34993,1.96942 1.0498,2.53906 0.68359,0.56968 1.79036,1.03354 3.32032,1.3916 0.84634,0.19533 1.79442,0.39064 2.84423,0.58594 1.04979,0.19533 1.92463,0.37436 2.62452,0.53711 2.13214,0.48829 3.77602,1.32651 4.93164,2.51465 1.15557,1.20443 1.73337,2.79948 1.73339,4.78515 z"
         style="fill:none;stroke:#000000;stroke-opacity:1"
         id="path3101" />
      <path
         d="m 963.25049,321.60434 -5.83496,0 0,-6.95801 5.83496,0 z"
         style="fill:none;stroke:#000000;stroke-opacity:1"
         id="path3103" />
      <path
         d="m 981.41455,321.60434 -5.83496,0 0,-6.95801 5.83496,0 z"
         style="fill:none;stroke:#000000;stroke-opacity:1"
         id="path3105" />
      <path
         d="m 999.57861,321.60434 -5.83496,0 0,-6.95801 5.83496,0 z"
         style="fill:none;stroke:#000000;stroke-opacity:1"
         id="path3107" />
    </g>
  </g>
</svg>
