<?xml version="1.0" encoding="UTF-8" standalone="no"?>
<!-- Generator: Adobe Illustrator 12.0.1, SVG Export Plug-In  -->

<svg
   xmlns:osb="http://www.openswatchbook.org/uri/2009/osb"
   xmlns:dc="http://purl.org/dc/elements/1.1/"
   xmlns:cc="http://creativecommons.org/ns#"
   xmlns:rdf="http://www.w3.org/1999/02/22-rdf-syntax-ns#"
   xmlns:svg="http://www.w3.org/2000/svg"
   xmlns="http://www.w3.org/2000/svg"
   xmlns:sodipodi="http://sodipodi.sourceforge.net/DTD/sodipodi-0.dtd"
   xmlns:inkscape="http://www.inkscape.org/namespaces/inkscape"
   version="1.0"
   width="200"
   height="30"
   viewBox="-0.826 -0.359 200 30"
   enable-background="new -0.826 -0.359 281 285"
   xml:space="preserve"
   id="svg3133"
   inkscape:version="0.48.0 r9654"
   sodipodi:docname="arm1.svg"><metadata
   id="metadata3279"><rdf:RDF><cc:Work
       rdf:about=""><dc:format>image/svg+xml</dc:format><dc:type
         rdf:resource="http://purl.org/dc/dcmitype/StillImage" /><dc:title /></cc:Work></rdf:RDF></metadata><sodipodi:namedview
   pagecolor="#ffffff"
   bordercolor="#666666"
   borderopacity="1"
   objecttolerance="10"
   gridtolerance="10"
   guidetolerance="10"
   inkscape:pageopacity="0"
   inkscape:pageshadow="2"
   inkscape:window-width="1920"
   inkscape:window-height="1153"
   id="namedview3277"
   showgrid="false"
   inkscape:zoom="7.2421053"
   inkscape:cx="99.574188"
   inkscape:cy="10.471682"
   inkscape:window-x="-4"
   inkscape:window-y="-4"
   inkscape:window-maximized="1"
   inkscape:current-layer="svg3133"
   showguides="true"
   inkscape:guide-bbox="true" />
<defs
   id="defs3135"><linearGradient
   id="linearGradient4111"
   osb:paint="solid"><stop
     style="stop-color:#000000;stop-opacity:1;"
     offset="0"
     id="stop4113" /></linearGradient>
</defs>













































<path
   style="fill:#4d4d4d;stroke:#f70000;stroke-width:0.26444861;stroke-opacity:1"
   d="M -4.5338963,28.666209 C -8.5257701,27.155533 -11.037462,24.39105 -11.806194,20.661983 c -0.416083,-2.018392 -0.393377,-10.276227 0.03334,-12.1263981 c 0.479668,-2.0797446 1.527919,-3.8616812 3.1489823,-5.3529955 C -2.938933,-2.0473284 6.5844217,-0.43481578 10.084513,6.3503288 c 0.770752,1.4941486 0.797881,1.7295778 0.891615,7.7371892 c 0.110467,7.080746 -0.09845,8.188366 -2.0257711,10.738937 c -2.9486315,3.902173 -8.86641907,5.587311 -13.4842532,3.839754 z"
   id="path3337"
   inkscape:connector-curvature="0" /><path
   style="fill:#4d4d4d;stroke:#f70000;stroke-width:0.25432411;stroke-opacity:1"
   d="m 147.64197,20.374812 c -1.52111,-0.557149 -3.39471,-2.570137 -3.8059,-4.089101 c -0.99967,-3.692674 1.9504,-7.5639271 5.75163,-7.547622 c 2.60753,0.011185 5.01881,1.699779 5.80324,4.063955 c 0.51652,1.556683 0.22993,3.818652 -0.65171,5.143777 c -1.4702,2.209783 -4.68857,3.311241 -7.09726,2.428991 z"
   id="path3341"
   inkscape:connector-curvature="0" /><path
   style="fill:#4d4d4d;stroke:#ff0000;stroke-width:0.27030903;stroke-opacity:1"
   d="m 11.240657,15.513375 c 0.06462,-4.306356 -0.02873,-6.181393 -0.363792,-7.3067917 L 10.426133,6.6926975 l 9.592023,0.1719941 C 28.941701,7.0246994 42.680871,7.669065 65.886657,9.015919 c 29.516951,1.713151 53.745193,2.830226 70.362383,3.244148 l 7.6741,0.191157 l -0.28418,1.113648 c -0.28444,1.11469 -0.10131,2.756362 0.4038,3.619864 c 0.24362,0.416511 -0.36365,0.475246 -6.48574,0.627266 c -22.49992,0.558697 -32.67903,0.853573 -59.259981,1.716675 C 47.59304,20.525656 31.836802,20.96275 18.79087,21.179433 l -7.637157,0.126843 l 0.08695,-5.792905 z"
   id="path3339"
   inkscape:connector-curvature="0" /><path
   style="fill:#d40000;fill-opacity:1;stroke:#f70000;stroke-width:0.25432411;stroke-linecap:butt;stroke-linejoin:miter;stroke-opacity:1"
   d="m 150.25411,14.542356 c 0,0.406204 -0.35469,0.735496 -0.79224,0.735496 c -0.43757,0 -0.79227,-0.329292 -0.79227,-0.735496 c 0,-0.406203 0.3547,-0.735496 0.79227,-0.735496 c 0.43755,0 0.79224,0.329293 0.79224,0.735496 z"
   id="path4181"
   inkscape:connector-curvature="0" /></svg>