<?xml version="1.0" encoding="UTF-8" standalone="no"?>
<!-- Generator: Adobe Illustrator 12.0.1, SVG Export Plug-In  -->

<svg
   xmlns:osb="http://www.openswatchbook.org/uri/2009/osb"
   xmlns:dc="http://purl.org/dc/elements/1.1/"
   xmlns:cc="http://creativecommons.org/ns#"
   xmlns:rdf="http://www.w3.org/1999/02/22-rdf-syntax-ns#"
   xmlns:svg="http://www.w3.org/2000/svg"
   xmlns="http://www.w3.org/2000/svg"
   xmlns:sodipodi="http://sodipodi.sourceforge.net/DTD/sodipodi-0.dtd"
   xmlns:inkscape="http://www.inkscape.org/namespaces/inkscape"
   version="1.0"
   width="200"
   height="30"
   viewBox="-0.826 -0.359 200 30"
   enable-background="new -0.826 -0.359 281 285"
   xml:space="preserve"
   id="svg3133"
   inkscape:version="0.48.0 r9654"
   sodipodi:docname="arm2.svg"><metadata
   id="metadata3279"><rdf:RDF><cc:Work
       rdf:about=""><dc:format>image/svg+xml</dc:format><dc:type
         rdf:resource="http://purl.org/dc/dcmitype/StillImage" /><dc:title /></cc:Work></rdf:RDF></metadata><sodipodi:namedview
   pagecolor="#ffffff"
   bordercolor="#666666"
   borderopacity="1"
   objecttolerance="10"
   gridtolerance="10"
   guidetolerance="10"
   inkscape:pageopacity="0"
   inkscape:pageshadow="2"
   inkscape:window-width="1920"
   inkscape:window-height="1153"
   id="namedview3277"
   showgrid="false"
   inkscape:zoom="5.53"
   inkscape:cx="140.92617"
   inkscape:cy="15"
   inkscape:window-x="-4"
   inkscape:window-y="-4"
   inkscape:window-maximized="1"
   inkscape:current-layer="svg3133"
   showguides="true"
   inkscape:guide-bbox="true" />
<defs
   id="defs3135"><linearGradient
   id="linearGradient4111"
   osb:paint="solid"><stop
     style="stop-color:#000000;stop-opacity:1;"
     offset="0"
     id="stop4113" /></linearGradient>
</defs>













































<path
   style="fill:#4d4d4d;stroke:#f70000;stroke-width:0.25432411;stroke-opacity:1"
   d="M 1.6358032,20.374812 C 3.1569132,19.817663 5.030513,17.804675 5.441703,16.285711 C 6.441373,12.593037 3.4913032,8.7217839 -0.3099268,8.738089 c -2.60753,0.011185 -5.01881,1.699779 -5.80324,4.063955 c -0.51652,1.556683 -0.22993,3.818652 0.65171,5.143777 c 1.4702,2.209783 4.68857,3.311241 7.09726,2.428991 z"
   id="path3341"
   inkscape:connector-curvature="0" /><path
   style="fill:#d40000;fill-opacity:1;stroke:#f70000;stroke-width:0.25432411;stroke-linecap:butt;stroke-linejoin:miter;stroke-opacity:1"
   d="m -0.9763368,14.542356 c 0,0.406204 0.35469,0.735496 0.79224,0.735496 c 0.43757,0 0.79227,-0.329292 0.79227,-0.735496 c 0,-0.406203 -0.3547,-0.735496 -0.79227,-0.735496 c -0.43755,0 -0.79224,0.329293 -0.79224,0.735496 z"
   id="path4181"
   inkscape:connector-curvature="0" /><path
   style="fill:#4d4d4d;fill-opacity:1;stroke:#f70000;stroke-width:0.30312458;stroke-linecap:butt;stroke-linejoin:miter;stroke-miterlimit:4;stroke-opacity:1;stroke-dasharray:none"
   d="M 5.399558,13.209314 C 67.346596,8.0028718 129.29363,9.6111454 191.24067,12.79507 l 0,1.933139 C 129.29363,12.031612 67.346596,10.762457 5.399558,15.004372"
   id="path4186"
   inkscape:connector-curvature="0"
   sodipodi:nodetypes="cccc" /><path
   style="fill:#4d4d4d;fill-opacity:1;stroke:#f70000;stroke-width:0.30312458;stroke-linecap:butt;stroke-linejoin:miter;stroke-miterlimit:4;stroke-opacity:1;stroke-dasharray:none"
   d="M 5.3012165,15.045784 C 67.248269,20.252226 129.19531,18.643953 191.14234,15.460028 l 0,-1.933139 C 129.19531,16.223486 67.248269,17.492641 5.3012165,13.250726"
   id="path4186-8"
   inkscape:connector-curvature="0"
   sodipodi:nodetypes="cccc" /><path
   style="fill:none;stroke:#4d4d4d;stroke-width:5.40700000000000000;stroke-opacity:1;fill-opacity:0;stroke-miterlimit:4;stroke-dasharray:none"
   d="m 202.1147,23.296141 c 2.441,-0.887524 5.44765,-4.094158 6.10751,-6.513827 c 1.60422,-5.88233 -3.1299,-12.0491318 -9.22992,-12.0231584 c -4.18443,0.017825 -8.05393,2.7077023 -9.31274,6.4737714 c -0.82889,2.479754 -0.36898,6.083009 1.04583,8.193898 c 2.3593,3.520123 7.52398,5.274716 11.38932,3.869316 z"
   id="path3341-4"
   inkscape:connector-curvature="0" /><path
   style="fill:#d40000;fill-opacity:1;stroke:#f70000;stroke-width:0.40662611;stroke-linecap:butt;stroke-linejoin:miter;stroke-opacity:1"
   d="m 197.92287,14.005197 c 0,0.647072 0.56919,1.171625 1.27135,1.171625 c 0.70218,0 1.27139,-0.524553 1.27139,-1.171625 c 0,-0.64707 -0.56921,-1.171625 -1.27139,-1.171625 c -0.70216,0 -1.27135,0.524555 -1.27135,1.171625 z"
   id="path4181-9"
   inkscape:connector-curvature="0" /></svg>