<?xml version="1.0" encoding="UTF-8" standalone="no"?>
<!-- Generator: Adobe Illustrator 12.0.1, SVG Export Plug-In  -->

<svg
   xmlns:osb="http://www.openswatchbook.org/uri/2009/osb"
   xmlns:dc="http://purl.org/dc/elements/1.1/"
   xmlns:cc="http://creativecommons.org/ns#"
   xmlns:rdf="http://www.w3.org/1999/02/22-rdf-syntax-ns#"
   xmlns:svg="http://www.w3.org/2000/svg"
   xmlns="http://www.w3.org/2000/svg"
   xmlns:sodipodi="http://sodipodi.sourceforge.net/DTD/sodipodi-0.dtd"
   xmlns:inkscape="http://www.inkscape.org/namespaces/inkscape"
   version="1.0"
   width="600"
   height="120"
   viewBox="-0.826 -0.359 600 120"
   enable-background="new -0.826 -0.359 281 285"
   xml:space="preserve"
   id="svg3133"
   inkscape:version="0.48.0 r9654"
   sodipodi:docname="bot1.svg"><metadata
   id="metadata3279"><rdf:RDF><cc:Work
       rdf:about=""><dc:format>image/svg+xml</dc:format><dc:type
         rdf:resource="http://purl.org/dc/dcmitype/StillImage" /></cc:Work></rdf:RDF></metadata><sodipodi:namedview
   pagecolor="#ffffff"
   bordercolor="#666666"
   borderopacity="1"
   objecttolerance="10"
   gridtolerance="10"
   guidetolerance="10"
   inkscape:pageopacity="0"
   inkscape:pageshadow="2"
   inkscape:window-width="1920"
   inkscape:window-height="1153"
   id="namedview3277"
   showgrid="false"
   inkscape:zoom="1.8105263"
   inkscape:cx="321.91982"
   inkscape:cy="131.41689"
   inkscape:window-x="0"
   inkscape:window-y="0"
   inkscape:window-maximized="1"
   inkscape:current-layer="svg3133" />
<defs
   id="defs3135"><linearGradient
   id="linearGradient4111"
   osb:paint="solid"><stop
     style="stop-color:#000000;stop-opacity:1;"
     offset="0"
     id="stop4113" /></linearGradient>
</defs>













































<path
   style="fill:#4d4d4d;stroke:#f70000;stroke-opacity:1"
   d="M 28.648225,115.05206 C 14.169838,109.09619 5.0600174,98.197154 2.2718534,83.495228 C 0.76273643,75.537681 0.84509143,42.980991 2.3927904,35.686651 C 4.1325314,27.487213 7.9345034,20.461891 13.814042,14.582352 C 34.433103,-6.0367085 68.973973,0.32065684 81.668687,27.071233 c 2.79549,5.890711 2.89389,6.818897 3.23386,30.504028 c 0.4007,27.915994 -0.35712,32.282804 -7.3474,42.338488 C 66.860562,115.29815 45.396949,121.94184 28.648225,115.05206 z"
   id="path3337"
   inkscape:connector-curvature="0" /><path
   style="fill:#4d4d4d;stroke:#f70000;stroke-opacity:1"
   d="M 566.1798,82.363054 C 560.21475,80.166481 552.86753,72.230228 551.25499,66.241686 c -3.92019,-14.558447 7.64848,-29.820941 22.55495,-29.756658 c 10.22541,0.0441 19.68121,6.701413 22.75736,16.022228 c 2.02547,6.137253 0.90161,15.055112 -2.55569,20.279449 c -5.7654,8.712117 -18.3861,13.054636 -27.83181,9.576349 z"
   id="path3341"
   inkscape:connector-curvature="0" /><path
   style="fill:#4d4d4d;stroke:#ff0000;stroke-width:1.00636899;stroke-opacity:1"
   d="m 85.771403,63.196735 c 0.22723,-16.977902 -0.10098,-24.370272 -1.279,-28.80718 l -1.58467,-5.968526 l 33.723257,0.67809 c 31.37305,0.630834 79.67667,3.171259 161.26266,8.481259 c 103.77453,6.754134 188.95524,11.158224 247.37731,12.790123 l 26.98025,0.753637 l -0.9991,4.39058 c -1.00004,4.394693 -0.35621,10.867016 1.41963,14.271389 c 0.85659,1.64211 -1.2785,1.87367 -22.80229,2.47301 c -79.10427,2.20268 -114.89165,3.36523 -208.34389,6.76803 c -107.94789,3.93061 -163.34304,5.65386 -209.20941,6.50814 l -26.850417,0.5001 l 0.30567,-22.838652 z"
   id="path3339"
   inkscape:connector-curvature="0" /><path
   style="fill:none;stroke:#000000;stroke-width:1px;stroke-linecap:butt;stroke-linejoin:miter;stroke-opacity:1"
   d="M 41.976744,33.284884 L 574.4186,59.796512"
   id="path4153"
   inkscape:connector-curvature="0"
   transform="translate(-0.826,-0.359)"
   sodipodi:nodetypes="cc" /><path
   style="fill:none;stroke:#000000;stroke-width:1px;stroke-linecap:butt;stroke-linejoin:miter;stroke-opacity:1"
   d="M 35.348837,58.69186 L 571.10465,59.796512"
   id="path4155"
   inkscape:connector-curvature="0"
   transform="translate(-0.826,-0.359)"
   sodipodi:nodetypes="cc" /><path
   style="fill:none;stroke:#000000;stroke-width:1px;stroke-linecap:butt;stroke-linejoin:miter;stroke-opacity:1"
   d="M 40.872093,82.994186 L 573.31395,60.348837"
   id="path4157"
   inkscape:connector-curvature="0"
   transform="translate(-0.826,-0.359)"
   sodipodi:nodetypes="cc" /><path
   style="fill:none;stroke:#000000;stroke-width:1px;stroke-linecap:butt;stroke-linejoin:miter;stroke-opacity:1"
   d="M 64.069768,8.4302329 C 30.324208,33.056243 24.795793,83.682606 66.279069,109.50581"
   id="path4161"
   inkscape:connector-curvature="0"
   transform="translate(-0.826,-0.359)"
   sodipodi:nodetypes="cc" /><path
   style="fill:none;stroke:#000000;stroke-width:1px;stroke-linecap:butt;stroke-linejoin:miter;stroke-opacity:1"
   d="M 14.047394,14.975302 C 19.27409,26.475224 61.5933,61.375233 13.495065,105.00437"
   id="path4161-1"
   inkscape:connector-curvature="0"
   sodipodi:nodetypes="cc" /></svg>